<svg width="32" height="32" viewBox="0 0 32 32" fill="none" xmlns="http://www.w3.org/2000/svg">
<path d="M5.61297 5.84939L5.72389 5.72377C6.20455 5.24313 6.96085 5.20616 7.48391 5.61285L7.60952 5.72377L16 14.1133L24.3906 5.72377C24.9112 5.20308 25.7555 5.20308 26.2762 5.72377C26.7968 6.24448 26.7968 7.08869 26.2762 7.6094L17.8867 15.9999L26.2762 24.3905C26.7568 24.8711 26.7938 25.6274 26.3871 26.1505L26.2762 26.2761C25.7955 26.7567 25.0392 26.7937 24.5162 26.387L24.3906 26.2761L16 17.8866L7.60952 26.2761C7.08881 26.7967 6.2446 26.7967 5.72389 26.2761C5.2032 25.7554 5.2032 24.9111 5.72389 24.3905L14.1134 15.9999L5.72389 7.6094C5.24325 7.12875 5.20628 6.37244 5.61297 5.84939L5.72389 5.72377L5.61297 5.84939Z" fill="#212121"/>
</svg>
