<svg width="157" height="157" viewBox="0 0 157 157" fill="none" xmlns="http://www.w3.org/2000/svg">
<g filter="url(#filter0_f)">
<path d="M95.0614 29.0985C98.5136 30.7398 101.317 33.4895 103.025 36.9092L106.329 34.6086L106.741 35.2014L106.742 35.1997L107.017 35.5957L107.428 36.1867L103.808 38.7066C104.024 39.292 104.207 39.8893 104.356 40.4954L109.146 37.1602L109.558 37.7504L109.834 38.1467L109.833 38.149L110.245 38.7372L104.792 42.5375C104.872 43.1557 104.935 43.7945 104.974 44.4466C104.974 44.4881 104.982 44.5256 104.985 44.5665L111.261 40.198L112.359 41.7752L105.948 46.238C106.255 46.2564 106.561 46.2822 106.871 46.3181C107.015 46.3354 107.163 46.3573 107.309 46.3769C107.715 46.4354 108.124 46.5119 108.539 46.6038L112.678 43.7233L113.775 45.3033L110.879 47.3194C111.359 47.5078 111.828 47.7218 112.285 47.9604C112.93 48.3043 113.548 48.6955 114.134 49.1309C114.313 49.2618 114.472 49.4197 114.646 49.5596C115.041 49.8771 115.433 50.1981 115.799 50.5531C116 50.7504 116.183 50.9644 116.377 51.1723C116.688 51.5047 117 51.8386 117.288 52.1966C117.481 52.4349 117.656 52.6854 117.837 52.9326C118.018 53.1812 118.215 53.4144 118.387 53.6725C119.763 51.8441 120.771 49.7655 121.353 47.5524C122.453 43.3801 122.284 38.2926 118.584 33.4552C115.891 29.9476 112.54 27.6556 108.765 26.6445C105.9 25.9016 102.897 25.8571 100.011 26.5148C97.9855 26.9715 96.0374 27.7199 94.2275 28.7365C94.2451 28.7451 94.2632 28.7524 94.2818 28.7586C94.2877 28.7626 94.2906 28.7609 94.2943 28.7644C94.5557 28.871 94.8104 28.9824 95.0614 29.0985Z" fill="#C3AFFA"/>
<path d="M117.593 56.0598L117.537 55.9593L117.539 55.9579L117.538 55.9554C117.504 55.9015 117.499 55.8853 117.472 55.8493L117.425 55.7641C115.909 53.1493 113.831 50.9414 111.395 49.6628C110.532 49.2102 109.622 48.8549 108.68 48.6033C107.196 48.2178 105.663 48.058 104.132 48.1293L104.105 48.1316L104.104 48.1343C103.432 48.1648 102.761 48.2331 102.096 48.339C101.958 48.3604 101.824 48.3832 101.687 48.4065C101.073 48.5126 100.477 48.6367 99.9325 48.7783C99.9195 48.783 99.906 48.7853 99.8951 48.7901C99.3541 48.9326 98.8651 49.088 98.4133 49.241C98.3015 49.2796 98.1887 49.3172 98.0875 49.3556C97.6698 49.5051 97.28 49.6518 96.9683 49.7836C96.9644 49.7849 96.9639 49.7866 96.9598 49.789C97.06 49.9794 97.1318 50.1739 97.2222 50.3651C97.3069 50.5512 97.3997 50.7337 97.473 50.9186C97.5677 51.1599 97.6434 51.4016 97.7186 51.6413C97.7764 51.822 97.8447 52.0031 97.8888 52.1826C97.9588 52.4368 98.0008 52.6854 98.0495 52.9357C98.0804 53.0975 98.1204 53.2616 98.1432 53.4235C98.1871 53.6998 98.2086 53.9681 98.2283 54.2378C98.2376 54.3666 98.2561 54.5003 98.2653 54.629C98.2786 54.9537 98.2766 55.2699 98.2689 55.5809C98.2673 55.6442 98.2705 55.7117 98.2694 55.777C98.2258 56.7637 98.079 57.7431 97.8316 58.6993L104.242 54.9949L104.725 55.8304L104.846 56.0393L104.845 56.039L105.206 56.6652L98.1794 60.7198C98.3056 60.7949 98.4338 60.8717 98.5539 60.9522C98.849 61.154 99.1321 61.3727 99.4019 61.6072C99.5131 61.699 99.6371 61.7736 99.7452 61.8721L106.833 57.7755L107.194 58.3992L107.196 58.3972L107.315 58.6087L107.799 59.4435L101.07 63.326C101.079 63.336 101.083 63.3481 101.091 63.3581C101.325 63.678 101.542 64.0096 101.742 64.3517C101.837 64.5087 101.955 64.6536 102.047 64.8165L108.687 60.9787L109.162 61.8042L109.29 62.0249L109.648 62.6482L102.923 66.5304C102.99 66.6947 103.033 66.8656 103.094 67.0317C103.241 67.4141 103.367 67.8048 103.47 68.2018C103.474 68.2207 103.483 68.2386 103.487 68.2593L109.798 64.6137L110.279 65.4479L110.401 65.6577L110.758 66.2827L103.738 70.3373C103.737 70.4244 103.721 70.5116 103.718 70.5981C103.715 70.8387 103.741 71.079 103.717 71.3197C103.812 71.3309 103.926 71.3539 104.032 71.3703C104.108 71.3838 104.179 71.3943 104.259 71.4101C104.555 71.4641 104.869 71.5309 105.213 71.623C105.848 71.7936 106.471 72.0084 107.076 72.2658C107.082 72.2693 107.093 72.2747 107.101 72.2779C107.418 72.4135 107.738 72.5655 108.064 72.7341C108.121 72.7655 108.178 72.8019 108.235 72.8332C108.511 72.9824 108.786 73.14 109.061 73.3163C109.148 73.3729 109.233 73.4404 109.32 73.4986C109.566 73.6659 109.81 73.8345 110.047 74.0238C110.159 74.1122 110.264 74.2141 110.373 74.3074C110.581 74.486 110.793 74.6665 110.994 74.8662C111.117 74.9914 111.235 75.1318 111.355 75.2653C111.532 75.4561 111.709 75.6439 111.872 75.8529C112.005 76.0188 112.126 76.2049 112.25 76.3831C112.365 76.5463 112.49 76.6947 112.594 76.8668C112.604 76.8612 112.609 76.8571 112.618 76.8519C112.883 76.6501 113.196 76.3922 113.526 76.1124C113.616 76.0372 113.711 75.9542 113.803 75.8719C114.148 75.5695 114.514 75.2365 114.892 74.8568C114.915 74.8317 114.939 74.811 114.963 74.7868C115.352 74.3922 115.751 73.9453 116.143 73.4767C116.241 73.3613 116.335 73.2417 116.429 73.1235C116.849 72.6055 117.24 72.065 117.601 71.5046C117.941 70.957 118.249 70.3901 118.524 69.8067C118.591 69.6653 118.664 69.5282 118.729 69.3821C119.033 68.7097 119.283 68.0145 119.477 67.3029C119.632 66.7041 119.745 66.0951 119.816 65.4806C119.858 65.1319 119.901 64.7853 119.916 64.4262C119.965 62.2719 119.535 60.1334 118.657 58.1656C118.638 58.1214 118.61 58.0792 118.592 58.0352C118.314 57.3917 118 56.7647 117.65 56.1575L117.593 56.0598Z" fill="#6F6D69"/>
<path d="M94.7528 49.918C94.1376 49.0272 93.4007 48.2269 92.5635 47.5405C92.48 47.4732 92.39 47.4125 92.3043 47.3447C90.928 46.23 89.34 45.406 87.6363 44.9223L87.5757 44.9061C87.5526 44.8999 87.5315 44.8943 87.4849 44.8834C87.4507 44.8743 87.4363 44.8705 87.4148 44.863L87.3675 44.8503C84.4771 44.1267 81.4271 44.3984 78.7101 45.6215L78.0794 45.9224C77.8749 46.0423 77.6908 46.1788 77.5038 46.3088C75.5118 47.7754 74.0903 49.8877 73.4819 52.2853C73.412 52.5422 73.3576 52.7809 73.3143 53.0041C73.3024 53.0749 73.2901 53.1381 73.281 53.2036C73.2562 53.3352 73.2401 53.457 73.2264 53.5702C73.2209 53.6173 73.2106 53.6647 73.2075 53.7068C73.4027 53.7669 73.5841 53.8432 73.7717 53.9099C73.9169 53.963 74.0679 54.011 74.2085 54.0682C74.4715 54.1752 74.7259 54.2965 74.9751 54.4193C75.0938 54.4788 75.219 54.5312 75.3312 54.5926C75.6289 54.7502 75.9099 54.9222 76.1821 55.1003C76.2425 55.1394 76.3062 55.1747 76.3665 55.2139C76.6981 55.4381 77.0181 55.6791 77.3252 55.9359C77.4112 56.0073 77.4822 56.0906 77.5631 56.163L78.6085 52.2597L79.3014 52.4454L79.7662 52.5698L80.4633 52.7565L79.1065 57.8224C79.461 58.2802 79.7873 58.7592 80.0834 59.2568C80.2002 59.4469 80.3062 59.6375 80.413 59.829L82.4043 52.3938L83.1015 52.5805L83.5652 52.7047L84.2636 52.8917L81.6644 62.5971C81.9061 63.2591 82.105 63.8914 82.262 64.4605C82.5574 64.1684 82.8966 63.8585 83.2521 63.5435L85.9822 53.3496L86.6751 53.5353L87.1399 53.6597L87.837 53.8465L85.7518 61.6327C85.8663 61.5581 85.9881 61.4912 86.1039 61.42C86.6839 61.063 87.2866 60.7443 87.9081 60.466L89.3369 55.1312L90.033 55.3176L90.4978 55.442L91.1939 55.6285L90.1001 59.7126C90.3324 59.6563 90.5578 59.5861 90.7954 59.5453C90.9604 59.5157 91.1335 59.5036 91.3021 59.4827C91.5128 59.4536 91.723 59.4178 91.9408 59.4028C92.1445 59.3871 92.3493 59.3896 92.5548 59.3844C92.7534 59.3791 92.9522 59.3686 93.1539 59.3737C93.3395 59.3803 93.5276 59.4017 93.7153 59.4148C93.9456 59.4316 94.176 59.4491 94.4096 59.4803C94.5757 59.5035 94.7443 59.5393 94.912 59.57C95.0996 59.6054 95.286 59.6278 95.4752 59.6707C95.6667 59.2256 95.8244 58.7667 95.9467 58.2979C96.4789 56.3285 96.7305 53.2689 95.1518 50.5029L94.7528 49.918Z" fill="#C3AFFA"/>
<path d="M137.554 66.2982C136.626 63.979 135.16 61.9134 133.278 60.2713C131.395 58.6292 129.15 57.4575 126.726 56.8526C124.518 56.2502 122.214 56.0829 119.942 56.3601C121.241 58.875 121.893 61.6736 121.84 64.5037C121.837 64.6215 121.814 64.7298 121.807 64.8459L127.685 63.4709L127.853 64.1726L127.854 64.1712L127.964 64.6422L127.962 64.6417L128.126 65.3424L121.529 66.8832C121.467 67.1901 121.415 67.5026 121.336 67.7962C121.238 68.1618 121.098 68.4931 120.979 68.8402L129.361 66.885L129.525 67.5842L129.6 67.9134L129.798 68.7561L120.052 71.0324C119.946 71.2394 119.855 71.4642 119.743 71.664C120.037 71.834 120.315 72.0207 120.6 72.2002C120.807 72.3296 121.018 72.4545 121.219 72.5872L130.204 70.4845L130.645 72.3561L123.265 74.0869C123.484 74.2695 123.705 74.4555 123.877 74.632C124.201 74.9223 124.491 75.2413 124.791 75.555L130.216 74.2834L130.653 76.1562L126.187 77.2024C128.696 80.5423 129.899 84.6837 129.57 88.8482C129.569 88.852 129.569 88.8562 129.569 88.8579C129.553 89.003 129.534 89.1596 129.517 89.3109C129.503 89.4376 129.492 89.5569 129.474 89.6862L129.468 89.7097L129.463 89.7556C131.249 88.6935 132.872 87.3793 134.283 85.8537C136.289 83.6775 137.748 81.0559 138.542 78.2048C139.549 74.4322 139.243 70.3774 137.554 66.2982Z" fill="#C3AFFA"/>
<path d="M128.608 88.7661L128.612 88.7669L128.608 88.7661Z" fill="#C3AFFA"/>
<path d="M113.447 78.6286C113.463 78.67 113.47 78.717 113.484 78.7572C113.726 79.3848 113.921 80.0293 114.068 80.6854C114.095 80.7919 114.118 80.8971 114.138 81.0053C114.179 81.2034 114.224 81.3978 114.258 81.5997L120.538 83.2817L120.04 85.1393L114.452 83.6426C114.474 84.2532 114.461 84.8645 114.412 85.4735L120.406 87.0788L120.22 87.7738L120.225 87.775L120.1 88.2391L120.096 88.2379L119.909 88.9369L114.111 87.3842C114.076 87.5443 114.048 87.7099 114.008 87.8684L113.999 87.9032C113.99 87.9351 113.982 87.9659 113.975 87.9987L113.94 88.1281C113.934 88.1513 113.922 88.1759 113.917 88.1975C113.831 88.4991 113.728 88.7987 113.623 89.0986L119.452 90.6597L118.956 92.514L112.851 90.8792C112.617 91.3359 112.359 91.7785 112.083 92.2123C112.024 92.2973 111.977 92.3881 111.919 92.4735L117.664 94.0121L117.167 95.8701L110.637 94.1215C110.636 94.1253 110.635 94.1259 110.631 94.1275C110.554 94.2178 110.476 94.3038 110.394 94.3905C109.938 94.8815 109.449 95.3405 108.93 95.7642C108.895 95.7904 108.866 95.8251 108.834 95.852C108.874 95.9436 108.922 96.0579 108.965 96.1608C108.987 96.2053 109.003 96.2448 109.022 96.2923C109.128 96.5443 109.238 96.819 109.353 97.1302C109.361 97.1516 109.368 97.175 109.376 97.1965C109.475 97.4706 109.58 97.7663 109.682 98.0817C109.718 98.1888 109.752 98.3001 109.787 98.4132C109.866 98.6676 109.942 98.9349 110.016 99.2114C110.052 99.3396 110.085 99.4612 110.122 99.5931C110.22 99.9854 110.316 100.39 110.399 100.817C110.418 100.908 110.43 101.002 110.448 101.095C110.512 101.442 110.569 101.797 110.619 102.163C110.643 102.333 110.66 102.505 110.679 102.679C110.695 102.818 110.716 102.95 110.729 103.089C111.048 103.087 111.366 103.089 111.686 103.077C111.939 103.069 112.197 103.066 112.451 103.051C113.09 103.012 113.713 102.951 114.31 102.872C114.375 102.864 114.442 102.86 114.502 102.851C114.656 102.83 114.832 102.782 114.992 102.749C115.15 102.713 115.292 102.694 115.471 102.646C117.777 102.162 119.941 101.153 121.794 99.6971C123.648 98.2416 125.141 96.3787 126.158 94.253C126.264 94.0231 126.364 93.7929 126.455 93.5701C126.464 93.5459 126.471 93.5183 126.481 93.4931C126.676 92.9871 126.844 92.4706 126.982 91.946C127.012 91.8336 127.042 91.723 127.071 91.614L127.074 91.6023C127.074 91.6023 127.08 91.5679 127.109 91.4605C127.109 91.4605 127.115 91.4468 127.119 91.4344L127.238 90.9781C127.378 90.4638 127.488 89.9419 127.568 89.415C127.599 89.1807 127.629 88.9376 127.652 88.6832L127.65 88.6826C127.832 86.3225 127.466 83.9523 126.582 81.7568C125.697 79.5612 124.317 77.5995 122.55 76.0247C122.332 75.8015 122.1 75.5924 121.855 75.3987C120.859 74.6243 119.811 73.9206 118.717 73.2928C117.258 75.3432 115.479 77.145 113.447 78.6286Z" fill="#C3AFFA"/>
<path d="M103.088 73.7756C103.035 73.9215 102.987 74.0697 102.929 74.2116C102.833 74.4515 102.722 74.6814 102.61 74.9094C102.539 75.0597 102.474 75.2111 102.398 75.3542C102.287 75.5582 102.165 75.7491 102.047 75.9414C101.951 76.0928 101.867 76.2526 101.766 76.3967C101.585 76.6644 101.388 76.918 101.188 77.1656C101.145 77.2161 101.111 77.273 101.07 77.323C100.888 77.5362 100.688 77.7265 100.494 77.9246L105.224 79.1916L104.727 81.0482L98.721 79.4396C98.0476 79.917 97.3395 80.3435 96.6026 80.7155L105.092 82.989L104.905 83.6856L104.907 83.6862L104.783 84.1504L104.781 84.1498L104.593 84.8486L93.6616 81.9209C93.2723 82.048 92.8929 82.164 92.5432 82.2613C92.9935 82.7177 93.4864 83.2487 93.9777 83.8471L104.133 86.5669L103.947 87.2603L103.823 87.7251L103.635 88.4251L95.7017 86.3003C96.0202 86.8342 96.3071 87.3862 96.5611 87.9536C96.6293 88.1088 96.6937 88.2654 96.7576 88.423L102.351 89.921L101.853 91.7807L97.4117 90.5914C97.4237 90.6607 97.4488 90.7258 97.4616 90.7972C97.4723 90.872 97.4776 90.9532 97.4882 91.0279C97.5383 91.3389 97.5798 91.6509 97.6031 91.97C97.6104 92.0794 97.6065 92.191 97.6106 92.299C97.6258 92.5907 97.6347 92.8833 97.625 93.1799C97.6222 93.3267 97.604 93.4742 97.5932 93.62C97.5762 93.8822 97.5558 94.1435 97.5202 94.4085C97.4942 94.5897 97.4539 94.7713 97.4203 94.9536C97.3885 95.1251 97.3689 95.2952 97.3272 95.4687C97.3987 95.5014 97.4865 95.5351 97.5718 95.5691C97.6773 95.6115 97.7726 95.6523 97.8997 95.6976C98.1373 95.7807 98.4014 95.8656 98.6987 95.9452C100.59 96.4517 103.467 96.6875 106.137 95.3298C106.268 95.2639 106.401 95.2114 106.529 95.1372C106.601 95.0953 106.672 95.0496 106.739 95.0004C106.837 94.9294 106.951 94.8472 107.088 94.7521C109.504 93.0056 111.263 90.4972 112.081 87.6302C112.089 87.601 112.101 87.5418 112.115 87.5008L112.15 87.3708C112.875 84.48 112.605 81.4293 111.384 78.7107L112.248 78.2922L111.381 78.7033C111.254 78.4362 111.167 78.2188 111.095 78.0977C109.486 75.3274 106.697 74.0112 104.718 73.4814C104.251 73.3542 103.775 73.2618 103.294 73.2051C103.235 73.4024 103.155 73.5851 103.088 73.7756Z" fill="#C3AFFA"/>
<path d="M56.3615 37.0612C56.6344 36.9283 56.9185 36.8256 57.1941 36.7028C57.477 36.5785 57.7539 36.4484 58.0417 36.3367C58.4578 36.176 58.8782 36.0472 59.3003 35.9152C59.5894 35.8274 59.8713 35.7265 60.1637 35.6531C60.619 35.5377 61.0787 35.4661 61.5387 35.3892C61.8037 35.3456 62.0603 35.2822 62.3263 35.2519C62.9621 35.1851 63.6016 35.1588 64.2408 35.1732C64.3254 35.1746 64.4121 35.1595 64.5009 35.1632C64.7134 35.1718 64.9164 35.2071 65.1261 35.2221L63.9706 31.8846L65.7887 31.2577L67.2779 35.5532C67.4505 35.5918 67.6326 35.6169 67.8045 35.6629C68.3382 35.8099 68.864 35.9844 69.3796 36.1857L67.1889 29.8644L69.0046 29.2334L71.7427 37.1344C71.886 36.89 72.041 36.6595 72.1907 36.4221C72.326 36.2034 72.4554 35.9849 72.5969 35.7736C72.7173 35.5886 72.8414 35.4118 72.9654 35.2308L70.6849 28.654L72.5017 28.0227L74.3698 33.4196C74.459 33.3249 74.5481 33.2081 74.6326 33.1264L74.633 33.1247C74.9922 32.7268 75.3777 32.3626 75.7654 32.0043L74.4623 28.2438L76.2793 27.6168L77.3481 30.7006C77.8749 30.3192 78.4221 29.9667 78.9871 29.6446C79.0966 29.5842 79.1983 29.5087 79.3086 29.4491C79.6466 29.267 80.0037 29.1194 80.3537 28.9588C80.601 28.8461 80.8412 28.7122 81.0938 28.6104C81.263 28.543 81.4427 28.4979 81.6143 28.4347C82.6757 28.0389 83.7735 27.7487 84.8918 27.5682C85.0419 27.5461 85.1968 27.5449 85.3507 27.5259C85.8511 27.464 86.3554 27.4019 86.8606 27.3838C87.117 27.3745 87.3754 27.4011 87.6342 27.4045C88.0376 27.4097 88.444 27.4001 88.8512 27.4352L88.8546 27.4361C89.1245 27.4595 89.4012 27.4928 89.6812 27.5265C89.7058 27.5314 89.7301 27.5337 89.7514 27.5377C88.6912 25.7514 87.3769 24.1288 85.8498 22.7207C83.6776 20.7118 81.0572 19.2505 78.2064 18.4585C74.4274 17.4506 70.3791 17.757 66.2993 19.4501C63.98 20.3774 61.9143 21.8427 60.2724 23.725C58.6306 25.6074 57.4595 27.853 56.8559 30.2767C56.25 32.4843 56.0821 34.7891 56.3615 37.0612Z" fill="#C3AFFA"/>
<path d="M73.6598 38.5575C73.7889 38.6528 73.9172 38.7468 74.0437 38.8433C74.3585 39.0869 74.662 39.3334 74.949 39.5797C75.0001 39.6223 75.0528 39.6637 75.1028 39.7065C75.4387 40.0027 75.7532 40.2968 76.0516 40.5886C76.1291 40.6654 76.2013 40.7396 76.2758 40.814C76.5017 41.0416 76.7153 41.2624 76.9135 41.4789C76.9814 41.5513 77.0446 41.619 77.1071 41.69C77.348 41.9541 77.5699 42.2101 77.7666 42.4499C77.7705 42.4527 77.7727 42.4575 77.7766 42.4608C77.99 42.7174 78.174 42.9515 78.3395 43.1711C78.377 43.2207 78.4096 43.2619 78.443 43.3092C78.5068 43.3932 78.5761 43.4818 78.6296 43.5557C79.3254 43.2824 80.0417 43.0647 80.7718 42.9046L82.4045 36.8081L83.1018 36.9949L83.5643 37.1186L84.2627 37.3057L82.8428 42.6075C83.4576 42.5612 84.0746 42.5518 84.6906 42.5794L86.2015 36.9379L86.8965 37.124L87.3624 37.2488L88.0586 37.4353L86.6285 42.775C87.0416 42.8455 87.4677 42.8859 87.8658 42.9901C87.9055 42.9995 87.9444 43.0117 87.9824 43.0266C88.0143 43.0351 88.063 43.0429 88.1346 43.062C88.215 43.0835 88.2934 43.1258 88.3721 43.1492L89.7778 37.8998L90.4763 38.0868L90.9389 38.2105L91.6351 38.397L90.1845 43.8133C90.7371 44.0714 91.2736 44.3626 91.7912 44.6852L93.1315 39.6807L93.831 39.868L94.2936 39.9918L94.9897 40.1782L93.4691 45.8556C94.3509 46.5326 95.1518 47.3088 95.8561 48.1688C98.1576 47.1515 100.607 46.5104 103.112 46.2698C103.114 45.0088 103.028 43.7493 102.855 42.5003C102.805 42.1745 102.737 41.8519 102.65 41.534C102.166 39.2264 101.156 37.0615 99.6993 35.2076C98.2425 33.3537 96.3777 31.8607 94.25 30.8447C94.0255 30.7397 93.7956 30.6374 93.5721 30.5468C93.0472 30.3376 92.5098 30.1612 91.963 30.0185C91.8463 29.9873 91.7383 29.9584 91.6396 29.9349C91.6077 29.9263 91.5725 29.921 91.4888 29.8986C91.4569 29.89 91.4281 29.8782 91.4048 29.872C91.2946 29.8425 91.183 29.8098 91.0729 29.7803C90.5281 29.6304 89.9745 29.5146 89.4153 29.4336C89.1785 29.4009 88.9305 29.3752 88.6841 29.3518L88.6835 29.3539C86.3233 29.171 83.9527 29.5359 81.7567 30.4201C79.5607 31.3044 77.5986 32.684 76.0237 34.4515C75.8015 34.6698 75.5937 34.9024 75.4017 35.1478C74.6278 36.1433 73.9238 37.1913 73.295 38.2843C73.4218 38.3751 73.5365 38.4667 73.6598 38.5575Z" fill="#C3AFFA"/>
<path d="M48.151 52.2101C48.1491 52.4312 48.1238 52.6597 48.1326 52.878L48.1334 52.8995C48.1366 52.9335 48.1388 52.963 48.1422 52.9968C48.1732 53.6144 48.2366 54.2299 48.3323 54.8408C48.3591 55.0251 48.3886 55.2077 48.4191 55.3876C48.5189 55.9468 48.6296 56.4875 48.7607 56.9901C48.7891 57.0998 48.8217 57.2006 48.8509 57.3076C48.9713 57.7465 49.0958 58.1558 49.2244 58.5355C49.2743 58.6846 49.3239 58.8342 49.376 58.9746C49.5076 59.3403 49.6402 59.6851 49.7554 59.9668C49.7678 59.9955 49.7767 60.0198 49.7902 60.0463C49.9496 59.9604 50.1124 59.9013 50.2751 59.8245C50.5005 59.7195 50.7209 59.6056 50.9454 59.5171C51.1328 59.4451 51.317 59.3917 51.5007 59.3299C51.7416 59.2503 51.9793 59.1648 52.2154 59.1029C52.3878 59.0576 52.5586 59.0294 52.7276 58.9934C52.9754 58.9429 53.2202 58.8862 53.4614 58.8499C53.6233 58.8271 53.7818 58.8171 53.942 58.8009C54.1863 58.7748 54.4311 58.746 54.6722 58.7344C54.8292 58.7275 54.979 58.7344 55.1329 58.7332C55.3648 58.7311 55.5998 58.7244 55.8234 58.7332C55.9869 58.7421 56.138 58.7598 56.298 58.7724C56.502 58.7887 56.7115 58.7999 56.9067 58.825C57.0919 58.8476 57.2611 58.881 57.439 58.909C57.5926 58.9348 57.756 58.9549 57.9027 58.9847C58.2053 59.0446 58.4882 59.1121 58.7558 59.1836C58.7701 59.1874 58.7848 59.1897 58.7991 59.1935C58.9788 59.2457 59.1333 59.2948 59.2921 59.345L55.0685 52.033L55.6954 51.6714L55.6914 51.6686L55.9938 51.4981L56.7383 51.0678L60.9768 58.4102C61.173 58.1264 61.3854 57.8542 61.613 57.595C61.7539 57.4261 61.8824 57.2502 62.0344 57.0928C62.0822 57.0418 62.1247 56.9847 62.1758 56.9342L57.8491 49.4382L59.5149 48.4766L63.6826 55.6892C64.0518 55.4225 64.4351 55.1758 64.8308 54.9502L64.8812 54.9252L64.9669 54.8698C65.0401 54.8256 65.1176 54.7963 65.1916 54.7535L61.0542 47.5862L61.8884 47.1073L62.0972 46.9843L62.0968 46.986L62.722 46.6263L66.9429 53.9353C67.0164 53.9077 67.091 53.8894 67.1687 53.8635C67.4962 53.7471 67.8226 53.6261 68.1603 53.5418C68.3433 53.4976 68.5258 53.4727 68.7089 53.4372L64.6859 46.4777L66.3548 45.5135L70.8435 53.2859C71.0008 53.2933 71.1598 53.2732 71.3175 53.2884C71.3864 52.7814 71.4881 52.2795 71.6219 51.7857C72.2196 49.5713 73.6635 46.4015 76.8681 44.4059C75.3845 42.4406 73.5713 40.7475 71.5092 39.4019C70.2108 38.5672 68.794 37.9331 67.3066 37.5209C66.3667 37.267 65.4009 37.1212 64.428 37.0864C61.6771 36.9718 58.7813 37.8471 56.1701 39.3416L56.1336 39.3608L56.0594 39.4087L55.958 39.4654L55.8519 39.5268L55.7627 39.5801C55.5339 39.7137 55.328 39.8721 55.1028 40.0143C52.8572 41.3707 50.9965 43.2797 49.6981 45.5593C49.6872 45.5781 49.6724 45.5954 49.6643 45.6127C49.3062 46.3059 49.0108 47.0298 48.7816 47.7756C48.726 47.9595 48.6528 48.1401 48.6037 48.3235C48.2802 49.5931 48.1279 50.9002 48.151 52.2101Z" fill="#6F6D69"/>
<path d="M29.0973 61.9402C30.8134 58.321 33.7422 55.4167 37.3757 53.731L33.6879 49.5751L34.2289 49.0979L34.5888 48.7764L34.5901 48.7785L35.1321 48.2992L39.2817 52.9791C39.8718 52.7824 40.4723 52.6181 41.0803 52.4868C41.1201 52.4756 41.1605 52.4717 41.1997 52.4621L35.8902 46.4801L36.4317 46.0008L36.4322 45.999L36.7902 45.683L36.7923 45.6835L37.3316 45.2036L43.4625 52.1138C43.7902 52.0829 44.1134 52.0503 44.4445 52.0304C44.6901 52.0171 44.9319 52.0133 45.1797 52.0053C45.3649 51.9989 45.5466 51.9867 45.7296 51.9837L38.6634 44.0236L39.3425 43.4206L39.5584 43.2251L39.5606 43.2257L40.0998 42.7457L46.3572 49.7984C46.4452 49.1335 46.5749 48.4747 46.7456 47.8261C46.7632 47.7606 46.7932 47.6948 46.8113 47.6272L41.9956 42.2032L42.5349 41.7221L42.6251 41.6453L43.4335 40.9257L47.5669 45.5841C47.6961 45.2935 47.8094 45.005 47.9633 44.7193C49.3284 42.2403 51.2914 40.1417 53.6737 38.6141C51.8551 37.246 49.7887 36.2431 47.5887 35.6606L47.5479 35.6497C45.1473 34.9618 42.6175 34.8543 40.1672 35.3362C37.7169 35.818 35.4162 36.8753 33.4548 38.4209C29.9464 41.1082 27.6565 44.4637 26.6463 48.2356C25.904 51.1012 25.8587 54.1029 26.5141 56.9897C26.9741 59.0156 27.7229 60.9648 28.7378 62.7776C28.7418 62.762 28.7483 62.7471 28.7572 62.7337L28.7634 62.7106C28.8726 62.4442 28.9866 62.1902 29.0973 61.9402Z" fill="#C3AFFA"/>
<path d="M99.8118 120.297C99.5207 120.428 99.2347 120.561 98.9377 120.674C98.5415 120.826 98.1406 120.949 97.738 121.072C97.4322 121.169 97.1266 121.274 96.8177 121.352C96.3937 121.459 95.9629 121.525 95.5346 121.599C95.2433 121.647 94.9551 121.717 94.6621 121.749C94.048 121.814 93.4305 121.839 92.8131 121.826C92.7076 121.823 92.6033 121.842 92.4996 121.837C92.43 121.837 92.3631 121.823 92.2948 121.817L93.6497 127.967L92.9445 128.123L92.9441 128.125L92.4741 128.227L91.7707 128.381L90.2694 121.561C89.9088 121.492 89.547 121.428 89.2012 121.336C88.9038 121.256 88.6221 121.157 88.3358 121.062L90.2159 129.597L89.0995 129.843L89.0405 129.856L88.3345 130.011L86.1711 120.172C85.9004 120.037 85.629 119.9 85.3704 119.755C85.3609 119.75 85.348 119.745 85.3375 119.741C85.1688 120.036 84.9825 120.313 84.8032 120.599C84.7113 120.744 84.6329 120.9 84.5405 121.042L86.5999 130.393L84.7227 130.807L83.0321 123.135C83.0301 123.138 83.0276 123.141 83.0248 123.144C82.82 123.4 82.6019 123.645 82.3716 123.878C82.1152 124.165 81.8294 124.421 81.5527 124.687L82.7984 130.355L80.9222 130.766L79.8988 126.111C76.5423 128.67 72.3597 129.899 68.1526 129.565L68.1493 129.564L68.1488 129.566C68.0437 129.557 67.9271 129.539 67.8156 129.527C67.6502 129.51 67.4877 129.496 67.3183 129.472C67.2958 129.469 67.2735 129.466 67.2514 129.461C68.3112 131.247 69.624 132.87 71.1489 134.28C73.3231 136.286 75.9446 137.745 78.7956 138.534C82.5736 139.546 86.6206 139.236 90.7062 137.548C96.3303 135.206 99.0201 130.884 100.148 126.721C100.751 124.514 100.919 122.211 100.643 119.94C100.37 120.073 100.087 120.177 99.8118 120.297Z" fill="#C3AFFA"/>
<path d="M108.872 104.099C108.736 101.64 108.177 99.2243 107.218 96.9567C103.888 98.7313 100.423 98.4002 98.2006 97.8049C97.6135 97.6299 97.1418 97.4783 96.7492 97.3223C96.6856 97.467 96.5866 97.5946 96.5149 97.7341L100.49 104.623L99.8666 104.983L99.8683 104.985L99.4506 105.227L99.4499 105.225L98.827 105.585L95.314 99.5073C95.1957 99.6443 95.0879 99.7873 94.9622 99.9171C94.6911 100.189 94.4059 100.446 94.1078 100.688C94.0707 100.72 94.0386 100.756 93.9998 100.787L97.7149 107.216L96.8795 107.697L96.6711 107.818L96.0463 108.176L92.4191 101.89C92.3896 101.907 92.3641 101.928 92.3373 101.943C92.2767 101.976 92.2284 102.02 92.1726 102.052L92.1267 102.073L92.0368 102.131C92.0046 102.15 91.9716 102.163 91.9423 102.18C91.5889 102.384 91.2254 102.571 90.8532 102.738L94.5077 109.069L92.839 110.028L89.0241 103.419C88.9494 103.438 88.876 103.448 88.8022 103.467C88.609 103.514 88.4114 103.533 88.2141 103.57C87.8606 103.64 87.5034 103.691 87.1443 103.721L90.875 110.177L90.2489 110.54L89.8745 110.756L89.207 111.141L85.4951 104.712C85.4559 104.877 85.4261 105.036 85.379 105.212C85.139 106.09 84.8145 106.943 84.41 107.759C84.371 107.843 84.337 107.926 84.2902 108.008C84.1856 108.214 84.0607 108.42 83.9398 108.624C83.8622 108.756 83.7924 108.889 83.71 109.02C83.5957 109.195 83.4632 109.368 83.3408 109.543C83.2263 109.702 83.1221 109.862 82.9985 110.019C82.8747 110.173 82.7343 110.322 82.6002 110.475C82.4536 110.644 82.3113 110.813 82.1491 110.978C82.0132 111.115 81.8626 111.241 81.7162 111.374C81.5302 111.544 81.3501 111.713 81.1481 111.873C81.0008 111.991 80.8324 112.1 80.6728 112.211C80.4943 112.339 80.3295 112.474 80.1391 112.595L80.1388 112.596C80.3448 112.867 80.6125 113.194 80.9001 113.535C80.9721 113.619 81.0498 113.708 81.1247 113.794C81.4341 114.146 81.7776 114.521 82.167 114.909C82.1828 114.925 82.1961 114.942 82.2163 114.959C82.6128 115.351 83.0616 115.752 83.5348 116.149C83.646 116.241 83.7587 116.331 83.8736 116.422C84.3934 116.845 84.9365 117.237 85.5004 117.599C86.7968 118.434 88.2124 119.068 89.699 119.478C90.6387 119.729 91.6034 119.876 92.5754 119.915C95.328 120.026 98.2309 119.153 100.838 117.656L100.972 117.579C100.972 117.579 100.993 117.567 101.046 117.536L101.046 117.538L101.049 117.537L101.047 117.532L101.152 117.476L101.241 117.423C101.741 117.133 102.21 116.804 102.677 116.476C103.342 116.008 103.976 115.496 104.572 114.944C104.64 114.876 104.722 114.82 104.793 114.754C104.872 114.676 104.932 114.587 105.01 114.508C105.936 113.589 106.722 112.539 107.342 111.391C107.432 111.221 107.494 111.047 107.574 110.876C107.912 110.169 108.187 109.434 108.396 108.679C108.784 107.185 108.945 105.641 108.872 104.099Z" fill="#6F6D69"/>
<path d="M83.7942 103.288C83.6426 103.242 83.4997 103.18 83.3506 103.129C83.1508 103.059 82.9475 102.994 82.7561 102.915C82.5532 102.831 82.3633 102.738 82.1655 102.644C81.9896 102.56 81.8089 102.481 81.6384 102.39C81.4218 102.274 81.2193 102.144 81.0151 102.015C80.8814 101.933 80.742 101.858 80.6178 101.771C80.2928 101.552 79.9795 101.317 79.6791 101.066C79.5522 100.959 79.4413 100.835 79.3191 100.723L78.1651 105.032L77.4678 104.845L77.0042 104.721L76.3048 104.533L77.7781 99.0322C77.2962 98.3851 76.8651 97.7015 76.4889 96.9877L74.3697 104.9L73.6702 104.713L73.2088 104.589L72.5103 104.402L75.2538 94.1583C75.0545 93.5892 74.8781 93.036 74.7416 92.5408C74.3904 92.8865 73.9841 93.2576 73.5511 93.6315L70.7899 103.942L70.0958 103.756L69.6276 103.631L68.9326 103.444L71.0633 95.4882C70.8173 95.64 70.5619 95.7871 70.305 95.9307C69.8597 96.1787 69.4013 96.4136 68.9217 96.6221L67.4388 102.159L66.7373 101.971L66.2769 101.848L65.5796 101.661L66.7404 97.327C66.5626 97.3691 66.3883 97.425 66.2047 97.4579C65.8163 97.5242 65.4186 97.5721 65.0168 97.6008C64.9269 97.6056 64.839 97.6033 64.7487 97.6056C64.4411 97.6213 64.1359 97.6328 63.8222 97.6226C63.6682 97.6161 63.5102 97.5974 63.357 97.5877C63.1021 97.5696 62.846 97.5518 62.5889 97.5159C62.5762 97.5149 62.5648 97.5131 62.5535 97.5115L62.6274 97.7208L61.5079 97.3608C61.4834 97.4214 61.4518 97.5086 61.423 97.5805C61.2778 97.9458 61.1545 98.3194 61.0538 98.6994C60.5105 100.668 60.5226 102.748 61.0886 104.709C61.2756 105.332 61.5313 105.932 61.8512 106.499L62.2495 107.083C63.4169 108.713 64.9459 110.051 66.7168 110.991C67.5533 111.457 68.4423 111.822 69.3651 112.077C69.3838 112.082 69.4186 112.089 69.4516 112.098C69.4671 112.102 69.483 112.109 69.4984 112.113L69.5271 112.121C69.5645 112.131 69.6124 112.141 69.6311 112.146C71.3874 112.589 73.216 112.663 75.0024 112.366C75.7099 112.257 76.4069 112.088 77.0862 111.862C77.498 111.727 77.9007 111.566 78.292 111.38L78.9358 111.07C81.685 109.461 82.9941 106.689 83.5196 104.714C83.6475 104.246 83.7393 103.77 83.7942 103.288Z" fill="#C3AFFA"/>
<path d="M127.902 95.0606C125.974 99.1177 122.531 102.256 118.313 103.801L122.072 109.053L121.485 109.473L121.093 109.753L121.091 109.753L120.507 110.171L116.373 104.393C116.224 104.428 116.079 104.482 115.926 104.515C115.548 104.618 115.166 104.698 114.779 104.755C114.677 104.771 114.566 104.774 114.467 104.788L119.556 111.903L118.969 112.322L118.971 112.324L118.577 112.603L118.576 112.601L117.99 113.02L112.243 104.982C111.767 105.006 111.29 105.032 110.807 105.033C110.805 105.332 110.764 105.642 110.747 105.946L116.547 114.055L115.959 114.475L115.959 114.477L115.848 114.555L114.982 115.175L110.35 108.701C110.311 108.859 110.299 109.016 110.256 109.175C110.102 109.741 109.916 110.299 109.697 110.843L113.037 115.514L112.453 115.933L112.059 116.215L112.06 116.213L111.472 116.635L108.725 112.794C107.375 115.044 105.53 116.956 103.33 118.387C105.161 119.761 107.24 120.767 109.453 121.351C111.854 122.038 114.385 122.145 116.836 121.663C119.287 121.182 121.589 120.125 123.553 118.581C127.055 115.889 129.345 112.535 130.359 108.762C131.096 105.897 131.142 102.897 130.492 100.01C130.033 97.9835 129.284 96.0337 128.267 94.2217C128.259 94.2431 128.248 94.2662 128.24 94.287C128.133 94.5538 128.02 94.808 127.902 95.0606Z" fill="#C3AFFA"/>
<path d="M96.1115 61.8368C96.0695 61.8214 96.0342 61.812 95.9924 61.8008L95.76 61.7386L95.6223 61.7017C95.531 61.6725 95.4395 61.648 95.3558 61.6256C93.9788 61.2525 92.5364 61.1885 91.1317 61.438C88.0353 61.9586 85.1905 64.2635 83.5104 65.9348C83.9738 66.1228 84.4267 66.3357 84.8671 66.5726L88.7765 64.1012L89.1611 64.71L89.1999 64.7724L89.8044 65.7281L86.6329 67.7277C87.1267 68.1007 87.593 68.5089 88.0281 68.949L91.4755 66.7747L92.0825 67.734L92.1181 67.7906L92.5047 68.4013L89.283 70.4341C89.6325 70.914 89.9512 71.4157 90.2371 71.9361L93.4529 69.9035L93.9163 70.6367L94.0959 70.918L94.4818 71.5271L91.0401 73.7028C91.2565 74.28 91.4334 74.8712 91.5694 75.4725L94.707 73.4892L95.0916 74.0974L95.353 74.5056L95.736 75.1164L91.8748 77.5534C91.9468 78.5277 91.913 79.5069 91.7738 80.4739C94.0604 79.8651 97.5618 78.551 99.5908 76.0879C100.509 74.9972 101.175 73.7166 101.541 72.3381C101.565 72.2478 101.591 72.1514 101.604 72.0867C101.613 72.0557 101.623 72.0059 101.64 71.9393L101.708 71.6887L101.738 71.5763C102.07 69.7926 101.551 67.7226 100.506 65.9919L100.443 65.8935L100.385 65.7982L100.352 65.7274C99.3556 63.9209 97.8221 62.4401 96.1115 61.8368Z" fill="#C3AFFA"/>
<path d="M55.4058 84.8948L55.3968 84.9281C55.4012 84.9196 55.404 84.9104 55.4052 84.9009L55.4058 84.8948Z" fill="#C3AFFA"/>
<path d="M95.1651 96.1185C95.176 96.0907 95.1872 96.0488 95.2023 95.9927C95.2155 95.9432 95.2335 95.8629 95.2652 95.7446C95.2743 95.7049 95.2859 95.6658 95.3001 95.6276C95.3275 95.5382 95.3531 95.4434 95.3781 95.3491C95.7506 93.9726 95.8139 92.5306 95.5634 91.1267C95.036 87.9789 92.6534 85.0891 90.9775 83.4214C90.7192 84.0905 90.4051 84.7366 90.0387 85.3532L92.5231 89.2465L90.9012 90.2824L88.8378 87.051C88.4449 87.5198 88.0199 87.9607 87.566 88.3707L89.8582 91.9593L89.2514 92.3474L89.2537 92.348L88.8981 92.5735L88.2363 92.9953L86.0607 89.5795C85.5705 89.9144 85.0584 90.2158 84.5276 90.4817L86.7409 93.9506L86.1338 94.3396L86.135 94.3399L85.9221 94.4736L85.122 94.9882L82.7239 91.2349C82.1363 91.4356 81.5374 91.6011 80.9302 91.7308L83.1634 95.2222L81.5411 96.2598L78.8265 92.0138C78.0746 92.0548 77.3206 92.0316 76.5727 91.9443C77.2017 94.2322 78.5108 97.609 80.9146 99.5867C82.006 100.506 83.2873 101.172 84.6666 101.537L84.921 101.605C84.9744 101.614 85.0272 101.626 85.0793 101.64L85.3062 101.701L85.4264 101.733C87.2089 102.067 89.277 101.552 91.013 100.504L91.107 100.44L91.2062 100.383L91.2722 100.352C93.0799 99.3557 94.5644 97.8187 95.1651 96.1185Z" fill="#C3AFFA"/>
<path d="M60.8809 95.159C60.9257 95.1722 60.968 95.186 61.0088 95.1969C61.0282 95.2008 61.0474 95.206 61.0662 95.2122C61.1131 95.2223 61.1586 95.2333 61.2379 95.2545C61.2765 95.2649 61.3169 95.2769 61.3449 95.2869L61.3736 95.2945C61.4595 95.3217 61.5554 95.3473 61.6457 95.3715C63.0248 95.7444 64.4692 95.8084 65.8758 95.5589C68.9267 95.0497 71.7313 92.8025 73.4236 91.138C72.6546 90.842 71.9158 90.473 71.2174 90.0359L66.6687 92.66L65.7051 90.9961L69.5399 88.781C69.0779 88.3771 68.6437 87.9425 68.2402 87.4803L64.0755 89.8827L63.7186 89.2583L63.716 89.2594L63.4768 88.8434L63.4773 88.8413L63.1182 88.2169L67.0531 85.9448C66.7151 85.4559 66.4111 84.9444 66.1433 84.4139L62.2236 86.6776L61.2651 85.0115L65.4564 82.589C65.278 81.9923 65.1424 81.3836 65.0506 80.7675L61.1122 83.0433L60.1514 81.3768L64.8858 78.6424C64.8872 78.302 64.8509 77.9661 64.8758 77.6263C64.9023 77.2757 64.9506 76.9328 64.9996 76.5906C62.7134 77.2243 59.3755 78.5319 57.4144 80.9136C56.5753 81.8986 55.9523 83.0488 55.5858 84.2897L55.4056 84.9007C55.4045 84.91 55.4017 84.919 55.3974 84.9273C55.3967 84.9336 55.3944 84.9383 55.3935 84.9457L55.3755 85.0129L55.2616 85.5C55.1933 85.9091 55.1645 86.3237 55.1755 86.7383C55.181 86.872 55.2053 87.006 55.2159 87.1387C55.2385 87.4561 55.2817 87.7717 55.3453 88.0835C55.3816 88.2566 55.4348 88.4279 55.4827 88.6018C55.5557 88.8807 55.6432 89.1555 55.7449 89.4253C55.8116 89.6042 55.8889 89.7825 55.969 89.9592C56.032 90.0947 56.1026 90.2233 56.1671 90.3527L56.1843 90.3455L56.5862 91.1411L57.0316 91.8188L57.0166 91.8307C57.105 91.9671 57.1894 92.1066 57.2851 92.2384C57.4013 92.4041 57.5185 92.5699 57.6476 92.7268C57.8329 92.9534 58.0297 93.1704 58.2371 93.377C58.3582 93.5027 58.479 93.6334 58.605 93.7493C58.8734 93.9906 59.1595 94.2114 59.4608 94.41C59.5324 94.4604 59.6015 94.5238 59.6767 94.5692C60.0551 94.8097 60.4589 95.0075 60.8809 95.159Z" fill="#C3AFFA"/>
<path d="M61.7406 61.2361C61.7353 61.2558 61.7284 61.2818 61.7049 61.3781C61.685 61.4483 61.6676 61.5087 61.648 61.5689L61.6277 61.6448C61.2696 63.025 61.2065 64.4652 61.4425 65.8714C61.862 68.3819 63.4618 70.7295 64.9449 72.4295C65.2559 72.7849 65.5545 73.1064 65.8431 73.3997C66.1682 72.579 66.5698 71.7908 67.0427 71.0454L64.2894 66.4805L64.9086 66.1081L65.318 65.8576L65.3219 65.8605L65.9364 65.4884L68.2903 69.384C68.6928 68.9243 69.1253 68.4918 69.5849 68.0893L67.0186 63.8359L68.0163 63.2354L68.0478 63.2149L68.6654 62.8439L71.1339 66.9336C71.6338 66.6109 72.1548 66.3221 72.6934 66.0692L70.1898 61.9212L71.8338 60.9307L74.5259 65.3891C75.1267 65.2101 75.7397 65.0748 76.3601 64.9843L73.8024 60.7426L74.4339 60.3593L74.8277 60.1188L74.8271 60.1211L75.4443 59.7469L78.5392 64.8739C79.1716 64.8873 79.8023 64.9449 80.4266 65.0463C79.7942 62.7573 78.4893 59.3877 76.0892 57.4092C74.9962 56.4913 73.7142 55.8257 72.3345 55.4598C72.2364 55.4336 72.1527 55.4112 72.0568 55.3901C72.0019 55.3795 71.9612 55.3686 71.9247 55.3589C71.8168 55.33 71.7408 55.3055 71.6978 55.294C71.6504 55.2813 71.6218 55.2736 71.5756 55.2654C69.7958 54.9339 67.7241 55.4492 65.9904 56.4969L65.8986 56.5622L65.7983 56.615L65.7279 56.6486C63.9207 57.6444 62.4402 59.179 61.839 60.8949C61.8243 60.9323 61.8118 60.9706 61.8013 61.0094C61.7809 61.0857 61.7606 61.1616 61.7406 61.2361Z" fill="#C3AFFA"/>
<path d="M61.9481 127.904L61.9452 127.901L61.943 127.9C61.6093 127.744 61.2994 127.553 60.976 127.377C58.0312 125.742 55.6331 123.277 54.0814 120.288L50.3026 123.731L49.5885 122.95L49.4917 122.845L49.004 122.312L53.2537 118.442C53.0216 117.83 52.8238 117.206 52.6613 116.573L47.1778 121.567L46.6942 121.037L46.6937 121.039L46.5668 120.9L45.8816 120.149L52.2041 114.388C52.1273 113.788 52.0702 113.178 52.0319 112.549C52.0237 112.417 52.0152 112.29 52.0092 112.158L44.6848 118.834L43.3879 117.414L50.7074 110.738C50.5223 110.724 50.3356 110.702 50.1466 110.681C49.9931 110.663 49.8422 110.64 49.6887 110.619C49.2783 110.56 48.8672 110.482 48.4518 110.389L42.8233 115.524L41.5286 114.102L46.2966 109.752C45.8154 109.565 45.3443 109.353 44.8853 109.116C44.8302 109.088 44.7735 109.071 44.7191 109.04C44.7058 109.033 44.6917 109.023 44.6783 109.016C44.0516 108.681 43.4504 108.301 42.8795 107.878C42.6613 107.716 42.4646 107.527 42.2538 107.354C41.8995 107.065 41.5451 106.778 41.2147 106.456C40.9796 106.229 40.7706 105.983 40.5458 105.742C40.2694 105.44 39.9879 105.141 39.7266 104.818C39.5086 104.546 39.3053 104.26 39.1 103.976C38.9415 103.757 38.7659 103.55 38.6151 103.325C37.239 105.155 36.2316 107.235 35.6489 109.449C34.5458 113.618 34.7142 118.702 38.4212 123.547C41.1103 127.05 44.4629 129.338 48.2398 130.353C51.1046 131.093 54.1045 131.139 56.9904 130.486C59.0168 130.028 60.9664 129.279 62.7785 128.263C62.7564 128.254 62.7336 128.246 62.7104 128.236C62.4509 128.129 62.1943 128.016 61.9456 127.905L61.9481 127.904Z" fill="#C3AFFA"/>
<path d="M80.9782 122.547C81.2009 122.329 81.4098 122.097 81.6036 121.852C82.3777 120.857 83.0814 119.81 83.7098 118.717C81.6594 117.258 79.8579 115.477 78.3746 113.444C77.4447 113.797 76.4806 114.053 75.4979 114.206L73.5178 121.6L72.8216 121.414L72.3579 121.289L71.6607 121.103L73.4466 114.435C72.8345 114.461 72.2213 114.452 71.6102 114.407L69.7189 121.469L69.0216 121.282L68.5612 121.159L67.8641 120.972L69.7039 114.102C69.5174 114.063 69.316 114.052 69.1344 114.003C69.0782 113.988 69.0463 113.98 69.0046 113.972L68.868 113.935C68.5728 113.856 68.2855 113.717 67.9907 113.615L66.1436 120.512L65.4464 120.325L64.9804 120.2L64.2877 120.014L66.2013 112.869C65.6501 112.601 65.1151 112.302 64.5989 111.971L62.7898 118.727L62.0926 118.54L61.6311 118.416L60.9326 118.229L62.9517 110.69C62.2957 110.126 61.692 109.503 61.1481 108.83C61.0862 108.858 61.0031 108.891 60.9359 108.921C60.8503 108.958 60.7706 108.992 60.6769 109.033C60.434 109.133 60.1711 109.238 59.8797 109.348C59.8467 109.361 59.8068 109.373 59.7736 109.386C59.5066 109.484 59.2168 109.583 58.9127 109.682C58.814 109.716 58.7127 109.746 58.6075 109.778C58.3353 109.864 58.0475 109.947 57.7494 110.028C57.6418 110.056 57.5419 110.085 57.4312 110.114C57.027 110.217 56.6077 110.315 56.1652 110.403C56.1103 110.414 56.0538 110.422 55.9972 110.431C55.6175 110.505 55.2204 110.568 54.8152 110.623C54.6625 110.642 54.5092 110.659 54.3536 110.676C54.2012 110.694 54.0518 110.718 53.8924 110.731C53.8901 111.993 53.975 113.253 54.1467 114.502C54.1977 114.828 54.2678 115.151 54.3567 115.468C54.8397 117.775 55.8485 119.94 57.3046 121.794C58.7608 123.648 60.625 125.141 62.7522 126.156C62.9783 126.26 63.2093 126.362 63.4323 126.451C63.9574 126.66 64.4947 126.836 65.0414 126.979C65.1438 127.007 65.2659 127.035 65.3672 127.063L65.5149 127.102L65.592 127.123C65.6955 127.155 65.8112 127.186 65.9312 127.218C66.4744 127.367 67.0263 127.482 67.5836 127.563C67.8275 127.6 68.073 127.626 68.3222 127.648C70.6822 127.831 73.0524 127.465 75.2479 126.581C77.4433 125.696 79.4044 124.315 80.9782 122.547Z" fill="#C3AFFA"/>
<path d="M52.905 108.869C55.3627 108.734 57.7783 108.174 60.045 107.214C58.2728 103.884 58.6016 100.417 59.1948 98.2017C59.3692 97.6121 59.5185 97.1386 59.6762 96.7476C59.5406 96.6857 59.424 96.5963 59.2924 96.5279L51.8769 100.812L51.5175 100.188L51.5147 100.19L51.2981 99.8124L50.9125 99.1454L57.5227 95.3293C57.0576 94.9293 56.6274 94.4904 56.2367 94.0175L49.2836 98.0339L48.9218 97.41L48.682 96.9922L48.6842 96.9928L48.3229 96.3672L55.1244 92.4365C55.073 92.3465 55.0056 92.263 54.9525 92.1709L54.9259 92.1195L54.8703 92.0361C54.6522 91.6603 54.4544 91.273 54.2779 90.8759L47.4314 94.8294L46.4713 93.1604L53.5932 89.0475C53.428 88.4356 53.3234 87.809 53.2808 87.1767L46.3211 91.1932L45.3579 89.5293L52.3335 85.4999C52.2912 85.4903 52.2482 85.4788 52.2059 85.4693C52.0624 85.4367 51.9373 85.4151 51.7874 85.375C50.9412 85.1432 50.1185 84.833 49.3301 84.4483C49.2119 84.3912 49.0966 84.3432 48.9809 84.2827C48.8119 84.195 48.6427 84.0905 48.4739 83.9935C48.3052 83.8965 48.1365 83.8057 47.9686 83.6964C47.8202 83.6024 47.6763 83.4918 47.5283 83.3879C47.3415 83.257 47.1566 83.1315 46.9729 82.9865C46.8333 82.8753 46.6993 82.7474 46.5634 82.6295C46.379 82.4715 46.1969 82.316 46.0181 82.1418C45.8839 82.0084 45.761 81.8569 45.6279 81.7144C45.462 81.5295 45.2905 81.3501 45.134 81.1501C45.0051 80.9899 44.8896 80.8108 44.7677 80.64C44.6491 80.4701 44.5194 80.315 44.4099 80.136C44.3998 80.1427 44.3906 80.1485 44.3809 80.1559C44.1239 80.351 43.8177 80.6019 43.4958 80.8715C43.3957 80.9569 43.2906 81.0514 43.1856 81.1437C42.8546 81.4346 42.5092 81.7546 42.1499 82.1129C42.1112 82.1515 42.0752 82.1826 42.0353 82.2209C41.6508 82.6131 41.2541 83.0577 40.8629 83.5224C40.7679 83.6392 40.6702 83.7571 40.5764 83.8761C40.1559 84.3928 39.7657 84.9335 39.4078 85.4955C38.5679 86.7903 37.9318 88.2064 37.5219 89.6944C37.3132 90.5012 37.1812 91.3259 37.1278 92.1575C37.119 92.2993 37.0944 92.432 37.0871 92.5764C36.977 95.3257 37.8503 98.2291 39.3497 100.84L39.3658 100.868L39.4439 101.004L39.4675 101.041L39.4659 101.043L39.4689 101.047L39.4704 101.046L39.5284 101.147L39.5794 101.239C41.0959 103.852 43.1749 106.059 45.6128 107.338C46.4755 107.789 47.3846 108.144 48.324 108.397C49.8186 108.784 51.363 108.943 52.905 108.869Z" fill="#6F6D69"/>
<path d="M18.4621 78.7947C17.4537 82.5689 17.7637 86.6152 19.4531 90.7022C20.3804 93.0207 21.845 95.0858 23.7264 96.7276C25.6078 98.3695 27.8521 99.5411 30.2747 100.146C32.4833 100.746 34.7871 100.913 37.059 100.637C35.7618 98.1228 35.111 95.3254 35.1653 92.497C35.1723 92.3318 35.2001 92.1775 35.2116 92.0135L30.0278 93.3415L29.8474 92.6421L29.8101 92.5017L29.5493 91.4768L35.5088 89.9518C35.5636 89.7009 35.6043 89.4409 35.6699 89.1959C35.7845 88.768 35.9424 88.3705 36.0894 87.9666L28.2816 89.9711L28.0575 89.0889L27.9833 88.8016L27.8023 88.1045L37.0662 85.7297C37.1308 85.6012 37.1856 85.4584 37.257 85.3352C36.9573 85.1623 36.6779 84.9723 36.3852 84.7889C36.1846 84.6625 35.9835 84.545 35.7877 84.4146C35.717 84.3685 35.6393 84.3271 35.5687 84.2781L27.3623 86.3822L27.1838 85.6846L27.1705 85.6368L26.8842 84.5195L33.6047 82.7957C33.4411 82.6527 33.2605 82.507 33.126 82.3701C32.7661 82.0458 32.4378 81.6937 32.1086 81.3427L27.2675 82.5859L26.7915 80.7204L30.7462 79.706C28.2845 76.3809 27.1079 72.2779 27.4333 68.1534L27.4377 68.1546C27.4357 68.1509 27.4352 68.1465 27.4362 68.1424C27.4427 68.0849 27.4509 68.0259 27.4556 67.9664C27.4787 67.7548 27.4998 67.5409 27.5292 67.3192C27.5321 67.3097 27.5339 67.2999 27.5346 67.29C27.5358 67.276 27.5377 67.2621 27.5404 67.2484C25.7552 68.3101 24.1324 69.6236 22.7221 71.1485C20.7126 73.321 19.252 75.9427 18.4621 78.7947Z" fill="#C3AFFA"/>
<path d="M43.5575 78.3715C43.5426 78.3304 43.5355 78.286 43.5191 78.2462C43.2773 77.6146 43.0806 76.9667 42.9305 76.3073C42.9074 76.2061 42.8863 76.1048 42.8642 76.0039C42.8248 75.8162 42.7805 75.6314 42.749 75.4425L35.0229 73.3733L35.2107 72.6722L35.3341 72.2112L35.5209 71.5135L42.5504 73.3961C42.5252 72.7858 42.5366 72.1745 42.5845 71.5655L35.1541 69.5755L35.3418 68.8744L35.466 68.4108L35.6517 67.7173L42.8805 69.6535C42.9193 69.4798 42.9469 69.2999 42.9925 69.1293C43.0081 69.071 43.0168 69.0385 43.0174 69.0546L43.0228 69.0342C43.0392 68.9546 43.0561 68.8919 43.063 68.8662C43.146 68.5561 43.2568 68.2488 43.3627 67.9414L36.1131 65.9998L36.2998 65.3025L36.424 64.8389L36.6107 64.1416L44.13 66.1553C44.372 65.6836 44.6384 65.2238 44.9251 64.7753C44.9724 64.7046 45.0069 64.6308 45.0555 64.5617L37.8966 62.6444L38.3943 60.7863L46.3347 62.9128C46.3422 62.9009 46.3518 62.8905 46.363 62.8819C46.4464 62.7839 46.5342 62.6899 46.621 62.5969C47.0717 62.1107 47.5568 61.6576 48.0725 61.241C48.1059 61.2133 48.1359 61.1764 48.1705 61.1485C47.1521 58.8472 46.5115 56.3966 46.2735 53.8913C45.0116 53.8879 43.751 53.9732 42.501 54.1464C42.1744 54.1956 41.8512 54.2652 41.5333 54.3546C39.2271 54.839 37.0634 55.8477 35.2096 57.3026C33.3559 58.7574 31.8619 60.6194 30.8433 62.7444C30.7409 62.9815 30.6402 63.2095 30.5471 63.4312C30.3393 63.9555 30.1632 64.4917 30.0197 65.0371C29.9873 65.1582 29.9601 65.2596 29.9357 65.3676C29.9278 65.3973 29.9222 65.4289 29.8989 65.5159C29.8912 65.5446 29.8803 65.5746 29.8739 65.5983C29.8403 65.7062 29.8107 65.8168 29.7815 65.9259C29.6329 66.4709 29.5171 67.0244 29.4349 67.5832C29.4044 67.8234 29.3781 68.069 29.349 68.3186L29.3501 68.3189C29.1701 70.6786 29.5366 73.048 30.4212 75.2431C31.3057 77.4381 32.6846 79.3996 34.4504 80.9752C34.6702 81.1985 34.9042 81.4073 35.1512 81.6001C36.1462 82.3749 37.1941 83.0793 38.2874 83.708C39.7455 81.6571 41.5251 79.8551 43.5575 78.3715Z" fill="#C3AFFA"/>
<path d="M55.939 79.6767C56.1277 79.4527 56.3366 79.2543 56.5395 79.0472L52.5337 77.9744L53.0316 76.1151L58.3262 77.533C59.0015 77.0564 59.7119 76.6317 60.4514 76.2625L52.6674 74.1779L52.855 73.4774L52.9794 73.013L53.1653 72.3186L63.4022 75.0602C63.7694 74.9408 64.1268 74.8316 64.4595 74.7401C64.0002 74.273 63.4953 73.7252 62.9896 73.1099L53.6251 70.6019L54.1225 68.7439L61.2797 70.6607C60.8761 69.9815 60.5258 69.272 60.2321 68.5385L55.4089 67.2468L55.5956 66.5496L55.5935 66.5491L55.7177 66.0853L55.7198 66.0859L55.9074 65.3854L59.5874 66.3712C59.5754 66.3148 59.5564 66.2614 59.5464 66.2067C59.2693 64.6532 59.3126 63.0594 59.6735 61.5231C59.2286 61.332 58.7702 61.1741 58.3019 61.0508C56.3205 60.5203 53.2493 60.2612 50.4732 61.8626C50.3503 61.9312 50.168 62.0766 49.9171 62.2491C47.5018 63.9939 45.7427 66.4995 44.9219 69.3638C44.9067 69.4205 44.9009 69.442 44.8844 69.519C44.8694 69.5752 44.8562 69.6088 44.8514 69.627C44.1274 72.5193 44.3986 75.5711 45.6211 78.2904C45.7524 78.5647 45.8377 78.7817 45.9098 78.9025C47.5151 81.6733 50.3034 82.9885 52.286 83.5152C52.7528 83.6439 53.2289 83.7363 53.71 83.7916C54.1646 82.2823 54.9231 80.8819 55.939 79.6767Z" fill="#C3AFFA"/>
<path d="M81.8412 67.3583C81.6444 67.2955 81.4493 67.2355 81.2641 67.1858C74.7533 65.4564 68.8345 69.3349 67.1879 75.4124C66.981 76.1828 66.8496 76.9715 66.7957 77.7674C66.58 80.4349 67.3166 83.0924 68.8748 85.2682C70.4004 87.4549 72.6414 89.0406 75.2112 89.7517C76.8592 90.186 78.584 90.2427 80.257 89.9173C82.2381 89.5703 84.1039 88.7425 85.6906 87.5065C87.6018 85.9935 88.9742 83.9046 89.6042 81.5498C90.392 78.6397 90.024 75.5376 88.5771 72.8926C87.1303 70.2476 84.7167 68.2645 81.8412 67.3583Z" fill="#DBC241"/>
<path d="M86.188 49.7904C76.0469 47.0745 75.9695 56.2589 75.9695 56.2589C79.8502 57.513 81.9006 65.7989 81.9006 65.7989C81.9006 65.7989 87.8179 59.6468 91.806 60.5001C91.806 60.5001 96.3291 52.5066 86.188 49.7904Z" fill="white"/>
<path d="M70.7827 107.312C60.6416 104.596 65.1647 96.6027 65.1647 96.6027C69.1528 97.4558 75.07 91.3039 75.07 91.3039C75.07 91.3039 77.1205 99.5898 81.0012 100.844C81.0012 100.844 80.924 110.028 70.7827 107.312Z" fill="white"/>
<path d="M76.8176 113.687C76.8176 113.687 71.4157 113.479 70.188 113.058C70.188 113.058 65.7494 111.811 63.9959 109.316C63.9959 109.316 50.9087 119.232 67.012 123.157C67.012 123.157 80.6085 127.126 76.8176 113.687Z" fill="white"/>
<path d="M94.5254 47.5674C94.5254 47.5674 89.7427 45.0479 88.4693 44.7983C88.4693 44.7983 84.0016 43.66 81.2359 44.9446C81.2359 44.9446 74.8563 29.8152 90.7659 34.4636C90.7657 34.4636 104.526 37.8214 94.5254 47.5674Z" fill="white"/>
<path d="M49.4216 70.7022C46.7056 80.8433 55.89 80.9207 55.89 80.9207C57.1441 77.04 65.4301 74.9895 65.4301 74.9895C65.4301 74.9895 59.278 69.0723 60.1313 65.0843C60.1313 65.0843 52.1377 60.5611 49.4216 70.7022Z" fill="white"/>
<path d="M33.1996 66.3577C29.8337 78.9258 43.5406 79.6442 43.5406 79.6442C43.7547 79.0257 44.0793 78.4512 44.4987 77.9487C45.4237 76.8057 43.7311 75.0937 43.8334 73.4263C44.1024 69.0411 44.5235 67.9449 46.6733 64.7533C47.3768 63.7088 48.977 63.1398 48.791 62.0364C48.6673 61.369 48.6693 60.6844 48.7968 60.0177C48.7968 60.0177 36.5656 53.7895 33.1996 66.3577Z" fill="white"/>
<path d="M36.3454 42.9432C29.0134 49.1265 30.6495 54.6074 32.9076 57.8485C33.5445 58.7627 35.7755 55.5291 38.8093 54.2584C42.2286 52.8261 46.4512 53.2718 46.4512 53.2718C46.4512 53.2718 46.9627 48.9319 48.4689 45.7382C49.496 43.5602 51.9802 42.3759 51.1778 41.657C48.2855 39.0654 43.3109 37.069 36.3454 42.9432Z" fill="white"/>
<path d="M69.0426 22.0285C58.0955 25.3833 59.2961 32.8321 60.6115 36.3985C61.0592 37.6122 64.5248 35.6975 66.0848 36.1162C70.9402 37.4196 71.7913 37.9402 71.7913 37.9402C73.8157 35.8927 75.7097 33.7201 77.4619 31.4353C78.6508 29.8856 84.3673 30.0915 83.8707 28.4537C82.7242 24.6723 79.2803 18.891 69.0426 22.0285Z" fill="white"/>
<path d="M24.1643 88.4267C20.9039 79.4065 25.0603 75.477 28.636 73.7982C29.6446 73.3247 29.9609 77.2405 31.9534 79.8573C34.1993 82.8068 38.0795 84.5312 38.0795 84.5312C38.0795 84.5312 36.3534 88.5458 36.0619 92.0648C35.8629 94.4646 37.4228 96.7319 36.3685 96.9539C32.5682 97.7528 27.2616 96.9958 24.1643 88.4267Z" fill="white"/>
<path d="M42.032 122.883C34.2269 114.507 38.9896 108.655 41.9114 106.223C42.9057 105.396 44.9505 108.786 46.511 109.203C51.3678 110.501 52.3652 110.475 52.3652 110.475C53.0954 113.26 53.65 116.089 54.0258 118.943C54.281 120.88 59.3353 123.558 58.0865 124.729C55.2036 127.431 49.3314 130.718 42.032 122.883Z" fill="white"/>
<path d="M72.539 67.1077C72.539 67.1077 68.337 69.2937 67.3074 72.6031C67.3074 72.6031 58.4204 65.3703 68.2674 59.3826C68.2674 59.3826 76.4927 54.2893 79.2037 65.3494C79.2037 65.3494 73.6777 66.4108 72.539 67.1077Z" fill="white"/>
<path d="M59.2591 43.8303C44.2366 50.839 60.4619 60.7243 60.4619 60.7243C61.4641 57.503 65.5543 55.3752 65.5543 55.3752C66.6627 54.6968 72.0416 53.6638 72.0416 53.6638C71.7426 37.1345 59.2591 43.8303 59.2591 43.8303Z" fill="#DCDBD9"/>
<path d="M44.555 98.7342C35.0461 85.1556 54.0403 84.7026 54.0403 84.7026C53.2984 87.9936 55.7775 91.8808 55.7775 91.8808C56.3986 93.0223 60.5411 96.6053 60.5411 96.6053C52.0211 110.773 44.555 98.7342 44.555 98.7342Z" fill="#DCDBD9"/>
<path d="M66.8964 83.6818C66.8964 83.6818 70.2017 88.4035 73.5799 89.4862C73.5799 89.4862 66.026 98.8342 60.0363 88.4775C60.0363 88.4775 54.939 79.8263 66.3233 76.974C66.3233 76.974 66.1993 82.4842 66.8964 83.6818Z" fill="white"/>
<path d="M106.985 86.1184C104.269 96.2595 96.2748 91.7363 96.2748 91.7363C97.1279 87.7483 90.976 81.8311 90.976 81.8311C90.976 81.8311 99.262 79.7806 100.516 75.8999C100.516 75.8998 109.7 75.9773 106.985 86.1184Z" fill="white"/>
<path d="M123.206 90.4628C119.841 103.031 107.609 96.8028 107.609 96.8028C107.733 96.16 107.739 95.5001 107.627 94.8552C107.397 93.403 109.718 92.7661 110.463 91.2707C112.422 87.3379 112.605 86.1783 112.338 82.3393C112.251 81.083 111.149 79.7904 111.862 78.9276C112.302 78.4114 112.643 77.8174 112.866 77.1762C112.866 77.1762 126.572 77.8946 123.206 90.4628Z" fill="white"/>
<path d="M132.184 68.6102C135.444 77.6302 131.288 81.5599 127.712 83.2386C126.704 83.7121 126.388 79.7963 124.395 77.1795C122.149 74.23 118.269 72.5056 118.269 72.5056C118.269 72.5056 119.995 68.491 120.286 64.972C120.485 62.5722 118.926 60.3049 119.98 60.0832C123.78 59.284 129.087 60.041 132.184 68.6102Z" fill="white"/>
<path d="M114.316 34.1534C122.122 42.5302 117.359 48.3821 114.437 50.8137C113.443 51.6412 111.398 48.2507 109.837 47.8338C104.981 46.536 103.983 46.5615 103.983 46.5615C103.253 43.7763 102.698 40.948 102.323 38.0933C102.067 36.1568 97.013 33.4783 98.2619 32.3077C101.145 29.6055 107.017 26.3192 114.316 34.1534Z" fill="white"/>
<path d="M120.003 114.094C127.335 107.91 125.699 102.429 123.441 99.1882C122.804 98.274 120.573 101.508 117.539 102.778C114.12 104.211 109.897 103.765 109.897 103.765C109.897 103.765 109.386 108.105 107.879 111.299C106.852 113.476 104.368 114.661 105.17 115.38C108.063 117.971 113.037 119.968 120.003 114.094Z" fill="white"/>
<path d="M87.3056 135.008C98.2527 131.653 97.0521 124.205 95.7367 120.638C95.289 119.425 91.8234 121.339 90.2634 120.921C85.408 119.617 84.5569 119.097 84.5569 119.097C82.5324 121.144 80.6385 123.317 78.8863 125.601C77.6974 127.151 71.9809 126.945 72.4775 128.583C73.624 132.364 77.0679 138.146 87.3056 135.008Z" fill="white"/>
<path d="M88.7578 71.4513C88.7578 71.4513 91.3048 75.4449 90.5427 78.8259C90.5427 78.8259 101.855 77.0027 96.3184 66.895C96.3184 66.895 91.7397 58.3726 83.8639 66.5974C83.8639 66.5976 88.1198 70.2786 88.7578 71.4513Z" fill="white"/>
<path d="M111.894 57.9266C121.403 71.5051 102.409 71.9582 102.409 71.9582C103.151 68.6672 100.672 64.7799 100.672 64.7799C100.051 63.6384 95.9079 60.0554 95.9079 60.0554C104.428 45.888 111.894 57.9266 111.894 57.9266Z" fill="#DCDBD9"/>
<path d="M97.1897 112.83C112.212 105.822 95.9868 95.9364 95.9868 95.9364C94.9846 99.1577 90.8944 101.286 90.8944 101.286C89.786 101.964 84.4072 102.997 84.4072 102.997C84.7062 119.526 97.1897 112.83 97.1897 112.83Z" fill="#DCDBD9"/>
<path d="M85.3617 88.6271C85.3617 88.6271 80.1389 91.0648 76.6718 90.3142C76.6718 90.3142 78.5426 102.186 88.9067 96.2094C88.9067 96.2094 97.6455 91.2638 89.2105 83.1035C89.2105 83.1035 86.5642 87.9382 85.3617 88.6271Z" fill="white"/>
<path d="M141.328 78.9508V78.9337C142.516 74.5153 142.12 69.7748 140.216 65.1948C139.121 62.4748 137.4 60.051 135.194 58.1199C132.988 56.1888 130.357 54.8047 127.516 54.0799C127.511 54.0779 127.506 54.0753 127.502 54.072C127.469 54.0619 127.435 54.0549 127.401 54.0509C125.659 53.5906 123.866 53.3526 122.064 53.3427C122.967 51.7581 123.664 50.0646 124.137 48.3034C124.151 48.2511 124.148 48.2503 124.148 48.2503C124.939 45.428 125.055 42.459 124.486 39.5836C123.917 36.7081 122.679 34.0071 120.872 31.6991C117.85 27.7516 113.935 25.0421 109.513 23.8577C106.205 22.9992 102.74 22.9434 99.4056 23.6948C96.9592 24.2486 94.612 25.1735 92.4454 26.4374C91.1989 24.2598 89.6271 22.2853 87.7843 20.5824C85.2731 18.2669 82.2448 16.5853 78.9518 15.6778L78.9375 15.674C74.5152 14.4848 69.776 14.8765 65.1918 16.7912C62.4723 17.8853 60.0488 19.6046 58.1177 21.8098C56.1865 24.015 54.8021 26.6441 54.0764 29.4842C54.0775 29.4844 54.0687 29.5128 54.0543 29.5751C53.5893 31.326 53.3501 33.1292 53.3426 34.9408C51.7587 34.0349 50.0649 33.3361 48.303 32.8617L48.2528 32.8484C45.4295 32.0548 42.4587 31.939 39.5822 32.5105C36.7057 33.082 34.0047 34.3246 31.6993 36.1373C27.7504 39.1551 25.04 43.0654 23.8538 47.4943C22.9959 50.8014 22.9405 54.2655 23.6923 57.5983C24.2452 60.0441 25.1695 62.3908 26.433 64.5567C24.2556 65.8038 22.2817 67.3765 20.5797 69.2203C18.2654 71.7324 16.5837 74.7602 15.674 78.0524L15.6701 78.0673C14.4873 82.4834 14.8775 87.2219 16.784 91.8121C17.8789 94.5284 19.5975 96.949 21.8009 98.8783C24.0043 100.808 26.6307 102.191 29.4678 102.918L29.5454 102.935C31.3044 103.408 33.1173 103.652 34.9388 103.66C34.032 105.246 33.3338 106.943 32.8615 108.708L32.8503 108.75C32.0586 111.573 31.9434 114.544 32.5139 117.42C33.0844 120.297 34.3247 122.998 36.1341 125.306C39.112 129.206 42.9697 131.895 47.3304 133.098L47.3426 133.105L47.4923 133.145C50.7987 134.002 54.2614 134.058 57.594 133.311C60.0416 132.756 62.3904 131.832 64.5596 130.57C65.8036 132.749 67.3762 134.724 69.2219 136.425C71.7342 138.737 74.7616 140.417 78.053 141.326L78.0707 141.33C82.4864 142.513 87.2234 142.121 91.8096 140.216C94.5212 139.125 96.9384 137.412 98.8663 135.215C100.794 133.018 102.179 130.399 102.909 127.568L102.923 127.516C102.927 127.504 102.931 127.491 102.933 127.478L102.936 127.469C103.407 125.705 103.65 123.889 103.659 122.064C105.245 122.969 106.94 123.667 108.703 124.142L108.739 124.152C111.564 124.943 114.535 125.058 117.412 124.489C120.29 123.92 122.993 122.682 125.304 120.875C129.255 117.85 131.963 113.934 133.143 109.513C134.004 106.207 134.061 102.743 133.309 99.4111C132.758 96.9636 131.834 94.6153 130.57 92.4484C132.748 91.2023 134.722 89.6316 136.426 87.7904C138.739 85.275 140.419 82.2448 141.328 78.9508ZM118.657 58.165C119.535 60.1329 119.965 62.2713 119.916 64.4257C119.901 64.7847 119.858 65.1314 119.815 65.48C119.745 66.0946 119.632 66.7034 119.477 67.3023C119.283 68.0139 119.033 68.7091 118.729 69.3815C118.664 69.5274 118.591 69.6648 118.523 69.8062C118.249 70.3895 117.941 70.9564 117.601 71.504C117.24 72.0644 116.848 72.6049 116.429 73.1229C116.334 73.2411 116.241 73.3607 116.143 73.4761C115.751 73.9447 115.352 74.3917 114.963 74.7862C114.939 74.8105 114.915 74.8311 114.891 74.8562C114.513 75.2359 114.148 75.5688 113.803 75.8713C113.711 75.9536 113.616 76.0366 113.526 76.1118C113.196 76.3916 112.882 76.6496 112.618 76.8513C112.609 76.8565 112.604 76.8606 112.594 76.8662C112.489 76.6941 112.365 76.5457 112.249 76.3825C112.126 76.2042 112.005 76.0183 111.872 75.8523C111.708 75.6433 111.532 75.4555 111.355 75.2648C111.235 75.1312 111.117 74.9907 110.994 74.8657C110.792 74.666 110.581 74.4855 110.372 74.3069C110.264 74.2135 110.159 74.1117 110.047 74.0232C109.81 73.8339 109.566 73.6651 109.32 73.498C109.233 73.4398 109.148 73.3724 109.061 73.3158C108.786 73.1395 108.51 72.9818 108.235 72.8326C108.178 72.8013 108.121 72.7649 108.063 72.7335C107.738 72.5655 107.417 72.4135 107.101 72.2773C107.093 72.2741 107.082 72.2688 107.076 72.2653C106.47 72.0078 105.848 71.793 105.213 71.6224C104.869 71.5303 104.555 71.4635 104.259 71.4095C104.178 71.3938 104.108 71.3833 104.031 71.3697C103.926 71.3533 103.812 71.3303 103.717 71.3191C103.741 71.0783 103.715 70.838 103.718 70.5975C103.721 70.511 103.737 70.4238 103.738 70.3367L110.758 66.282L110.401 65.657L110.279 65.4473L109.798 64.613L103.487 68.2585C103.483 68.238 103.474 68.2201 103.469 68.2011C103.367 67.8041 103.241 67.4134 103.093 67.031C103.033 66.8649 102.99 66.694 102.923 66.5297L109.648 62.6475L109.289 62.0242L109.162 61.8036L108.687 60.9781L102.047 64.8158C101.955 64.653 101.837 64.508 101.742 64.351C101.542 64.0089 101.325 63.6773 101.091 63.3575C101.083 63.3476 101.079 63.3354 101.07 63.3252L107.798 59.4428L107.315 58.608L107.194 58.3986L106.833 57.7748L99.7452 61.8715C99.6371 61.7729 99.513 61.6983 99.4018 61.6066C99.1321 61.372 98.849 61.1533 98.5538 60.9516C98.4337 60.871 98.3055 60.7942 98.1794 60.7192L105.206 56.6646L104.845 56.0384L104.725 55.8297L104.242 54.9944L97.8315 58.6988C98.079 57.7426 98.2257 56.7632 98.2694 55.7765C98.2704 55.7113 98.2673 55.6439 98.2689 55.5804C98.2766 55.2696 98.2785 54.9532 98.2652 54.6284C98.256 54.4998 98.2376 54.3661 98.2283 54.2373C98.2085 53.9677 98.1871 53.6993 98.1431 53.423C98.1203 53.2611 98.0804 53.097 98.0494 52.9352C98.0007 52.6849 97.9588 52.4364 97.8886 52.1821C97.8447 52.0027 97.7763 51.8216 97.7185 51.6408C97.6434 51.4011 97.5676 51.1595 97.473 50.9181C97.3996 50.7332 97.3068 50.5507 97.2222 50.3646C97.1317 50.1734 97.0599 49.9789 96.9598 49.7885C96.9639 49.7861 96.9642 49.7844 96.9682 49.7831C97.2799 49.6511 97.6697 49.5046 98.0875 49.3551C98.1887 49.3167 98.3014 49.2791 98.4132 49.2405C98.865 49.0877 99.354 48.9323 99.895 48.7896C99.9057 48.7848 99.9194 48.7825 99.9324 48.7778C100.477 48.6364 101.073 48.5119 101.687 48.406C101.824 48.3826 101.958 48.3599 102.096 48.3384C102.761 48.2325 103.431 48.1642 104.104 48.1338L104.105 48.131L104.131 48.1287C105.663 48.0575 107.196 48.2173 108.68 48.6028C109.622 48.8543 110.532 49.2096 111.395 49.6621C113.831 50.9407 115.909 53.1485 117.425 55.7634L117.472 55.8486C117.499 55.8847 117.504 55.9008 117.538 55.9547L117.539 55.9571L117.537 55.9585L117.593 56.0591L117.65 56.1563C118 56.7635 118.314 57.3905 118.591 58.0341C118.61 58.0787 118.638 58.1209 118.657 58.165ZM121.855 75.3983C122.1 75.592 122.332 75.8011 122.55 76.0243C124.317 77.5992 125.697 79.5608 126.582 81.7564C127.466 83.952 127.832 86.3222 127.65 88.6823L127.652 88.6829C127.629 88.9375 127.599 89.1804 127.568 89.4147C127.488 89.9416 127.378 90.4635 127.238 90.9777L127.119 91.434C127.115 91.4465 127.109 91.4601 127.109 91.4601C127.08 91.5676 127.074 91.6019 127.074 91.6019L127.071 91.6136L126.982 91.9457C126.844 92.4703 126.676 92.9868 126.481 93.4928C126.471 93.518 126.464 93.5456 126.455 93.5698C126.364 93.7926 126.264 94.0228 126.158 94.2526C125.141 96.3783 123.648 98.2412 121.794 99.6967C119.941 101.152 117.777 102.161 115.471 102.646C115.292 102.693 115.15 102.713 114.992 102.749C114.832 102.782 114.656 102.83 114.502 102.851C114.442 102.86 114.375 102.864 114.31 102.871C113.713 102.95 113.09 103.012 112.451 103.05C112.197 103.066 111.939 103.069 111.686 103.077C111.366 103.089 111.048 103.087 110.729 103.089C110.716 102.949 110.695 102.818 110.679 102.679C110.66 102.504 110.643 102.333 110.619 102.163C110.569 101.796 110.512 101.442 110.448 101.095C110.43 101.002 110.418 100.908 110.399 100.817C110.316 100.39 110.22 99.9852 110.122 99.5929C110.085 99.461 110.052 99.3392 110.016 99.2112C109.942 98.9345 109.866 98.6675 109.787 98.4129C109.752 98.2998 109.718 98.1886 109.682 98.0814C109.58 97.766 109.475 97.4701 109.376 97.1962C109.368 97.1748 109.36 97.1515 109.353 97.13C109.238 96.8187 109.128 96.5441 109.022 96.292C109.002 96.2444 108.987 96.2049 108.965 96.1605C108.922 96.0576 108.874 95.9434 108.834 95.8517C108.866 95.8248 108.895 95.7901 108.929 95.7639C109.449 95.3402 109.938 94.8812 110.394 94.3902C110.476 94.3035 110.553 94.2175 110.631 94.1273C110.635 94.1259 110.636 94.1251 110.637 94.1212L117.166 95.8699L117.664 94.0118L111.919 92.4732C111.977 92.3879 112.024 92.297 112.083 92.212C112.359 91.7782 112.617 91.3356 112.851 90.879L118.955 92.5137L119.452 90.6594L113.623 89.0984C113.728 88.7983 113.831 88.4989 113.916 88.1972C113.922 88.1757 113.934 88.151 113.94 88.1279L113.974 87.9984C113.982 87.9656 113.99 87.9348 113.999 87.9029L114.008 87.8681C114.048 87.7096 114.076 87.544 114.111 87.3839L119.909 88.9368L120.096 88.2378L120.22 87.7737L120.406 87.0786L114.412 85.4733C114.461 84.8643 114.474 84.253 114.452 83.6424L120.04 85.1392L120.538 83.2815L114.257 81.5995C114.224 81.3976 114.179 81.2032 114.138 81.0052C114.118 80.8969 114.095 80.7917 114.068 80.6853C113.921 80.0291 113.726 79.3847 113.484 78.7571C113.47 78.7167 113.463 78.6698 113.447 78.6285C115.479 77.1447 117.258 75.3429 118.717 73.2924C119.811 73.9202 120.859 74.6239 121.855 75.3983ZM101.049 117.537L101.045 117.538L101.046 117.536L100.972 117.579L100.838 117.656C98.2308 119.153 95.3279 120.026 92.5752 119.915C91.6032 119.876 90.6385 119.729 89.6988 119.477C88.2123 119.067 86.7966 118.434 85.5002 117.599C84.9363 117.237 84.3932 116.844 83.8734 116.422C83.7585 116.331 83.6458 116.241 83.5346 116.149C83.0613 115.752 82.6126 115.351 82.216 114.959C82.1958 114.941 82.1825 114.925 82.1667 114.909C81.7773 114.521 81.4337 114.146 81.1245 113.793C81.0496 113.707 80.9719 113.619 80.8999 113.535C80.6126 113.193 80.3445 112.867 80.1385 112.596L80.1389 112.595C80.3293 112.474 80.4941 112.339 80.6725 112.21C80.8321 112.1 81.0006 111.991 81.1479 111.873C81.3499 111.713 81.53 111.543 81.716 111.374C81.8624 111.241 82.013 111.115 82.1489 110.978C82.3111 110.813 82.4533 110.643 82.6 110.475C82.7341 110.322 82.8745 110.173 82.9983 110.019C83.1221 109.861 83.2261 109.702 83.3406 109.543C83.463 109.368 83.5954 109.195 83.7098 109.02C83.7922 108.888 83.8621 108.755 83.9396 108.624C84.0604 108.419 84.1853 108.213 84.2899 108.008C84.3368 107.926 84.3707 107.843 84.4099 107.759C84.8143 106.943 85.1388 106.09 85.3788 105.212C85.4259 105.036 85.4556 104.876 85.4949 104.712L89.2068 111.141L89.8743 110.756L90.2486 110.539L90.8746 110.177L87.144 103.721C87.5032 103.69 87.8604 103.64 88.214 103.569C88.4112 103.533 88.6089 103.514 88.8019 103.467C88.8757 103.447 88.9492 103.438 89.0238 103.419L92.8387 110.027L94.5074 109.068L90.853 102.738C91.2251 102.57 91.5886 102.384 91.942 102.18C91.9714 102.163 92.0043 102.15 92.0365 102.131L92.1264 102.073L92.1724 102.051C92.2282 102.019 92.2764 101.976 92.3371 101.943C92.3638 101.927 92.3893 101.907 92.4188 101.889L96.0461 108.176L96.6709 107.818L96.8791 107.696L97.7146 107.216L93.9998 100.787C94.0386 100.756 94.0705 100.72 94.1078 100.688C94.4059 100.446 94.6911 100.189 94.9622 99.9171C95.0879 99.7872 95.1958 99.6444 95.314 99.5072L98.827 105.585L99.4499 105.225L99.8666 104.983L100.489 104.623L96.5148 97.7342C96.5864 97.5947 96.6855 97.4671 96.7491 97.3223C97.1417 97.4783 97.6134 97.63 98.2004 97.805C100.423 98.4003 103.888 98.7313 107.218 96.9568C108.177 99.2243 108.736 101.64 108.872 104.099C108.945 105.641 108.784 107.185 108.396 108.679C108.186 109.434 107.911 110.169 107.573 110.876C107.494 111.047 107.432 111.221 107.341 111.391C106.721 112.539 105.936 113.589 105.01 114.508C104.932 114.587 104.872 114.676 104.793 114.754C104.722 114.82 104.64 114.876 104.572 114.944C103.975 115.496 103.342 116.008 102.677 116.476C102.21 116.804 101.74 117.133 101.241 117.423L101.152 117.476L101.047 117.533L101.049 117.537ZM52.905 108.869C51.3629 108.943 49.8185 108.784 48.324 108.397C47.3846 108.143 46.4755 107.788 45.6128 107.338C43.1749 106.059 41.0959 103.851 39.5794 101.238L39.5284 101.146L39.4704 101.045L39.4689 101.047L39.4659 101.042L39.4675 101.04L39.4439 101.003L39.3658 100.867L39.3497 100.839C37.8503 98.2286 36.977 95.3251 37.0871 92.5758C37.0944 92.4314 37.1188 92.2987 37.1278 92.157C37.1811 91.3253 37.3131 90.5006 37.5219 89.6939C37.9318 88.2059 38.5679 86.7898 39.4078 85.495C39.7657 84.933 40.1559 84.3922 40.5764 83.8755C40.6702 83.7567 40.7679 83.6387 40.8629 83.5219C41.2541 83.0571 41.6506 82.6125 42.0353 82.2204C42.0751 82.1821 42.1113 82.151 42.1499 82.1124C42.5091 81.7541 42.8546 81.434 43.1856 81.1432C43.2906 81.0509 43.3957 80.9564 43.4958 80.871C43.8177 80.6013 44.1239 80.3504 44.3809 80.1554C44.3906 80.1479 44.3997 80.1421 44.4099 80.1355C44.5194 80.3147 44.6492 80.4698 44.7677 80.6394C44.8896 80.8102 45.0051 80.9893 45.134 81.1496C45.2904 81.3495 45.462 81.529 45.6279 81.7139C45.761 81.8564 45.8839 82.0078 46.0181 82.1413C46.197 82.3154 46.379 82.4709 46.5633 82.6289C46.6993 82.7469 46.8333 82.8748 46.9729 82.986C47.1567 83.1308 47.3414 83.2564 47.5283 83.3874C47.6763 83.4912 47.82 83.6018 47.9686 83.6959C48.1366 83.8051 48.3058 83.8953 48.4739 83.993C48.6421 84.0906 48.8119 84.1944 48.9808 84.2821C49.0967 84.3427 49.212 84.3907 49.33 84.4477C50.1184 84.8324 50.9411 85.1427 51.7872 85.3744C51.9372 85.4146 52.0623 85.4363 52.2059 85.4687C52.2482 85.4782 52.2911 85.4897 52.3334 85.4994L45.3578 89.5287L46.321 91.1927L53.2807 87.1761C53.3233 87.8085 53.4279 88.4351 53.5931 89.047L46.4712 93.1599L47.4312 94.8289L54.2778 90.8754C54.4543 91.2725 54.652 91.6598 54.8702 92.0356L54.9258 92.1189L54.9523 92.1703C55.0054 92.2624 55.0728 92.3459 55.1243 92.4359L48.3228 96.3666L48.6841 96.9923L48.9217 97.4095L49.2835 98.0334L56.2367 94.0169C56.6273 94.4899 57.0575 94.9287 57.5226 95.3287L50.9124 99.1448L51.298 99.8118L51.5172 100.188L51.8767 100.811L59.2922 96.5275C59.4238 96.5958 59.5403 96.6855 59.676 96.7472C59.5183 97.1381 59.3689 97.6116 59.1945 98.2013C58.6013 100.416 58.2725 103.883 60.0448 107.214C57.7782 108.173 55.3626 108.734 52.905 108.869ZM35.1514 81.5999C34.9045 81.4071 34.6704 81.1983 34.4506 80.9749C32.6847 79.3994 31.3059 77.4379 30.4214 75.2428C29.5368 73.0478 29.1703 70.6783 29.3504 68.3186L29.3491 68.3183C29.3783 68.0688 29.4045 67.8232 29.4351 67.583C29.5173 67.0241 29.6331 66.4707 29.7817 65.9257C29.8109 65.8167 29.8405 65.706 29.8741 65.5981C29.8804 65.5744 29.8914 65.5444 29.8991 65.5157C29.9224 65.4286 29.928 65.3971 29.9359 65.3674C29.9601 65.2594 29.9873 65.1579 30.0199 65.0369C30.1634 64.4915 30.3395 63.9553 30.5473 63.431C30.6404 63.2093 30.741 62.9813 30.8435 62.7442C31.862 60.6193 33.3559 58.7573 35.2095 57.3024C37.0632 55.8475 39.2268 54.8388 41.5329 54.3543C41.8508 54.2649 42.174 54.1953 42.5006 54.146C43.7506 53.9728 45.0112 53.8876 46.2731 53.8909C46.5111 56.3963 47.1517 58.8468 48.1702 61.1482C48.1355 61.1761 48.1056 61.213 48.0722 61.2406C47.5565 61.6572 47.0714 62.1104 46.6206 62.5965C46.5338 62.6894 46.446 62.7835 46.3626 62.8816C46.3514 62.8901 46.3419 62.9006 46.3344 62.9125L38.394 60.7859L37.8963 62.6442L45.0552 64.5614C45.0066 64.6305 44.972 64.7044 44.9247 64.775C44.6381 65.2235 44.3716 65.6833 44.1297 66.155L36.6104 64.1413L36.4236 64.8386L36.2994 65.3023L36.1127 65.9995L43.3623 67.941C43.2562 68.2485 43.1457 68.5558 43.0627 68.8659C43.0558 68.8918 43.0389 68.9547 43.0225 69.0339L43.0171 69.0543C43.0165 69.0382 43.0078 69.0706 42.9922 69.1289C42.9465 69.2997 42.919 69.4795 42.8802 69.6532L35.6514 67.7171L35.4657 68.4104L35.3416 68.8742L35.1538 69.5752L42.5842 71.5652C42.5363 72.1742 42.5249 72.7855 42.5501 73.3959L35.5207 71.5133L35.3338 72.211L35.2104 72.6719L35.0226 73.373L42.7487 75.4422C42.7802 75.6312 42.8244 75.816 42.8639 76.0035C42.886 76.1045 42.9072 76.2058 42.9302 76.3069C43.0803 76.9663 43.277 77.6143 43.5187 78.2458C43.5352 78.2856 43.5422 78.3301 43.5572 78.3712C41.5249 79.8548 39.7454 81.6567 38.2874 83.7074C37.1943 83.0788 36.1464 82.3746 35.1514 81.5999ZM95.9923 61.8007C96.0341 61.812 96.0695 61.8214 96.1114 61.8367C97.8221 62.44 99.3555 63.9209 100.352 65.7276L100.385 65.7983L100.443 65.8936L100.507 65.992C101.552 67.7227 102.07 69.7927 101.738 71.5765L101.708 71.6888C101.687 71.7654 101.665 71.8485 101.641 71.9394C101.623 72.006 101.613 72.0559 101.605 72.0868C101.591 72.1515 101.565 72.248 101.541 72.3383C101.176 73.7168 100.51 74.9973 99.591 76.0881C97.562 78.5513 94.0606 79.8653 91.774 80.474C91.9132 79.507 91.947 78.5278 91.875 77.5535L95.7362 75.1165L95.3532 74.5057L95.0918 74.0976L94.707 73.4893L91.5693 75.4726C91.4333 74.8714 91.2564 74.2801 91.04 73.703L94.4817 71.5272L94.0959 70.9181L93.9164 70.6368L93.4529 69.9036L90.2371 71.9362C89.9511 71.4159 89.6324 70.9142 89.2829 70.4342L92.5047 68.4014L92.1181 67.7908L92.0825 67.7341L91.4757 66.7748L88.0283 68.949C87.5932 68.5089 87.1269 68.1008 86.6331 67.7278L89.8046 65.7282L89.2 64.7725L89.1612 64.7101L88.7766 64.1012L84.8671 66.5725C84.4267 66.3356 83.9739 66.1227 83.5105 65.9347C85.1903 64.2634 88.0353 61.9584 91.1318 61.4379C92.5364 61.1883 93.9789 61.2524 95.3559 61.6255C95.4396 61.6479 95.5311 61.6724 95.6224 61.7016L95.76 61.7384L95.9923 61.8007ZM100.493 77.9247C100.688 77.7265 100.888 77.5363 101.07 77.323C101.11 77.273 101.145 77.2161 101.188 77.1656C101.387 76.9181 101.584 76.6644 101.765 76.3967C101.866 76.2526 101.951 76.0927 102.047 75.9414C102.164 75.7492 102.286 75.5582 102.398 75.3543C102.474 75.2112 102.539 75.0598 102.61 74.9094C102.722 74.6815 102.833 74.4516 102.929 74.2117C102.987 74.0697 103.035 73.9214 103.088 73.7757C103.154 73.5852 103.235 73.4025 103.294 73.2054C103.775 73.2621 104.251 73.3544 104.718 73.4817C106.696 74.0115 109.486 75.3277 111.094 78.098C111.167 78.2189 111.254 78.4364 111.381 78.7036L112.247 78.2925L111.383 78.7109C112.605 81.4295 112.875 84.4802 112.15 87.371L112.115 87.501C112.1 87.5419 112.088 87.6012 112.08 87.6305C111.262 90.4974 109.503 93.0058 107.087 94.7523C106.951 94.8474 106.837 94.9296 106.739 95.0007C106.671 95.0498 106.601 95.0955 106.528 95.1374C106.4 95.2117 106.268 95.2641 106.137 95.33C103.467 96.6877 100.589 96.4519 98.6981 95.9454C98.4008 95.8658 98.1367 95.7809 97.8992 95.6978C97.772 95.6526 97.6767 95.6117 97.5712 95.5693C97.4859 95.5352 97.3981 95.5016 97.3266 95.4689C97.3684 95.2954 97.3879 95.1252 97.4197 94.9538C97.4532 94.7715 97.4936 94.59 97.5196 94.4087C97.5552 94.1437 97.5756 93.8824 97.5926 93.6202C97.6034 93.4743 97.6216 93.3269 97.6245 93.1801C97.6341 92.8835 97.6253 92.5907 97.61 92.2992C97.6059 92.1913 97.61 92.0796 97.6025 91.9702C97.5794 91.6511 97.5379 91.3391 97.4876 91.0282C97.4768 90.9534 97.4715 90.8722 97.4608 90.7974C97.4481 90.726 97.423 90.6609 97.411 90.5915L101.852 91.7809L102.35 89.9212L96.7574 88.423C96.6934 88.2654 96.6292 88.1088 96.5608 87.9536C96.3068 87.3862 96.0199 86.8342 95.7015 86.3003L103.635 88.4251L103.823 87.7252L103.947 87.2604L104.133 86.567L93.9777 83.8472C93.4863 83.2487 92.9934 82.7177 92.5432 82.2613C92.8924 82.1643 93.272 82.0481 93.6613 81.921L104.593 84.8486L104.78 84.1498L104.905 83.6857L105.091 82.9891L96.6024 80.7157C97.3392 80.3436 98.0473 79.9171 98.7207 79.4397L104.727 81.0483L105.224 79.1917L100.493 77.9247ZM95.2022 95.9926C95.1872 96.0488 95.1759 96.0907 95.165 96.1185C94.5643 97.8186 93.0798 99.3558 91.2724 100.352L91.2064 100.383L91.1072 100.44L91.0132 100.505C89.2773 101.552 87.2091 102.068 85.4266 101.733L85.3064 101.701L85.0795 101.64C85.0274 101.626 84.9745 101.614 84.9212 101.605L84.6668 101.537C83.2875 101.172 82.0062 100.506 80.9148 99.587C78.511 97.6093 77.2019 94.2326 76.5729 91.9447C77.3208 92.0319 78.0748 92.0551 78.8266 92.0141L81.5413 96.2601L83.1636 95.2226L80.9303 91.7311C81.5375 91.6015 82.1364 91.4359 82.724 91.2353L85.1221 94.9886L85.9222 94.4739L86.1339 94.34L86.741 93.951L84.5277 90.4821C85.0584 90.2161 85.5706 89.9147 86.0608 89.5799L88.2364 92.9957L88.8982 92.5739L89.2515 92.348L89.8583 91.9598L87.5661 88.3711C88.0201 87.9612 88.445 87.5202 88.838 87.0515L90.9013 90.2831L92.5232 89.2472L90.0387 85.3539C90.405 84.7374 90.719 84.0912 90.9774 83.4222C92.6533 85.0898 95.0359 87.9797 95.5633 91.1275C95.8137 92.5314 95.7504 93.9733 95.378 95.3499C95.3528 95.444 95.3274 95.5388 95.3 95.6284C95.2858 95.6666 95.2741 95.7057 95.2651 95.7454C95.2335 95.8629 95.2155 95.9432 95.2022 95.9926ZM59.4604 94.4104C59.1591 94.2118 58.873 93.9909 58.6046 93.7497C58.4785 93.6339 58.3578 93.503 58.2367 93.3774C58.0294 93.1707 57.8326 92.9537 57.6471 92.7272C57.518 92.5705 57.4007 92.4045 57.2847 92.2387C57.189 92.1068 57.1047 91.9674 57.0161 91.8311L57.0312 91.819L56.5858 91.1415L56.1838 90.3456L56.1666 90.3528C56.1021 90.2234 56.0315 90.0947 55.9686 89.9593C55.8885 89.7825 55.8111 89.6044 55.7445 89.4254C55.6428 89.1557 55.5552 88.8808 55.4822 88.6019C55.4344 88.428 55.3812 88.2567 55.3449 88.0835C55.2813 87.7718 55.238 87.4562 55.2154 87.1388C55.2049 87.0062 55.1806 86.8721 55.175 86.7384C55.164 86.3238 55.1929 85.9091 55.2612 85.5001L55.3751 85.013L55.3931 84.9457C55.394 84.9384 55.3963 84.9337 55.397 84.9274L55.4058 84.8949L55.4053 84.9007L55.5856 84.2897C55.9521 83.0487 56.575 81.8985 57.4141 80.9135C59.3752 78.5318 62.7131 77.2242 64.9993 76.5904C64.9502 76.9327 64.9021 77.2756 64.8755 77.6262C64.8507 77.966 64.887 78.3021 64.8855 78.6424L60.1512 81.3767L61.112 83.0433L65.0503 80.7675C65.1422 81.3835 65.2778 81.9922 65.4561 82.589L61.2648 85.0114L62.2233 86.6776L66.1431 84.4138C66.4108 84.9444 66.7148 85.4558 67.0528 85.9446L63.1179 88.2168L63.4771 88.8412L63.7184 89.2581L64.0753 89.8826L68.24 87.4802C68.6435 87.9424 69.0777 88.377 69.5396 88.7808L65.7047 90.996L66.6684 92.6599L71.2171 90.0358C71.9156 90.4728 72.6543 90.8419 73.4233 91.1379C71.7311 92.8023 68.9264 95.0496 65.8755 95.5588C64.4689 95.8082 63.0246 95.7442 61.6455 95.3714C61.5551 95.3472 61.4593 95.3215 61.3733 95.2944L61.3446 95.2867C61.3166 95.2768 61.2762 95.2646 61.2376 95.2544C61.1584 95.2332 61.1128 95.2222 61.066 95.2121C61.0471 95.2059 61.0279 95.2007 61.0085 95.1968C60.9678 95.1859 60.9255 95.1721 60.8806 95.1588C60.4586 95.0075 60.0546 94.8098 59.6762 94.5694C59.6012 94.5241 59.5321 94.4608 59.4605 94.4104H59.4604ZM59.3745 95.6482L59.131 95.2306L59.1314 95.229L59.3745 95.6482ZM56.5395 79.0472C56.3365 79.2543 56.1276 79.4526 55.9389 79.6766C54.923 80.8818 54.1643 82.282 53.7096 83.7912C53.2285 83.736 52.7524 83.6436 52.2856 83.5149C50.3031 82.9882 47.5148 81.673 45.9095 78.9022C45.8373 78.7814 45.752 78.5645 45.6207 78.2902C44.3982 75.5708 44.127 72.5189 44.8511 69.6266C44.8559 69.6086 44.8691 69.5749 44.8841 69.5188C44.9006 69.4417 44.9062 69.4202 44.9216 69.3634C45.7424 66.4991 47.5015 63.9936 49.9168 62.2488C50.1677 62.0764 50.35 61.9309 50.4729 61.8623C53.249 60.2609 56.3204 60.5198 58.3016 61.0505C58.7698 61.1738 59.2283 61.3317 59.6732 61.5228C59.3122 63.0591 59.269 64.6529 59.5462 66.2064C59.5562 66.2611 59.575 66.3145 59.587 66.3709L55.9071 65.3854L55.7195 66.0858L55.5953 66.5496L55.4086 67.2467L60.2319 68.5385C60.5257 69.2719 60.8759 69.9814 61.2795 70.6606L54.1225 68.7439L53.6249 70.602L62.9894 73.1099C63.4951 73.7252 64 74.273 64.4593 74.7401C64.1267 74.8316 63.7693 74.9407 63.402 75.0602L53.1652 72.3186L52.9792 73.0131L52.8548 73.4772L52.6672 74.1777L60.4512 76.2624C59.7117 76.6316 59.0013 77.0563 58.326 77.5329L53.0313 76.1149L52.5334 77.9742L56.5395 79.0472ZM61.7406 61.236L61.8012 61.0096C61.8116 60.9708 61.8242 60.9325 61.8388 60.8951C62.44 59.1792 63.9206 57.6446 65.7278 56.6487L65.7982 56.6152L65.8985 56.5624L65.9903 56.4972C67.724 55.4495 69.7956 54.9341 71.5755 55.2656C71.6217 55.2739 71.6503 55.2815 71.6977 55.2942C71.7407 55.3057 71.8167 55.3301 71.9246 55.359C71.9611 55.3688 72.0018 55.3797 72.0567 55.3903C72.1526 55.4113 72.2363 55.4337 72.3345 55.46C73.7141 55.8259 74.9961 56.4914 76.0891 57.4093C78.4894 59.3877 79.7941 62.7573 80.4265 65.0463C79.8021 64.9449 79.1714 64.8873 78.539 64.8739L75.4441 59.747L74.8268 60.1212L74.4336 60.3594L73.8021 60.7427L76.3598 64.9844C75.7395 65.0749 75.1265 65.2102 74.5257 65.3891L71.8336 60.9308L70.1896 61.9213L72.6932 66.0692C72.1546 66.3222 71.6336 66.611 71.1337 66.9337L68.6651 62.8439L68.0476 63.215L68.0161 63.2355L67.0184 63.8359L69.5847 68.0894C69.1251 68.4919 68.6927 68.9243 68.2902 69.384L65.9361 65.4884L65.3217 65.8604L64.9083 66.108L64.2892 66.4805L67.0425 71.0454C66.5696 71.7908 66.1679 72.579 65.8428 73.3996C65.5542 73.1063 65.2556 72.7849 64.9447 72.4294C63.4616 70.7296 61.8618 68.3818 61.4423 65.8713C61.2062 64.4651 61.2694 63.025 61.6275 61.6448L61.6478 61.5688C61.6674 61.5086 61.6848 61.4483 61.7047 61.378C61.7283 61.2817 61.7353 61.2558 61.7406 61.236V61.236ZM68.8748 85.2681C67.3166 83.0923 66.58 80.4348 66.7957 77.7673C66.8496 76.9714 66.9809 76.1827 67.1879 75.4123C68.8345 69.3349 74.7532 65.4564 81.2642 67.1857C81.4493 67.2353 81.6443 67.2953 81.8412 67.3582C84.7167 68.2644 87.1303 70.2475 88.5771 72.8925C90.024 75.5375 90.392 78.6396 89.6042 81.5497C88.9742 83.9044 87.6018 85.9933 85.6906 87.5063C84.1039 88.7424 82.2381 89.5702 80.2569 89.9171C78.584 90.2425 76.8592 90.1858 75.2112 89.7515C72.6414 89.0405 70.4004 87.4549 68.8748 85.2681V85.2681ZM95.4756 59.6708C95.2864 59.6279 95.0998 59.6056 94.9122 59.5701C94.7446 59.5394 94.5763 59.5038 94.4099 59.4804C94.1763 59.4491 93.9459 59.4318 93.7156 59.4149C93.5279 59.4016 93.3399 59.3804 93.1542 59.3738C92.9525 59.3686 92.7537 59.3792 92.5552 59.3845C92.3496 59.3896 92.1447 59.3873 91.9411 59.403C91.7234 59.4179 91.5131 59.4537 91.3024 59.4828C91.1339 59.5037 90.9606 59.5158 90.7957 59.5453C90.5581 59.5862 90.3328 59.6563 90.1005 59.7127L91.1943 55.6285L90.4982 55.4421L90.0334 55.3176L89.3372 55.1312L87.9084 60.4662C87.2869 60.7445 86.6842 61.0632 86.1042 61.4201C85.9884 61.4912 85.8666 61.5583 85.7521 61.6328L87.8373 53.8466L87.1402 53.6599L86.6754 53.5355L85.9825 53.3498L83.2525 63.5434C82.8966 63.8584 82.5574 64.1683 82.262 64.4603C82.1051 63.8913 81.9061 63.259 81.6644 62.5971L84.2637 52.8916L83.5652 52.7045L83.1016 52.5804L82.4043 52.3936L80.413 59.8289C80.3062 59.6373 80.2003 59.4466 80.0835 59.2567C79.7873 58.7591 79.4611 58.2801 79.1066 57.8223L80.4633 52.7561L79.7662 52.5694L79.3014 52.445L78.6086 52.2593L77.5632 56.1626C77.4822 56.0902 77.4112 56.0068 77.3253 55.9355C77.0182 55.6787 76.6982 55.4377 76.3666 55.2136C76.3062 55.1743 76.2425 55.139 76.1822 55.0999C75.9099 54.9218 75.629 54.7499 75.3313 54.5922C75.219 54.5308 75.0938 54.4784 74.9751 54.419C74.7259 54.2961 74.4716 54.1748 74.2085 54.0679C74.068 54.0104 73.9168 53.9626 73.7717 53.9096C73.5842 53.8427 73.4028 53.7665 73.2075 53.7064C73.2107 53.6643 73.221 53.6169 73.2265 53.5699C73.2402 53.4567 73.2563 53.3348 73.281 53.2032C73.2902 53.1378 73.3025 53.0745 73.3144 53.0038C73.3576 52.7804 73.4121 52.5418 73.482 52.285C74.0904 49.8873 75.5118 47.775 77.5038 46.3084C77.691 46.1785 77.8751 46.0419 78.0795 45.9221L78.7102 45.6211C81.4272 44.398 84.4771 44.1263 87.3676 44.8499L87.4149 44.8626C87.4365 44.8701 87.4508 44.8739 87.485 44.883C87.5317 44.8939 87.5527 44.8995 87.5757 44.9056L87.6363 44.9219C89.3401 45.4055 90.9281 46.2296 92.3044 47.3443C92.39 47.412 92.48 47.4728 92.5636 47.54C93.4008 48.2265 94.1377 49.0268 94.7528 49.9176L95.1521 50.5026C96.7309 53.2686 96.4793 56.3282 95.9471 58.2976C95.8248 58.7666 95.6671 59.2256 95.4756 59.6709V59.6708ZM71.6221 51.7857C71.4883 52.2795 71.3867 52.7814 71.3177 53.2884C71.16 53.2732 71.0011 53.2933 70.8438 53.2859L66.355 45.5135L64.6861 46.4777L68.7092 53.4372C68.5261 53.4726 68.3435 53.4975 68.1605 53.5418C67.8228 53.6258 67.4964 53.747 67.169 53.8635C67.0913 53.8894 67.0167 53.9077 66.9432 53.9353L62.7222 46.6263L62.097 46.986L61.8887 47.1073L61.0545 47.5862L65.1918 54.7534C65.1178 54.7963 65.0404 54.8257 64.9672 54.8698L64.8814 54.9253L64.831 54.9502C64.4354 55.1758 64.0521 55.4225 63.6829 55.6892L59.5151 48.4766L57.8494 49.4381L62.1761 56.9341C62.1249 56.9847 62.0824 57.0418 62.0347 57.0928C61.8827 57.2503 61.7541 57.4261 61.6133 57.595C61.3857 57.8542 61.1733 58.1264 60.9771 58.4102L56.7385 51.0678L55.994 51.4982L55.6956 51.6715L55.0687 52.033L59.2923 59.3456C59.1335 59.2954 58.979 59.2464 58.7993 59.1941C58.785 59.1903 58.7703 59.188 58.7561 59.1842C58.4883 59.1125 58.2054 59.0451 57.9029 58.9853C57.7562 58.9554 57.5928 58.9354 57.4392 58.9096C57.2613 58.8813 57.0921 58.8479 56.9069 58.8256C56.7117 58.8006 56.5023 58.7893 56.2982 58.7729C56.1382 58.7602 55.987 58.7428 55.8236 58.7338C55.6 58.7248 55.3651 58.7314 55.1331 58.7338C54.9792 58.7352 54.8294 58.728 54.6723 58.735C54.4314 58.7466 54.1865 58.7753 53.9422 58.8015C53.782 58.8177 53.6236 58.8277 53.4617 58.8505C53.2205 58.8868 52.9757 58.9433 52.7279 58.994C52.5587 59.0301 52.3878 59.0582 52.2156 59.1035C51.9795 59.1654 51.7418 59.251 51.5008 59.3304C51.3173 59.3923 51.1331 59.4457 50.9456 59.5176C50.7211 59.606 50.5006 59.7201 50.2753 59.8251C50.1126 59.9019 49.9497 59.961 49.7904 60.047C49.7769 60.0205 49.768 59.9961 49.7556 59.9674C49.6404 59.6857 49.5078 59.3409 49.3762 58.9751C49.3241 58.8349 49.2745 58.6852 49.2246 58.5361C49.0965 58.1572 48.9721 57.7479 48.8512 57.3082C48.8219 57.2013 48.7893 57.1004 48.7609 56.9907C48.6298 56.4881 48.5191 55.9475 48.4192 55.3882C48.3889 55.2083 48.3593 55.0257 48.3325 54.8414C48.2368 54.2305 48.1734 53.615 48.1425 52.9974C48.1391 52.9635 48.1369 52.9341 48.1336 52.9001L48.1329 52.8787C48.124 52.6602 48.1494 52.4316 48.1512 52.2107C48.1282 50.9009 48.2806 49.5939 48.6041 48.3245C48.6532 48.1411 48.7264 47.9605 48.7821 47.7765C49.0113 47.0307 49.3066 46.3069 49.6647 45.6136C49.6729 45.5964 49.6877 45.5791 49.6985 45.5602C50.997 43.2806 52.8577 41.3716 55.1033 40.0152C55.3284 39.8731 55.5343 39.7146 55.7632 39.581L55.8524 39.5277L55.9585 39.4663L56.0599 39.4097L56.1341 39.3618L56.1706 39.3425C58.7818 37.848 61.6776 36.9727 64.4285 37.0873C65.4014 37.1221 66.3672 37.2679 67.307 37.5218C68.7945 37.934 70.2113 38.5682 71.5096 39.4028C73.5718 40.7484 75.3851 42.4415 76.8687 44.4068C73.6638 46.4014 72.22 49.5713 71.6221 51.7857V51.7857ZM61.0538 98.6996C61.1546 98.3196 61.2779 97.946 61.4231 97.5807C61.4518 97.5087 61.4835 97.4215 61.508 97.361L62.6274 97.721L62.5535 97.5117C62.565 97.5131 62.5764 97.5149 62.5889 97.5161C62.8461 97.552 63.1021 97.5698 63.357 97.5879C63.5103 97.5976 63.6682 97.6163 63.8222 97.6228C64.1361 97.6329 64.4411 97.6215 64.7488 97.6059C64.839 97.6036 64.927 97.6058 65.0168 97.601C65.4187 97.5723 65.8164 97.5246 66.2047 97.4581C66.3884 97.4252 66.5628 97.3692 66.7404 97.3272L65.5796 101.661L66.2769 101.848L66.7373 101.971L67.4388 102.159L68.9217 96.6223C69.4014 96.4138 69.8598 96.1789 70.305 95.9309C70.5619 95.7873 70.8173 95.6402 71.0633 95.4883L68.9327 103.445L69.6277 103.631L70.0958 103.756L70.7898 103.942L73.5511 93.6317C73.9843 93.2579 74.3904 92.8868 74.7416 92.5411C74.878 93.0362 75.0546 93.5894 75.2539 94.1586L72.5104 104.403L73.2088 104.59L73.6702 104.713L74.3697 104.901L76.4889 96.988C76.8651 97.7018 77.2962 98.3853 77.7781 99.0325L76.3048 104.534L77.0042 104.721L77.4678 104.845L78.1651 105.032L79.3191 100.723C79.4413 100.835 79.5522 100.959 79.6791 101.067C79.9795 101.318 80.2928 101.553 80.6179 101.771C80.742 101.858 80.8814 101.933 81.0151 102.015C81.2192 102.144 81.4218 102.274 81.6384 102.391C81.8089 102.481 81.9896 102.56 82.1655 102.644C82.3632 102.738 82.5531 102.832 82.7561 102.916C82.9475 102.994 83.1508 103.059 83.3506 103.129C83.4997 103.18 83.6427 103.242 83.7942 103.288C83.7394 103.77 83.6477 104.247 83.5198 104.714C82.9944 106.689 81.6853 109.462 78.9361 111.07L78.2924 111.38C77.901 111.566 77.4983 111.728 77.0865 111.863C76.4072 112.089 75.7101 112.257 75.0027 112.367C73.2162 112.664 71.3876 112.589 69.6315 112.147C69.6127 112.142 69.5648 112.131 69.5274 112.121L69.4987 112.114C69.4832 112.109 69.4673 112.103 69.4518 112.099C69.4188 112.09 69.3841 112.083 69.3653 112.078C68.4426 111.822 67.5536 111.458 66.7171 110.992C64.9462 110.051 63.4172 108.714 62.2498 107.084L61.8515 106.499C61.5317 105.933 61.2759 105.333 61.0889 104.71C60.5227 102.748 60.5106 100.668 61.0538 98.6996ZM103.909 46.2461L104.162 46.6078L104.162 46.6094L103.909 46.2461ZM100.01 26.5148C102.897 25.857 105.899 25.9014 108.765 26.6443C112.539 27.6552 115.891 29.9474 118.584 33.4551C122.284 38.2925 122.452 43.3799 121.353 47.5522C120.77 49.7653 119.763 51.844 118.387 53.6724C118.215 53.4145 118.018 53.1811 117.836 52.9325C117.656 52.6853 117.481 52.4347 117.288 52.1964C117 51.8383 116.688 51.5046 116.377 51.1722C116.182 50.9644 116 50.7502 115.799 50.5529C115.432 50.198 115.04 49.877 114.646 49.5595C114.472 49.4197 114.312 49.2618 114.134 49.1307C113.547 48.6954 112.929 48.3042 112.285 47.9603C111.828 47.7216 111.358 47.5077 110.878 47.3193L113.774 45.3031L112.677 43.7231L108.539 46.6036C108.124 46.5118 107.714 46.4353 107.308 46.3768C107.163 46.3572 107.015 46.3353 106.871 46.318C106.56 46.2821 106.255 46.2561 105.948 46.2378L112.358 41.775L111.26 40.1978L104.985 44.5664C104.982 44.5254 104.974 44.4879 104.973 44.4464C104.934 43.7943 104.872 43.1556 104.792 42.5373L110.244 38.7371L109.833 38.1488L109.557 37.7503L109.145 37.16L104.355 40.4953C104.207 39.8891 104.024 39.2919 103.807 38.7065L107.427 36.1865L107.017 35.5955L106.741 35.2012L106.328 34.6085L103.024 36.9091C101.317 33.4894 98.5133 30.7397 95.0612 29.0984C94.8101 28.9822 94.5554 28.8709 94.2936 28.7643C94.2898 28.7608 94.287 28.7625 94.281 28.7585C94.2625 28.7523 94.2444 28.7449 94.2268 28.7364C96.0368 27.7197 97.9849 26.9714 100.01 26.5148L100.01 26.5148ZM91.0729 29.7804C91.183 29.8099 91.2945 29.8426 91.4048 29.8722C91.4279 29.8783 91.4567 29.8902 91.4885 29.8987C91.5723 29.9211 91.6074 29.9264 91.6394 29.935C91.7381 29.9585 91.846 29.9874 91.9627 30.0187C92.5095 30.1613 93.0469 30.3378 93.5718 30.5469C93.7953 30.6375 94.0253 30.7399 94.2499 30.8448C96.3776 31.8609 98.2423 33.3539 99.6991 35.2078C101.156 37.0617 102.166 39.2266 102.65 41.5342C102.737 41.852 102.805 42.1746 102.855 42.5004C103.028 43.7494 103.114 45.0089 103.112 46.2699C100.607 46.5105 98.1574 47.1517 95.856 48.1689C95.1516 47.3089 94.3507 46.5327 93.4689 45.8558L94.9896 40.1783L94.2934 39.9919L93.8308 39.8682L93.1313 39.6808L91.7911 44.6853C91.2735 44.3627 90.7369 44.0716 90.1843 43.8134L91.6349 38.3972L90.9387 38.2107L90.4761 38.087L89.7776 37.8999L88.3719 43.1494C88.2932 43.1259 88.2148 43.0837 88.1344 43.0622C88.0628 43.043 88.0141 43.0353 87.9821 43.0268C87.9442 43.012 87.9052 42.9998 87.8656 42.9903C87.4675 42.8861 87.0414 42.8457 86.6283 42.7752L88.0584 37.4355L87.3623 37.249L86.8962 37.1242L86.2013 36.9381L84.6903 42.5796C84.0744 42.552 83.4574 42.5614 82.8426 42.6077L84.2625 37.3059L83.564 37.1189L83.1016 36.9951L82.4043 36.8083L80.7715 42.9049C80.0414 43.0649 79.3251 43.2826 78.6294 43.5559C78.5759 43.4819 78.5065 43.3932 78.4428 43.3094C78.4094 43.2621 78.3768 43.221 78.3393 43.1713C78.1738 42.9517 77.9898 42.7176 77.7763 42.4609C77.7725 42.4576 77.7703 42.4529 77.7663 42.4501C77.5696 42.2103 77.3478 41.9543 77.1069 41.6902C77.0444 41.6192 76.9813 41.5516 76.9132 41.4791C76.715 41.2625 76.5015 41.0418 76.2756 40.8143C76.2011 40.74 76.1288 40.6658 76.0513 40.5888C75.753 40.2971 75.4387 40.0028 75.1025 39.7068C75.0526 39.6639 74.9998 39.6228 74.9487 39.58C74.6618 39.3337 74.3582 39.0871 74.0434 38.8435C73.917 38.747 73.7886 38.6531 73.6596 38.5577C73.5363 38.4669 73.4216 38.3754 73.2948 38.2847C73.9236 37.1918 74.6275 36.1438 75.4014 35.1483C75.5934 34.9029 75.8012 34.6702 76.0235 34.4519C77.5984 32.6844 79.5604 31.3048 81.7564 30.4206C83.9524 29.5363 86.323 29.1714 88.6832 29.3543L88.6838 29.3522C88.9303 29.3757 89.1782 29.4013 89.415 29.434C89.9743 29.515 90.5281 29.6307 91.0731 29.7805L91.0729 29.7804ZM66.2997 19.4502C70.3795 17.7571 74.4278 17.4506 78.2068 18.4585C81.0576 19.2505 83.6781 20.7118 85.8503 22.7207C87.3773 24.1289 88.6916 25.7516 89.7517 27.5379C89.7304 27.5339 89.7061 27.5316 89.6815 27.5267C89.4013 27.493 89.1245 27.4596 88.8546 27.4363L88.8513 27.4354C88.444 27.4 88.0377 27.4099 87.6343 27.4046C87.3754 27.4013 87.1171 27.3746 86.8607 27.384C86.3555 27.402 85.8512 27.4641 85.3507 27.526C85.1969 27.545 85.0419 27.5461 84.8919 27.5684C83.7736 27.7489 82.6758 28.0391 81.6144 28.4348C81.4428 28.4981 81.2631 28.5433 81.0939 28.6106C80.8412 28.7123 80.601 28.8463 80.3538 28.9591C80.0037 29.1196 79.6465 29.2672 79.3088 29.4493C79.1983 29.5089 79.0966 29.5844 78.9872 29.6448C78.4222 29.9669 77.875 30.3195 77.3481 30.7008L76.2794 27.617L74.4624 28.244L75.7655 32.0046C75.3777 32.3626 74.9922 32.7271 74.6358 33.1233L74.6327 33.1266C74.5481 33.2084 74.4591 33.3251 74.3699 33.4198L72.5017 28.0229L70.6849 28.6542L72.9655 35.231C72.8415 35.412 72.7174 35.5891 72.597 35.7739C72.4555 35.9851 72.3261 36.2037 72.1907 36.4223C72.0411 36.6597 71.886 36.8903 71.7427 37.1346L69.0046 29.2336L67.1889 29.8646L69.3797 36.1858C68.864 35.9846 68.3382 35.8101 67.8045 35.6631C67.6326 35.6171 67.4505 35.592 67.2779 35.5533L65.7888 31.2579L63.9707 31.8848L65.1261 35.2222C64.9164 35.2073 64.7135 35.1719 64.5009 35.1633C64.4122 35.1596 64.3254 35.1748 64.2408 35.1733C63.6016 35.1589 62.9621 35.1852 62.3263 35.2521C62.0603 35.2823 61.8037 35.3457 61.5388 35.3894C61.0786 35.4662 60.619 35.5379 60.1637 35.6532C59.8713 35.7266 59.5894 35.8275 59.3003 35.9154C58.8783 36.0473 58.4579 36.1762 58.0417 36.3368C57.7539 36.4485 57.477 36.5786 57.1941 36.703C56.9186 36.8258 56.6345 36.9284 56.3616 37.0613C56.0823 34.7893 56.2504 32.4845 56.8564 30.2771C57.46 27.8533 58.631 25.6076 60.2728 23.7252C61.9147 21.8428 63.9804 20.3775 66.2997 19.4502ZM26.514 56.9896C25.8586 54.1029 25.904 51.1012 26.6463 48.2356C27.6565 44.4636 29.9463 41.1082 33.4548 38.4209C35.4162 36.8752 37.7169 35.8179 40.1672 35.3361C42.6175 34.8543 45.1473 34.9618 47.5479 35.6497L47.5887 35.6606C49.7887 36.243 51.855 37.246 53.6737 38.6141C51.2913 40.1416 49.3284 42.2402 47.9633 44.7193C47.8093 45.0051 47.6961 45.2935 47.5669 45.584L43.4334 40.9258L42.6251 41.6454L42.5349 41.7221L41.9956 42.2032L46.8112 47.6272C46.7931 47.6949 46.763 47.7607 46.7455 47.8261C46.5748 48.4747 46.4451 49.1335 46.3571 49.7984L40.0997 42.7456L39.5604 43.2257L39.3424 43.4205L38.6633 44.0236L45.7296 51.9835C45.5464 51.9864 45.3648 51.9986 45.1796 52.0051C44.932 52.0131 44.69 52.0168 44.4444 52.0301C44.1134 52.05 43.7902 52.0826 43.4625 52.1136L37.3317 45.2034L36.7924 45.6834L36.4318 46.0007L35.8903 46.4801L41.1998 52.462C41.1606 52.4716 41.1202 52.4755 41.0804 52.4867C40.4723 52.618 39.8719 52.7823 39.2818 52.979L35.132 48.2991L34.5899 48.7784L34.2288 49.0978L33.6878 49.575L37.3756 53.7309C33.7421 55.4166 30.8132 58.3209 29.0972 61.9402C28.9867 62.1903 28.8724 62.4441 28.7633 62.7107L28.7571 62.7338C28.7482 62.7473 28.7416 62.7621 28.7376 62.7777C27.7228 60.9649 26.9739 59.0157 26.514 56.9898V56.9896ZM30.2748 100.146C27.8521 99.5409 25.6078 98.3693 23.7264 96.7275C21.845 95.0856 20.3804 93.0205 19.4531 90.7021C17.7636 86.6151 17.4536 82.5687 18.4621 78.7946C19.252 75.9425 20.7126 73.3208 22.7221 71.1483C24.1324 69.6234 25.7552 68.3099 27.5404 67.2482C27.5377 67.262 27.5358 67.2758 27.5346 67.2898C27.5339 67.2997 27.5321 67.3095 27.5292 67.319C27.4999 67.5407 27.4786 67.7546 27.4556 67.9662C27.4509 68.0257 27.4426 68.0849 27.4362 68.1422C27.4351 68.1463 27.4357 68.1507 27.4377 68.1545L27.4333 68.1533C27.1079 72.2777 28.2845 76.3807 30.7463 79.7058L26.7915 80.7202L27.2676 82.5857L32.1084 81.3429C32.4377 81.6937 32.7659 82.046 33.1259 82.3702C33.2603 82.5072 33.4409 82.6528 33.6045 82.7959L26.884 84.5196L27.1704 85.6369L27.1836 85.6848L27.3621 86.3824L35.5686 84.2782C35.6393 84.3272 35.7167 84.3686 35.7875 84.4147C35.9834 84.5451 36.1844 84.6627 36.385 84.789C36.6776 84.9725 36.9572 85.1624 37.2569 85.3354C37.1855 85.4585 37.1306 85.6013 37.0661 85.7299L27.8022 88.1046L27.9832 88.8017L28.0574 89.089L28.2815 89.9712L36.0893 87.9667C35.9422 88.3706 35.7843 88.768 35.6698 89.196C35.6042 89.4411 35.5637 89.701 35.5087 89.9519L29.5492 91.4769L29.81 92.5017L29.8473 92.6421L30.0278 93.3415L35.2115 92.0135C35.2 92.1775 35.1721 92.3318 35.1651 92.497C35.1108 95.3254 35.7617 98.1229 37.0589 100.637C34.787 100.913 32.4833 100.746 30.2748 100.146V100.146ZM56.9902 130.486C54.1043 131.138 51.1044 131.093 48.2396 130.353C44.4627 129.338 41.1101 127.05 38.421 123.547C34.714 118.702 34.5455 113.618 35.6486 109.449C36.2314 107.234 37.2389 105.154 38.615 103.324C38.7658 103.55 38.9415 103.757 39.0999 103.976C39.3052 104.26 39.5085 104.546 39.7266 104.818C39.9879 105.141 40.2694 105.44 40.5458 105.741C40.7706 105.982 40.9795 106.229 41.2146 106.455C41.545 106.778 41.8994 107.065 42.2537 107.353C42.4645 107.527 42.6612 107.716 42.8794 107.877C43.4501 108.301 44.0513 108.682 44.678 109.017C44.6913 109.024 44.7054 109.033 44.7187 109.041C44.7731 109.071 44.8298 109.089 44.8849 109.116C45.3439 109.353 45.815 109.566 46.2962 109.753L41.5282 114.102L42.823 115.524L48.4514 110.389C48.8669 110.482 49.278 110.56 49.6883 110.619C49.8419 110.641 49.9927 110.664 50.1462 110.682C50.3353 110.703 50.5219 110.724 50.707 110.738L43.3875 117.414L44.6844 118.835L52.0088 112.158C52.0148 112.29 52.0234 112.417 52.0315 112.55C52.0698 113.178 52.127 113.789 52.2037 114.388L45.8812 120.149L46.5664 120.901L46.6938 121.038L47.1775 121.568L52.6611 116.573C52.8236 117.206 53.0213 117.83 53.2534 118.442L49.0038 122.312L49.4914 122.845L49.5882 122.95L50.3024 123.731L54.0812 120.288C55.633 123.277 58.0311 125.742 60.976 127.376C61.2994 127.553 61.6093 127.744 61.9429 127.9L61.9451 127.901L61.948 127.903L61.9453 127.905C62.1941 128.016 62.4507 128.129 62.7101 128.236C62.7333 128.245 62.7559 128.254 62.7781 128.263C60.966 129.279 59.0166 130.028 56.9902 130.486V130.486ZM65.9314 127.218C65.8114 127.186 65.6957 127.155 65.5921 127.123L65.515 127.102L65.3674 127.062C65.2661 127.035 65.1439 127.007 65.0415 126.979C64.4949 126.836 63.9575 126.66 63.4325 126.451C63.2095 126.362 62.9784 126.26 62.7524 126.156C60.6252 125.141 58.7609 123.648 57.3048 121.794C55.8486 119.94 54.8398 117.776 54.3568 115.468C54.2678 115.151 54.1977 114.829 54.1468 114.503C53.9751 113.253 53.8901 111.993 53.8925 110.731C54.0519 110.718 54.2013 110.694 54.3536 110.676C54.5092 110.659 54.6625 110.642 54.8152 110.623C55.2206 110.568 55.6175 110.505 55.9973 110.432C56.0541 110.422 56.1106 110.414 56.1653 110.403C56.6079 110.315 57.0273 110.218 57.4312 110.115C57.5418 110.085 57.6419 110.056 57.7495 110.029C58.0476 109.947 58.3354 109.864 58.6075 109.778C58.7128 109.746 58.814 109.716 58.9128 109.683C59.2169 109.583 59.5066 109.484 59.7737 109.386C59.8067 109.373 59.8465 109.361 59.8798 109.348C60.1712 109.238 60.4341 109.133 60.677 109.033C60.7707 108.992 60.8505 108.959 60.936 108.921C61.0031 108.891 61.0861 108.859 61.1482 108.83C61.6921 109.504 62.2957 110.126 62.9517 110.691L60.9327 118.229L61.6311 118.416L62.0926 118.54L62.7898 118.727L64.5989 111.972C65.1151 112.302 65.6502 112.602 66.2013 112.869L64.2877 120.015L64.9804 120.2L65.4464 120.325L66.1436 120.512L67.9907 113.615C68.2854 113.718 68.5728 113.857 68.868 113.936L69.0045 113.972C69.0463 113.98 69.0782 113.988 69.1344 114.003C69.3161 114.052 69.5175 114.063 69.704 114.103L67.8641 120.973L68.5612 121.159L69.0216 121.283L69.7189 121.469L71.6102 114.407C72.2213 114.452 72.8345 114.461 73.4466 114.435L71.6607 121.103L72.3578 121.29L72.8216 121.414L73.5177 121.6L75.4979 114.207C76.4806 114.053 77.4447 113.797 78.3746 113.444C79.8579 115.477 81.6594 117.258 83.7098 118.717C83.0814 119.81 82.3777 120.857 81.6036 121.852C81.4098 122.096 81.201 122.329 80.9783 122.547C79.4045 124.315 77.4434 125.696 75.248 126.581C73.0526 127.465 70.6824 127.831 68.3224 127.648C68.0732 127.626 67.8278 127.6 67.5838 127.563C67.0265 127.482 66.4746 127.367 65.9314 127.218V127.218ZM90.706 137.548C86.6204 139.236 82.5734 139.546 78.7955 138.534C75.9444 137.745 73.3229 136.286 71.1488 134.28C69.6239 132.87 68.3111 131.247 67.2514 129.461C67.2735 129.466 67.2958 129.469 67.3183 129.472C67.4877 129.496 67.6502 129.51 67.8156 129.527C67.927 129.539 68.0437 129.557 68.1488 129.566L68.1493 129.564L68.1525 129.565C72.3597 129.9 76.5423 128.67 79.8988 126.111L80.9222 130.766L82.7984 130.355L81.5527 124.687C81.8294 124.421 82.1151 124.165 82.3715 123.878C82.6019 123.645 82.82 123.4 83.0248 123.145C83.0276 123.142 83.0301 123.138 83.0321 123.135L84.7227 130.808L86.5998 130.393L84.5403 121.042C84.6328 120.899 84.7111 120.743 84.803 120.599C84.9823 120.313 85.1687 120.036 85.3374 119.741C85.3479 119.745 85.3607 119.75 85.3703 119.755C85.6288 119.9 85.9002 120.036 86.171 120.172L88.3344 130.011L89.0405 129.856L89.0995 129.843L90.2159 129.597L88.3359 121.062C88.6221 121.157 88.9038 121.256 89.2012 121.336C89.547 121.428 89.9089 121.492 90.2694 121.561L91.7706 128.381L92.4741 128.227L92.9446 128.123L93.6496 127.967L92.2949 121.817C92.3631 121.823 92.4301 121.837 92.4995 121.837C92.6034 121.842 92.7076 121.823 92.813 121.826C93.4304 121.839 94.048 121.814 94.6621 121.749C94.9551 121.718 95.2433 121.647 95.5346 121.599C95.9629 121.525 96.3937 121.459 96.8177 121.353C97.1267 121.275 97.4322 121.169 97.738 121.072C98.1406 120.949 98.5415 120.827 98.9377 120.674C99.2347 120.561 99.5206 120.428 99.8117 120.297C100.087 120.177 100.37 120.073 100.643 119.94C100.919 122.211 100.75 124.514 100.148 126.721C99.0199 130.884 96.3301 135.206 90.706 137.548V137.548ZM130.491 100.01C131.141 102.897 131.096 105.897 130.358 108.762C129.344 112.535 127.054 115.889 123.552 118.581C121.589 120.125 119.287 121.182 116.836 121.663C114.384 122.145 111.854 122.038 109.452 121.351C107.239 120.767 105.16 119.761 103.33 118.387C105.529 116.956 107.374 115.044 108.724 112.794L111.472 116.635L112.06 116.213L112.452 115.933L113.037 115.514L109.697 110.844C109.915 110.299 110.102 109.742 110.256 109.175C110.298 109.016 110.311 108.859 110.35 108.701L114.982 115.175L115.848 114.556L115.959 114.475L116.546 114.055L110.746 105.946C110.764 105.642 110.805 105.332 110.807 105.033C111.29 105.032 111.767 105.006 112.243 104.982L117.99 113.02L118.576 112.602L118.969 112.322L119.555 111.903L114.467 104.788C114.566 104.774 114.677 104.771 114.779 104.755C115.166 104.698 115.548 104.618 115.926 104.516C116.078 104.483 116.224 104.428 116.373 104.393L120.507 110.171L121.091 109.753L121.484 109.474L122.072 109.053L118.312 103.802C122.531 102.256 125.974 99.118 127.903 95.0608C128.02 94.8083 128.132 94.5541 128.239 94.2875C128.247 94.2666 128.258 94.2436 128.266 94.2222C129.283 96.0341 130.033 97.9839 130.491 100.011L130.491 100.01ZM134.283 85.8534C132.872 87.3791 131.248 88.6933 129.462 89.7553L129.468 89.7094L129.474 89.6859C129.492 89.5567 129.503 89.4374 129.517 89.3107C129.534 89.1594 129.553 89.0028 129.568 88.8577C129.569 88.8559 129.569 88.8518 129.57 88.848C129.899 84.6835 128.696 80.5421 126.187 77.2023L130.653 76.156L130.216 74.2832L124.791 75.555C124.49 75.2411 124.2 74.9222 123.877 74.632C123.705 74.4554 123.484 74.2695 123.265 74.0869L130.645 72.3561L130.204 70.4845L121.218 72.5872C121.018 72.4546 120.807 72.3296 120.599 72.2001C120.315 72.0206 120.036 71.834 119.743 71.664C119.855 71.4642 119.945 71.2396 120.052 71.0324L129.798 68.7561L129.6 67.9134L129.525 67.5841L129.361 66.8849L120.979 68.8402C121.098 68.4931 121.238 68.1619 121.336 67.7962C121.415 67.5027 121.467 67.1902 121.529 66.8833L128.126 65.3425L127.962 64.6417L127.853 64.1727L127.685 63.4709L121.807 64.846C121.814 64.7299 121.837 64.6215 121.84 64.5037C121.893 61.6736 121.241 58.875 119.942 56.3601C122.214 56.083 124.518 56.2502 126.726 56.8526C129.15 57.4575 131.395 58.6292 133.278 60.2713C135.16 61.9134 136.626 63.9791 137.554 66.2982C139.243 70.3774 139.549 74.4319 138.542 78.2049C137.748 81.0559 136.288 83.6776 134.283 85.8536V85.8534Z" fill="#383526"/>
</g>
<defs>
<filter id="filter0_f" x="0" y="0" width="157" height="157" filterUnits="userSpaceOnUse" color-interpolation-filters="sRGB">
<feFlood flood-opacity="0" result="BackgroundImageFix"/>
<feBlend mode="normal" in="SourceGraphic" in2="BackgroundImageFix" result="shape"/>
<feGaussianBlur stdDeviation="7.5" result="effect1_foregroundBlur"/>
</filter>
</defs>
</svg>
