<svg width="32" height="32" viewBox="0 0 32 32" fill="none" xmlns="http://www.w3.org/2000/svg">
<path d="M5.61261 5.84948L5.72353 5.72386C6.20418 5.24322 6.96049 5.20625 7.48354 5.61294L7.60916 5.72386L15.9997 14.1133L24.3902 5.72386C24.9109 5.20317 25.7551 5.20317 26.2758 5.72386C26.7965 6.24457 26.7965 7.08878 26.2758 7.60949L17.8863 16L26.2758 24.3905C26.7565 24.8712 26.7934 25.6275 26.3867 26.1505L26.2758 26.2761C25.7951 26.7568 25.0389 26.7937 24.5158 26.3871L24.3902 26.2761L15.9997 17.8867L7.60916 26.2761C7.08845 26.7968 6.24424 26.7968 5.72353 26.2761C5.20284 25.7555 5.20284 24.9112 5.72353 24.3905L14.113 16L5.72353 7.60949C5.24289 7.12884 5.20592 6.37253 5.61261 5.84948L5.72353 5.72386L5.61261 5.84948Z" fill="#212121"/>
</svg>
