<svg width="32" height="32" viewBox="0 0 32 32" fill="none" xmlns="http://www.w3.org/2000/svg">
<path d="M23.0061 17.3347H18.3376C17.7853 17.3347 17.3376 17.7825 17.3376 18.3347V23.0041C17.3376 23.5563 17.7853 24.0041 18.3376 24.0041H23.0061C23.5584 24.0041 24.0061 23.5563 24.0061 23.0041V18.3347C24.0061 17.7825 23.5584 17.3347 23.0061 17.3347ZM22.0052 19.3347V22.0041H19.3372V19.3347H22.0052ZM10.8879 9.33608H4.66785L4.668 10.8891C4.668 12.4636 5.83802 13.7649 7.35606 13.9707L7.56516 13.9919L7.77809 13.9991C9.42417 13.9991 10.7716 12.7203 10.881 11.102L10.8882 10.8891L10.8879 9.33608ZM19.1079 9.33608H12.8879L12.8882 10.8891C12.8882 12.4636 14.0583 13.7649 15.5763 13.9707L15.7853 13.9919L15.9983 13.9991C17.6444 13.9991 18.9917 12.7203 19.1012 11.102L19.1084 10.8891L19.1079 9.33608ZM27.3305 9.33608H21.1105L21.1115 10.8891C21.1115 12.4636 22.2816 13.7649 23.7996 13.9707L24.0087 13.9919L24.2216 13.9991C25.8677 13.9991 27.2151 12.7203 27.3245 11.102L27.3317 10.8891L27.3305 9.33608ZM12.0807 4.66675H8.43452L5.95852 7.33608H11.2607L12.0807 4.66675ZM17.8247 4.66675H14.174L13.3527 7.33608H18.646L17.8247 4.66675ZM23.5639 4.66675H19.918L20.738 7.33608H26.0399L23.5639 4.66675ZM2.93489 7.65599L7.26674 2.98663C7.42444 2.81665 7.6352 2.70783 7.86208 2.67628L7.99985 2.66675H23.9999C24.2317 2.66675 24.4548 2.74724 24.6323 2.89211L24.7329 2.98663L29.096 7.69107L29.1369 7.74293C29.2725 7.92383 29.3337 8.12895 29.3337 8.33041L29.3317 10.8891C29.3317 12.2146 28.8269 13.4223 27.9992 14.3305L27.9981 28.3334C27.9981 28.8397 27.622 29.2581 27.1339 29.3243L26.9981 29.3334L15.9935 29.3321H7.99884L5.0015 29.3334C4.49525 29.3334 4.07685 28.9572 4.01064 28.4692L4.0015 28.3334L4.00046 14.3305C3.22778 13.4827 2.73658 12.374 2.67464 11.152L2.668 10.8891L2.66773 8.38804C2.65697 8.20496 2.6965 8.01659 2.79564 7.84425L2.86201 7.74275L2.93489 7.65599Z" fill="#82A44B"/>
</svg>
