<svg width="32" height="32" viewBox="0 0 32 32" fill="none" xmlns="http://www.w3.org/2000/svg">
<path d="M20.6724 19.6664C22.3284 19.6664 23.671 21.0088 23.671 22.6649V23.8894C23.671 24.654 23.4319 25.3993 22.9875 26.0213C20.9263 28.9057 17.5606 30.3345 13.0002 30.3345C8.43891 30.3345 5.07496 28.905 3.01875 26.0192C2.57614 25.398 2.33826 24.6542 2.33826 23.8914V22.6649C2.33826 21.0088 3.68074 19.6664 5.33676 19.6664H20.6724ZM13.0002 3.67261C16.682 3.67261 19.6668 6.65738 19.6668 10.3393C19.6668 14.0212 16.682 17.006 13.0002 17.006C9.31831 17.006 6.33354 14.0212 6.33354 10.3393C6.33354 6.65738 9.31831 3.67261 13.0002 3.67261Z" fill="#82A44B"/>
<path d="M24.9477 2.46174L25 2.4585C25.2124 2.4585 25.3877 2.61745 25.4134 2.8229L25.4167 2.87516L25.4169 6.58306L29.1248 6.58329C29.3549 6.58328 29.5415 6.76984 29.5415 6.99995C29.5415 7.23006 29.3549 7.41661 29.1248 7.41662L25.4169 7.41685L25.4167 11.1247C25.4167 11.3372 25.2577 11.5124 25.0523 11.5382L25 11.5414C24.7876 11.5414 24.6123 11.3825 24.5866 11.177L24.5833 11.1247L24.5831 7.41685L20.8752 7.41662C20.6451 7.41661 20.4586 7.23006 20.4586 6.99995C20.4586 6.76984 20.6451 6.58328 20.8752 6.58329L24.5831 6.58306L24.5833 2.87516C24.5833 2.66275 24.7423 2.48746 24.9477 2.46174Z" fill="#82A44B"/>
</svg>
