<svg width="32" height="32" viewBox="0 0 32 32" fill="none" xmlns="http://www.w3.org/2000/svg">
<path d="M13.3334 3.33333C18.8562 3.33333 23.3334 7.81047 23.3334 13.3333C23.3334 15.6135 22.5702 17.7155 21.2854 19.3977L27.6095 25.7239C28.1302 26.2445 28.1302 27.0888 27.6095 27.6095C27.1288 28.0901 26.3726 28.1271 25.8495 27.7204L25.7239 27.6095L19.3978 21.2853C17.7155 22.5701 15.6135 23.3333 13.3334 23.3333C7.81052 23.3333 3.33337 18.8561 3.33337 13.3333C3.33337 7.81047 7.81052 3.33333 13.3334 3.33333ZM13.3334 5.99999C9.28328 5.99999 6.00004 9.28323 6.00004 13.3333C6.00004 17.3835 9.28328 20.6667 13.3334 20.6667C17.3835 20.6667 20.6667 17.3835 20.6667 13.3333C20.6667 9.28323 17.3835 5.99999 13.3334 5.99999Z" fill="#6F6D69"/>
</svg>
