<svg width="72" height="72" viewBox="0 0 72 72" fill="none" xmlns="http://www.w3.org/2000/svg">
<path d="M18.3442 32.9456C17.5705 32.1713 18.5054 31.333 19.0695 31.0106C20.5207 30.5269 20.521 32.2204 20.521 32.7042C20.521 33.1879 19.3114 33.9135 18.3442 32.9456Z" fill="#C3AFFA"/>
<path d="M31.1627 26.899C30.5822 26.1246 31.727 25.2866 32.372 24.9644C33.5813 24.9644 33.5813 26.899 33.3394 27.3827C33.0976 27.8664 31.8883 27.8669 31.1627 26.899Z" fill="#C3AFFA"/>
<path d="M44.9489 31.9786C44.5619 31.0111 46.0776 30.7693 46.8838 30.7693C47.2063 31.011 47.8512 31.5912 47.8512 31.9786C47.8512 32.4628 46.6419 33.1879 46.1582 33.1879C45.6745 33.1879 45.4326 33.1879 44.9489 31.9786Z" fill="#C3AFFA"/>
<path fill-rule="evenodd" clip-rule="evenodd" d="M29.7121 60.0345L25.3585 68.2578C28.5834 70.1927 36.4359 72.9016 42.0471 68.2578C40.3057 65.549 38.2579 61.4857 37.4517 59.7926C37.9786 59.5819 39.0104 60.0598 40.1472 60.5862C41.6196 61.2681 43.2682 62.0316 44.2236 61.4857C49.4098 57.596 47.5037 53.2807 45.6748 51.0383C48.2546 47.9904 53.4144 40.2015 53.4144 33.4293C52.8865 36.2434 51.0799 36.1159 49.7614 36.0228C49.2667 35.9879 48.8407 35.9578 48.5768 36.0898C48.1931 36.2816 48.0377 36.8539 47.8691 37.4748C47.6126 38.4192 47.3256 39.4759 46.1582 39.4759C44.955 39.4758 44.5002 38.1666 44.0955 37.0019C43.8494 36.2935 43.6218 35.6386 43.2558 35.3642C42.8797 35.0822 42.3209 35.129 41.7358 35.178C40.8154 35.2551 39.8296 35.3377 39.386 34.1549H26.0835H23.1818C23.0162 34.4035 23.1344 34.7657 23.2738 35.1928C23.5412 36.0123 23.8866 37.0708 22.4559 38.0247C20.9565 39.0244 20.0307 38.0728 19.2835 37.3049C18.9461 36.9581 18.6451 36.6488 18.3442 36.5735C17.9108 36.4652 17.3316 36.7453 16.7589 37.0223C16.0537 37.3634 15.3584 37.6996 14.9581 37.2991C14.2328 36.5735 13.9101 35.6061 13.7489 34.8805C13.1684 39.1373 18.6668 47.5663 21.4885 51.2487C17.3708 55.3384 20.7189 59.6747 23.1818 61.4857C23.4556 61.6682 24.8162 61.2302 26.2283 60.7756C27.6727 60.3106 29.1709 59.8283 29.6149 59.975C29.6465 59.9953 29.6789 60.0151 29.7121 60.0345ZM29.7121 60.0345C29.6899 60.0086 29.6572 59.9889 29.6149 59.975C27.4431 58.5783 29.2457 55.0935 30.4374 53.5042C32.8561 50.6016 35.2747 52.2946 36.484 53.5042C38.271 54.2981 37.7764 57.5368 37.5418 59.073C37.4905 59.4084 37.4517 59.6627 37.4517 59.7926C36.323 61.5663 33.1949 64.0978 29.7121 60.0345Z" fill="#C3AFFA"/>
<path d="M29.7121 60.0345L25.3585 68.2578C28.5834 70.1927 36.4359 72.9016 42.0471 68.2578C40.3057 65.549 38.2579 61.4857 37.4517 59.7926M29.7121 60.0345C33.1949 64.0978 36.323 61.5663 37.4517 59.7926M29.7121 60.0345C29.4696 59.9501 25.8417 61.9696 24.6324 63.6627M29.7121 60.0345C29.6789 60.0151 29.6465 59.9953 29.6149 59.975M29.7121 60.0345C29.6899 60.0086 29.6572 59.9889 29.6149 59.975M37.4517 59.7926C39.1445 60.7602 42.7721 63.1789 43.7396 65.1138M37.4517 59.7926C37.9786 59.5819 39.0104 60.0598 40.1472 60.5862C41.6196 61.2681 43.2682 62.0316 44.2236 61.4857C49.4098 57.596 47.5037 53.2807 45.6748 51.0383M37.4517 59.7926C37.4517 59.6627 37.4905 59.4084 37.5418 59.073C37.7764 57.5368 38.271 54.2981 36.484 53.5042M30.4374 53.5042C29.7118 53.5042 27.0514 48.9088 23.1818 49.8762C22.5141 50.3279 21.9536 50.7868 21.4885 51.2487M30.4374 53.5042C32.8561 50.6016 35.2747 52.2946 36.484 53.5042M30.4374 53.5042C29.2457 55.0935 27.4431 58.5783 29.6149 59.975M36.484 53.5042C37.4517 53.5042 43.0627 48.8603 44.2236 49.6342C44.5635 49.8608 45.1155 50.3526 45.6748 51.0383M21.4885 51.2487C17.3708 55.3384 20.7189 59.6747 23.1818 61.4857C23.4556 61.6682 24.8162 61.2302 26.2283 60.7756C27.6727 60.3106 29.1709 59.8283 29.6149 59.975M21.4885 51.2487C18.6668 47.5663 13.1684 39.1373 13.7489 34.8805C13.9101 35.6061 14.2328 36.5735 14.9581 37.2991C15.3584 37.6996 16.0537 37.3634 16.7589 37.0223C17.3316 36.7453 17.9108 36.4652 18.3442 36.5735C18.6451 36.6488 18.9461 36.9581 19.2835 37.3049C20.0307 38.0728 20.9565 39.0244 22.4559 38.0247C23.8866 37.0708 23.5412 36.0123 23.2738 35.1928C23.1344 34.7657 23.0162 34.4035 23.1818 34.1549H26.0835H39.386C39.8296 35.3377 40.8154 35.2551 41.7358 35.178C42.3209 35.129 42.8797 35.0822 43.2558 35.3642C43.6218 35.6386 43.8494 36.2935 44.0955 37.0019C44.5002 38.1666 44.955 39.4758 46.1582 39.4759C47.3256 39.4759 47.6126 38.4192 47.8691 37.4748C48.0377 36.8539 48.1931 36.2816 48.5768 36.0898C48.8407 35.9578 49.2667 35.9879 49.7614 36.0228C51.0799 36.1159 52.8865 36.2434 53.4144 33.4293C53.4144 40.2015 48.2546 47.9904 45.6748 51.0383M19.0695 31.0106C18.5054 31.333 17.5705 32.1713 18.3442 32.9456C19.3114 33.9135 20.521 33.1879 20.521 32.7042C20.521 32.2204 20.5207 30.5269 19.0695 31.0106ZM32.372 24.9644C31.727 25.2866 30.5822 26.1246 31.1627 26.899C31.8883 27.8669 33.0976 27.8664 33.3394 27.3827C33.5813 26.899 33.5813 24.9644 32.372 24.9644ZM46.8838 30.7693C46.0776 30.7693 44.5619 31.0111 44.9489 31.9786C45.4326 33.1879 45.6745 33.1879 46.1582 33.1879C46.6419 33.1879 47.8512 32.4628 47.8512 31.9786C47.8512 31.5912 47.2063 31.011 46.8838 30.7693Z" stroke="#273210" stroke-width="0.5" stroke-linecap="round" stroke-linejoin="round"/>
<path fill-rule="evenodd" clip-rule="evenodd" d="M30.333 31.6583C30.5937 32.5711 30.9066 33.6667 32.6139 33.6668C33.6008 33.6669 34.1551 33.3674 34.4989 32.9412C34.8113 32.554 34.9499 32.0622 35.0815 31.5954C35.1956 31.1909 35.3044 30.8052 35.5163 30.5226C35.8024 30.1412 36.3516 29.9853 36.9417 29.8178C37.4513 29.6732 37.9913 29.52 38.4186 29.2053C38.7515 28.9602 39.0159 28.6172 39.1442 28.104C39.2696 27.6026 39.2163 27.2149 39.0558 26.8945C38.8189 26.4214 38.3483 26.0953 37.8745 25.767C37.4313 25.4599 36.9854 25.1509 36.7256 24.7179C36.4447 24.2497 36.6713 23.7453 36.9142 23.2046C37.2988 22.3487 37.7241 21.4019 36.2419 20.3644C34.7235 19.3015 33.9677 20.0498 33.2564 20.7541C32.8346 21.1717 32.4285 21.5738 31.8883 21.5737C31.3607 21.5736 30.833 21.3178 30.3054 21.062C29.8609 20.8465 29.4164 20.6311 28.9719 20.5684C28.4929 20.5009 28.0138 20.611 27.5348 21.0899C26.5767 22.0479 26.8837 22.9006 27.203 23.7871C27.3673 24.2433 27.5348 24.7085 27.5348 25.2016C27.5348 25.7706 27.0888 26.1536 26.6047 26.5693C25.854 27.2141 25.0117 27.9375 25.5999 29.5552C26.2393 31.3137 27.4071 30.959 28.4047 30.656C28.9165 30.5005 29.3835 30.3586 29.7116 30.5226C30.0582 30.6959 30.1875 31.1486 30.333 31.6583ZM16.1672 9.48078C21.585 18.1879 25.1162 17.2204 27.2929 16.0111C29.6309 14.3987 33.4846 9.67427 30.1953 3.67606C26.0836 -3.8217 25.8417 7.78774 26.5673 9.48078C26.4044 9.155 26.2415 8.62195 26.0513 7.99935C25.394 5.84882 24.4102 2.62976 21.9719 3.19244C19.4566 3.77292 21.4076 8.91654 22.6975 11.4158C21.3941 8.99716 18.3463 4.40176 16.583 5.36921C14.8197 6.33666 15.5711 8.51336 16.1672 9.48078ZM36.7256 6.0948C33.2428 13.4474 38.1768 17.543 41.0791 18.6717C43.659 19.1554 49.1574 18.3331 50.5118 11.1739C50.8343 10.0452 51.0923 7.64273 49.5443 7.06225C47.9964 6.48178 45.352 11.1739 44.2234 13.5926C45.2714 11.0933 46.7387 5.94968 44.2234 5.36921C42.0744 4.87329 40.9493 8.4612 40.5163 11.1257C40.6301 7.63479 39.0457 0.610802 36.7256 6.0948ZM31.1627 26.8945C30.5823 26.1202 31.7271 25.2822 32.3721 24.96C33.5814 24.96 33.5814 26.8945 33.3395 27.3783C33.0976 27.862 31.8883 27.8625 31.1627 26.8945Z" fill="#DBC241"/>
<path d="M29.7122 60.0301C33.195 64.0934 36.3231 61.5619 37.4518 59.7882C37.4518 59.0628 38.6612 54.467 36.4841 53.4998C35.2748 52.2902 32.8561 50.5972 30.4375 53.4998C29.2458 55.089 27.4432 58.5739 29.615 59.9706C29.6573 59.9845 29.6899 60.0042 29.7122 60.0301Z" fill="#DBC241"/>
<path fill-rule="evenodd" clip-rule="evenodd" d="M13.7489 34.8761C13.9102 35.6017 14.2329 36.5691 14.9582 37.2947C15.6835 38.0203 17.3771 36.3273 18.3443 36.5691C19.3114 36.8109 20.2795 39.4715 22.456 38.0203C24.6324 36.5691 22.6987 34.8761 23.1818 34.1505C23.665 33.4249 25.3586 32.9412 25.3586 31.49C25.3065 31.3024 25.2356 31.0866 25.1452 30.8508C24.5435 30.0947 22.8516 30.1488 22.456 29.5551C22.0198 28.9005 22.3707 26.8677 21.0224 26.1211C20.8601 26.0494 20.693 25.9844 20.5211 25.9271C19.358 25.6364 18.8067 26.6564 18.3418 27.5164C18.0332 28.0873 17.7628 28.5876 17.3768 28.5876C17.0775 28.5876 16.7319 28.4024 16.3614 28.2039C15.5345 27.7608 14.5841 27.2514 13.7489 28.5876C12.5397 30.5225 14.9582 32.9412 14.9582 32.9412L13.7489 34.8761ZM18.3443 32.9412C17.5706 32.1669 18.5054 31.3286 19.0696 31.0062C20.5208 30.5224 20.5211 32.216 20.5211 32.6998C20.5211 33.1835 19.3114 33.9091 18.3443 32.9412Z" fill="#DBC241"/>
<path fill-rule="evenodd" clip-rule="evenodd" d="M39.3861 34.1505C40.1117 36.0853 42.2881 34.6342 43.2559 35.3598C44.2237 36.0853 44.2234 39.4713 46.1583 39.4714C48.0932 39.4716 47.6094 36.5689 48.5769 36.0853C49.5443 35.6017 52.6886 37.2947 53.4145 33.4249C53.4142 31.8948 50.7537 32.2157 50.7537 31.0062C50.7537 30.5757 51.0295 30.1451 51.3194 29.6928C51.8437 28.8745 52.4138 27.9849 51.4792 26.8945C51.3613 26.7569 51.2401 26.6464 51.1163 26.5595C50.2848 25.9753 49.3382 26.4542 48.4738 26.8916C47.8849 27.1897 47.3341 27.4684 46.8838 27.3783C46.4868 27.2988 46.0637 26.9326 45.606 26.5364C44.6696 25.7259 43.5883 24.7899 42.2884 25.9271C40.3532 27.6202 41.8047 30.0388 41.8047 30.0388C41.8047 30.0388 38.4186 31.9738 39.3861 34.1505ZM44.9489 31.9742C44.562 31.0067 46.0776 30.7648 46.8838 30.7648C47.2063 31.0066 47.8513 31.5868 47.8513 31.9742C47.8513 32.4583 46.642 33.1835 46.1583 33.1835C45.6745 33.1835 45.4327 33.1835 44.9489 31.9742Z" fill="#DBC241"/>
<path fill-rule="evenodd" clip-rule="evenodd" d="M17.3768 23.2413C17.1195 23.0411 16.8546 22.8392 16.583 22.6367C16.2732 23.9414 13.023 27.6205 11.33 24.96C9.97552 22.8316 12.7982 21.4931 14.3788 21.0899C14.6566 21.2728 14.9305 21.4576 15.1998 21.6436C15.2 19.999 15.8291 16.8335 18.3443 17.3279C21.4882 17.946 20.3748 21.7647 17.3768 23.2413ZM9.39505 18.341C8.91109 18.1309 8.42647 17.9392 7.94387 17.7696C8.10512 19.8439 7.65364 23.6538 4.55779 22.2993C1.46194 20.9449 4.55779 18.4207 6.49269 17.3279C6.81331 17.4096 7.13607 17.503 7.46015 17.607C7.46015 17.5896 7.42189 17.5047 7.3608 17.3692C6.91248 16.3749 5.23472 12.6538 8.4276 12.8667C12.0555 13.1085 10.3625 17.5266 9.39505 18.341ZM53.8175 24.2345C52.0706 23.3477 49.1574 21.0903 51.4792 19.1554C53.8011 17.2205 55.6037 20.6701 56.2147 22.6367C56.4837 22.476 56.7596 22.3171 57.0421 22.1607C58.8158 23.1744 61.6859 25.637 58.977 27.3783C56.2681 29.1196 54.946 25.624 54.6235 23.6586C54.3439 23.8512 54.075 24.0436 53.8175 24.2345ZM61.3956 20.2277C59.9445 19.1447 57.7677 16.64 60.67 15.2856C63.5724 13.9312 64.298 17.5043 64.298 19.4602C64.6177 19.399 64.9403 19.345 65.2654 19.299C66.3135 20.9442 67.6841 24.428 64.7817 25.2016C61.8794 25.9753 61.96 22.0064 62.3631 19.9253C62.0366 20.0195 61.714 20.1206 61.3956 20.2277Z" fill="#DBC241"/>
<path d="M29.7122 60.0301C33.195 64.0934 36.3231 61.5619 37.4518 59.7882C37.4518 59.0628 38.6612 54.467 36.4841 53.4998C35.2748 52.2902 32.8561 50.5972 30.4375 53.4998C29.2458 55.089 27.4432 58.5739 29.615 59.9706M29.7122 60.0301C29.6789 60.0107 29.6465 59.9908 29.615 59.9706M29.7122 60.0301C29.6899 60.0042 29.6573 59.9845 29.615 59.9706M23.1818 34.1505C22.6987 34.8761 24.6324 36.5691 22.456 38.0203C20.2795 39.4715 19.3114 36.8109 18.3443 36.5691C17.3771 36.3273 15.6835 38.0203 14.9582 37.2947C14.2329 36.5691 13.9102 35.6017 13.7489 34.8761L14.9582 32.9412C14.9582 32.9412 12.5397 30.5225 13.7489 28.5876C14.5841 27.2514 15.5345 27.7608 16.3614 28.2039C16.7319 28.4024 17.0775 28.5876 17.3768 28.5876C17.7628 28.5876 18.0332 28.0873 18.3418 27.5164C18.8067 26.6564 19.358 25.6364 20.5211 25.9271M23.1818 34.1505C23.665 33.4249 25.3586 32.9412 25.3586 31.49M23.1818 34.1505H26.0836M25.3586 31.49C25.7461 32.651 26.0034 33.7474 26.0836 34.1505M25.3586 31.49C25.3586 31.2264 25.2788 31.0186 25.1452 30.8508M25.3586 31.49C25.3065 31.3024 25.2356 31.0866 25.1452 30.8508M20.5211 25.9271C19.7167 25.1611 18.6366 24.2213 17.3768 23.2413M20.5211 25.9271C20.7102 25.9744 20.8763 26.0402 21.0224 26.1211M20.5211 25.9271C20.693 25.9844 20.8601 26.0494 21.0224 26.1211M39.3861 34.1505C40.1117 36.0853 42.2881 34.6342 43.2559 35.3598C44.2237 36.0853 44.2234 39.4713 46.1583 39.4714C48.0932 39.4716 47.6094 36.5689 48.5769 36.0853C49.5443 35.6017 52.6886 37.2947 53.4145 33.4249C53.4142 31.8948 50.7537 32.2157 50.7537 31.0062C50.7537 30.5757 51.0295 30.1451 51.3194 29.6928C51.8437 28.8745 52.4138 27.9849 51.4792 26.8945C51.3613 26.7569 51.2401 26.6464 51.1163 26.5595M39.3861 34.1505C38.4186 31.9738 41.8047 30.0388 41.8047 30.0388C41.8047 30.0388 40.3532 27.6202 42.2884 25.9271C43.5883 24.7899 44.6696 25.7259 45.606 26.5364C46.0637 26.9326 46.4868 27.2988 46.8838 27.3783C47.3341 27.4684 47.8849 27.1897 48.4738 26.8916C49.3382 26.4542 50.2848 25.9753 51.1163 26.5595M39.3861 34.1505H37.2093M26.0836 34.1505H34.7907M2.86475 16.9785C4.00799 16.8679 5.23383 17.0073 6.49269 17.3279M6.49269 17.3279C4.55779 18.4207 1.46194 20.9449 4.55779 22.2993C7.65364 23.6538 8.10512 19.8439 7.94387 17.7696M6.49269 17.3279C6.81331 17.4096 7.13607 17.503 7.46015 17.607M7.94387 17.7696C7.78237 17.7129 7.6211 17.6586 7.46015 17.607M7.94387 17.7696C8.42647 17.9392 8.91109 18.1309 9.39505 18.341M7.46015 17.607C7.46015 17.5896 7.42189 17.5047 7.3608 17.3692C6.91248 16.3749 5.23472 12.6538 8.4276 12.8667C12.0555 13.1085 10.3625 17.5266 9.39505 18.341M9.39505 18.341C11.1038 19.0827 12.8043 20.0537 14.3788 21.0899M14.3788 21.0899C12.7982 21.4931 9.97552 22.8316 11.33 24.96C13.023 27.6205 16.2732 23.9414 16.583 22.6367M14.3788 21.0899C14.6566 21.2728 14.9305 21.4576 15.1998 21.6436M16.583 22.6367C16.1386 22.3055 15.6764 21.9728 15.1998 21.6436M16.583 22.6367C16.8546 22.8392 17.1195 23.0411 17.3768 23.2413M15.1998 21.6436C15.2 19.999 15.8291 16.8335 18.3443 17.3279C21.4882 17.946 20.3748 21.7647 17.3768 23.2413M28.986 20.6065L28.9719 20.5684M27.2929 16.0111C25.1162 17.2204 21.585 18.1879 16.1672 9.48078C15.5711 8.51336 14.8197 6.33666 16.583 5.36921C18.3463 4.40176 21.3941 8.99716 22.6975 11.4158C21.4076 8.91654 19.4566 3.77292 21.9719 3.19244C24.4102 2.62976 25.394 5.84882 26.0513 7.99935C26.2415 8.62195 26.4044 9.155 26.5673 9.48078C25.8417 7.78774 26.0836 -3.8217 30.1953 3.67606C33.4846 9.67427 29.6309 14.3987 27.2929 16.0111ZM27.2929 16.0111L28.9719 20.5684M39.0558 26.8945C39.2163 27.2149 39.2696 27.6026 39.1442 28.104C39.0159 28.6172 38.7515 28.9602 38.4186 29.2053M39.0558 26.8945L41.0791 18.6717M39.0558 26.8945C38.8189 26.4214 38.3483 26.0953 37.8745 25.767C37.4313 25.4599 36.9854 25.1509 36.7256 24.7179C36.4447 24.2497 36.6713 23.7453 36.9142 23.2046C37.2988 22.3487 37.7241 21.4019 36.2419 20.3644C34.7235 19.3015 33.9677 20.0498 33.2564 20.7541C32.8346 21.1717 32.4285 21.5738 31.8883 21.5737C31.3607 21.5736 30.833 21.3178 30.3054 21.062C29.8609 20.8465 29.4164 20.6311 28.9719 20.5684M41.0791 18.6717C43.659 19.1554 49.1574 18.3331 50.5118 11.1739C50.8343 10.0452 51.0923 7.64273 49.5443 7.06225C47.9964 6.48178 45.352 11.1739 44.2234 13.5926C45.2714 11.0933 46.7387 5.94968 44.2234 5.36921C42.0744 4.87329 40.9493 8.4612 40.5163 11.1257M41.0791 18.6717C38.1768 17.543 33.2428 13.4474 36.7256 6.0948C39.0457 0.610802 40.6301 7.63479 40.5163 11.1257M51.1163 26.5595C51.7571 25.8968 52.676 25.0808 53.8175 24.2345M69.1353 19.1554C67.8175 19.0613 66.5221 19.1211 65.2654 19.299M53.8175 24.2345C52.0706 23.3477 49.1574 21.0903 51.4792 19.1554C53.8011 17.2205 55.6037 20.6701 56.2147 22.6367M53.8175 24.2345C54.075 24.0436 54.3439 23.8512 54.6235 23.6586M56.2147 22.6367C55.6528 22.9724 55.1212 23.3157 54.6235 23.6586M56.2147 22.6367C56.4837 22.476 56.7596 22.3171 57.0421 22.1607M54.6235 23.6586C54.946 25.624 56.2681 29.1196 58.977 27.3783C61.6859 25.637 58.8158 23.1744 57.0421 22.1607M57.0421 22.1607C58.3635 21.4294 59.8281 20.7552 61.3956 20.2277M61.3956 20.2277C59.9445 19.1447 57.7677 16.64 60.67 15.2856C63.5724 13.9312 64.298 17.5043 64.298 19.4602M61.3956 20.2277C61.714 20.1206 62.0366 20.0195 62.3631 19.9253M64.298 19.4602C63.6401 19.5862 62.9943 19.743 62.3631 19.9253M64.298 19.4602C64.6177 19.399 64.9403 19.345 65.2654 19.299M62.3631 19.9253C61.96 22.0064 61.8794 25.9753 64.7817 25.2016C67.6841 24.428 66.3135 20.9442 65.2654 19.299M21.0224 26.1211C23.2469 27.1044 24.578 29.3704 25.1452 30.8508M21.0224 26.1211C22.3707 26.8677 22.0198 28.9005 22.456 29.5551C22.8516 30.1488 24.5435 30.0947 25.1452 30.8508M28.9719 20.5684C28.4929 20.5009 28.0138 20.611 27.5348 21.0899C26.5767 22.0479 26.8837 22.9006 27.203 23.7871C27.3673 24.2433 27.5348 24.7085 27.5348 25.2016C27.5348 25.7706 27.0888 26.1536 26.6047 26.5693C25.854 27.2141 25.0117 27.9375 25.5999 29.5552C26.2393 31.3137 27.4071 30.959 28.4047 30.656C28.9165 30.5005 29.3835 30.3586 29.7116 30.5226C30.0582 30.6959 30.1875 31.1486 30.333 31.6583C30.5937 32.5711 30.9066 33.6667 32.6139 33.6668C33.6008 33.6669 34.1551 33.3674 34.4989 32.9412M40.5163 11.1257C40.4996 11.6378 40.4464 12.0738 40.3535 12.3832C40.3888 12.0075 40.4425 11.58 40.5163 11.1257ZM38.4186 29.2053C37.9913 29.52 37.4513 29.6732 36.9417 29.8178C36.3516 29.9853 35.8024 30.1412 35.5163 30.5226C35.3044 30.8052 35.1956 31.1909 35.0815 31.5954C34.9499 32.0622 34.8113 32.554 34.4989 32.9412M38.4186 29.2053L37.2093 34.1505M37.2093 34.1505H34.7907M34.4989 32.9412L34.7907 34.1505M19.0696 31.0062C18.5054 31.3286 17.5706 32.1669 18.3443 32.9412C19.3114 33.9091 20.5211 33.1835 20.5211 32.6998C20.5211 32.216 20.5208 30.5224 19.0696 31.0062ZM32.3721 24.96C31.7271 25.2822 30.5823 26.1202 31.1627 26.8945C31.8883 27.8625 33.0976 27.862 33.3395 27.3783C33.5814 26.8945 33.5814 24.96 32.3721 24.96ZM46.8838 30.7648C46.0776 30.7648 44.562 31.0067 44.9489 31.9742C45.4327 33.1835 45.6745 33.1835 46.1583 33.1835C46.642 33.1835 47.8513 32.4583 47.8513 31.9742C47.8513 31.5868 47.2063 31.0066 46.8838 30.7648Z" stroke="#273210" stroke-width="0.5" stroke-linecap="round" stroke-linejoin="round"/>
<path fill-rule="evenodd" clip-rule="evenodd" d="M31.1627 26.8945C30.5823 26.1202 31.7271 25.2822 32.3721 24.96C33.5814 24.96 33.5814 26.8945 33.3395 27.3782C33.0976 27.862 31.8883 27.8625 31.1627 26.8945Z" fill="#82A44B"/>
<path d="M29.7122 60.03C33.195 64.0933 36.3231 61.5618 37.4518 59.7882C37.4518 59.0628 38.6612 54.467 36.4841 53.4997C35.2748 52.2902 32.8561 50.5972 30.4375 53.4997C29.2458 55.089 27.4432 58.5738 29.615 59.9705C29.6573 59.9845 29.6899 60.0041 29.7122 60.03Z" fill="#82A44B"/>
<path fill-rule="evenodd" clip-rule="evenodd" d="M18.3443 32.9411C17.5706 32.1668 18.5054 31.3285 19.0696 31.0062C20.5208 30.5224 20.5211 32.216 20.5211 32.6997C20.5211 33.1834 19.3114 33.909 18.3443 32.9411Z" fill="#82A44B"/>
<path fill-rule="evenodd" clip-rule="evenodd" d="M44.9489 31.9741C44.562 31.0067 46.0776 30.7648 46.8838 30.7648C47.2063 31.0065 47.8513 31.5868 47.8513 31.9741C47.8513 32.4583 46.642 33.1834 46.1583 33.1834C45.6745 33.1834 45.4327 33.1834 44.9489 31.9741Z" fill="#82A44B"/>
<path fill-rule="evenodd" clip-rule="evenodd" d="M17.3768 23.2413C17.1195 23.0411 16.8546 22.8392 16.583 22.6367C16.2732 23.9414 13.023 27.6205 11.33 24.96C9.97552 22.8316 12.7982 21.4931 14.3788 21.0899C14.6566 21.2727 14.9305 21.4576 15.1998 21.6436C15.2 19.999 15.8291 16.8334 18.3443 17.3279C21.4882 17.946 20.3748 21.7647 17.3768 23.2413ZM9.39505 18.3409C8.91109 18.1309 8.42647 17.9392 7.94387 17.7696C8.10512 19.8439 7.65364 23.6537 4.55779 22.2993C1.46194 20.9449 4.55779 18.4207 6.49269 17.3279C6.81331 17.4095 7.13607 17.5029 7.46015 17.6069C7.46015 17.5896 7.42189 17.5047 7.3608 17.3692C6.91248 16.3749 5.23472 12.6538 8.4276 12.8666C12.0555 13.1085 10.3625 17.5266 9.39505 18.3409ZM53.8175 24.2345C52.0706 23.3477 49.1574 21.0903 51.4793 19.1554C53.8011 17.2205 55.6037 20.6701 56.2147 22.6367C56.4837 22.476 56.7596 22.3171 57.0421 22.1607C58.8158 23.1743 61.6859 25.6369 58.977 27.3782C56.2681 29.1196 54.946 25.624 54.6235 23.6585C54.3439 23.8511 54.075 24.0436 53.8175 24.2345ZM61.3956 20.2277C59.9445 19.1447 57.7677 16.64 60.6701 15.2856C63.5724 13.9311 64.298 17.5043 64.298 19.4602C64.6177 19.399 64.9403 19.345 65.2655 19.299C66.3135 20.9442 67.6841 24.4279 64.7817 25.2016C61.8794 25.9753 61.96 22.0064 62.3631 19.9252C62.0366 20.0195 61.714 20.1206 61.3956 20.2277Z" fill="#82A44B"/>
<path d="M29.7122 60.03C33.195 64.0933 36.3231 61.5618 37.4518 59.7882C37.4518 59.0628 38.6612 54.467 36.4841 53.4997C35.2748 52.2902 32.8561 50.5972 30.4375 53.4997C29.2458 55.089 27.4432 58.5738 29.615 59.9705M29.7122 60.03C29.6789 60.0107 29.6465 59.9908 29.615 59.9705M29.7122 60.03C29.6899 60.0041 29.6573 59.9845 29.615 59.9705M2.86475 16.9785C4.00799 16.8678 5.23383 17.0073 6.49269 17.3279M6.49269 17.3279C4.55779 18.4207 1.46194 20.9449 4.55779 22.2993C7.65364 23.6537 8.10512 19.8439 7.94387 17.7696M6.49269 17.3279C6.81331 17.4095 7.13607 17.5029 7.46015 17.6069M7.94387 17.7696C7.78237 17.7129 7.6211 17.6586 7.46015 17.6069M7.94387 17.7696C8.42647 17.9392 8.91109 18.1309 9.39505 18.3409M7.46015 17.6069C7.46015 17.5896 7.42189 17.5047 7.3608 17.3692C6.91248 16.3749 5.23472 12.6538 8.4276 12.8666C12.0555 13.1085 10.3625 17.5266 9.39505 18.3409M9.39505 18.3409C11.1038 19.0827 12.8043 20.0536 14.3788 21.0899M14.3788 21.0899C12.7982 21.4931 9.97552 22.8316 11.33 24.96C13.023 27.6205 16.2732 23.9414 16.583 22.6367M14.3788 21.0899C14.6566 21.2727 14.9305 21.4576 15.1998 21.6436M16.583 22.6367C16.1386 22.3055 15.6764 21.9728 15.1998 21.6436M16.583 22.6367C16.8546 22.8392 17.1195 23.0411 17.3768 23.2413C20.3748 21.7647 21.4882 17.946 18.3443 17.3279C15.8291 16.8334 15.2 19.999 15.1998 21.6436M69.1353 19.1554C67.8175 19.0613 66.5221 19.1211 65.2655 19.299M56.2147 22.6367C55.6037 20.6701 53.8011 17.2205 51.4793 19.1554C49.1574 21.0903 52.0706 23.3477 53.8175 24.2345C54.075 24.0436 54.3439 23.8511 54.6235 23.6585M56.2147 22.6367C55.6528 22.9724 55.1212 23.3157 54.6235 23.6585M56.2147 22.6367C56.4837 22.476 56.7596 22.3171 57.0421 22.1607M54.6235 23.6585C54.946 25.624 56.2681 29.1196 58.977 27.3782C61.6859 25.6369 58.8158 23.1743 57.0421 22.1607M57.0421 22.1607C58.3635 21.4294 59.8281 20.7552 61.3956 20.2277M61.3956 20.2277C59.9445 19.1447 57.7677 16.64 60.6701 15.2856C63.5724 13.9311 64.298 17.5043 64.298 19.4602M61.3956 20.2277C61.714 20.1206 62.0366 20.0195 62.3631 19.9252M64.298 19.4602C63.6401 19.5862 62.9943 19.743 62.3631 19.9252M64.298 19.4602C64.6177 19.399 64.9403 19.345 65.2655 19.299M62.3631 19.9252C61.96 22.0064 61.8794 25.9753 64.7817 25.2016C67.6841 24.4279 66.3135 20.9442 65.2655 19.299M19.0696 31.0062C18.5054 31.3285 17.5706 32.1668 18.3443 32.9411C19.3114 33.909 20.5211 33.1834 20.5211 32.6997C20.5211 32.216 20.5208 30.5224 19.0696 31.0062ZM32.3721 24.96C31.7271 25.2822 30.5823 26.1202 31.1627 26.8945C31.8883 27.8625 33.0976 27.862 33.3395 27.3782C33.5814 26.8945 33.5814 24.96 32.3721 24.96ZM46.8838 30.7648C46.0776 30.7648 44.562 31.0067 44.9489 31.9741C45.4327 33.1834 45.6745 33.1834 46.1583 33.1834C46.642 33.1834 47.8513 32.4583 47.8513 31.9741C47.8513 31.5868 47.2063 31.0065 46.8838 30.7648Z" stroke="#273210" stroke-width="0.5" stroke-linecap="round" stroke-linejoin="round"/>
</svg>
