<svg width="72" height="72" viewBox="0 0 72 72" fill="none" xmlns="http://www.w3.org/2000/svg">
<path d="M33.4776 19.5683C31.7056 19.3266 27.775 18.0701 26.2285 14.9772C24.6821 11.8842 22.0402 11.111 20.9125 11.111C21.1504 9.68355 22.9253 8.82349 24.5371 8.5419C23.9733 7.14321 23.0873 4.1042 24.0538 3.13766C25.0203 2.17111 28.6332 3.54038 30.3187 4.34584C30.8329 2.82878 32.1552 1.20449 33.4776 1.20456C34.8522 1.20463 36.0673 2.64087 36.4742 4.34584C38.6972 3.29875 43.2398 1.59118 43.6264 3.13766C44.013 4.68413 42.4988 7.48676 41.6933 8.69476C44.3513 8.69476 45.1669 8.96111 46.0428 11.111C44.2708 11.5137 40.7268 12.8508 40.7268 14.9772C40.7268 17.1036 35.894 18.9239 33.4776 19.5683C32.9896 25.099 33.859 30.8605 35.5388 36.4836C34.3685 34.3088 30.6747 30.346 25.262 31.8925C28.6446 35.2754 25.262 39.8665 24.5371 39.6248C23.8122 39.3832 24.0538 37.2085 22.8456 37.2085C21.6374 37.2085 19.2208 38.6583 18.7375 37.9334C18.2542 37.2085 19.7041 34.7921 19.7041 33.8256C19.7041 32.859 17.288 33.1006 16.8047 31.8925C16.3214 30.6843 21.8793 28.5095 25.262 31.8925C30.6747 30.346 34.3685 34.3088 35.5388 36.4836C33.859 30.8605 32.9896 25.099 33.4776 19.5683Z" fill="#DBC241"/>
<path d="M55.2249 70.7953C49.4876 64.4205 39.8475 50.9072 35.5388 36.4836M33.4776 19.5683C31.7056 19.3266 27.775 18.0701 26.2285 14.9772C24.6821 11.8842 22.0402 11.111 20.9125 11.111C21.1504 9.68355 22.9253 8.82349 24.5371 8.5419M33.4776 19.5683C35.894 18.9239 40.7268 17.1036 40.7268 14.9772C40.7268 12.8508 44.2708 11.5137 46.0428 11.111C45.1669 8.96111 44.3513 8.69476 41.6933 8.69476M33.4776 19.5683C32.9896 25.099 33.859 30.8605 35.5388 36.4836M41.6933 8.69476C39.0353 8.69476 37.1077 11.5975 36.1357 11.111C34.6858 10.3854 36.6189 7.72749 36.6189 5.55339C36.6189 5.14613 36.5681 4.73884 36.4742 4.34584M41.6933 8.69476C42.4988 7.48676 44.013 4.68413 43.6264 3.13766C43.2398 1.59118 38.6972 3.29875 36.4742 4.34584M30.3187 4.34584C30.8329 2.82878 32.1552 1.20449 33.4776 1.20456C34.8522 1.20463 36.0673 2.64087 36.4742 4.34584M30.3187 4.34584C30.1753 4.76926 30.0947 5.18433 30.0947 5.55339C30.0947 7.24476 31.7862 10.3864 31.0613 10.8695C30.3364 11.3526 28.1616 9.41967 26.9534 8.69476C26.4887 8.4159 25.5447 8.36585 24.5371 8.5419M30.3187 4.34584C28.6332 3.54038 25.0203 2.17111 24.0538 3.13766C23.0873 4.1042 23.9733 7.14321 24.5371 8.5419M35.5388 36.4836C34.3685 34.3088 30.6747 30.346 25.262 31.8925M25.262 31.8925C21.8793 28.5095 16.3214 30.6843 16.8047 31.8925C17.288 33.1006 19.7041 32.859 19.7041 33.8256C19.7041 34.7921 18.2542 37.2085 18.7375 37.9334C19.2208 38.6583 21.6374 37.2085 22.8456 37.2085C24.0538 37.2085 23.8122 39.3832 24.5371 39.6248C25.262 39.8665 28.6446 35.2754 25.262 31.8925Z" stroke="#273210" stroke-width="0.5" stroke-linecap="round" stroke-linejoin="round"/>
</svg>
