<svg width="72" height="72" viewBox="0 0 72 72" fill="none" xmlns="http://www.w3.org/2000/svg">
<path d="M30.0115 70.8H43.941C45.4614 68.3757 48.502 62.4177 48.502 57.9799C48.502 52.4328 43.941 50.3375 43.941 47.6254C43.941 44.9133 45.0504 42.0784 46.7762 42.0784H44.3635H38.0669H33.9589H30.0115H26.6832C27.5049 42.8179 29.1485 44.9626 29.1485 47.6254C29.1485 50.9538 25.4504 50.3369 25.4504 57.9799C25.4504 64.0944 28.4911 69.0743 30.0115 70.8Z" fill="#C3AFFA"/>
<path d="M26.8915 34.207C26.4188 33.242 25.9123 32.2939 25.3792 31.4051C23.9608 30.9308 20.3976 30.719 17.4923 33.6663C14.5871 36.6136 23.0665 36.3658 27.6693 35.8735C27.422 35.3178 27.1623 34.7596 26.8915 34.207Z" fill="#C3AFFA"/>
<path d="M38.4167 35.7833C40.329 34.5401 45.273 26.6223 44.3635 25.56C43.454 24.4977 40.6004 27.9924 39.3135 29.2085C38.9524 31.165 38.6406 33.3578 38.4167 35.7833Z" fill="#C3AFFA"/>
<path d="M46.7762 42.0784C45.0504 42.0784 43.941 44.9133 43.941 47.6254C43.941 50.3375 48.502 52.4328 48.502 57.9799C48.502 62.4177 45.4614 68.3757 43.941 70.8H30.0115C28.4911 69.0743 25.4504 64.0944 25.4504 57.9799C25.4504 50.3369 29.1485 50.9538 29.1485 47.6254C29.1485 44.9626 27.5049 42.8179 26.6832 42.0784M46.7762 42.0784C47.1947 42.0784 46.1815 42.0784 44.3635 42.0784M46.7762 42.0784H44.3635M26.6832 42.0784C27.6815 42.0784 28.8103 42.0784 30.0115 42.0784M26.6832 42.0784H30.0115M30.0115 42.0784C31.2702 42.0784 32.6083 42.0784 33.9589 42.0784M30.0115 42.0784H33.9589M33.9589 42.0784C35.3391 42.0784 36.7322 42.0784 38.0669 42.0784M33.9589 42.0784H38.0669M38.0669 42.0784C40.5071 42.0784 42.7516 42.0784 44.3635 42.0784M38.0669 42.0784H44.3635M26.8915 34.207C26.4188 33.242 25.9123 32.2939 25.3792 31.4051C23.9608 30.9308 20.3976 30.719 17.4923 33.6663C14.5871 36.6136 23.0665 36.3658 27.6693 35.8735C27.422 35.3178 27.1623 34.7596 26.8915 34.207ZM38.4167 35.7833C40.329 34.5401 45.273 26.6223 44.3635 25.56C43.454 24.4977 40.6004 27.9924 39.3135 29.2085C38.9524 31.165 38.6406 33.3578 38.4167 35.7833Z" stroke="#273210" stroke-width="0.5" stroke-linecap="round" stroke-linejoin="round"/>
<path d="M35.8278 3.67486C39.256 0.106804 41.215 4.37449 42.1944 4.02468C43.1739 3.67486 45.1329 -0.662943 49.1907 2.13564C53.2485 4.93422 50.6599 7.38251 51.0097 8.7122C51.3595 10.0419 56.117 11.2306 54.0181 15.2055C54.0181 15.2055 54.8529 16.5967 55.6272 16.6176C56.4016 16.6385 59.7092 12.0332 63.3231 16.1915C66.9371 20.3498 63.3231 22.2702 63.3231 23.7538C63.3231 25.2373 67.3278 28.0253 65.0722 31.4051C62.8166 34.7848 58.0896 30.1274 57.3763 30.2603C56.663 30.3932 54.0181 33.4195 50.1702 29.8405C49.9409 29.6273 49.741 29.4165 49.5674 29.2085C48.3312 30.2851 46.4672 32.4586 45.2947 35.2128C47.8459 34.8775 52.9259 34.5403 52.837 35.8735C52.7259 37.5401 44.3633 39.4932 44.2326 39.4862C44.335 37.9672 44.7365 36.5242 45.2947 35.2128C46.4672 32.4586 48.3312 30.2851 49.5674 29.2085C46.8281 25.9241 50.6828 23.3198 50.1702 22.5644C49.625 21.7612 47.3354 19.8894 47.1618 17.9171C47.1618 17.9171 44.1124 18.3098 42.876 18.0498C41.4489 17.7497 40.4454 17.2476 40.4454 17.2476C35.8278 15.7782 38.7663 12.0702 38.4164 10.7411C38.0666 9.41206 32.3997 7.24292 35.8278 3.67486Z" fill="#DBC241"/>
<path fill-rule="evenodd" clip-rule="evenodd" d="M17.0409 27.7472C18.3966 27.6059 19.7325 27.4668 20.1497 26.1765C21.0125 24.3273 20.1497 21.2456 20.1497 21.2456C21.286 21.2456 21.8269 20.8505 22.3249 20.4869C22.7495 20.1767 23.1429 19.8894 23.8477 19.8894C24.3688 19.8894 24.9777 20.3369 25.6467 20.8285C26.9436 21.7816 28.4661 22.9005 30.0112 21.2456C32.6006 20.2829 32.2443 18.3357 31.9624 16.7954C31.8472 16.1658 31.7444 15.6041 31.8603 15.2055C31.994 14.7456 32.5376 14.4396 33.1363 14.1027C34.3261 13.433 35.7334 12.6409 34.5722 10.2747C33.3795 7.84389 31.6868 8.43045 30.105 8.97857C29.3723 9.23249 28.6633 9.47815 28.0389 9.41179C27.3972 9.34359 26.8915 8.91978 26.3508 8.46667C25.2297 7.52718 23.9583 6.46171 21.0125 8.17894C16.6461 10.7244 21.0125 14.4658 21.0125 14.4658C19.3167 14.4658 18.5471 16.1915 18.5471 16.1915C18.3406 14.4658 17.0679 14.4658 17.0679 14.4658C14.9392 13.5526 13.8834 15.2222 13.0398 16.5564C12.6396 17.1893 12.2871 17.7466 11.8905 17.9171C11.5138 18.0791 11.1004 17.9387 10.6452 17.7843C9.61114 17.4333 8.36156 17.0092 6.83629 19.8894C5.35699 22.6829 6.93327 23.6078 8.23285 24.3705C8.86307 24.7403 9.42822 25.0719 9.54826 25.5599C9.67572 26.0781 9.33452 26.5369 8.96621 27.0321C8.2723 27.9652 7.48213 29.0277 9.54826 30.8605C11.6319 32.7089 12.7355 31.1148 13.7396 29.6646C14.2596 28.9135 14.753 28.2009 15.3419 28.0253C15.8633 27.8699 16.454 27.8083 17.0409 27.7472ZM31.4596 27.0543C30.0112 28.0253 26.7165 32.4904 26.8913 34.207C27.162 34.7596 27.4217 35.3178 27.6691 35.8735C28.0423 36.7119 28.3873 37.5449 28.6998 38.345C29.5327 37.5605 31.5359 35.5266 32.8854 33.6662C34.8484 31.4051 35.0513 26.8548 34.5722 26.1765C34.0932 25.4982 32.8854 26.1765 31.4596 27.0543Z" fill="#DBC241"/>
<path d="M30.0112 42.0784C29.6884 41.0291 29.2434 39.7367 28.6998 38.345M20.1497 26.1765C21.0125 24.3273 20.1497 21.2456 20.1497 21.2456M20.1497 26.1765C22.0062 26.6828 23.8085 28.7867 25.379 31.4051C25.9121 32.2939 26.4185 33.242 26.8913 34.207M20.1497 26.1765C19.7325 27.4668 18.3966 27.6059 17.0409 27.7472C16.454 27.8083 15.8633 27.8699 15.3419 28.0253C14.753 28.2009 14.2596 28.9135 13.7396 29.6646C12.7355 31.1148 11.6319 32.7089 9.54826 30.8605C7.48213 29.0277 8.2723 27.9652 8.96621 27.0321C9.33452 26.5369 9.67572 26.0781 9.54826 25.5599C9.42822 25.0719 8.86307 24.7403 8.23285 24.3705C6.93327 23.6078 5.35699 22.6829 6.83629 19.8894C8.36156 17.0092 9.61114 17.4333 10.6452 17.7843C11.1004 17.9387 11.5138 18.0791 11.8905 17.9171C12.2871 17.7466 12.6396 17.1893 13.0398 16.5564C13.8834 15.2222 14.9392 13.5526 17.0679 14.4658C17.0679 14.4658 18.3406 14.4658 18.5471 16.1915M18.5471 16.1915C18.5471 16.1915 16.6831 17.9171 17.8075 19.8894C17.8075 19.8894 18.5471 21.2456 20.1497 21.2456M18.5471 16.1915C18.5471 16.1915 19.3167 14.4658 21.0125 14.4658C21.0125 14.4658 16.6461 10.7244 21.0125 8.17894C23.9583 6.46171 25.2297 7.52718 26.3508 8.46667C26.8915 8.91978 27.3972 9.34359 28.0389 9.41179C28.6633 9.47815 29.3723 9.23249 30.105 8.97857C31.6868 8.43045 33.3795 7.84389 34.5722 10.2747C35.7334 12.6409 34.3261 13.433 33.1363 14.1027C32.5376 14.4396 31.994 14.7456 31.8603 15.2055C31.7444 15.6041 31.8472 16.1658 31.9624 16.7954C32.2443 18.3357 32.6006 20.2829 30.0112 21.2456M20.1497 21.2456C21.286 21.2456 21.8269 20.8505 22.3249 20.4869C22.7495 20.1767 23.1429 19.8894 23.8477 19.8894C24.3688 19.8894 24.9777 20.3369 25.6467 20.8285C26.9436 21.7816 28.4661 22.9005 30.0112 21.2456M14.6025 20.5059C12.7945 20.5471 9.96753 21.3689 13.1232 24.3273M30.0112 21.2456C30.6276 22.792 31.4596 25.9095 31.4596 27.0543M23.8477 16.1915C23.693 14.043 24.3862 10.5631 28.3963 13.8315M31.4596 27.0543C32.8854 26.1765 34.0932 25.4982 34.5722 26.1765C35.0513 26.8548 34.8484 31.4051 32.8854 33.6662M31.4596 27.0543C30.0112 28.0253 26.7165 32.4904 26.8913 34.207M32.8854 33.6662C33.273 35.7265 34.0302 40.2934 33.9587 42.0784M32.8854 33.6662C31.5359 35.5266 29.5327 37.5605 28.6998 38.345M28.6998 38.345C28.3873 37.5449 28.0423 36.7119 27.6691 35.8735C27.4217 35.3178 27.162 34.7596 26.8913 34.207M54.0181 15.2055C56.117 11.2306 51.3595 10.0419 51.0097 8.7122C50.6599 7.38251 53.2485 4.93422 49.1907 2.13564C45.1329 -0.662943 43.1739 3.67486 42.1944 4.02468C41.215 4.37449 39.256 0.106804 35.8278 3.67486C32.3997 7.24292 38.0666 9.41206 38.4164 10.7411C38.7663 12.0702 35.8278 15.7782 40.4454 17.2476C40.4454 17.2476 41.4489 17.7497 42.876 18.0498M54.0181 15.2055C51.9892 13.3295 48.631 14.4658 48.631 14.4658C46.4621 16.1915 47.1618 17.9171 47.1618 17.9171M54.0181 15.2055C54.0181 15.2055 54.8529 16.5967 55.6272 16.6176C56.4016 16.6385 59.7092 12.0332 63.3231 16.1915C66.9371 20.3498 63.3231 22.2702 63.3231 23.7538C63.3231 25.2373 67.3278 28.0253 65.0722 31.4051C62.8166 34.7848 58.0896 30.1274 57.3763 30.2603C56.663 30.3932 54.0181 33.4195 50.1702 29.8405C49.9409 29.6273 49.741 29.4165 49.5674 29.2085M47.1618 17.9171C47.1618 17.9171 44.1124 18.3098 42.876 18.0498M47.1618 17.9171C47.3354 19.8894 49.625 21.7612 50.1702 22.5644C50.6828 23.3198 46.8281 25.9241 49.5674 29.2085M42.876 18.0498C41.9452 19.5447 40.4041 23.2982 39.3133 29.2085C38.9522 31.165 38.6404 33.3578 38.4164 35.7832C38.2365 37.7321 38.1132 39.8311 38.0666 42.0784M42.1944 8.44811C43.916 7.17481 47.2424 5.96759 46.776 11.3251M54.0181 21.2456C56.1848 20.1787 60.1499 19.5479 58.6769 25.5599M49.5674 29.2085C48.3312 30.2851 46.4672 32.4586 45.2947 35.2128M44.3633 42.0784C44.2111 41.1973 44.1757 40.33 44.2326 39.4862M44.2326 39.4862C44.3633 39.4932 52.7259 37.5401 52.837 35.8735C52.9259 34.5403 47.8459 34.8775 45.2947 35.2128M44.2326 39.4862C44.335 37.9672 44.7365 36.5242 45.2947 35.2128" stroke="#273210" stroke-width="0.5" stroke-linecap="round" stroke-linejoin="round"/>
<path fill-rule="evenodd" clip-rule="evenodd" d="M31.4596 27.0542C30.0112 28.0253 26.7165 32.4903 26.8913 34.2069C27.162 34.7595 27.4217 35.3177 27.6691 35.8735C28.0422 36.7119 28.3873 37.5448 28.6998 38.3449C29.5327 37.5605 31.5359 35.5265 32.8854 33.6662C34.8484 31.405 35.0513 26.8547 34.5722 26.1765C34.0932 25.4982 32.8854 26.1765 31.4596 27.0542Z" fill="#82A44B"/>
<path d="M44.2326 39.4861C44.3633 39.4932 52.7259 37.54 52.837 35.8735C52.9259 34.5402 47.8459 34.8775 45.2947 35.2128C44.7365 36.5242 44.335 37.9672 44.2326 39.4861Z" fill="#82A44B"/>
<path d="M26.8913 34.2069C26.4185 33.2419 25.9124 32.2938 25.3792 31.405C23.9608 30.9307 20.3976 30.7189 17.4924 33.6662C14.5871 36.6135 23.0662 36.3657 27.6691 35.8735C27.4217 35.3177 27.162 34.7595 26.8913 34.2069Z" fill="#82A44B"/>
<path d="M38.4167 35.7832C40.329 34.54 45.273 26.6222 44.3635 25.5599C43.454 24.4976 40.6004 27.9923 39.3135 29.2085C38.9524 31.165 38.6406 33.3578 38.4167 35.7832Z" fill="#82A44B"/>
<path d="M26.8913 34.2069C26.7165 32.4903 30.0112 28.0253 31.4596 27.0542C32.8854 26.1765 34.0932 25.4982 34.5722 26.1765C35.0513 26.8547 34.8484 31.405 32.8854 33.6662C31.5359 35.5265 29.5327 37.5605 28.6998 38.3449C28.3873 37.5448 28.0422 36.7119 27.6691 35.8735M26.8913 34.2069C27.162 34.7595 27.4217 35.3177 27.6691 35.8735M26.8913 34.2069C26.4185 33.2419 25.9124 32.2938 25.3792 31.405C23.9608 30.9307 20.3976 30.7189 17.4924 33.6662C14.5871 36.6135 23.0662 36.3657 27.6691 35.8735M44.2326 39.4861C44.3633 39.4932 52.7259 37.54 52.837 35.8735C52.9259 34.5402 47.8459 34.8775 45.2947 35.2128C44.7365 36.5242 44.335 37.9672 44.2326 39.4861ZM38.4167 35.7832C40.329 34.54 45.273 26.6222 44.3635 25.5599C43.454 24.4976 40.6004 27.9923 39.3135 29.2085C38.9524 31.165 38.6406 33.3578 38.4167 35.7832Z" stroke="#273210" stroke-width="0.5" stroke-linecap="round" stroke-linejoin="round"/>
</svg>
