<svg width="72" height="72" viewBox="0 0 72 72" fill="none" xmlns="http://www.w3.org/2000/svg">
<path d="M30.3695 34.2341C30.9578 38.352 31.0605 42.7502 30.0047 45.4736C29.6531 46.3804 29.1731 47.1014 28.5398 47.5647C26.8543 48.7974 21.221 46.7805 18.6072 45.4736C15.9933 44.1667 9.45874 39.864 9.45874 34.2341C9.45874 30.3012 11.6859 26.8885 14.9478 25.1884C16.3554 24.4548 17.9556 24.0401 19.6527 24.0401C21.4713 24.0401 23.1513 24.531 24.619 25.3806C27.6952 27.1614 29.8386 30.518 30.3695 34.2341Z" fill="#DBC241"/>
<path d="M48.1436 24.0401C49.1891 26.6541 51.803 31.359 46.8367 40.5075C46.3189 41.4613 45.8352 42.33 45.3817 43.1213C46.4766 44.254 48.8755 46.5193 49.7119 46.5193C50.7575 46.5193 53.6327 44.4282 57.5534 38.9392C61.4742 33.4501 59.6445 28.2224 59.1217 26.9155C58.92 26.4112 58.6016 25.6734 58.0762 24.8728C57.2401 23.5987 55.88 22.1656 53.6327 21.262C52.852 20.9481 52.054 20.7668 51.2802 20.6789C49.1525 20.4372 47.2084 20.9024 46.3139 21.262C47.2224 22.1951 47.7976 23.1749 48.1436 24.0401Z" fill="#DBC241"/>
<path d="M35.8586 17.5055C41.2795 17.6803 44.4776 19.376 46.3139 21.262C47.2084 20.9024 49.1525 20.4372 51.2802 20.6789C51.2802 20.6789 52.8485 15.153 52.3258 12.0164C52.0395 10.2991 50.9227 7.56306 48.6664 5.26711C46.8017 3.36972 44.1589 1.77286 40.5635 1.29978C30.6309 -0.00714327 27.2329 9.14131 26.9715 9.31945C30.4161 11.288 32.7219 15.077 32.7219 17.8609C33.6837 17.602 34.7291 17.469 35.8586 17.5055Z" fill="#DBC241"/>
<path d="M28.5398 47.5647C26.8543 48.7974 21.221 46.7805 18.6072 45.4736C15.9933 44.1667 9.45874 39.864 9.45874 34.2341C9.45874 30.3012 11.6859 26.8885 14.9478 25.1884C16.3554 24.4548 17.9556 24.0401 19.6527 24.0401C21.4713 24.0401 23.1513 24.531 24.619 25.3806C27.6952 27.1614 29.8386 30.518 30.3695 34.2341C30.9578 38.352 31.0605 42.7502 30.0047 45.4736C29.6531 46.3804 29.1731 47.1014 28.5398 47.5647ZM28.5398 47.5647C29.1497 49.3072 30.3695 53.1583 30.3695 54.622C30.3695 56.4517 30.1081 58.5428 29.3239 58.8042C28.5398 59.0656 26.9715 58.5428 26.1873 60.1111C25.4032 61.6794 25.1418 64.816 25.6646 66.9071M13.1181 35.0182C13.9023 37.632 17.1434 42.8075 23.8349 42.5984M37.9496 51.4856C37.0783 52.8797 35.4403 56.4519 35.8586 59.5885C36.3813 63.5093 37.4269 62.7251 38.4724 62.7251C39.5179 62.7251 41.3476 66.6459 40.5635 70.828M46.3139 21.262C44.4776 19.376 41.2795 17.6803 35.8586 17.5055C34.7291 17.469 33.6837 17.602 32.7219 17.8609C32.7219 15.077 30.4161 11.288 26.9715 9.31945C27.2329 9.14131 30.6309 -0.00714327 40.5635 1.29978C44.1589 1.77286 46.8017 3.36972 48.6664 5.26711C50.9227 7.56306 52.0395 10.2991 52.3258 12.0164C52.8485 15.153 51.2802 20.6789 51.2802 20.6789M46.3139 21.262C47.2224 22.1951 47.7976 23.1749 48.1436 24.0401C49.1891 26.6541 51.803 31.359 46.8367 40.5075C46.3189 41.4613 45.8352 42.33 45.3817 43.1213C46.4766 44.254 48.8755 46.5193 49.7119 46.5193M46.3139 21.262C47.2084 20.9024 49.1525 20.4372 51.2802 20.6789M49.7119 46.5193C50.7575 46.5193 53.6327 44.4282 57.5534 38.9392C61.4742 33.4501 59.6445 28.2224 59.1217 26.9155C58.92 26.4112 58.6016 25.6734 58.0762 24.8728C57.2401 23.5987 55.88 22.1656 53.6327 21.262C52.852 20.9481 52.054 20.7668 51.2802 20.6789M49.7119 46.5193C49.0149 48.436 47.8822 53.8377 47.8822 54.622C47.8822 55.4064 47.8822 57.7588 49.7119 57.7588C51.5416 57.7588 53.8941 59.3271 52.8485 65.8617M38.9952 5.61557C41.7833 6.18287 47.3595 9.27727 47.3595 17.1165M56.2465 29.6629C56.3336 31.7521 55.5146 36.8458 51.5416 40.5075" stroke="#273210" stroke-width="0.5" stroke-linecap="round" stroke-linejoin="round"/>
<path d="M48.1436 24.04C49.1891 26.654 51.8029 31.359 46.8366 40.5074C46.3188 41.4613 45.8351 42.3299 45.3817 43.1213C46.4765 44.2539 48.8754 46.5193 49.7119 46.5193C50.7574 46.5193 53.6326 44.4282 57.5534 38.9391C61.4742 33.45 59.6445 28.2224 59.1217 26.9154C58.92 26.4111 58.6015 25.6733 58.0762 24.8728C57.2401 23.5986 55.88 22.1655 53.6326 21.262C52.8519 20.9481 52.0539 20.7667 51.2802 20.6788C49.1524 20.4372 47.2084 20.9023 46.3139 21.262C47.2224 22.1951 47.7975 23.1748 48.1436 24.04Z" fill="#C3AFFA"/>
<path d="M19.6528 24.0403C21.4714 24.0403 23.1514 24.5312 24.6191 25.3808C25.4825 23.1412 28.1638 19.0878 32.722 17.8611C32.722 15.0772 30.4162 11.2882 26.9716 9.31966C24.0639 7.65802 20.3448 7.29355 16.5162 9.92572C9.82479 14.5261 12.6826 22.0178 14.9479 25.1886C16.3555 24.455 17.9557 24.0403 19.6528 24.0403Z" fill="#C3AFFA"/>
<path d="M56.2465 29.6629C56.3336 31.752 55.5146 36.8457 51.5416 40.5074M48.1436 24.04C49.1891 26.654 51.8029 31.359 46.8366 40.5074C46.3188 41.4613 45.8351 42.3299 45.3817 43.1213C46.4765 44.2539 48.8754 46.5193 49.7119 46.5193C50.7574 46.5193 53.6326 44.4282 57.5534 38.9391C61.4742 33.45 59.6445 28.2224 59.1217 26.9154C58.92 26.4111 58.6015 25.6733 58.0762 24.8728C57.2401 23.5986 55.88 22.1655 53.6326 21.262C52.8519 20.9481 52.0539 20.7667 51.2802 20.6788C49.1524 20.4372 47.2084 20.9023 46.3139 21.262C47.2224 22.1951 47.7975 23.1748 48.1436 24.04ZM19.6528 24.0403C21.4714 24.0403 23.1514 24.5312 24.6191 25.3808C25.4825 23.1412 28.1638 19.0878 32.722 17.8611C32.722 15.0772 30.4162 11.2882 26.9716 9.31966C24.0639 7.65802 20.3448 7.29355 16.5162 9.92572C9.82479 14.5261 12.6826 22.0178 14.9479 25.1886C16.3555 24.455 17.9557 24.0403 19.6528 24.0403Z" stroke="#273210" stroke-width="0.5" stroke-linecap="round" stroke-linejoin="round"/>
<path d="M51.2802 20.679C52.054 20.7669 52.852 20.9482 53.6327 21.2621C55.88 22.1657 57.2401 23.5988 58.0762 24.8729C62.5197 20.2166 62.2583 15.6759 62.5197 13.5848C62.7811 11.4938 60.69 7.3116 57.0307 5.26721C54.1032 3.63169 50.2347 4.58574 48.6664 5.26721C50.9227 7.56316 52.0395 10.2992 52.3257 12.0165C52.8485 15.1531 51.2802 20.679 51.2802 20.679Z" fill="#82A44B"/>
<path d="M24.619 25.3807C27.6952 27.1614 29.8386 30.5181 30.3695 34.2341C30.9577 38.3521 31.0605 42.7503 30.0047 45.4737C32.5151 49.1329 35.8585 52.0085 37.9496 51.4857C39.8227 51.0174 41.486 49.92 45.3817 43.1214C45.8352 42.33 46.3189 41.4614 46.8367 40.5076C51.803 31.3591 49.1891 26.6542 48.1436 24.0402C47.7975 23.1749 47.2224 22.1952 46.3139 21.2621C44.4776 19.3761 41.2795 17.6804 35.8585 17.5056C34.7291 17.4691 33.6837 17.6021 32.7219 17.861C28.1637 19.0877 25.4824 23.1411 24.619 25.3807Z" fill="#82A44B"/>
<path d="M36.6427 21.5599C39.518 22.2569 45.2161 25.5329 45.007 33.0608M53.6327 21.2621C52.852 20.9482 52.054 20.7669 51.2802 20.679C51.2802 20.679 52.8485 15.1531 52.3257 12.0165C52.0395 10.2992 50.9227 7.56316 48.6664 5.26721C50.2347 4.58574 54.1032 3.63169 57.0307 5.26721C60.69 7.3116 62.7811 11.4938 62.5197 13.5848C62.2583 15.6759 62.5197 20.2166 58.0762 24.8729C57.2401 23.5988 55.88 22.1657 53.6327 21.2621ZM30.3695 34.2341C29.8386 30.5181 27.6952 27.1614 24.619 25.3807C25.4824 23.1411 28.1637 19.0877 32.7219 17.861C33.6837 17.6021 34.7291 17.4691 35.8585 17.5056C41.2795 17.6804 44.4776 19.3761 46.3139 21.2621C47.2224 22.1952 47.7975 23.1749 48.1436 24.0402C49.1891 26.6542 51.803 31.3591 46.8367 40.5076C46.3189 41.4614 45.8352 42.33 45.3817 43.1214C41.486 49.92 39.8227 51.0174 37.9496 51.4857C35.8585 52.0085 32.5151 49.1329 30.0047 45.4737C31.0605 42.7503 30.9577 38.3521 30.3695 34.2341Z" stroke="#273210" stroke-width="0.5" stroke-linecap="round" stroke-linejoin="round"/>
</svg>
