<svg width="72" height="72" viewBox="0 0 72 72" fill="none" xmlns="http://www.w3.org/2000/svg">
<path d="M31.7278 14.6924C31.3171 14.1754 31.3171 13.2964 31.3171 11.0733C31.3171 7.07575 34.6029 3.83511 34.6029 3.83511C34.6029 3.83511 37.0672 7.07575 37.0672 11.0733C37.0672 13.0607 37.0672 14.1754 36.6565 14.6924M28.8528 17.2774C27.8588 14.2601 25.4536 10.486 23.9241 9.00523C28.3689 7.95569 31.9529 11.3835 33.7814 14.1754M39.5316 16.2436C40.7244 13.4548 43.0672 10.3548 44.4603 9.00544C39.8249 7.91144 36.3518 11.3434 34.603 14.1756" stroke="#273210" stroke-width="0.5" stroke-linecap="round" stroke-linejoin="round"/>
<path d="M28.627 17.6641C28.1411 18.2062 27.6686 18.767 27.21 19.3454C23.7681 23.678 23.1865 31.6131 23.1052 35.1453C23.0773 36.3344 23.0838 37.5463 23.4412 38.6476C23.8248 39.8295 24.6429 41.4798 26.3885 43.128C29.6743 46.2301 39.5317 46.2301 42.8175 43.128C44.5556 41.487 45.3738 39.845 45.7591 38.6631C46.1213 37.5525 46.1287 36.3282 46.1 35.1277C46.0178 31.5862 45.4329 23.6707 41.996 19.3454C41.5031 18.725 41.03 18.1666 40.5782 17.6641C37.0805 13.7689 32.1247 13.7689 28.6261 17.6641H28.627Z" fill="#DBC241"/>
<path d="M41.1745 18.3115L23.9241 29.6858Z" fill="#DBC241"/>
<path d="M28.0315 18.3115L45.2819 29.6858Z" fill="#DBC241"/>
<path d="M43.6388 42.0941L23.9241 27.6178Z" fill="#DBC241"/>
<path d="M45.2819 27.6178L25.5671 42.0941Z" fill="#DBC241"/>
<path d="M41.1745 18.3115L23.9241 29.6858M28.0315 18.3115L45.2819 29.6858M43.6388 42.0941L23.9241 27.6178M45.2819 27.6178L25.5671 42.0941M28.627 17.6641C28.1411 18.2062 27.6686 18.767 27.21 19.3454C23.7681 23.678 23.1865 31.6131 23.1052 35.1453C23.0773 36.3344 23.0838 37.5463 23.4412 38.6476C23.8248 39.8295 24.6429 41.4798 26.3885 43.128C29.6743 46.2301 39.5317 46.2301 42.8175 43.128C44.5556 41.487 45.3738 39.845 45.7591 38.6631C46.1213 37.5525 46.1287 36.3282 46.1 35.1277C46.0178 31.5862 45.4329 23.6707 41.996 19.3454C41.5031 18.725 41.03 18.1666 40.5782 17.6641C37.0805 13.7689 32.1247 13.7689 28.6261 17.6641H28.627Z" stroke="#273210" stroke-width="0.5" stroke-linecap="round" stroke-linejoin="round"/>
<path d="M47.0742 27.7478C47.8518 27.5 48.6594 27.3588 49.475 27.3281C53.0828 27.3281 54.3638 30.7152 54.3638 33.615C54.3638 39.5168 51.1653 43.0445 48.0769 43.0453C47.4023 43.0096 46.7397 42.8525 46.1209 42.5816C45.7444 42.4129 45.3437 42.3042 44.9335 42.2594C44.524 42.3042 44.1242 42.4129 43.7484 42.5816C43.1293 42.8525 42.4664 43.0095 41.7916 43.0453H41.79C38.7 43.0445 35.5032 39.5168 35.5032 33.615C35.5032 29.7368 37.3185 27.3281 40.2435 27.3281C42.0501 27.403 43.8145 28.3649 45.6423 28.0723C46.1261 27.9949 46.6043 27.8865 47.0742 27.7478Z" fill="#82A44B"/>
<path d="M45.6423 28.0723C46.1261 27.9949 46.6043 27.8865 47.0742 27.7478C47.8518 27.5 48.6594 27.3588 49.475 27.3281C53.0828 27.3281 54.3638 30.7152 54.3638 33.615C54.3638 39.5168 51.1653 43.0445 48.0769 43.0453C47.4023 43.0096 46.7397 42.8525 46.1209 42.5816C45.7444 42.4129 45.3437 42.3042 44.9335 42.2594C44.524 42.3042 44.1242 42.4129 43.7484 42.5816C43.1293 42.8525 42.4664 43.0095 41.7916 43.0453H41.79C38.7 43.0445 35.5032 39.5168 35.5032 33.615C35.5032 29.7368 37.3185 27.3281 40.2435 27.3281C42.0501 27.403 43.8145 28.3649 45.6423 28.0723ZM45.6423 28.0723C45.4474 26.9835 44.8762 25.9977 44.0285 25.2871C43.1808 24.5765 42.1103 24.1864 41.0042 24.1847" stroke="#273210" stroke-width="0.5" stroke-linecap="round" stroke-linejoin="round"/>
<path d="M60.3201 68.1651H11.6796V46.8228H4.23462L9.14659 41.6113L11.183 37.3376H21.1097H47.6634H60.8162L63.0927 42.1076L67.7651 46.8228H60.3201V68.1651Z" fill="#C3AFFA"/>
<path d="M11.6796 46.8228H4.23462L9.14659 41.6113L11.183 37.3376H21.1097H47.6634H60.8162L63.0927 42.1076L67.7651 46.8228H60.3201M11.6796 46.8228V68.1651H60.3201V46.8228M11.6796 46.8228H60.3201" stroke="#273210" stroke-width="0.5" stroke-linecap="round" stroke-linejoin="round"/>
<path d="M11.6796 68.1651H60.3201V46.8228H11.6796V68.1651Z" fill="#82A44B" stroke="#273210" stroke-width="0.5" stroke-linecap="round" stroke-linejoin="round"/>
<path d="M15.9613 22.3626C17.9966 20.7871 22.4631 20.302 22.9099 20.7176C22.948 20.7531 22.9777 20.7976 23.0002 20.8493C23.1912 21.1573 23.3126 21.5574 23.385 21.9991C23.3861 22.0057 23.3871 22.0124 23.3882 22.0192C23.4832 22.5387 25.1455 28.2864 29.3138 31.308C33.5458 34.3758 36.7912 35.3676 39.301 36.2542C40.0015 36.5016 40.3725 36.8939 40.5371 37.3375L30.4796 37.3375L25.2763 37.3375C25.5953 37.7499 25.9272 38.1737 26.2702 38.6126C28.2288 41.119 31.9356 44.1722 32.0872 44.4572C32.1732 44.6189 32.24 45.0895 31.8815 45.5698C31.6079 45.9364 31.0866 46.3087 30.1372 46.5536C27.9436 47.1195 23.0447 44.3001 19.4797 40.9839C15.9147 37.6677 13.8757 34.8252 13.1548 30.7566C12.4516 26.7879 13.334 24.3963 15.9613 22.3626Z" fill="#DBC241"/>
<path d="M22.9099 20.7176C22.4631 20.302 17.9966 20.7871 15.9613 22.3626C13.334 24.3963 12.4516 26.7879 13.1548 30.7566C13.8757 34.8252 15.9147 37.6677 19.4797 40.9839C23.0447 44.3001 27.9436 47.1195 30.1372 46.5536C31.0866 46.3087 31.6079 45.9364 31.8815 45.5698C32.24 45.0895 32.1732 44.6189 32.0872 44.4572C31.9356 44.1722 28.2288 41.119 26.2702 38.6126C25.9272 38.1737 25.5953 37.7499 25.2763 37.3375M22.9099 20.7176C23.3567 21.1332 22.6483 22.791 22.6483 22.791C22.6483 22.791 20.8539 25.9595 21.0489 28.5431C21.3029 31.9095 22.9446 34.3225 25.2763 37.3375M22.9099 20.7176L21.0106 18.9508M22.9099 20.7176C23.6547 21.4104 24.1387 21.8607 25.0325 22.6921C26.1498 23.7314 26.7929 22.592 27.3705 21.971C27.8327 21.4741 27.5013 20.9342 27.2779 20.7264C25.5647 19.1328 24.3285 17.9829 23.256 16.9852C21.9154 15.7381 20.9833 17.1879 20.55 17.6537M22.9099 20.7176C23.1538 21.0387 23.3017 21.4915 23.385 21.9991M25.7853 40.4783C25.5618 40.2704 18.3595 35.0188 18.4602 27.2934M23.385 21.9991C23.5574 23.051 23.4518 24.3384 23.346 25.1775C23.3996 27.0615 24.2378 31.5673 27.1612 34.5183C28.1156 35.4817 29.2752 36.4385 30.4796 37.3375M23.385 21.9991C23.4331 22.3626 25.0819 28.2403 29.3138 31.308C33.5458 34.3758 36.7912 35.3676 39.301 36.2542C40.0015 36.5016 40.3725 36.8939 40.5371 37.3375L30.4796 37.3375M25.2763 37.3375L30.4796 37.3375" stroke="#273210" stroke-width="0.5" stroke-linecap="round" stroke-linejoin="round"/>
</svg>
