<svg width="72" height="72" viewBox="0 0 72 72" fill="none" xmlns="http://www.w3.org/2000/svg">
<path d="M17.4278 40.7093C14.1375 40.7093 12.9578 38.5981 12.9578 35.8046C12.9578 33.0111 15.7517 31.2103 17.9866 31.2103C20.2215 31.2103 22.8914 32.9484 22.4567 35.8046C22.022 38.6608 20.7182 40.7093 17.4278 40.7093Z" fill="#C3AFFA"/>
<path d="M54.1199 31.2103C51.3259 30.6518 49.3392 33.6319 49.4015 36.2391C49.4637 38.8464 51.0158 40.7093 54.1199 40.7093C57.224 40.7093 58.8385 39.1571 58.7142 36.2391C58.5899 33.3212 56.9139 31.7688 54.1199 31.2103Z" fill="#C3AFFA"/>
<path d="M31.2105 15.0065C30.8803 12.3487 33.1288 10.0207 35.8049 9.91508C38.3964 9.81282 40.7011 11.731 40.7717 14.3236C40.8441 16.9813 38.4624 19.0629 35.8049 18.9799C33.4339 18.9059 31.503 17.3605 31.2105 15.0065Z" fill="#C3AFFA"/>
<path fill-rule="evenodd" clip-rule="evenodd" d="M61.8571 46.4256V52.8755L61.7845 61.8414V70.8073H8.59448V61.8414L8.66704 52.8755V45.8047C11.2777 48.524 13.4451 46.8694 14.9929 45.6879C15.6207 45.2087 16.1466 44.8072 16.5587 44.8072C16.9831 44.8072 17.5118 45.3887 18.1496 46.0901C19.6574 47.7484 21.7751 50.0776 24.5676 46.9802L26.5304 44.4461H31.2105H35.0597H40.0871H45.1145C45.8606 45.5311 47.5762 47.701 48.4702 47.701C51.359 49.2027 52.5252 47.5889 53.5058 46.2319C54.0004 45.5474 54.4478 44.9283 55.0452 44.8072C55.6935 44.6759 56.3556 45.278 57.0871 45.9432C58.3664 47.1064 59.8576 48.4624 61.8571 46.4256ZM14.5037 47.701C14.0276 47.6793 13.4865 48.3502 13.4865 48.7831C13.4865 49.216 13.9627 49.7787 14.3739 49.6272C14.7851 49.4757 15.1097 49.1294 15.2829 48.7831C15.456 48.4368 14.9799 47.7226 14.5037 47.701ZM13.607 57.5121C13.5871 57.1823 13.8888 56.6414 14.3739 56.6264C14.8589 56.6114 15.3597 56.8518 15.3647 57.4277C15.3697 58.0036 14.8189 58.3842 14.3739 58.2816C13.9289 58.179 13.6268 57.842 13.607 57.5121ZM14.5037 65.4497C13.9154 65.4381 13.5223 65.8993 13.4865 66.3811C13.4507 66.8629 14.104 67.3564 14.6471 67.2158C15.1902 67.0751 15.3725 66.6674 15.354 66.3281C15.3356 65.9887 15.0921 65.4613 14.5037 65.4497ZM55.0452 48.7831C55.0259 48.3536 55.2698 47.69 55.8551 47.701C56.4405 47.7119 56.8267 48.2338 56.8271 48.7831C56.8275 49.3324 56.3245 49.6189 55.8551 49.6272C55.3858 49.6355 55.0645 49.2126 55.0452 48.7831ZM55.8551 56.6617C55.108 56.6311 55.0715 57.1444 55.0494 57.4552C55.048 57.4751 55.0467 57.4941 55.0452 57.5121C55.0206 57.812 55.3236 58.2008 55.8551 58.2816C56.3867 58.3623 56.8081 57.9497 56.8271 57.5121C56.8461 57.0745 56.6501 56.6942 55.8551 56.6617ZM55.8551 65.4497C55.219 65.4649 55.0119 65.9101 55.0452 66.3811C55.0785 66.8521 55.5 67.3701 56.0981 67.3531C56.6963 67.336 56.9427 66.8408 56.8271 66.3811C56.7115 65.9215 56.4913 65.4344 55.8551 65.4497Z" fill="#C3AFFA"/>
<path d="M61.8571 52.8755V46.4256C59.8576 48.4624 58.3664 47.1064 57.0871 45.9432C56.3556 45.278 55.6935 44.6759 55.0452 44.8072C54.4478 44.9283 54.0004 45.5474 53.5058 46.2319C52.5252 47.5889 51.359 49.2027 48.4702 47.701C47.5762 47.701 45.8606 45.5311 45.1145 44.4461H40.0871H35.0597H31.2105H26.5304L24.5676 46.9802C21.7751 50.0776 19.6574 47.7484 18.1496 46.0901C17.5118 45.3887 16.9831 44.8072 16.5587 44.8072C16.1466 44.8072 15.6207 45.2087 14.9929 45.6879C13.4451 46.8694 11.2777 48.524 8.66704 45.8047V52.8755M61.8571 52.8755H8.66704M61.8571 52.8755L61.7845 61.8414M8.66704 52.8755L8.59448 61.8414M61.7845 61.8414H8.59448M61.7845 61.8414V70.8073H8.59448V61.8414M14.5037 47.701C14.0276 47.6793 13.4865 48.3502 13.4865 48.7831C13.4865 49.216 13.9627 49.7787 14.3739 49.6272C14.7851 49.4757 15.1097 49.1294 15.2829 48.7831C15.456 48.4368 14.9799 47.7226 14.5037 47.701ZM55.8551 47.701C55.2698 47.69 55.0259 48.3536 55.0452 48.7831C55.0645 49.2126 55.3858 49.6355 55.8551 49.6272C56.3245 49.6189 56.8275 49.3324 56.8271 48.7831C56.8267 48.2338 56.4405 47.7119 55.8551 47.701ZM55.8551 56.6617C56.6501 56.6942 56.8461 57.0745 56.8271 57.5121C56.8081 57.9497 56.3867 58.3623 55.8551 58.2816C55.3236 58.2008 55.0206 57.812 55.0452 57.5121C55.0467 57.4941 55.048 57.4751 55.0494 57.4552C55.0715 57.1444 55.108 56.6311 55.8551 56.6617ZM14.3739 56.6264C13.8888 56.6414 13.5871 57.1823 13.607 57.5121C13.6268 57.842 13.9289 58.179 14.3739 58.2816C14.8189 58.3842 15.3697 58.0036 15.3647 57.4277C15.3597 56.8518 14.8589 56.6114 14.3739 56.6264ZM14.5037 65.4497C13.9154 65.4381 13.5223 65.8993 13.4865 66.3811C13.4507 66.8629 14.104 67.3564 14.6471 67.2158C15.1902 67.0751 15.3725 66.6674 15.354 66.3281C15.3356 65.9887 15.0921 65.4613 14.5037 65.4497ZM55.0452 66.3811C55.0119 65.9101 55.219 65.4649 55.8551 65.4497C56.4913 65.4344 56.7115 65.9215 56.8271 66.3811C56.9427 66.8408 56.6963 67.336 56.0981 67.3531C55.5 67.3701 55.0785 66.8521 55.0452 66.3811ZM12.9578 35.8046C12.9578 38.5981 14.1375 40.7093 17.4278 40.7093C20.7182 40.7093 22.022 38.6608 22.4567 35.8046C22.8914 32.9484 20.2215 31.2103 17.9866 31.2103C15.7517 31.2103 12.9578 33.0111 12.9578 35.8046ZM49.4015 36.2391C49.3392 33.6319 51.3259 30.6518 54.1199 31.2103C56.9139 31.7688 58.5899 33.3212 58.7142 36.2391C58.8385 39.1571 57.224 40.7093 54.1199 40.7093C51.0158 40.7093 49.4637 38.8464 49.4015 36.2391ZM35.8049 9.91508C33.1288 10.0207 30.8803 12.3487 31.2105 15.0065C31.503 17.3605 33.4339 18.9059 35.8049 18.9799C38.4624 19.0629 40.8441 16.9813 40.7717 14.3236C40.7011 11.731 38.3964 9.81282 35.8049 9.91508Z" stroke="#273210" stroke-width="0.5" stroke-linecap="round" stroke-linejoin="round"/>
<path d="M13.4865 48.783C13.4865 48.3501 14.0276 47.6792 14.5037 47.7008C14.9799 47.7225 15.456 48.4367 15.2829 48.783C15.1097 49.1292 14.7851 49.4755 14.3739 49.627C13.9627 49.7785 13.4865 49.2158 13.4865 48.783Z" fill="#DBC241"/>
<path d="M55.0452 48.783C55.0258 48.3535 55.2698 47.6899 55.8551 47.7008C56.4405 47.7118 56.8267 48.2336 56.8271 48.783C56.8275 49.3323 56.3245 49.6188 55.8551 49.627C55.3858 49.6353 55.0645 49.2124 55.0452 48.783Z" fill="#DBC241"/>
<path d="M55.0452 57.512C55.0697 57.2121 55.0602 56.629 55.8551 56.6615C56.6501 56.6941 56.8461 57.0744 56.8271 57.512C56.8081 57.9495 56.3867 58.3622 55.8551 58.2814C55.3236 58.2007 55.0206 57.8119 55.0452 57.512Z" fill="#DBC241"/>
<path d="M13.6069 57.512C13.5871 57.1821 13.8888 56.6413 14.3739 56.6263C14.8589 56.6112 15.3597 56.8516 15.3647 57.4275C15.3697 58.0034 14.8189 58.384 14.3739 58.2814C13.9289 58.1788 13.6268 57.8418 13.6069 57.512Z" fill="#DBC241"/>
<path d="M13.4865 66.381C13.5223 65.8991 13.9153 65.4379 14.5037 65.4495C15.0921 65.4611 15.3356 65.9886 15.354 66.3279C15.3724 66.6673 15.1902 67.075 14.6471 67.2156C14.104 67.3563 13.4507 66.8628 13.4865 66.381Z" fill="#DBC241"/>
<path d="M55.8551 65.4495C55.219 65.4648 55.0118 65.91 55.0452 66.381C55.0785 66.852 55.4999 67.3699 56.0981 67.3529C56.6963 67.3359 56.9427 66.8406 56.8271 66.381C56.7115 65.9213 56.4913 65.4342 55.8551 65.4495Z" fill="#DBC241"/>
<path fill-rule="evenodd" clip-rule="evenodd" d="M14.9929 45.6878C15.6207 45.2085 16.1466 44.8071 16.5587 44.8071C16.9831 44.8071 17.5118 45.3885 18.1496 46.09C19.6574 47.7483 21.7751 50.0774 24.5676 46.98L26.5304 44.446C27.0136 43.5004 26.4602 42.4753 25.9611 41.5508C25.6019 40.8854 25.2708 40.2721 25.3747 39.7782C25.4582 39.3813 25.9911 39.1671 26.6924 38.8853C26.9654 38.7755 27.264 38.6555 27.5715 38.5104C28.8228 37.9202 30.222 36.9155 30.6519 34.5008C31.1992 31.4264 27.9758 30.6659 25.6904 30.1267C24.6067 29.8711 23.7339 29.6652 23.5742 29.2859C23.4673 29.0319 23.4237 28.6309 23.3715 28.1505C23.1813 26.4011 22.8767 23.5994 18.98 23.0151C16.5818 22.6555 15.4257 23.6709 14.7118 24.8871C14.4195 25.3851 14.2014 25.9168 14.0025 26.4016C13.6812 27.1848 13.4101 27.8455 12.9578 28.0438C12.5195 28.236 11.9416 28.0833 11.2771 27.9077C9.79458 27.5159 7.8814 27.0103 6.12844 29.9685C4.34978 32.97 6.23849 35.0267 7.55364 36.4588C8.11555 37.0707 8.57275 37.5686 8.59448 37.9774C8.61464 38.357 8.36111 39.0254 8.059 39.8218C7.27423 41.8906 6.16164 44.8236 8.66704 45.8045C11.2777 48.5239 13.4451 46.8693 14.9929 45.6878ZM48.4702 47.7008C47.5762 47.7008 45.8605 45.5309 45.1145 44.446C44.7285 43.3115 45.202 42.2607 45.5926 41.3939C45.89 40.7339 46.1393 40.1806 45.9247 39.7782C45.7948 39.5346 45.2692 39.3163 44.5987 39.0379C44.447 38.9749 44.2879 38.9088 44.1243 38.8387C42.2474 38.0341 39.7753 36.6936 41.0821 33.321C42.4237 29.8589 44.8818 29.896 46.5211 29.9208C47.2334 29.9316 47.7912 29.94 48.0356 29.658C48.2518 29.4086 48.312 28.7715 48.387 27.9783C48.592 25.8106 48.9072 22.4772 52.8161 22.7046C55.2289 22.8449 56.4372 23.8092 57.0886 24.8871C57.5631 25.6724 57.742 26.518 57.8755 27.1494C57.9643 27.5692 58.0331 27.8943 58.1554 28.0438C58.3043 28.2259 58.8761 28.1964 59.6572 28.1561C61.8084 28.0451 65.5472 27.8522 66.4127 31.7689C67.2199 35.4221 65.2074 36.3433 63.7765 36.9984C63.1162 37.3006 62.5797 37.5462 62.5013 37.9774C62.4334 38.3513 62.7749 38.8927 63.1917 39.5535C64.2972 41.306 65.9318 43.8975 61.8571 46.4254C59.8576 48.4623 58.3663 47.1063 57.0871 45.943C56.3556 45.2779 55.6934 44.6757 55.0452 44.8071C54.4477 44.9281 54.0004 45.5473 53.5058 46.2318C52.5252 47.5888 51.359 49.2026 48.4702 47.7008ZM46.6196 8.14367C45.3922 7.46869 43.7957 7.56761 42.566 7.6438C41.7011 7.69739 41.0176 7.73974 40.7717 7.49364C40.5378 7.25964 40.5197 6.73349 40.4972 6.0797C40.4362 4.30382 40.3427 1.5861 35.8049 1.22305C31.2993 0.86257 31.1098 3.80504 30.9889 5.68333C30.9432 6.39313 30.9073 6.95095 30.6519 7.12113C30.3903 7.2955 29.8981 7.2346 29.2748 7.15745C28.125 7.01516 26.5287 6.8176 25.1084 7.93927C24.5586 8.37352 24.0352 9.00549 23.5742 9.91494C21.8257 13.365 24.718 15.4119 26.3631 16.5762C26.8791 16.9414 27.2725 17.2197 27.3614 17.4273C27.4684 17.6773 27.2419 18.0555 26.943 18.5546C26.2023 19.7915 25.0169 21.7709 27.3614 24.3808C29.7305 27.0181 32.3571 25.3426 34.152 24.1976C34.8502 23.7523 35.4225 23.3872 35.8049 23.3873C36.1901 23.3875 36.7875 23.7628 37.5124 24.2181C39.358 25.3773 42.0293 27.0552 44.1243 24.3808C46.1488 21.7963 45.3938 20.138 44.8247 18.8879C44.5736 18.3364 44.3587 17.8644 44.4347 17.4273C44.5141 16.9702 45.0073 16.8058 45.6248 16.6C46.9359 16.1629 48.8078 15.5389 48.4702 11.5291C48.3139 9.67304 47.5797 8.67162 46.6196 8.14367ZM35.8049 9.91494C33.1288 10.0205 30.8803 12.3486 31.2105 15.0063C31.503 17.3604 33.4339 18.9058 35.8049 18.9798C38.4624 19.0627 40.8441 16.9812 40.7717 14.3234C40.7011 11.7309 38.3964 9.81268 35.8049 9.91494ZM54.1199 31.2102C51.3259 30.6517 49.3392 33.6318 49.4015 36.239C49.4637 38.8462 51.0158 40.7091 54.1199 40.7091C57.224 40.7091 58.8385 39.157 58.7142 36.239C58.5899 33.321 56.9139 31.7686 54.1199 31.2102ZM12.9578 35.8044C12.9578 38.598 14.1375 40.7091 17.4278 40.7091C20.7182 40.7091 22.022 38.6606 22.4567 35.8044C22.8914 32.9482 20.2215 31.2102 17.9866 31.2102C15.7517 31.2102 12.9578 33.0109 12.9578 35.8044Z" fill="#DBC241"/>
<path d="M26.5304 44.446L24.5676 46.98C21.7751 50.0774 19.6574 47.7483 18.1496 46.09C17.5118 45.3885 16.9831 44.8071 16.5587 44.8071C16.1466 44.8071 15.6207 45.2085 14.9929 45.6878C13.4451 46.8693 11.2777 48.5239 8.66704 45.8045C6.16164 44.8236 7.27423 41.8906 8.059 39.8218C8.36111 39.0254 8.61464 38.357 8.59448 37.9774C8.57275 37.5686 8.11555 37.0707 7.55364 36.4588C6.23849 35.0267 4.34978 32.97 6.12844 29.9685C7.8814 27.0103 9.79458 27.5159 11.2771 27.9077C11.9416 28.0833 12.5195 28.236 12.9578 28.0438C13.4101 27.8455 13.6812 27.1848 14.0025 26.4016C14.2014 25.9168 14.4195 25.3851 14.7118 24.8871M26.5304 44.446H31.2105M26.5304 44.446C27.0136 43.5004 26.4602 42.4753 25.9611 41.5508C25.6019 40.8854 25.2708 40.2721 25.3747 39.7782C25.4582 39.3813 25.9911 39.1671 26.6924 38.8853C26.9654 38.7755 27.264 38.6555 27.5715 38.5104M45.1145 44.446C45.8605 45.5309 47.5762 47.7008 48.4702 47.7008C51.359 49.2026 52.5252 47.5888 53.5058 46.2318C54.0004 45.5473 54.4477 44.9281 55.0452 44.8071C55.6934 44.6757 56.3556 45.2779 57.0871 45.943C58.3663 47.1063 59.8576 48.4623 61.8571 46.4254C65.9318 43.8975 64.2972 41.306 63.1917 39.5535C62.7749 38.8927 62.4334 38.3513 62.5013 37.9774C62.5797 37.5462 63.1162 37.3006 63.7765 36.9984C65.2074 36.3433 67.2199 35.4221 66.4127 31.7689C65.5472 27.8522 61.8084 28.0451 59.6572 28.1561C58.8761 28.1964 58.3043 28.2259 58.1554 28.0438C58.0331 27.8943 57.9643 27.5692 57.8755 27.1494C57.742 26.518 57.5631 25.6724 57.0886 24.8871M45.1145 44.446H40.0871M45.1145 44.446C44.7285 43.3115 45.202 42.2607 45.5926 41.3939C45.89 40.7339 46.1393 40.1806 45.9247 39.7782C45.7948 39.5346 45.2692 39.3163 44.5987 39.0379C44.447 38.9749 44.2879 38.9088 44.1243 38.8387M35.8049 23.3873C35.3081 29.2104 34.4636 41.5745 35.0597 44.446M35.8049 23.3873C35.4225 23.3872 34.8502 23.7523 34.152 24.1976C32.3571 25.3426 29.7305 27.0181 27.3614 24.3808C25.0169 21.7709 26.2023 19.7915 26.943 18.5546C27.2419 18.0555 27.4684 17.6773 27.3614 17.4273C27.2725 17.2197 26.8791 16.9414 26.3631 16.5762C24.718 15.4119 21.8257 13.365 23.5742 9.91494C24.0352 9.00549 24.5586 8.37352 25.1084 7.93927M35.8049 23.3873C36.1901 23.3875 36.7875 23.7628 37.5124 24.2181C39.358 25.3773 42.0293 27.0552 44.1243 24.3808C46.1488 21.7963 45.3938 20.138 44.8247 18.8879C44.5736 18.3364 44.3587 17.8644 44.4347 17.4273C44.5141 16.9702 45.0073 16.8058 45.6248 16.6C46.9359 16.1629 48.8078 15.5389 48.4702 11.5291C48.3139 9.67304 47.5797 8.67162 46.6196 8.14367M14.7118 24.8871C15.4257 23.6709 16.5818 22.6555 18.98 23.0151C22.8767 23.5994 23.1813 26.4011 23.3715 28.1505C23.4237 28.6309 23.4673 29.0319 23.5742 29.2859C23.7339 29.6652 24.6067 29.8711 25.6904 30.1267C27.9758 30.6659 31.1992 31.4264 30.6519 34.5008C30.222 36.9155 28.8228 37.9202 27.5715 38.5104M14.7118 24.8871C11.6022 22.9801 5.4576 18.9301 5.75575 17.9864C5.98084 17.274 8.56121 17.105 10.5697 16.9736C11.8867 16.8874 12.9578 16.8173 12.9578 16.6206C12.9578 16.486 12.3929 15.691 11.5963 14.5698C9.45211 11.5518 5.62905 6.17085 6.62494 4.94863C7.43553 3.9538 11.1981 6.10743 14.318 7.89321C16.4552 9.11649 18.2908 10.1672 18.6694 9.91494C19.1164 9.61712 18.8624 7.85974 18.6079 6.09907C18.3323 4.19219 18.0561 2.28146 18.6694 2.2169C19.6131 2.11756 23.3553 5.99042 25.1084 7.93927M25.1084 7.93927C26.5287 6.8176 28.125 7.01516 29.2748 7.15745C29.8981 7.2346 30.3903 7.2955 30.6519 7.12113C30.9073 6.95095 30.9432 6.39313 30.9889 5.68333C31.1098 3.80504 31.2993 0.86257 35.8049 1.22305C40.3427 1.5861 40.4362 4.30382 40.4972 6.0797C40.5197 6.73349 40.5378 7.25964 40.7717 7.49364C41.0176 7.73974 41.7011 7.69739 42.566 7.6438C43.7957 7.56761 45.3922 7.46869 46.6196 8.14367M46.6196 8.14367C48.1677 6.02322 51.4625 1.86922 52.2572 2.2169C52.771 2.44167 52.6703 4.41002 52.5737 6.30125C52.4834 8.06665 52.3966 9.76485 52.8161 9.91494C53.1551 10.0362 54.987 9.0709 57.1322 7.94044C60.486 6.17305 64.6059 4.00199 64.9846 4.94863C65.352 5.86712 63.0887 9.24252 61.1796 12.0897C59.8626 14.0539 58.7142 15.7666 58.7142 16.248C58.7142 16.83 60.4225 16.8223 62.168 16.8145C63.9598 16.8064 65.7909 16.7982 65.8538 17.4273C65.9531 18.4209 60.0517 22.8145 57.0886 24.8871M57.0886 24.8871C56.4372 23.8092 55.2289 22.8449 52.8161 22.7046C48.9072 22.4772 48.592 25.8106 48.387 27.9783C48.312 28.7715 48.2518 29.4086 48.0356 29.658C47.7912 29.94 47.2334 29.9316 46.5211 29.9208C44.8818 29.896 42.4237 29.8589 41.0821 33.321C39.7753 36.6936 42.2474 38.0341 44.1243 38.8387M27.5715 38.5104C28.7845 39.6443 31.2105 42.4188 31.2105 44.446M31.2105 44.446H35.0597M35.0597 44.446H40.0871M40.0871 44.446C40.6258 43.0915 42.1873 40.0738 44.1243 38.8387M14.5037 47.7008C14.0276 47.6792 13.4865 48.3501 13.4865 48.783C13.4865 49.2158 13.9627 49.7785 14.3739 49.627C14.7851 49.4755 15.1097 49.1292 15.2829 48.783C15.456 48.4367 14.9799 47.7225 14.5037 47.7008ZM55.8551 47.7008C55.2698 47.6899 55.0258 48.3535 55.0452 48.783C55.0645 49.2124 55.3858 49.6353 55.8551 49.627C56.3245 49.6188 56.8275 49.3323 56.8271 48.783C56.8267 48.2336 56.4405 47.7118 55.8551 47.7008ZM55.8551 56.6615C55.0602 56.629 55.0697 57.2121 55.0452 57.512C55.0206 57.8119 55.3236 58.2007 55.8551 58.2814C56.3867 58.3622 56.8081 57.9495 56.8271 57.512C56.8461 57.0744 56.6501 56.6941 55.8551 56.6615ZM14.3739 56.6263C13.8888 56.6413 13.5871 57.1821 13.6069 57.512C13.6268 57.8418 13.9289 58.1788 14.3739 58.2814C14.8189 58.384 15.3697 58.0034 15.3647 57.4275C15.3597 56.8516 14.8589 56.6112 14.3739 56.6263ZM14.5037 65.4495C13.9153 65.4379 13.5223 65.8991 13.4865 66.381C13.4507 66.8628 14.104 67.3563 14.6471 67.2156C15.1902 67.075 15.3724 66.6673 15.354 66.3279C15.3356 65.9886 15.0921 65.4611 14.5037 65.4495ZM55.0452 66.381C55.0118 65.91 55.219 65.4648 55.8551 65.4495C56.4913 65.4342 56.7115 65.9213 56.8271 66.381C56.9427 66.8406 56.6963 67.3359 56.0981 67.3529C55.4999 67.3699 55.0785 66.852 55.0452 66.381ZM12.9578 35.8044C12.9578 38.598 14.1375 40.7091 17.4278 40.7091C20.7182 40.7091 22.022 38.6606 22.4567 35.8044C22.8914 32.9482 20.2215 31.2102 17.9866 31.2102C15.7517 31.2102 12.9578 33.0109 12.9578 35.8044ZM49.4015 36.239C49.3392 33.6318 51.3259 30.6517 54.1199 31.2102C56.9139 31.7686 58.5899 33.321 58.7142 36.239C58.8385 39.157 57.224 40.7091 54.1199 40.7091C51.0158 40.7091 49.4637 38.8462 49.4015 36.239ZM35.8049 9.91494C33.1288 10.0205 30.8803 12.3486 31.2105 15.0063C31.503 17.3604 33.4339 18.9058 35.8049 18.9798C38.4624 19.0627 40.8441 16.9812 40.7717 14.3234C40.7011 11.7309 38.3964 9.81268 35.8049 9.91494Z" stroke="#273210" stroke-width="0.5" stroke-linecap="round" stroke-linejoin="round"/>
<path d="M18.9801 23.0152C16.5819 22.6556 15.4257 23.6709 14.7119 24.8872C11.6023 22.9801 5.45768 18.9301 5.75583 17.9865C5.98092 17.274 8.56129 17.1051 10.5698 16.9736C11.8867 16.8874 12.9578 16.8173 12.9578 16.6206C12.9578 16.4861 12.393 15.691 11.5964 14.5698C9.45219 11.5519 5.62913 6.1709 6.62502 4.94867C7.43561 3.95385 11.1982 6.10747 14.3181 7.89325L14.3181 7.89325C16.4553 9.11653 18.2909 10.1672 18.6695 9.91499C19.1165 9.61716 18.8625 7.85978 18.608 6.09912L18.608 6.0991C18.3323 4.19223 18.0561 2.2815 18.6695 2.21694C19.6131 2.11761 23.3554 5.99047 25.1085 7.93931C24.5587 8.37356 24.0352 9.00553 23.5743 9.91499C21.8258 13.365 24.7181 15.4119 26.3632 16.5762L26.3632 16.5762C26.8792 16.9414 27.2726 17.2198 27.3615 17.4274C27.4685 17.6773 27.242 18.0555 26.9431 18.5547C26.2024 19.7916 25.017 21.771 27.3615 24.3809C29.7306 27.0181 32.3571 25.3426 34.1521 24.1977C34.8502 23.7523 35.4226 23.3872 35.805 23.3874C36.1901 23.3875 36.7876 23.7628 37.5125 24.2181C39.3581 25.3774 42.0294 27.0553 44.1243 24.3809C46.1489 21.7963 45.3939 20.138 44.8248 18.888L44.8248 18.888C44.5737 18.3364 44.3588 17.8644 44.4348 17.4274C44.5142 16.9703 45.0074 16.8059 45.6249 16.6C46.936 16.163 48.8078 15.539 48.4703 11.5292C48.314 9.67309 47.5798 8.67167 46.6197 8.14372C48.1678 6.02326 51.4626 1.86927 52.2573 2.21694C52.7711 2.44172 52.6704 4.41006 52.5737 6.30129V6.30137C52.4835 8.06674 52.3967 9.7649 52.8162 9.91499C53.1552 10.0363 54.987 9.07095 57.1323 7.94049C60.4861 6.17309 64.606 4.00204 64.9847 4.94867C65.3521 5.86717 63.0888 9.24257 61.1797 12.0898C59.8627 14.0539 58.7143 15.7667 58.7143 16.2481C58.7143 16.83 60.4226 16.8223 62.1681 16.8145C63.9599 16.8065 65.791 16.7982 65.8539 17.4274C65.9532 18.421 60.0518 22.8146 57.0887 24.8872C56.4373 23.8092 55.229 22.8449 52.8162 22.7046C48.9073 22.4772 48.5921 25.8106 48.3871 27.9783C48.3121 28.7715 48.2519 29.4087 48.0357 29.6581C47.7913 29.94 47.2335 29.9316 46.5212 29.9208C44.8818 29.8961 42.4238 29.8589 41.0822 33.3211C39.7753 36.6936 42.2475 38.0341 44.1243 38.8387C42.1874 40.0738 40.6259 43.0916 40.0872 44.446H35.0598H31.2106C31.2106 42.4188 28.7846 39.6443 27.5716 38.5105C28.8228 37.9203 30.2221 36.9155 30.652 34.5009C31.1993 31.4264 27.9759 30.6659 25.6905 30.1268C24.6068 29.8711 23.734 29.6652 23.5743 29.2859C23.4674 29.0319 23.4238 28.6309 23.3715 28.1506C23.1813 26.4012 22.8767 23.5995 18.9801 23.0152Z" fill="#82A44B"/>
<path d="M35.805 23.3874C35.3082 29.2105 34.4637 41.5745 35.0598 44.446M35.805 23.3874C35.4226 23.3872 34.8502 23.7523 34.1521 24.1977C32.3571 25.3426 29.7306 27.0181 27.3615 24.3809C25.017 21.771 26.2024 19.7916 26.9431 18.5547C27.242 18.0555 27.4685 17.6773 27.3615 17.4274C27.2726 17.2198 26.8792 16.9414 26.3632 16.5762C24.7181 15.4119 21.8258 13.365 23.5743 9.91499C24.0352 9.00553 24.5587 8.37356 25.1085 7.93931C23.3554 5.99047 19.6131 2.11761 18.6695 2.21694C18.0561 2.2815 18.3323 4.19224 18.608 6.09912C18.8625 7.85978 19.1165 9.61716 18.6695 9.91499C18.2909 10.1672 16.4553 9.11653 14.3181 7.89325C11.1982 6.10748 7.43561 3.95385 6.62502 4.94867C5.62913 6.1709 9.45219 11.5519 11.5964 14.5698C12.393 15.691 12.9578 16.4861 12.9578 16.6206C12.9578 16.8173 11.8867 16.8874 10.5698 16.9736C8.56129 17.1051 5.98092 17.274 5.75583 17.9865C5.45768 18.9301 11.6023 22.9801 14.7119 24.8872C15.4257 23.6709 16.5819 22.6556 18.9801 23.0152C22.8767 23.5995 23.1813 26.4012 23.3715 28.1506C23.4238 28.6309 23.4674 29.0319 23.5743 29.2859C23.734 29.6652 24.6068 29.8711 25.6905 30.1268C27.9759 30.6659 31.1993 31.4264 30.652 34.5009C30.2221 36.9155 28.8228 37.9203 27.5716 38.5105C28.7846 39.6443 31.2106 42.4188 31.2106 44.446H35.0598M35.805 23.3874C36.1901 23.3875 36.7876 23.7628 37.5125 24.2181C39.3581 25.3774 42.0294 27.0553 44.1243 24.3809C46.1489 21.7963 45.3939 20.138 44.8248 18.888C44.5737 18.3365 44.3588 17.8644 44.4348 17.4274C44.5142 16.9703 45.0074 16.8059 45.6249 16.6C46.936 16.163 48.8078 15.539 48.4703 11.5292C48.314 9.67309 47.5798 8.67167 46.6197 8.14372C48.1678 6.02326 51.4626 1.86927 52.2573 2.21694C52.7711 2.44172 52.6704 4.41006 52.5737 6.30129C52.4835 8.06669 52.3966 9.7649 52.8162 9.91499C53.1552 10.0363 54.9871 9.07095 57.1323 7.94049C60.4861 6.17309 64.606 4.00204 64.9847 4.94867C65.3521 5.86717 63.0888 9.24257 61.1797 12.0898C59.8627 14.0539 58.7143 15.7667 58.7143 16.2481C58.7143 16.83 60.4226 16.8223 62.1681 16.8145C63.9599 16.8065 65.791 16.7982 65.8539 17.4274C65.9532 18.421 60.0518 22.8146 57.0887 24.8872C56.4373 23.8092 55.229 22.8449 52.8162 22.7046C48.9073 22.4772 48.5921 25.8106 48.3871 27.9783C48.3121 28.7715 48.2519 29.4087 48.0357 29.6581C47.7913 29.94 47.2335 29.9316 46.5212 29.9208C44.8818 29.8961 42.4238 29.8589 41.0822 33.3211C39.7753 36.6936 42.2475 38.0341 44.1243 38.8387M35.0598 44.446H40.0872C40.6259 43.0916 42.1874 40.0738 44.1243 38.8387M44.1243 38.8387C44.288 38.9089 44.4471 38.9749 44.5987 39.0379" stroke="#273210" stroke-width="0.5" stroke-linecap="round" stroke-linejoin="round"/>
</svg>
