<svg width="72" height="72" viewBox="0 0 72 72" fill="none" xmlns="http://www.w3.org/2000/svg">
<path d="M16.7302 43.9334C16.7535 48.8415 18.6571 58.8135 30.9374 61.0166C32.0905 61.2235 33.3351 61.3619 34.6782 61.4212C36.0762 61.4828 37.3653 61.4178 38.5537 61.2465C50.6669 59.5005 52.3332 46.7191 52.4728 44.6236C51.0759 45.2022 49.6568 45.7078 48.2265 46.1429C48.6153 46.9338 46.6852 47.8111 46.4682 48.3305C46.2512 48.85 47.8783 50.829 47.2838 51.349C46.6894 51.869 44.8956 50.3728 44.3385 50.55C43.7814 50.7272 42.4801 53.0046 41.5291 52.7103C40.578 52.4159 41.3376 50.2698 40.9853 49.4615C40.6331 48.6533 38.5537 48.7586 38.5537 48.0372C35.9457 48.2788 33.3841 48.3037 30.9374 48.1277C30.9374 48.8288 28.683 48.8639 28.3887 49.4615C28.0945 50.0592 29.0645 52.3379 27.6822 52.7103C26.2999 53.0826 25.5162 50.55 24.9597 50.55C24.4032 50.55 22.8586 52.4432 21.5565 51.349C20.2544 50.2548 22.9982 48.8639 22.8586 48.3305C22.719 47.7972 20.1558 46.5478 20.3927 45.8211C19.0537 45.2765 17.8249 44.6455 16.7302 43.9334Z" fill="#C3AFFA"/>
<path d="M34.6782 61.4212C33.3351 61.3619 32.0905 61.2235 30.9374 61.0166L28.3887 69.2446C30.6386 70.2418 36.2583 71.6377 40.7376 69.2446L38.5537 61.2465C37.3653 61.4178 36.0762 61.4828 34.6782 61.4212Z" fill="#C3AFFA"/>
<path d="M34.5571 36.9887C36.4385 37.2133 37.4913 35.3362 37.668 34.1696C37.8448 33.0031 36.3683 31.3881 34.8488 31.3504C33.3292 31.3127 31.8064 32.517 31.4949 34.1696C31.1833 35.8223 32.6758 36.7642 34.5571 36.9887Z" fill="#C3AFFA"/>
<path d="M43.1695 10.9707C43.1695 11.9276 44.1547 12.7313 44.9301 12.7313C45.7056 12.7313 46.572 11.6704 46.572 11.0894C46.572 10.5085 46.0466 9.21001 44.9301 9.21001C43.8136 9.21001 43.1695 10.0137 43.1695 10.9707Z" fill="#C3AFFA"/>
<path d="M54.6029 1.43405C52.329 1.43405 50.7149 3.60505 50.7149 5.32203C50.7149 7.03901 52.329 9.21001 54.6029 9.21001C56.8767 9.21001 58.4909 6.931 58.4909 5.32203C58.4909 3.71306 56.8767 1.43405 54.6029 1.43405Z" fill="#C3AFFA"/>
<path d="M58.1624 14.9479C56.6325 14.9479 55.4671 16.4747 55.4671 17.6432C55.4671 18.8116 56.3372 20.3384 58.1624 20.3384C59.9876 20.3384 60.8576 18.4876 60.8576 17.6432C60.8576 16.7987 59.6923 14.9479 58.1624 14.9479Z" fill="#C3AFFA"/>
<path d="M30.9374 61.0166C18.6571 58.8135 16.7535 48.8415 16.7302 43.9334C17.8249 44.6455 19.0537 45.2765 20.3927 45.8211C20.1558 46.5478 22.719 47.7972 22.8586 48.3305C22.9982 48.8639 20.2544 50.2548 21.5565 51.349C22.8586 52.4432 24.4032 50.55 24.9597 50.55C25.5162 50.55 26.2999 53.0826 27.6822 52.7103C29.0645 52.3379 28.0945 50.0592 28.3887 49.4615C28.683 48.8639 30.9374 48.8288 30.9374 48.1277C33.3841 48.3037 35.9457 48.2788 38.5537 48.0372C38.5537 48.7586 40.6331 48.6533 40.9853 49.4615C41.3376 50.2698 40.578 52.4159 41.5291 52.7103C42.4801 53.0046 43.7814 50.7272 44.3385 50.55C44.8956 50.3728 46.6894 51.869 47.2838 51.349C47.8783 50.829 46.2512 48.85 46.4682 48.3305C46.6852 47.8111 48.6153 46.9338 48.2265 46.1429C49.6568 45.7078 51.0759 45.2022 52.4728 44.6236C52.3332 46.7191 50.6669 59.5005 38.5537 61.2465M30.9374 61.0166C32.0905 61.2235 33.3351 61.3619 34.6782 61.4212C36.0762 61.4828 37.3653 61.4178 38.5537 61.2465M30.9374 61.0166L28.3887 69.2446C30.6386 70.2418 36.2583 71.6377 40.7376 69.2446L38.5537 61.2465M44.9301 10.3075C45.2016 10.2934 45.7641 10.4299 45.842 11.0894M54.6029 3.07912C55.4144 3.08166 57.0473 3.53379 57.0862 5.32203M58.1624 16.319C58.6717 16.2688 59.6855 16.4633 59.6661 17.6432M34.5571 36.9887C36.4385 37.2133 37.4913 35.3362 37.668 34.1696C37.8448 33.0031 36.3683 31.3881 34.8488 31.3504C33.3292 31.3127 31.8064 32.517 31.4949 34.1696C31.1833 35.8223 32.6758 36.7642 34.5571 36.9887ZM54.6029 1.43405C52.329 1.43405 50.7149 3.60505 50.7149 5.32203C50.7149 7.03901 52.329 9.21001 54.6029 9.21001C56.8767 9.21001 58.4909 6.931 58.4909 5.32203C58.4909 3.71306 56.8767 1.43405 54.6029 1.43405ZM44.9301 9.21001C43.8136 9.21001 43.1695 10.0137 43.1695 10.9707C43.1695 11.9276 44.1547 12.7313 44.9301 12.7313C45.7056 12.7313 46.572 11.6704 46.572 11.0894C46.572 10.5085 46.0466 9.21001 44.9301 9.21001ZM58.1624 14.9479C56.6325 14.9479 55.4671 16.4747 55.4671 17.6432C55.4671 18.8116 56.3372 20.3384 58.1624 20.3384C59.9876 20.3384 60.8576 18.4876 60.8576 17.6432C60.8576 16.7987 59.6923 14.9479 58.1624 14.9479Z" stroke="#273210" stroke-width="0.5" stroke-linecap="round" stroke-linejoin="round"/>
<path d="M24.5154 45.2386C24.0708 45.4035 20.6123 45.0036 20.393 45.8209C20.1561 46.5476 22.7193 47.797 22.8589 48.3303C22.9985 48.8636 20.2547 50.2546 21.5568 51.3488C22.8589 52.443 24.4035 50.5498 24.96 50.5498C25.5165 50.5498 26.3002 53.0824 27.6825 52.7101C29.0648 52.3377 28.0948 50.059 28.389 49.4613C28.6833 48.8636 30.9377 48.8285 30.9377 48.1275C30.9377 47.5652 28.192 46.5827 27.9963 46.1427C27.8006 45.7027 27.9963 43.1618 27.1974 42.899C26.3985 42.6363 24.96 45.0737 24.5154 45.2386Z" fill="#DBC241"/>
<path d="M16.7305 43.9331C17.5243 43.7403 17.4963 41.7771 17.8852 41.4603C18.2741 41.1435 20.9475 41.2226 20.9475 40.1479C20.9475 39.0731 18.472 38.5467 18.2741 38.0576C18.0762 37.5685 18.7174 34.9471 17.8852 34.7038C17.053 34.4605 15.7699 36.9885 15.2604 36.9885C15.2248 36.9885 15.176 36.9819 15.116 36.9698C14.8221 36.9257 14.4903 36.839 14.162 36.6992C13.0347 36.3576 11.4696 35.9064 11.2745 36.5024C10.9902 37.3707 12.6466 39.1433 12.7328 39.6133C12.819 40.0833 10.8148 42.0552 11.2745 42.6085C11.7341 43.1618 14.3853 42.1396 14.8229 42.2381C15.2604 42.3366 15.9803 44.3017 16.7305 43.9331Z" fill="#DBC241"/>
<path d="M17.8852 25.5658C17.8852 25.984 17.1562 28.142 17.8852 28.4822C18.6142 28.8225 20.4402 27.0726 20.9475 27.0726C21.4547 27.0726 23.4334 28.8224 24.0583 28.4822C24.6832 28.1421 23.3778 25.5331 23.718 24.9339C24.0583 24.3347 26.5781 23.0382 26.44 22.2605C26.362 21.8209 25.1722 21.8782 24.0583 21.9409C23.2011 21.9892 22.3889 22.0407 22.1626 21.8716C21.6422 21.4827 20.9475 18.72 19.9752 18.7608C19.003 18.8015 19.2791 21.4572 18.6142 21.8716C17.9494 22.286 15.5243 22.6495 15.552 23.4758C15.5797 24.302 17.8852 25.1476 17.8852 25.5658Z" fill="#DBC241"/>
<path fill-rule="evenodd" clip-rule="evenodd" d="M38.554 38.9329C38.0374 39.8082 38.825 42.6085 37.6683 42.899C36.5116 43.1896 35.4562 40.4415 34.5574 40.3912C33.6586 40.3408 32.8595 43.4243 31.4952 43.1618C30.1309 42.8992 31.4952 39.3537 30.9377 38.9329C30.3802 38.5122 27.4905 40.1479 26.8289 38.9329C26.1673 37.718 28.7187 35.7393 28.389 34.9471C28.0594 34.155 25.2971 34.0236 25.5165 32.5168C25.7359 31.0099 28.674 31.3471 29.0648 30.7183C29.4556 30.0895 28.5337 27.635 29.0648 27.0726C29.596 26.5102 31.7432 28.4822 32.5645 28.4822C33.3858 28.4822 33.4832 25.3097 34.5574 25.2257C35.6317 25.1416 36.2005 28.0545 36.7934 28.1421C37.3863 28.2297 39.9151 26.3717 40.6334 27.0726C41.3516 27.7735 39.7584 30.3863 40.1959 31.0099C40.6334 31.6336 43.4428 31.2594 43.6956 32.5168C43.9484 33.7741 40.6334 34.7038 40.6334 35.336C40.6334 35.9682 43.1764 38.0576 42.4804 38.9329C41.7845 39.8082 39.0707 38.0576 38.554 38.9329ZM37.6683 34.1694C37.4915 35.336 36.4388 37.2131 34.5574 36.9885C32.6761 36.7639 31.1836 35.8221 31.4952 34.1694C31.8067 32.5168 33.3295 31.3125 34.8491 31.3502C36.3686 31.3879 37.8451 33.0028 37.6683 34.1694Z" fill="#DBC241"/>
<path d="M50.9867 28.8225C51.9843 28.4822 51.0907 26.1977 51.327 25.5658C51.3847 25.4112 51.5585 25.2377 51.7863 25.0498C52.4897 24.4694 53.7077 23.7525 53.6115 23.0382C53.4841 22.0926 51.327 22.6495 50.5006 21.8716C49.6743 21.0937 50.2999 18.5446 49.091 18.5177C47.8821 18.4908 47.8084 21.5272 46.8551 21.8716C46.454 22.0165 45.7286 21.9658 45.008 21.9474C44.0157 21.9221 43.0324 21.9578 42.9179 22.6495C42.7202 23.8434 45.4095 24.3019 45.5913 24.9339C45.7731 25.5658 44.1727 27.8573 45.008 28.4822C45.8433 29.1071 47.3625 27.0726 48.2268 27.0726C49.091 27.0726 49.9891 29.1627 50.9867 28.8225Z" fill="#DBC241"/>
<path d="M52.4731 44.6234C53.4231 44.793 53.8493 42.8101 54.5836 42.6085C55.318 42.4068 56.5912 43.1896 57.3057 42.899C58.0201 42.6085 56.3423 40.2937 56.4793 39.6133C56.6164 38.9329 58.4061 36.9885 57.5973 36.5024C57.3063 36.3275 56.9114 36.3414 56.4793 36.4309C55.7106 36.5901 54.824 36.9885 54.1948 36.9885C53.2119 36.9885 52.0896 34.4761 50.9867 34.7038C49.8838 34.9315 50.8066 37.1823 50.5006 38.0576C50.1947 38.9329 48.2268 38.4765 48.2268 39.6133C48.2268 40.7501 50.4102 40.9349 50.9867 41.4603C51.5632 41.9857 51.6334 44.3368 52.4731 44.6234Z" fill="#DBC241"/>
<path d="M40.9856 46.1427C40.6547 46.7313 38.554 47.2143 38.554 48.037C38.554 48.7584 40.6334 48.6531 40.9856 49.4613C41.3379 50.2695 40.5783 52.4157 41.5294 52.7101C42.4804 53.0044 43.7817 50.727 44.3388 50.5498C44.8959 50.3726 46.6897 51.8688 47.2841 51.3488C47.8786 50.8288 46.2515 48.8497 46.4685 48.3303C46.6855 47.8109 48.6155 46.9336 48.2268 46.1427C47.7383 45.2386 45.0011 45.8209 44.3388 45.554C43.6764 45.2871 42.6851 42.6085 41.9372 42.6085C41.1893 42.6085 41.3165 45.554 40.9856 46.1427Z" fill="#DBC241"/>
<path d="M15.2604 36.9885C15.7699 36.9885 17.053 34.4605 17.8852 34.7038C18.7174 34.9471 18.0762 37.5685 18.2741 38.0576C18.472 38.5467 20.9475 39.0731 20.9475 40.1479C20.9475 41.2226 18.2741 41.1435 17.8852 41.4603C17.4963 41.7771 17.5243 43.7403 16.7305 43.9331C15.9803 44.3017 15.2604 42.3366 14.8229 42.2381C14.3853 42.1396 11.7341 43.1618 11.2745 42.6085C10.8148 42.0552 12.819 40.0833 12.7328 39.6133C12.6466 39.1433 10.9902 37.3707 11.2745 36.5024C11.4696 35.9064 13.0347 36.3576 14.162 36.6992M15.2604 36.9885C15.2248 36.9885 15.176 36.9819 15.116 36.9698M15.2604 36.9885C15.2135 36.9835 15.1653 36.9773 15.116 36.9698M17.8852 25.5658C17.8852 25.984 17.1562 28.142 17.8852 28.4822C18.6142 28.8225 20.4402 27.0726 20.9475 27.0726C21.4547 27.0726 23.4334 28.8224 24.0583 28.4822C24.6832 28.1421 23.3778 25.5331 23.718 24.9339C24.0583 24.3347 26.5781 23.0382 26.44 22.2605C26.362 21.8209 25.1722 21.8782 24.0583 21.9409M17.8852 25.5658C17.8852 25.1476 15.5797 24.302 15.552 23.4758C15.5243 22.6495 17.9494 22.286 18.6142 21.8716C19.2791 21.4572 19.003 18.8015 19.9752 18.7608C20.9475 18.72 21.6422 21.4827 22.1626 21.8716C22.3889 22.0407 23.2011 21.9892 24.0583 21.9409M17.8852 25.5658C16.8644 25.4524 14.8229 25.6608 14.8229 27.4015C9.25274 26.6608 11.2745 31.8105 12.7328 32.5168C11.8043 34.9642 12.9595 36.1874 14.162 36.6992M24.0583 21.9409C24.3905 20.737 25.6432 18.6173 27.9963 19.7704C28.389 17.7355 30.5429 14.4834 33.1714 18.7608C33.7649 18.5177 34.9759 17.7511 35.8846 18.7608C35.8846 16.9722 41.3379 14.607 40.9856 19.7704C43.2613 19.7704 44.4247 19.8853 45.008 21.9474M45.008 21.9474C45.7286 21.9658 46.454 22.0165 46.8551 21.8716C47.8084 21.5272 47.8821 18.4908 49.091 18.5177C50.2999 18.5446 49.6743 21.0937 50.5006 21.8716C51.327 22.6495 53.4841 22.0926 53.6115 23.0382C53.7077 23.7525 52.4897 24.4694 51.7863 25.0498M45.008 21.9474C44.0157 21.9221 43.0324 21.9578 42.9179 22.6495C42.7202 23.8434 45.4095 24.3019 45.5913 24.9339C45.7731 25.5658 44.1727 27.8573 45.008 28.4822C45.8433 29.1071 47.3625 27.0726 48.2268 27.0726C49.091 27.0726 49.9891 29.1627 50.9867 28.8225C51.9843 28.4822 51.0907 26.1977 51.327 25.5658C51.3847 25.4112 51.5585 25.2377 51.7863 25.0498M51.7863 25.0498C52.7758 25.36 54.7462 26.2647 54.7117 27.4015C55.7461 27.82 60.3145 28.045 56.134 32.5168C56.4793 33.3365 56.8247 35.3879 56.4793 36.4309M56.4793 36.4309C56.9114 36.3414 57.3063 36.3275 57.5973 36.5024C58.4061 36.9885 56.6164 38.9329 56.4793 39.6133C56.3423 40.2937 58.0201 42.6085 57.3057 42.899C56.5912 43.1896 55.318 42.4068 54.5836 42.6085C53.8493 42.8101 53.4231 44.793 52.4731 44.6234C51.6334 44.3368 51.5632 41.9857 50.9867 41.4603C50.4102 40.9349 48.2268 40.7501 48.2268 39.6133C48.2268 38.4765 50.1947 38.9329 50.5006 38.0576C50.8066 37.1823 49.8838 34.9315 50.9867 34.7038C52.0896 34.4761 53.2119 36.9885 54.1948 36.9885C54.824 36.9885 55.7106 36.5901 56.4793 36.4309ZM15.116 36.9698C14.8221 36.9257 14.4903 36.839 14.162 36.6992M15.116 36.9698C14.9071 36.9279 14.5621 36.8205 14.162 36.6992M48.2268 46.1427C47.7383 45.2386 45.0011 45.8209 44.3388 45.554C43.6764 45.2871 42.6851 42.6085 41.9372 42.6085C41.1893 42.6085 41.3165 45.554 40.9856 46.1427C40.6547 46.7313 38.554 47.2143 38.554 48.037C38.554 48.7584 40.6334 48.6531 40.9856 49.4613C41.3379 50.2695 40.5783 52.4157 41.5294 52.7101C42.4804 53.0044 43.7817 50.727 44.3388 50.5498C44.8959 50.3726 46.6897 51.8688 47.2841 51.3488C47.8786 50.8288 46.2515 48.8497 46.4685 48.3303C46.6855 47.8109 48.6155 46.9336 48.2268 46.1427ZM30.9377 48.1275C30.9377 47.5652 28.192 46.5827 27.9963 46.1427C27.8006 45.7027 27.9963 43.1618 27.1974 42.899C26.3985 42.6363 24.96 45.0737 24.5154 45.2386C24.0708 45.4035 20.6123 45.0036 20.393 45.8209C20.1561 46.5476 22.7193 47.797 22.8589 48.3303C22.9985 48.8636 20.2547 50.2546 21.5568 51.3488C22.8589 52.443 24.4035 50.5498 24.96 50.5498C25.5165 50.5498 26.3002 53.0824 27.6825 52.7101C29.0648 52.3377 28.0948 50.059 28.389 49.4613C28.6833 48.8636 30.9377 48.8285 30.9377 48.1275ZM38.554 38.9329C38.0374 39.8082 38.825 42.6085 37.6683 42.899C36.5116 43.1896 35.4562 40.4415 34.5574 40.3912C33.6586 40.3408 32.8595 43.4243 31.4952 43.1618C30.1309 42.8992 31.4952 39.3537 30.9377 38.9329C30.3802 38.5122 27.4905 40.1479 26.8289 38.9329C26.1673 37.718 28.7187 35.7393 28.389 34.9471C28.0594 34.155 25.2971 34.0236 25.5165 32.5168C25.7359 31.0099 28.674 31.3471 29.0648 30.7183C29.4556 30.0895 28.5337 27.635 29.0648 27.0726C29.596 26.5102 31.7432 28.4822 32.5645 28.4822C33.3858 28.4822 33.4832 25.3097 34.5574 25.2257C35.6317 25.1416 36.2005 28.0545 36.7934 28.1421C37.3863 28.2297 39.9151 26.3717 40.6334 27.0726C41.3516 27.7735 39.7584 30.3863 40.1959 31.0099C40.6334 31.6336 43.4428 31.2594 43.6956 32.5168C43.9484 33.7741 40.6334 34.7038 40.6334 35.336C40.6334 35.9682 43.1764 38.0576 42.4804 38.9329C41.7845 39.8082 39.0707 38.0576 38.554 38.9329ZM34.5574 36.9885C36.4388 37.2131 37.4915 35.336 37.6683 34.1694C37.8451 33.0028 36.3686 31.3879 34.8491 31.3502C33.3295 31.3125 31.8067 32.5168 31.4952 34.1694C31.1836 35.8221 32.6761 36.7639 34.5574 36.9885Z" stroke="#273210" stroke-width="0.5" stroke-linecap="round" stroke-linejoin="round"/>
<path fill-rule="evenodd" clip-rule="evenodd" d="M48.2265 46.1429C49.6568 45.7078 51.076 45.2022 52.4729 44.6236C51.6332 44.3371 51.5634 41.9857 50.9868 41.4603C50.4103 40.935 48.2269 40.7501 48.2269 39.6133C48.2269 38.4766 50.1948 38.933 50.5008 38.0577C50.8067 37.1824 49.8839 34.9315 50.9868 34.7038C52.0897 34.4762 53.212 36.9885 54.1949 36.9885C54.8241 36.9885 55.7107 36.5901 56.4794 36.4309C56.8248 35.3879 56.4794 33.3366 56.1341 32.5168C60.3146 28.0451 55.7462 27.82 54.7119 27.4015C54.7463 26.2647 52.7759 25.36 51.7864 25.0498C51.5587 25.2377 51.3849 25.4113 51.3271 25.5658C51.0908 26.1978 51.9844 28.4823 50.9868 28.8225C49.9892 29.1627 49.0911 27.0726 48.2269 27.0726C47.3626 27.0726 45.8434 29.1072 45.0081 28.4823C44.1728 27.8574 45.7733 25.5658 45.5914 24.9339C45.4096 24.302 42.7203 23.8434 42.918 22.6495C43.0326 21.9579 44.0158 21.9221 45.0081 21.9475C44.4248 19.8853 43.2614 19.7705 40.9857 19.7705C41.338 14.607 35.8847 16.9723 35.8847 18.7608C34.976 17.7512 33.765 18.5177 33.1715 18.7608C30.543 14.4834 28.3891 17.7355 27.9964 19.7705C25.6433 18.6173 24.3906 20.737 24.0584 21.941C25.1723 21.8782 26.3621 21.821 26.4401 22.2605C26.5782 23.0382 24.0584 24.3347 23.7181 24.9339C23.3779 25.5331 24.6833 28.1421 24.0584 28.4823C23.4335 28.8224 21.4549 27.0726 20.9476 27.0726C20.4403 27.0726 18.6144 28.8225 17.8853 28.4823C17.1563 28.142 17.8853 25.984 17.8853 25.5658C16.8645 25.4524 14.823 25.6609 14.823 27.4015C9.25286 26.6609 11.2746 31.8105 12.7329 32.5168C11.8044 34.9643 12.9596 36.1874 14.1621 36.6993C14.5622 36.8205 14.9072 36.928 15.1161 36.9699C15.1654 36.9773 15.2136 36.9835 15.2605 36.9885C15.77 36.9885 17.0531 34.4605 17.8853 34.7038C18.7175 34.9472 18.0763 37.5686 18.2742 38.0577C18.4721 38.5468 20.9476 39.0731 20.9476 40.1479C20.9476 41.2227 18.2742 41.1435 17.8853 41.4603C17.4965 41.7772 17.5241 43.7405 16.7303 43.9334C17.825 44.6455 19.0537 45.2765 20.3928 45.8211C20.612 45.0038 24.0709 45.4036 24.5155 45.2387C24.9601 45.0738 26.3986 42.6363 27.1975 42.899C27.9964 43.1618 27.8007 45.7027 27.9964 46.1427C28.1921 46.5827 30.9375 47.5655 30.9375 48.1277C33.3842 48.3037 35.9458 48.2788 38.5538 48.0372C38.5538 47.2146 40.6548 46.7314 40.9857 46.1427C41.3166 45.554 41.1894 42.6085 41.9373 42.6085C42.6852 42.6085 43.6766 45.2872 44.3389 45.554C45.0012 45.8209 47.738 45.2389 48.2265 46.1429ZM37.6684 42.899C38.8251 42.6085 38.0375 39.8083 38.5541 38.933C39.0708 38.0577 41.7846 39.8083 42.4805 38.933C43.1765 38.0577 40.6335 35.9682 40.6335 35.336C40.6335 34.7038 43.9485 33.7742 43.6957 32.5168C43.443 31.2594 40.6335 31.6336 40.196 31.01C39.7585 30.3864 41.3517 27.7735 40.6335 27.0726C39.9152 26.3717 37.3864 28.2297 36.7935 28.1421C36.2006 28.0546 35.6318 25.1417 34.5576 25.2257C33.4833 25.3098 33.386 28.4823 32.5647 28.4823C31.7434 28.4823 29.5961 26.5102 29.0649 27.0726C28.5338 27.635 29.4557 30.0896 29.0649 30.7183C28.6741 31.3471 25.736 31.01 25.5166 32.5168C25.2972 34.0236 28.0595 34.155 28.3891 34.9472C28.7188 35.7393 26.1674 37.718 26.829 38.933C27.4906 40.1479 30.3803 38.5122 30.9378 38.933C31.4953 39.3537 30.131 42.8993 31.4953 43.1618C32.8596 43.4243 33.6588 40.3408 34.5576 40.3912C35.4564 40.4415 36.5117 43.1896 37.6684 42.899Z" fill="#82A44B"/>
<path d="M15.2605 36.9885C15.77 36.9885 17.0531 34.4605 17.8853 34.7038C18.7175 34.9472 18.0763 37.5686 18.2742 38.0577C18.4721 38.5468 20.9476 39.0731 20.9476 40.1479C20.9476 41.2227 18.2742 41.1435 17.8853 41.4603C17.4965 41.7772 17.5241 43.7405 16.7303 43.9334C17.825 44.6455 19.0537 45.2765 20.3928 45.8211C20.612 45.0038 24.0709 45.4036 24.5155 45.2387C24.9601 45.0738 26.3986 42.6363 27.1975 42.899C27.9964 43.1618 27.8007 45.7027 27.9964 46.1427C28.1921 46.5827 30.9375 47.5655 30.9375 48.1277C33.3842 48.3037 35.9458 48.2788 38.5538 48.0372C38.5538 47.2146 40.6548 46.7314 40.9857 46.1427C41.3166 45.554 41.1894 42.6085 41.9373 42.6085C42.6852 42.6085 43.6766 45.2872 44.3389 45.554C45.0012 45.8209 47.738 45.2389 48.2265 46.1429C49.6568 45.7078 51.076 45.2022 52.4729 44.6236C51.6332 44.3371 51.5634 41.9857 50.9868 41.4603C50.4103 40.935 48.2269 40.7501 48.2269 39.6133C48.2269 38.4766 50.1948 38.933 50.5008 38.0577C50.8067 37.1824 49.8839 34.9315 50.9868 34.7038C52.0897 34.4762 53.212 36.9885 54.1949 36.9885C54.8241 36.9885 55.7107 36.5901 56.4794 36.4309C56.8248 35.3879 56.4794 33.3366 56.1341 32.5168C60.3146 28.0451 55.7462 27.82 54.7119 27.4015C54.7463 26.2647 52.7759 25.36 51.7864 25.0498C51.5587 25.2377 51.3849 25.4113 51.3271 25.5658C51.0908 26.1978 51.9844 28.4823 50.9868 28.8225C49.9892 29.1627 49.0911 27.0726 48.2269 27.0726C47.3626 27.0726 45.8434 29.1072 45.0081 28.4823C44.1728 27.8574 45.7733 25.5658 45.5914 24.9339C45.4096 24.302 42.7203 23.8434 42.918 22.6495C43.0326 21.9579 44.0158 21.9221 45.0081 21.9475C44.4248 19.8853 43.2614 19.7705 40.9857 19.7705C41.338 14.607 35.8847 16.9723 35.8847 18.7608C34.976 17.7512 33.765 18.5177 33.1715 18.7608C30.543 14.4834 28.3891 17.7355 27.9964 19.7705C25.6433 18.6173 24.3906 20.737 24.0584 21.941C25.1723 21.8782 26.3621 21.821 26.4401 22.2605C26.5782 23.0382 24.0584 24.3347 23.7181 24.9339C23.3779 25.5331 24.6833 28.1421 24.0584 28.4823C23.4335 28.8224 21.4549 27.0726 20.9476 27.0726C20.4403 27.0726 18.6144 28.8225 17.8853 28.4823C17.1563 28.142 17.8853 25.984 17.8853 25.5658C16.8645 25.4524 14.823 25.6609 14.823 27.4015C9.25286 26.6609 11.2746 31.8105 12.7329 32.5168C11.8044 34.9643 12.9596 36.1874 14.1621 36.6993M15.2605 36.9885C15.2249 36.9885 15.1761 36.9819 15.1161 36.9699M15.2605 36.9885C15.2136 36.9835 15.1654 36.9773 15.1161 36.9699M15.1161 36.9699C14.8222 36.9257 14.4904 36.839 14.1621 36.6993M15.1161 36.9699C14.9072 36.928 14.5622 36.8205 14.1621 36.6993M38.5541 38.933C38.0375 39.8083 38.8251 42.6085 37.6684 42.899C36.5117 43.1896 35.4564 40.4415 34.5576 40.3912C33.6588 40.3408 32.8596 43.4243 31.4953 43.1618C30.131 42.8993 31.4953 39.3537 30.9378 38.933C30.3803 38.5122 27.4906 40.1479 26.829 38.933C26.1674 37.718 28.7188 35.7393 28.3891 34.9472C28.0595 34.155 25.2972 34.0236 25.5166 32.5168C25.736 31.01 28.6741 31.3471 29.0649 30.7183C29.4557 30.0896 28.5338 27.635 29.0649 27.0726C29.5961 26.5102 31.7434 28.4823 32.5647 28.4823C33.386 28.4823 33.4833 25.3098 34.5576 25.2257C35.6318 25.1417 36.2006 28.0546 36.7935 28.1421C37.3864 28.2297 39.9152 26.3717 40.6335 27.0726C41.3517 27.7735 39.7585 30.3864 40.196 31.01C40.6335 31.6336 43.443 31.2594 43.6957 32.5168C43.9485 33.7742 40.6335 34.7038 40.6335 35.336C40.6335 35.9682 43.1765 38.0577 42.4805 38.933C41.7846 39.8083 39.0708 38.0577 38.5541 38.933Z" stroke="#273210" stroke-width="0.5" stroke-linecap="round" stroke-linejoin="round"/>
</svg>
