<svg width="72" height="72" viewBox="0 0 72 72" fill="none" xmlns="http://www.w3.org/2000/svg">
<path d="M20.371 70.8104C18.2447 70.4238 13.2029 58.7293 10.9478 52.9304C10.9478 52.9304 13.0293 49.1866 14.0389 49.1866C15.0485 49.1866 15.7382 54.7703 19.1548 53.8899C19.7927 53.6553 20.371 52.9304 20.371 52.9304C21.8207 53.0915 25.4451 53.4136 25.4451 53.4136C25.361 55.6897 30.7783 55.1449 31.1186 56.2142C31.4588 57.2834 27.3442 59.686 29.9039 62.6249C32.4636 65.5639 35.5049 59.8071 36.4496 59.7232C37.3944 59.6393 38.9078 65.5292 42.0506 63.5697C45.1935 61.6102 41.5783 57.8337 42.0506 57.0239C42.523 56.2142 48.5395 57.3873 48.6408 53.6553C53.7148 53.172 60.9635 50.9974 60.9635 50.9974C60.7702 55.4433 54.2786 66.0585 51.057 70.8104H20.371Z" fill="#C3AFFA"/>
<path d="M32.6032 29.3562C32.2253 28.2222 33.4694 26.6568 34.7626 26.6568C36.0558 26.6568 37.3944 27.5339 37.3944 29.3562C37.3944 31.1784 36.0124 31.2408 34.7626 31.1784C33.5128 31.1161 32.9811 30.4901 32.6032 29.3562Z" fill="#C3AFFA"/>
<path d="M12.2911 43.0552C12.3958 41.5728 13.3455 41.0483 14.5855 40.9632C15.8254 40.8782 16.9107 42.4083 16.6774 43.5275C16.4441 44.6468 15.9122 45.7971 14.5855 45.7971C13.2587 45.7971 12.1864 44.5375 12.2911 43.0552Z" fill="#C3AFFA"/>
<path d="M55.0072 39.4787C55.4042 37.9943 55.4089 37.4541 57.1666 37.4541C58.9244 37.4541 59.9663 38.4303 59.6635 39.8568C59.3606 41.2832 58.4396 42.4083 57.1666 41.9756C55.8936 41.5429 54.6102 40.9632 55.0072 39.4787Z" fill="#C3AFFA"/>
<path d="M36.8369 50.9974C35.6213 50.9974 34.3577 52.1929 34.3577 53.6553C34.3577 55.1176 35.5779 55.899 36.8369 55.899C38.0959 55.899 39.0944 54.8571 39.0944 53.4136C39.0944 51.9702 38.0525 50.9974 36.8369 50.9974Z" fill="#C3AFFA"/>
<path d="M20.371 70.8104C18.2447 70.4238 13.2029 58.7293 10.9478 52.9304C10.9478 52.9304 13.0293 49.1866 14.0389 49.1866C15.0485 49.1866 15.7382 54.7703 19.1548 53.8899C19.7927 53.6553 20.371 52.9304 20.371 52.9304C21.8207 53.0915 25.4451 53.4136 25.4451 53.4136C25.361 55.6897 30.7783 55.1449 31.1186 56.2142C31.4588 57.2834 27.3442 59.686 29.9039 62.6249C32.4636 65.5639 35.5049 59.8071 36.4496 59.7232C37.3944 59.6393 38.9078 65.5292 42.0506 63.5697C45.1935 61.6102 41.5783 57.8337 42.0506 57.0239C42.523 56.2142 48.5395 57.3873 48.6408 53.6553C53.7148 53.172 60.9635 50.9974 60.9635 50.9974C60.7702 55.4433 54.2786 66.0585 51.057 70.8104H20.371Z" stroke="#273210" stroke-width="0.5" stroke-linecap="round" stroke-linejoin="round"/>
<path d="M32.6032 29.3562C32.2253 28.2222 33.4694 26.6568 34.7626 26.6568C36.0558 26.6568 37.3944 27.5339 37.3944 29.3562C37.3944 31.1784 36.0124 31.2408 34.7626 31.1784C33.5128 31.1161 32.9811 30.4901 32.6032 29.3562Z" stroke="#273210" stroke-width="0.5" stroke-linecap="round" stroke-linejoin="round"/>
<path d="M12.2911 43.0552C12.3958 41.5728 13.3455 41.0483 14.5855 40.9632C15.8254 40.8782 16.9107 42.4083 16.6774 43.5275C16.4441 44.6468 15.9122 45.7971 14.5855 45.7971C13.2587 45.7971 12.1864 44.5375 12.2911 43.0552Z" stroke="#273210" stroke-width="0.5" stroke-linecap="round" stroke-linejoin="round"/>
<path d="M55.0072 39.4787C55.4042 37.9943 55.4089 37.4541 57.1666 37.4541C58.9244 37.4541 59.9663 38.4303 59.6635 39.8568C59.3606 41.2832 58.4396 42.4083 57.1666 41.9756C55.8936 41.5429 54.6102 40.9632 55.0072 39.4787Z" stroke="#273210" stroke-width="0.5" stroke-linecap="round" stroke-linejoin="round"/>
<path d="M36.8369 50.9974C35.6213 50.9974 34.3577 52.1929 34.3577 53.6553C34.3577 55.1176 35.5779 55.899 36.8369 55.899C38.0959 55.899 39.0944 54.8571 39.0944 53.4136C39.0944 51.9702 38.0525 50.9974 36.8369 50.9974Z" stroke="#273210" stroke-width="0.5" stroke-linecap="round" stroke-linejoin="round"/>
<path fill-rule="evenodd" clip-rule="evenodd" d="M14.0389 49.1867C13.0293 49.1867 10.9477 52.9304 10.9477 52.9304C10.9477 52.9304 8.55395 53.5466 7.73984 52.5522C6.17519 50.7831 7.53977 48.8306 8.51873 47.4298C9.02698 46.7026 9.43129 46.1241 9.26778 45.7972C9.11251 45.4868 8.38261 45.4427 7.47537 45.3879C5.58708 45.2738 2.9306 45.1134 3.08843 42.4083C3.24722 39.6867 5.98397 39.8789 7.91247 40.0143C8.82159 40.0782 9.55109 40.1294 9.74623 39.8568C9.94359 39.5811 9.5433 38.9132 9.04788 38.0865C8.01431 36.3619 6.56666 33.9463 9.26778 32.96C12.079 31.9336 13.3469 34.1076 14.1674 35.5145C14.5132 36.1075 14.7796 36.5642 15.0485 36.5877C15.3333 36.6127 15.8808 36.1387 16.5629 35.5482C18.0532 34.258 20.1862 32.4114 21.6265 33.9964C23.0297 35.5403 21.8007 37.4607 20.8964 38.8736C20.4475 39.575 20.0786 40.1514 20.1515 40.4947C20.2288 40.8591 21.0073 41.0249 21.9787 41.2319C23.7654 41.6125 26.2044 42.1321 26.1315 44.282C26.0537 46.5733 23.233 46.5615 21.3757 46.5537C20.5429 46.5502 19.9038 46.5476 19.7927 46.7538C19.6734 46.9751 19.8905 47.5182 20.1694 48.2156C20.7295 49.6164 21.5386 51.64 20.371 52.9304C20.371 52.9304 19.7927 53.6553 19.1548 53.8899C16.8967 54.4718 15.8298 52.2301 15.0744 50.643C14.6868 49.8287 14.3812 49.1867 14.0389 49.1867ZM12.2911 43.0552C12.3957 41.5728 13.3455 41.0483 14.5854 40.9633C15.8254 40.8782 16.9107 42.4083 16.6774 43.5276C16.4441 44.6468 15.9122 45.7972 14.5854 45.7972C13.2587 45.7972 12.1864 44.5376 12.2911 43.0552Z" fill="#DBC241"/>
<path fill-rule="evenodd" clip-rule="evenodd" d="M30.1194 50.4113C31.0692 50.5285 31.8769 50.6282 32.1982 50.2758C32.5747 49.8628 32.133 48.9805 31.6157 47.9472C30.7688 46.2555 29.7193 44.1592 31.7259 43.0552C33.9634 41.8241 35.4097 44.4447 36.3717 46.1877C36.7993 46.9626 37.1312 47.564 37.3944 47.5765C37.6656 47.5894 38.2197 47.056 38.9146 46.3872C40.4102 44.9475 42.5578 42.8801 43.9401 44.282C45.2808 45.6417 44.0624 47.7896 43.1936 49.3212C42.7505 50.1024 42.3983 50.7233 42.523 50.9975C42.6441 51.2638 43.3146 51.2777 44.1707 51.2955C45.9242 51.3319 48.4563 51.3845 48.6407 53.6553C48.5711 56.2212 45.7053 56.4684 43.7677 56.6356C42.8871 56.7115 42.1982 56.7709 42.0506 57.024C41.9023 57.2782 42.157 57.825 42.4789 58.5161C43.1822 60.0261 44.2067 62.2255 42.0506 63.5697C39.9258 64.8945 38.5458 62.6316 37.5828 61.0524C37.1214 60.2958 36.7557 59.6961 36.4496 59.7233C36.1754 59.7476 35.7245 60.25 35.16 60.8789C33.7798 62.4166 31.7205 64.7108 29.9039 62.625C28.1851 60.6516 29.4756 58.92 30.406 57.6715C30.8613 57.0607 31.2303 56.5655 31.1185 56.2142C30.9828 55.7878 30.0398 55.6181 28.9602 55.4238C27.3325 55.1308 25.3945 54.7821 25.445 53.4137C25.5288 49.8446 28.1345 50.1662 30.1194 50.4113ZM36.8369 50.9975C35.6213 50.9975 34.3577 52.193 34.3577 53.6553C34.3577 55.1176 35.5779 55.8991 36.8369 55.8991C38.0958 55.8991 39.0943 54.8572 39.0943 53.4137C39.0943 51.9702 38.0524 50.9975 36.8369 50.9975Z" fill="#DBC241"/>
<path fill-rule="evenodd" clip-rule="evenodd" d="M51.1391 43.67C50.0475 45.197 48.2816 47.6673 50.3509 49.1867C52.3243 50.6357 54.1415 48.5268 55.4206 47.0423C56.0225 46.3438 56.5053 45.7835 56.8292 45.7972C57.1819 45.8121 57.3298 46.322 57.5334 47.0241C57.9141 48.3369 58.4896 50.3216 60.9634 50.9975C64.1241 50.517 63.2698 47.8613 62.6098 45.8095C62.2785 44.7795 61.9961 43.9017 62.2952 43.5276C62.6132 43.1299 63.4896 43.1709 64.5085 43.2185C66.3572 43.3049 68.6746 43.4132 68.9759 40.9633C69.2841 38.4575 66.4175 38.1729 64.4552 37.9781C63.4414 37.8775 62.6689 37.8008 62.7001 37.4542C62.7244 37.1848 63.0761 36.7173 63.5137 36.1356C64.5528 34.7545 66.0766 32.729 64.8559 31.1785C64.6489 30.9155 64.3629 30.6662 63.9823 30.4361C61.5709 28.9778 60.1096 30.9436 59.0814 32.3268C58.5871 32.9916 58.193 33.5219 57.8414 33.4726C57.4875 33.423 57.1699 32.8318 56.778 32.1022C55.9708 30.5994 54.8481 28.5094 52.4429 29.3562C49.985 30.2215 51.1543 32.8341 51.9546 34.6222C52.3177 35.4335 52.6049 36.0751 52.4429 36.3067C52.2789 36.5411 51.5598 36.5535 50.6565 36.569C48.6991 36.6026 45.8768 36.6511 45.9646 39.006C46.0548 41.4251 48.7934 41.8048 50.5009 42.0416C51.2226 42.1416 51.7601 42.2161 51.8355 42.4083C51.9084 42.5939 51.5783 43.0556 51.1391 43.67ZM46.5719 29.9634C46.6367 28.9632 46.1946 28.3513 45.5196 27.9628C44.6549 27.4652 43.4078 27.3343 42.354 27.2237C41.3443 27.1177 40.512 27.0303 40.3636 26.6568C40.2138 26.28 40.6155 25.5773 41.097 24.7349C41.9795 23.1909 43.1302 21.1776 41.6457 19.8411C40.1628 18.506 38.4612 20.2494 37.1653 21.577C36.4562 22.3035 35.8686 22.9056 35.5049 22.8105C35.1836 22.7265 34.8626 22.1832 34.465 21.5101C33.5897 20.0285 32.343 17.918 29.9039 18.6941C27.3524 19.5059 28.6895 22.4518 29.4843 24.2032C29.7945 24.8867 30.0222 25.3882 29.9039 25.51C29.7974 25.6196 29.3342 25.6406 28.7017 25.6692C27.7822 25.7108 26.5047 25.7686 25.445 26.1386C24.3495 26.5211 23.4868 27.2373 23.4931 28.6142C23.5041 31.0507 26.2849 31.218 28.1821 31.3322C29.1075 31.3879 29.8226 31.4309 29.9039 31.7184C29.9845 32.0036 29.4984 32.5123 28.8894 33.1496C27.6266 34.4711 25.8355 36.3455 27.4745 37.9267C29.083 39.4785 31.0762 37.8558 32.5724 36.6377C33.3359 36.0161 33.9701 35.4998 34.3577 35.5644C34.7225 35.6253 35.1623 36.2242 35.6881 36.9401C36.8157 38.4757 38.3385 40.5494 40.3636 39.006C42.3088 37.5235 41.2109 35.6083 40.4133 34.2171C39.9935 33.4848 39.6569 32.8976 39.8912 32.5952C40.1177 32.303 40.91 32.303 41.8743 32.303C43.8033 32.303 46.4204 32.3031 46.5719 29.9634ZM34.7626 26.6568C33.4693 26.6568 32.2252 28.2223 32.6031 29.3562C32.981 30.4901 33.5128 31.1162 34.7626 31.1785C36.0124 31.2408 37.3944 31.1785 37.3944 29.3562C37.3944 27.5339 36.0558 26.6568 34.7626 26.6568ZM55.0874 39.1734C55.4139 37.9195 55.5351 37.4542 57.1666 37.4542C58.9243 37.4542 59.9662 38.4304 59.6634 39.8568C59.3606 41.2833 58.4396 42.4083 57.1666 41.9756C55.8936 41.5429 54.6101 40.9633 55.0072 39.4788C55.0357 39.3722 55.0622 39.2705 55.0874 39.1734Z" fill="#DBC241"/>
<path d="M7.73984 33.9964C6.18937 31.9852 2.378 28.9063 3.08843 27.9628C3.79885 27.0194 10.3641 29.2655 10.6559 28.6142C10.9477 27.9628 6.51748 18.2371 7.73984 16.0731C8.41496 14.8778 10.302 16.3478 12.2911 18.3285M25.445 26.1386C24.3495 26.5211 23.4868 27.2373 23.4931 28.6142C23.5041 31.0507 26.2849 31.218 28.1821 31.3322C29.1075 31.3879 29.8226 31.4309 29.9039 31.7184C29.9845 32.0036 29.4984 32.5123 28.8894 33.1496C27.6266 34.4711 25.8355 36.3455 27.4745 37.9267C29.083 39.4785 31.0762 37.8558 32.5724 36.6377C33.3359 36.0161 33.9701 35.4998 34.3577 35.5644C34.7225 35.6253 35.1623 36.2242 35.6881 36.9401C36.8157 38.4757 38.3385 40.5494 40.3636 39.006C42.3088 37.5235 41.2109 35.6083 40.4133 34.2171C39.9935 33.4848 39.6569 32.8976 39.8912 32.5952C40.1177 32.303 40.91 32.303 41.8743 32.303C43.8033 32.303 46.4204 32.3031 46.5719 29.9634C46.6367 28.9632 46.1946 28.3513 45.5196 27.9628M25.445 26.1386C23.9334 23.1819 21.6265 16.8911 20.1515 17.0798C18.6764 17.2685 19.1548 23.5594 18.0791 23.9368C17.4788 24.1475 14.8036 20.8305 12.2911 18.3285M25.445 26.1386C26.5047 25.7686 27.7822 25.7108 28.7017 25.6692C29.3342 25.6406 29.7974 25.6196 29.9039 25.51C30.0222 25.3882 29.7945 24.8867 29.4843 24.2032C28.6895 22.4518 27.3524 19.5059 29.9039 18.6941C32.343 17.918 33.5897 20.0285 34.465 21.5101C34.8626 22.1832 35.1836 22.7265 35.5049 22.8105C35.8686 22.9056 36.4562 22.3035 37.1653 21.577C38.4612 20.2494 40.1628 18.506 41.6457 19.8411C43.1302 21.1776 41.9795 23.1909 41.097 24.7349C40.6155 25.5773 40.2138 26.28 40.3636 26.6568C40.512 27.0303 41.3443 27.1177 42.354 27.2237C43.4078 27.3343 44.6549 27.4652 45.5196 27.9628M45.5196 27.9628C46.9205 23.5802 50.0746 14.7899 51.4838 14.6893C53.2452 14.5634 53.1823 21.8607 53.7485 21.9236C54.047 21.9568 56.5373 19.3497 59.0034 17.0798M64.8559 31.1785C64.6489 30.9155 64.3629 30.6662 63.9823 30.4361C61.5709 28.9778 60.1096 30.9436 59.0814 32.3268C58.5871 32.9916 58.193 33.5219 57.8414 33.4726C57.4875 33.423 57.1699 32.8318 56.778 32.1022C55.9708 30.5994 54.8481 28.5094 52.4429 29.3562C49.985 30.2215 51.1543 32.8341 51.9546 34.6222C52.3177 35.4335 52.6049 36.0751 52.4429 36.3067C52.2789 36.5411 51.5598 36.5535 50.6565 36.569C48.6991 36.6026 45.8768 36.6511 45.9646 39.006C46.0548 41.4251 48.7934 41.8048 50.5009 42.0416C51.2226 42.1416 51.7601 42.2161 51.8355 42.4083C51.9084 42.5939 51.5783 43.0556 51.1391 43.67C50.0475 45.197 48.2816 47.6673 50.3509 49.1867C52.3243 50.6357 54.1415 48.5268 55.4206 47.0423C56.0225 46.3438 56.5053 45.7835 56.8292 45.7972C57.1819 45.8121 57.3298 46.322 57.5334 47.0241C57.9141 48.3369 58.4896 50.3216 60.9634 50.9975C64.1241 50.517 63.2698 47.8613 62.6098 45.8095C62.2785 44.7795 61.9961 43.9017 62.2952 43.5276C62.6132 43.1299 63.4896 43.1709 64.5085 43.2185C66.3572 43.3049 68.6746 43.4132 68.9759 40.9633C69.2841 38.4575 66.4175 38.1729 64.4552 37.9781C63.4414 37.8775 62.6689 37.8008 62.7001 37.4542C62.7244 37.1848 63.0761 36.7173 63.5137 36.1356C64.5528 34.7545 66.0766 32.729 64.8559 31.1785ZM64.8559 31.1785C66.2292 29.6713 68.8997 26.4274 68.595 25.51C68.214 24.3632 61.7379 27.0192 60.9634 26.1386C60.189 25.258 65.1979 15.318 63.9823 13.934C63.4075 13.2797 61.2152 15.0441 59.0034 17.0798M12.2911 18.3285C13.183 12.9424 18.845 1.98148 34.3577 1.22657C49.8703 0.471666 57.2518 11.4808 59.0034 17.0798M10.9477 52.9304C10.9477 52.9304 13.0293 49.1867 14.0389 49.1867C14.3812 49.1867 14.6868 49.8287 15.0744 50.643C15.8298 52.2301 16.8967 54.4718 19.1548 53.8899C19.7927 53.6553 20.371 52.9304 20.371 52.9304C21.5386 51.64 20.7295 49.6164 20.1694 48.2156C19.8905 47.5182 19.6734 46.9751 19.7927 46.7538C19.9038 46.5476 20.5429 46.5502 21.3757 46.5537C23.233 46.5615 26.0537 46.5733 26.1315 44.282C26.2044 42.1321 23.7654 41.6125 21.9787 41.2319C21.0073 41.0249 20.2288 40.8591 20.1515 40.4947C20.0786 40.1514 20.4475 39.575 20.8964 38.8736C21.8007 37.4607 23.0297 35.5403 21.6265 33.9964C20.1862 32.4114 18.0532 34.258 16.5629 35.5482C15.8808 36.1387 15.3333 36.6127 15.0485 36.5877C14.7796 36.5642 14.5132 36.1075 14.1674 35.5145C13.3469 34.1076 12.079 31.9336 9.26778 32.96C6.56666 33.9463 8.01431 36.3619 9.04788 38.0865C9.5433 38.9132 9.94359 39.5811 9.74623 39.8568C9.55109 40.1294 8.82159 40.0782 7.91247 40.0143C5.98397 39.8789 3.24722 39.6867 3.08843 42.4083C2.9306 45.1134 5.58708 45.2738 7.47537 45.3879C8.38261 45.4427 9.11251 45.4868 9.26778 45.7972C9.43129 46.1241 9.02698 46.7026 8.51873 47.4298C7.53977 48.8306 6.17519 50.7831 7.73984 52.5522C8.55395 53.5466 10.9477 52.9304 10.9477 52.9304ZM48.6407 53.6553C48.4563 51.3845 45.9242 51.3319 44.1707 51.2955C43.3146 51.2777 42.6441 51.2638 42.523 50.9975C42.3983 50.7233 42.7505 50.1024 43.1936 49.3212C44.0624 47.7896 45.2808 45.6417 43.9401 44.282C42.5578 42.8801 40.4102 44.9475 38.9146 46.3872C38.2197 47.056 37.6656 47.5894 37.3944 47.5765C37.1312 47.564 36.7993 46.9626 36.3717 46.1877C35.4097 44.4447 33.9634 41.8241 31.7259 43.0552C29.7193 44.1592 30.7688 46.2555 31.6157 47.9472C32.133 48.9805 32.5747 49.8628 32.1982 50.2758C31.8769 50.6282 31.0692 50.5285 30.1194 50.4113C28.1345 50.1662 25.5288 49.8446 25.445 53.4137C25.3945 54.7821 27.3325 55.1308 28.9602 55.4238C30.0398 55.6181 30.9828 55.7878 31.1185 56.2142C31.2303 56.5655 30.8613 57.0607 30.406 57.6715C29.4756 58.92 28.1851 60.6516 29.9039 62.625C31.7205 64.7108 33.7798 62.4166 35.16 60.8789C35.7245 60.25 36.1754 59.7476 36.4496 59.7233C36.7557 59.6961 37.1214 60.2958 37.5828 61.0524C38.5458 62.6316 39.9258 64.8945 42.0506 63.5697C44.2067 62.2255 43.1822 60.0261 42.4789 58.5161C42.157 57.825 41.9023 57.2782 42.0506 57.024C42.1982 56.7709 42.8871 56.7115 43.7677 56.6356C45.7053 56.4684 48.5711 56.2212 48.6407 53.6553ZM34.7626 26.6568C33.4693 26.6568 32.2252 28.2223 32.6031 29.3562C32.981 30.4901 33.5128 31.1162 34.7626 31.1785C36.0124 31.2408 37.3944 31.1785 37.3944 29.3562C37.3944 27.5339 36.0558 26.6568 34.7626 26.6568ZM14.5854 40.9633C13.3455 41.0483 12.3957 41.5728 12.2911 43.0552C12.1864 44.5376 13.2587 45.7972 14.5854 45.7972C15.9122 45.7972 16.4441 44.6468 16.6774 43.5276C16.9107 42.4083 15.8254 40.8782 14.5854 40.9633ZM57.1666 37.4542C58.9243 37.4542 59.9662 38.4304 59.6634 39.8568C59.3606 41.2833 58.4396 42.4083 57.1666 41.9756C55.8936 41.5429 54.6101 40.9633 55.0072 39.4788C55.0357 39.3722 55.0622 39.2705 55.0874 39.1734C55.4139 37.9195 55.5351 37.4542 57.1666 37.4542ZM34.3577 53.6553C34.3577 52.193 35.6213 50.9975 36.8369 50.9975C38.0524 50.9975 39.0943 51.9702 39.0943 53.4137C39.0943 54.8572 38.0958 55.8991 36.8369 55.8991C35.5779 55.8991 34.3577 55.1176 34.3577 53.6553Z" stroke="#273210" stroke-width="0.5" stroke-linecap="round" stroke-linejoin="round"/>
<path d="M48.6407 53.6553C53.7148 53.172 60.9634 50.9974 60.9634 50.9974C58.4895 50.3216 57.9139 48.3368 57.5332 47.024C57.3296 46.3219 57.1818 45.812 56.8291 45.7971C56.5052 45.7834 56.0224 46.3437 55.4205 47.0422C54.1413 48.5267 52.3242 50.6356 50.3508 49.1866C48.2815 47.6672 50.0474 45.1969 51.139 43.6699C51.5782 43.0555 51.9083 42.5938 51.8354 42.4082C51.7599 42.2161 51.2224 42.1415 50.5007 42.0415C48.7932 41.8047 46.0546 41.425 45.9645 39.0059C45.8767 36.6511 48.699 36.6026 50.6564 36.5689C51.5597 36.5534 52.2788 36.541 52.4427 36.3067C52.6048 36.075 52.3176 35.4334 51.9545 34.6221C51.1542 32.834 49.9848 30.2214 52.4427 29.3561C54.848 28.5093 55.9706 30.5993 56.7779 32.1021C57.1698 32.8317 57.4874 33.4229 57.8413 33.4725C58.1928 33.5218 58.587 32.9915 59.0812 32.3267C60.1095 30.9435 61.5707 28.9777 63.9822 30.436C64.3628 30.6662 64.6487 30.9155 64.8557 31.1784C66.2291 29.6712 68.8996 26.4274 68.5948 25.5099C68.2139 24.3631 61.7378 27.0191 60.9633 26.1385C60.1889 25.2579 65.1978 15.3179 63.9822 13.9339C63.4074 13.2796 61.215 15.044 59.0033 17.0797C56.5371 19.3496 54.0469 21.9567 53.7484 21.9235C53.1822 21.8606 53.2451 14.5634 51.4837 14.6892C50.0745 14.7898 46.9204 23.5802 45.5195 27.9627C46.1945 28.3512 46.6366 28.9631 46.5718 29.9633C46.4203 32.303 43.8032 32.3029 41.8742 32.3029C40.9099 32.3029 40.1176 32.3029 39.8911 32.5951C39.6567 32.8975 39.9933 33.4847 40.4132 34.217C41.2107 35.6082 42.3087 37.5234 40.3635 39.0059C38.3384 40.5493 36.8156 38.4756 35.6879 36.9401C35.1622 36.2241 34.7223 35.6252 34.3576 35.5643C33.9699 35.4997 33.3358 36.016 32.5723 36.6376C31.0761 37.8557 29.0829 39.4784 27.4744 37.9266C25.8354 36.3454 27.6265 34.471 28.8893 33.1495C29.4982 32.5122 29.9843 32.0035 29.9037 31.7183C29.8225 31.4308 29.1073 31.3878 28.182 31.3321C26.2847 31.2179 23.504 31.0506 23.4929 28.6141C23.4867 27.2372 24.3494 26.521 25.4449 26.1385C23.9332 23.1818 21.6264 16.891 20.1513 17.0797C18.6763 17.2684 19.1547 23.5593 18.079 23.9368C17.4786 24.1474 14.8035 20.8304 12.2909 18.3284C10.3019 16.3477 8.41484 14.8777 7.73972 16.073C6.51736 18.237 10.9476 27.9627 10.6558 28.6141C10.364 29.2655 3.79873 27.0193 3.08831 27.9627C2.37788 28.9062 6.18925 31.9851 7.73972 33.9963L7.84291 34.1522C8.03465 33.6666 8.47047 33.251 9.26766 32.9599C12.0788 31.9335 13.3467 34.1075 14.1673 35.5145C14.5131 36.1074 14.7795 36.5641 15.0484 36.5876C15.3332 36.6126 15.8807 36.1386 16.5627 35.5481C18.053 34.2579 20.186 32.4113 21.6264 33.9963C23.0295 35.5402 21.8006 37.4606 20.8963 38.8736C20.4474 39.575 20.0785 40.1513 20.1513 40.4946C20.2287 40.859 21.0072 41.0249 21.9786 41.2318C23.7653 41.6124 26.2043 42.132 26.1314 44.2819C26.0536 46.5732 23.2329 46.5614 21.3756 46.5536C20.5427 46.5501 19.9036 46.5475 19.7925 46.7537C19.6733 46.975 19.8904 47.5181 20.1693 48.2155C20.7294 49.6163 21.5385 51.6399 20.3709 52.9304C21.8207 53.0915 25.445 53.4136 25.445 53.4136C25.5288 49.8445 28.1343 50.1662 30.1193 50.4112C31.0691 50.5285 31.8768 50.6282 32.1981 50.2757C32.5746 49.8627 32.1329 48.9804 31.6156 47.9471C30.7687 46.2555 29.7192 44.1591 31.7257 43.0551C33.9633 41.824 35.4096 44.4446 36.3715 46.1877C36.7992 46.9625 37.1311 47.5639 37.3942 47.5764C37.6655 47.5893 38.2196 47.0559 38.9144 46.3871C40.4101 44.9474 42.5577 42.88 43.94 44.2819C45.2807 45.6416 44.0623 47.7895 43.1935 49.3211C42.7504 50.1023 42.3982 50.7232 42.5229 50.9974C42.644 51.2637 43.3145 51.2776 44.1705 51.2954C45.924 51.3318 48.4562 51.3844 48.6407 53.6553Z" fill="#82A44B" stroke="#273210" stroke-width="0.5" stroke-linecap="round" stroke-linejoin="round"/>
</svg>
