<svg width="72" height="72" viewBox="0 0 72 72" fill="none" xmlns="http://www.w3.org/2000/svg">
<path d="M18.8999 22.8655C19.8987 18.4362 24.2043 18.2642 26.2322 18.7319C27.0732 17.6584 28.2252 16.9855 29.4679 16.6663C30.6385 16.3655 31.8896 16.3786 33.037 16.6663C34.3757 17.0019 35.5732 17.7112 36.3372 18.7319C40.4295 17.1366 42.7379 20.823 43.3806 22.8655C42.874 25.9957 41.7088 33.244 41.1008 37.1957C39.5375 41.2341 35.8937 40.5418 34.2672 39.6908C32.3422 41.0513 29.7152 40.996 27.9218 39.6908C24.1962 41.687 21.8386 38.8591 21.1255 37.1957C20.6008 34.1198 19.4211 26.9475 18.8999 22.8655Z" fill="#DBC241"/>
<path d="M26.2322 18.7319C25.7971 19.2872 25.4453 19.9498 25.2071 20.726L25.9899 36.5224C26.2325 37.9235 26.9564 38.9883 27.9218 39.6908M26.2322 18.7319C24.2043 18.2642 19.8987 18.4362 18.8999 22.8655C19.4211 26.9475 20.6008 34.1198 21.1255 37.1957C21.8386 38.8591 24.1962 41.687 27.9218 39.6908M26.2322 18.7319C27.0732 17.6584 28.2252 16.9855 29.4679 16.6663C30.6385 16.3655 31.8896 16.3786 33.037 16.6663M27.9218 39.6908C29.7152 40.996 32.3422 41.0513 34.2672 39.6908M34.2672 39.6908C35.24 39.0034 36.0335 37.9543 36.4495 36.5224L37.1609 20.726C37.0561 19.9712 36.7645 19.3028 36.3372 18.7319M34.2672 39.6908C35.8937 40.5418 39.5375 41.2341 41.1008 37.1957C41.7088 33.244 42.874 25.9957 43.3806 22.8655C42.7379 20.823 40.4295 17.1366 36.3372 18.7319M36.3372 18.7319C35.5732 17.7112 34.3757 17.0019 33.037 16.6663M33.037 16.6663C33.23 15.8322 34.7912 14.2353 35.5642 13.7466C36.3372 13.2578 35.7158 10.7284 33.2301 11.0323C31.3501 11.2622 30.2867 13.3653 29.7856 15.1343" stroke="#273210" stroke-width="0.5" stroke-linecap="round" stroke-linejoin="round"/>
<path fill-rule="evenodd" clip-rule="evenodd" d="M14.8078 34.6904L16.4699 37.1133L17.2419 34.486C16.2788 34.9501 15.4675 34.9299 14.8078 34.6904ZM19.6097 37.6537L20.6148 34.5771C21.5137 34.8453 22.5482 34.7956 23.3555 34.4364C23.1159 34.5596 20.7585 36.6326 19.6097 37.6537Z" fill="#DBC241"/>
<path d="M15.3456 43.8728H21.0099C21.6299 41.3928 23.6815 36.1962 26.928 35.2493C26.4771 35.1225 25.3723 34.5562 24.5607 33.3049C24.3324 33.8185 23.8947 34.1965 23.3555 34.4364C23.1159 34.5596 20.7585 36.6326 19.6097 37.6537L20.6148 34.5771C19.8905 34.361 19.2543 33.9384 18.8963 33.3049C18.3024 33.8601 17.7509 34.2407 17.2419 34.486L16.4699 37.1133L14.8078 34.6904C13.5324 34.2272 12.8239 32.9442 12.6823 32.7553C12.4794 33.2288 11.2451 33.6853 10.6533 33.8544C14.1365 36.6274 15.2328 41.6888 15.3456 43.8728Z" fill="#DBC241"/>
<path d="M14.8078 34.6904C13.5324 34.2272 12.8239 32.9442 12.6823 32.7553C12.4794 33.2288 11.2451 33.6853 10.6533 33.8544C14.1365 36.6274 15.2328 41.6888 15.3456 43.8728H21.0099C21.6299 41.3928 23.6815 36.1962 26.928 35.2493C26.4771 35.1225 25.3723 34.5562 24.5607 33.3049C24.3324 33.8185 23.8947 34.1965 23.3555 34.4364M14.8078 34.6904L16.4699 37.1133L17.2419 34.486M14.8078 34.6904C15.4675 34.9299 16.2788 34.9501 17.2419 34.486M17.2419 34.486C17.7509 34.2407 18.3024 33.8601 18.8963 33.3049C19.2543 33.9384 19.8905 34.361 20.6148 34.5771M20.6148 34.5771L19.6097 37.6537C20.7585 36.6326 23.1159 34.5596 23.3555 34.4364M20.6148 34.5771C21.5137 34.8453 22.5482 34.7956 23.3555 34.4364" stroke="#273210" stroke-width="0.5" stroke-linecap="round" stroke-linejoin="round"/>
<path d="M12.6823 32.7554C12.4794 33.2289 11.2451 33.6854 10.6534 33.8545C6.17237 34.7422 4.69309 27.8941 9.08922 26.8796C9.46121 23.3287 12.1751 22.9201 13.4855 23.1596C17.0025 16.8696 22.0244 20.4543 23.1235 23.1596C27.3845 22.5509 28.3934 26.0623 28.3652 27.8941C29.4784 28.3168 31.6286 29.8049 31.3243 32.375C31.0199 34.9452 28.2666 35.3622 26.9281 35.2494C26.4771 35.1226 25.3724 34.5563 24.5607 33.305C24.3325 33.8186 23.8947 34.1966 23.3555 34.4365C22.5483 34.7957 21.5137 34.8454 20.6149 34.5772C19.8906 34.361 19.2544 33.9385 18.8963 33.305C18.3025 33.8602 17.751 34.2408 17.2419 34.4861C16.2789 34.9502 15.4675 34.93 14.8078 34.6905C13.5325 34.2273 12.824 32.9443 12.6823 32.7554Z" fill="#82A44B"/>
<path d="M13.4855 27.8941C14.2773 27.0155 16.2756 25.5827 17.9338 26.8796C19.6296 25.8627 22.3542 26.4301 22.6518 28.3349M26.9281 35.2494C26.4771 35.1226 25.3724 34.5563 24.5607 33.305C24.3325 33.8186 23.8947 34.1966 23.3555 34.4365C22.5483 34.7957 21.5137 34.8454 20.6149 34.5772C19.8906 34.361 19.2544 33.9385 18.8963 33.305C18.3025 33.8602 17.751 34.2408 17.2419 34.4861C16.2789 34.9502 15.4675 34.93 14.8078 34.6905C13.5325 34.2273 12.824 32.9443 12.6823 32.7554C12.4794 33.2289 11.2451 33.6854 10.6534 33.8545C6.17237 34.7422 4.69309 27.8941 9.08922 26.8796C9.46121 23.3287 12.1751 22.9201 13.4855 23.1596C17.0025 16.8696 22.0244 20.4543 23.1235 23.1596C27.3845 22.5509 28.3934 26.0623 28.3652 27.8941C29.4784 28.3168 31.6286 29.8049 31.3243 32.375C31.0199 34.9452 28.2666 35.3622 26.9281 35.2494Z" stroke="#273210" stroke-width="0.5" stroke-linecap="round" stroke-linejoin="round"/>
<path d="M48.8614 44.7496C47.1837 45.5311 45.8544 45.8558 45.1679 42.7705C44.7813 41.033 46.9209 35.3154 48.1613 31.3701C48.9971 28.7118 49.1893 26.2618 50.6592 23.8878C52.0201 21.6899 54.2666 20.0212 55.6637 19.86C56.3642 19.7792 57.0096 19.8488 57.5401 19.9627C57.7062 19.9984 57.8611 20.0384 58.0028 20.0795C58.4515 20.2097 58.7688 20.3509 58.8965 20.3999C59.0288 20.4507 59.35 20.657 59.744 20.9936C59.9038 21.13 60.0755 21.2879 60.2515 21.4655C60.6318 21.8492 61.032 22.3249 61.374 22.8756C62.1441 24.1155 62.62 25.7354 61.9126 27.5412C61.6133 28.3053 59.0202 31.1133 58.3565 32.0857C56.9132 34.2005 54.9305 37.1836 53.0777 39.0812C51.4395 40.7591 49.4943 44.4548 48.8614 44.7496Z" fill="#DBC241"/>
<path d="M57.5401 19.9627C57.0096 19.8488 56.3642 19.7792 55.6637 19.86C54.2666 20.0212 52.0201 21.6899 50.6592 23.8878M57.5401 19.9627L58.5391 16.0901L56.9118 15.517L55.9181 18.9747M57.5401 19.9627C57.7062 19.9984 57.8611 20.0384 58.0028 20.0795M58.0028 20.0795C58.4515 20.2097 58.7688 20.3509 58.8965 20.3999C59.0288 20.4507 59.35 20.657 59.744 20.9936M58.0028 20.0795L59.7273 16.6765M60.0389 16.0617L61.9616 16.958L59.744 20.9936M59.744 20.9936C59.9038 21.13 60.0755 21.2879 60.2516 21.4655M60.2516 21.4655L62.773 18.2956L64.0387 19.3461L61.9382 22.1283M60.2516 21.4655C60.6318 21.8492 61.032 22.3249 61.374 22.8756C62.1441 24.1155 62.62 25.7354 61.9126 27.5412C61.6133 28.3053 59.0202 31.1133 58.3565 32.0857M50.6592 23.8878L54.6964 26.1416M50.6592 23.8878C49.1893 26.2618 48.9971 28.7118 48.1613 31.3701M58.3565 32.0857L55.0333 30.3277M58.3565 32.0857C56.9132 34.2005 54.9305 37.1836 53.0777 39.0812M48.1613 31.3701C46.9209 35.3154 44.7813 41.033 45.1679 42.7705C45.8544 45.8558 47.1837 45.5311 48.8614 44.7496C49.4943 44.4548 51.4395 40.7591 53.0777 39.0812M48.1613 31.3701L51.704 33.1133M53.0777 39.0812L50.6061 37.5708" stroke="#273210" stroke-width="0.5" stroke-linecap="round" stroke-linejoin="round"/>
<path d="M45.1581 22.2078C45.1581 22.2078 45.2978 20.0854 45.5363 19.1955C45.7748 18.3057 47.8607 18.0679 47.7412 19.4579L47.5757 22.3629C48.7487 22.7491 51.0769 24.2632 51.0057 27.2293C50.7718 27.0966 50.3646 26.7612 49.9205 26.3669C49.9825 27.2058 50.2559 29.4236 50.0165 31.186C49.7771 32.9483 45.8744 40.0371 44.1019 42.2137C42.3295 44.3903 39.6237 45.5754 36.5265 44.61C32.655 43.4034 31.9758 40.2475 31.7392 39.3922C31.5026 38.5369 31.6719 34.4193 35.0261 33.0552C41.8471 30.6643 43.0674 27.2016 42.8249 25.7691L42.0513 26.2173C41.9602 24.8371 42.454 22.103 45.1581 22.2078Z" fill="#DBC241"/>
<path d="M42.8249 25.7691L44.9332 24.5477L46.5155 27.1146L48.2481 24.7937C48.6452 25.1863 49.3169 25.831 49.9205 26.3669M42.8249 25.7691L42.0513 26.2173C41.9602 24.8371 42.454 22.103 45.1581 22.2078C45.1581 22.2078 45.2978 20.0854 45.5363 19.1955C45.7748 18.3057 47.8607 18.0679 47.7412 19.4579L47.5757 22.3629C48.7487 22.7491 51.0769 24.2632 51.0057 27.2293C50.7718 27.0966 50.3646 26.7612 49.9205 26.3669M42.8249 25.7691C43.0674 27.2016 41.8471 30.6643 35.0261 33.0552C31.6719 34.4193 31.5026 38.5369 31.7392 39.3922C31.9758 40.2475 32.655 43.4034 36.5265 44.61C39.6237 45.5754 42.3295 44.3903 44.1019 42.2137C45.8744 40.0371 49.7771 32.9483 50.0165 31.186C50.2559 29.4236 49.9825 27.2058 49.9205 26.3669" stroke="#273210" stroke-width="0.5" stroke-linecap="round" stroke-linejoin="round"/>
<path d="M45.5365 19.1956C45.298 20.0854 45.1583 22.2079 45.1583 22.2079C42.4542 22.103 41.9603 24.8372 42.0514 26.2173L42.8251 25.7691L44.9334 24.5478L46.5157 27.1146L48.2483 24.7938C48.6454 25.1864 49.3171 25.8311 49.9207 26.367C50.3648 26.7613 50.772 27.0967 51.0059 27.2294C51.0771 24.2632 48.7489 22.7492 47.5759 22.3629L47.7414 19.4579C47.8609 18.068 45.775 18.3058 45.5365 19.1956Z" fill="#82A44B" stroke="#273210" stroke-width="0.5" stroke-linecap="round" stroke-linejoin="round"/>
<path d="M62.6437 60.9929H9.3562V48.4866H1.19995L6.5812 42.7773L8.81219 38.0953H19.6872H48.7778H63.1872L65.6812 43.321L70.8 48.4866H62.6437V60.9929Z" fill="#C3AFFA"/>
<path d="M9.3562 48.4866H1.19995L6.5812 42.7773L8.81219 38.0953H19.6872H48.7778H63.1872L65.6812 43.321L70.8 48.4866H62.6437M9.3562 48.4866V60.9929H62.6437V48.4866M9.3562 48.4866H62.6437" stroke="#273210" stroke-width="0.5" stroke-linecap="round" stroke-linejoin="round"/>
<path d="M9.3562 60.9929H62.6437V48.4867H9.3562V60.9929Z" fill="#82A44B" stroke="#273210" stroke-width="0.5" stroke-linecap="round" stroke-linejoin="round"/>
</svg>
