<svg width="72" height="72" viewBox="0 0 72 72" fill="none" xmlns="http://www.w3.org/2000/svg">
<path d="M35.4875 54.2619C33.0911 54.2282 30.8826 53.44 28.8647 52.1212C26.434 55.3323 22.1293 62.7392 24.3557 66.6782C27.1386 71.6019 33.5608 66.6782 35.4875 66.6782C37.4141 66.6782 44.2645 70.1034 47.4756 66.6782C50.0445 63.9381 45.4355 55.8318 42.8099 52.1212C40.6208 53.4969 38.182 54.2999 35.4875 54.2619Z" fill="#82A44B"/>
<path d="M35.4875 54.2619C33.0911 54.2282 30.8826 53.44 28.8647 52.1212C26.434 55.3323 22.1293 62.7392 24.3557 66.6782C27.1386 71.6019 33.5608 66.6782 35.4875 66.6782C37.4141 66.6782 44.2645 70.1034 47.4756 66.6782C50.0445 63.9381 45.4355 55.8318 42.81 52.1212C40.6208 53.4969 38.182 54.2999 35.4875 54.2619ZM35.4875 54.2619C37.2001 55.4037 40.668 58.2437 40.8393 60.4701M35.4875 54.2619C34.203 55.9975 31.677 60.311 31.8482 63.6812" stroke="#273210" stroke-width="0.5" stroke-linecap="round" stroke-linejoin="round"/>
<path fill-rule="evenodd" clip-rule="evenodd" d="M13.8756 24.3437C12.8979 32.7104 22.1912 47.76 28.8647 52.1213C30.8826 53.4401 33.0911 54.2283 35.4875 54.2621C38.182 54.3 40.6208 53.497 42.81 52.1213C49.1219 48.155 60.7524 30.6593 57.6921 22.4722C55.8356 23.2921 53.061 22.5165 51.7571 21.937C50.8127 21.5173 50.2798 22.5375 49.6794 23.687C49.0549 24.8827 48.3572 26.2182 47.0475 26.2182C44.4786 26.2182 42.1238 24.5059 42.1238 24.5059C42.1238 24.5059 46.1912 29.8577 42.766 32.2125C39.3408 34.5673 35.9157 29.8577 35.9157 29.8577C35.9157 29.8577 30.992 34.1392 28.6372 31.1422C26.2824 28.1451 28.6372 25.7903 28.6372 25.7903C24.3108 28.1773 22.9994 26.3015 21.9499 24.8002C21.4934 24.1472 21.0864 23.5651 20.5024 23.4353C19.8119 23.2818 19.0663 23.7334 18.2657 24.2183C16.9507 25.0148 15.4873 25.9012 13.8756 24.3437Z" fill="#C3AFFA"/>
<path d="M13.438 23.8634C13.585 24.0444 13.7309 24.2039 13.8756 24.3437M13.8756 24.3437C12.8979 32.7104 22.1912 47.76 28.8647 52.1213C30.8826 53.4401 33.0911 54.2283 35.4875 54.2621C38.182 54.3 40.6208 53.497 42.81 52.1213C49.1219 48.155 60.7524 30.6593 57.6921 22.4722C55.8356 23.2921 53.061 22.5165 51.7571 21.937C50.8127 21.5173 50.2798 22.5375 49.6794 23.687C49.0549 24.8827 48.3572 26.2182 47.0475 26.2182C44.4786 26.2182 42.1238 24.5059 42.1238 24.5059C42.1238 24.5059 46.1912 29.8577 42.766 32.2125C39.3408 34.5673 35.9157 29.8577 35.9157 29.8577C35.9157 29.8577 30.992 34.1392 28.6372 31.1422C26.2824 28.1451 28.6372 25.7903 28.6372 25.7903C24.3108 28.1773 22.9994 26.3015 21.9499 24.8002C21.4934 24.1472 21.0864 23.5651 20.5024 23.4353C19.8119 23.2818 19.0663 23.7334 18.2657 24.2183C16.9507 25.0148 15.4873 25.9012 13.8756 24.3437Z" stroke="#273210" stroke-width="0.5" stroke-linecap="round" stroke-linejoin="round"/>
<path d="M13.4378 23.863C10.6549 20.4377 14.7223 18.7252 15.7926 17.0127C16.863 15.3001 10.869 12.7312 15.1504 9.52009C19.4319 6.309 20.2882 11.8748 22.4289 12.303C24.3379 12.6849 27.0982 9.83204 29.0397 11.1837C27.8506 9.84285 25.679 6.80743 27.7807 4.38242C30.5637 1.17132 33.5607 5.66671 35.2733 5.66685C36.9859 5.667 39.1266 0.957123 42.5518 4.38242C45.9769 7.80771 40.8392 10.3766 40.411 12.303C45.3347 6.95146 46.191 11.6611 47.4754 11.447C48.7599 11.2329 51.3288 4.81073 54.968 7.80775C58.6072 10.8048 54.968 14.6581 54.968 14.6581C54.968 14.6581 60.1058 15.9425 59.4635 20.0099C59.256 21.3246 58.5787 22.0802 57.6919 22.4718C55.8354 23.2917 53.0608 22.5161 51.7569 21.9366C49.8302 21.0803 49.6162 26.2178 47.0473 26.2178C44.4784 26.2178 42.1236 24.5055 42.1236 24.5055C42.1236 24.5055 46.191 29.8573 42.7658 32.2121C39.3407 34.5669 35.9155 29.8573 35.9155 29.8573C35.9155 29.8573 30.9918 34.1387 28.637 31.1417C26.2822 28.1447 28.637 25.7899 28.637 25.7899C22.4289 29.2151 22.4289 23.863 20.5023 23.4348C18.6774 23.0293 16.4684 26.8489 13.8754 24.3432C13.7307 24.2035 13.5849 24.044 13.4378 23.863Z" fill="#DBC241"/>
<path d="M24.5696 17.6551C24.5696 19.3103 23.2278 20.6521 21.5726 20.6521C19.9174 20.6521 18.5756 19.3103 18.5756 17.6551C18.5756 15.9999 19.9174 14.6581 21.5726 14.6581C23.2278 14.6581 24.5696 15.9999 24.5696 17.6551Z" fill="#DBC241"/>
<path d="M37.8422 11.0189C37.8422 12.5558 36.5962 13.8018 35.0592 13.8018C33.5222 13.8018 32.2763 12.5558 32.2763 11.0189C32.2763 9.48187 33.5222 8.2359 35.0592 8.2359C36.5962 8.2359 37.8422 9.48187 37.8422 11.0189Z" fill="#DBC241"/>
<path d="M39.1266 24.5055C39.1266 26.1607 37.7848 27.5025 36.1296 27.5025C34.4744 27.5025 33.1325 26.1607 33.1325 24.5055C33.1325 22.8502 34.4744 21.5084 36.1296 21.5084C37.7848 21.5084 39.1266 22.8502 39.1266 24.5055Z" fill="#DBC241"/>
<path d="M52.8273 16.7988C52.8273 18.454 51.4855 19.7958 49.8302 19.7958C48.175 19.7958 46.8332 18.454 46.8332 16.7988C46.8332 15.1436 48.175 13.8018 49.8302 13.8018C51.4855 13.8018 52.8273 15.1436 52.8273 16.7988Z" fill="#DBC241"/>
<path d="M29.0397 11.1837C27.0982 9.83204 24.3379 12.6849 22.4289 12.303C20.2882 11.8748 19.4319 6.309 15.1504 9.52009C10.869 12.7312 16.863 15.3001 15.7926 17.0127C14.7223 18.7252 10.6549 20.4377 13.4378 23.863C13.5849 24.044 13.7307 24.2035 13.8754 24.3432C16.4684 26.8489 18.6774 23.0293 20.5023 23.4348C22.4289 23.863 22.4289 29.2151 28.637 25.7899M29.0397 11.1837C29.2753 11.3477 29.4989 11.5737 29.7074 11.8749M29.0397 11.1837C29.4252 11.6183 29.7074 11.8749 29.7074 11.8749M29.0397 11.1837C27.8506 9.84285 25.679 6.80743 27.7807 4.38242C30.5637 1.17132 33.5607 5.66671 35.2733 5.66685C36.9859 5.667 39.1266 0.957123 42.5518 4.38242C45.9769 7.80771 40.8392 10.3766 40.411 12.303M29.7074 11.8749C29.7074 11.8749 30.5637 12.9455 30.5637 15.9424M28.637 25.7899C31.2059 23.863 27.5667 20.6516 27.3526 19.3675C27.1385 18.0833 30.5637 15.9424 30.5637 15.9424M28.637 25.7899C28.637 25.7899 26.2822 28.1447 28.637 31.1417C30.9918 34.1387 35.9155 29.8573 35.9155 29.8573C35.9155 29.8573 39.3407 34.5669 42.7658 32.2121C46.191 29.8573 42.1236 24.5055 42.1236 24.5055M40.411 12.303C39.9829 14.2295 40.8392 15.9424 40.8392 15.9424M40.411 12.303C45.3347 6.95146 46.191 11.6611 47.4754 11.447C48.7599 11.2329 51.3288 4.81073 54.968 7.80775C58.6072 10.8048 54.968 14.6581 54.968 14.6581C54.968 14.6581 60.1058 15.9425 59.4635 20.0099C59.2559 21.3246 58.5787 22.0802 57.6919 22.4718C55.8354 23.2917 53.0608 22.5161 51.7569 21.9366C49.8302 21.0803 49.6162 26.2178 47.0473 26.2178C44.4784 26.2178 42.1236 24.5055 42.1236 24.5055M40.8392 15.9424C40.8392 15.9424 38.2703 18.7255 36.9859 18.7253C35.7014 18.7251 35.2733 16.5848 33.5607 15.9424C31.8486 15.3002 31.4202 15.5143 30.5644 15.942L30.5637 15.9424M40.8392 15.9424C40.8392 15.9424 43.194 17.0131 44.2643 17.8692C45.3347 18.7253 45.5488 22.3647 42.1236 24.5055M24.5696 17.6551C24.5696 19.3103 23.2278 20.6521 21.5726 20.6521C19.9174 20.6521 18.5756 19.3103 18.5756 17.6551C18.5756 15.9999 19.9174 14.6581 21.5726 14.6581C23.2278 14.6581 24.5696 15.9999 24.5696 17.6551ZM37.8422 11.0189C37.8422 12.5558 36.5962 13.8018 35.0592 13.8018C33.5222 13.8018 32.2763 12.5558 32.2763 11.0189C32.2763 9.48187 33.5222 8.2359 35.0592 8.2359C36.5962 8.2359 37.8422 9.48187 37.8422 11.0189ZM39.1266 24.5055C39.1266 26.1607 37.7848 27.5025 36.1296 27.5025C34.4744 27.5025 33.1325 26.1607 33.1325 24.5055C33.1325 22.8502 34.4744 21.5084 36.1296 21.5084C37.7848 21.5084 39.1266 22.8502 39.1266 24.5055ZM52.8273 16.7988C52.8273 18.454 51.4855 19.7958 49.8302 19.7958C48.175 19.7958 46.8332 18.454 46.8332 16.7988C46.8332 15.1436 48.175 13.8018 49.8302 13.8018C51.4855 13.8018 52.8273 15.1436 52.8273 16.7988Z" stroke="#273210" stroke-width="0.5" stroke-linecap="round" stroke-linejoin="round"/>
<path d="M24.5696 17.6551C24.5696 19.3104 23.2278 20.6522 21.5726 20.6522C19.9174 20.6522 18.5756 19.3104 18.5756 17.6551C18.5756 15.9999 19.9174 14.6581 21.5726 14.6581C23.2278 14.6581 24.5696 15.9999 24.5696 17.6551Z" fill="#82A44B"/>
<path d="M52.8273 16.7988C52.8273 18.4541 51.4854 19.7959 49.8302 19.7959C48.175 19.7959 46.8332 18.4541 46.8332 16.7988C46.8332 15.1436 48.175 13.8018 49.8302 13.8018C51.4854 13.8018 52.8273 15.1436 52.8273 16.7988Z" fill="#82A44B"/>
<path d="M37.8421 11.0189C37.8421 12.5559 36.5962 13.8018 35.0592 13.8018C33.5222 13.8018 32.2762 12.5559 32.2762 11.0189C32.2762 9.48189 33.5222 8.23592 35.0592 8.23592C36.5962 8.23592 37.8421 9.48189 37.8421 11.0189Z" fill="#82A44B"/>
<path fill-rule="evenodd" clip-rule="evenodd" d="M21.5726 20.6522C23.2278 20.6522 24.5696 19.3104 24.5696 17.6551C24.5696 15.9999 23.2278 14.6581 21.5726 14.6581C19.9174 14.6581 18.5756 15.9999 18.5756 17.6551C18.5756 19.3104 19.9174 20.6522 21.5726 20.6522ZM52.8273 16.7988C52.8273 18.4541 51.4854 19.7959 49.8302 19.7959C48.175 19.7959 46.8332 18.4541 46.8332 16.7988C46.8332 15.1436 48.175 13.8018 49.8302 13.8018C51.4854 13.8018 52.8273 15.1436 52.8273 16.7988Z" fill="#82A44B"/>
<path d="M39.1266 24.5055C39.1266 26.1607 37.7848 27.5025 36.1296 27.5025C34.4743 27.5025 33.1325 26.1607 33.1325 24.5055C33.1325 22.8503 34.4743 21.5085 36.1296 21.5085C37.7848 21.5085 39.1266 22.8503 39.1266 24.5055Z" fill="#82A44B"/>
<path d="M24.5696 17.6551C24.5696 19.3104 23.2278 20.6522 21.5726 20.6522C19.9174 20.6522 18.5756 19.3104 18.5756 17.6551C18.5756 15.9999 19.9174 14.6581 21.5726 14.6581C23.2278 14.6581 24.5696 15.9999 24.5696 17.6551Z" stroke="#273210" stroke-width="0.5" stroke-linecap="round" stroke-linejoin="round"/>
<path d="M52.8273 16.7988C52.8273 18.4541 51.4854 19.7959 49.8302 19.7959C48.175 19.7959 46.8332 18.4541 46.8332 16.7988C46.8332 15.1436 48.175 13.8018 49.8302 13.8018C51.4854 13.8018 52.8273 15.1436 52.8273 16.7988Z" stroke="#273210" stroke-width="0.5" stroke-linecap="round" stroke-linejoin="round"/>
<path d="M37.8421 11.0189C37.8421 12.5559 36.5962 13.8018 35.0592 13.8018C33.5222 13.8018 32.2762 12.5559 32.2762 11.0189C32.2762 9.48189 33.5222 8.23592 35.0592 8.23592C36.5962 8.23592 37.8421 9.48189 37.8421 11.0189Z" stroke="#273210" stroke-width="0.5" stroke-linecap="round" stroke-linejoin="round"/>
<path fill-rule="evenodd" clip-rule="evenodd" d="M21.5726 20.6522C23.2278 20.6522 24.5696 19.3104 24.5696 17.6551C24.5696 15.9999 23.2278 14.6581 21.5726 14.6581C19.9174 14.6581 18.5756 15.9999 18.5756 17.6551C18.5756 19.3104 19.9174 20.6522 21.5726 20.6522ZM52.8273 16.7988C52.8273 18.4541 51.4854 19.7959 49.8302 19.7959C48.175 19.7959 46.8332 18.4541 46.8332 16.7988C46.8332 15.1436 48.175 13.8018 49.8302 13.8018C51.4854 13.8018 52.8273 15.1436 52.8273 16.7988Z" stroke="#273210" stroke-width="0.5" stroke-linecap="round" stroke-linejoin="round"/>
<path d="M39.1266 24.5055C39.1266 26.1607 37.7848 27.5025 36.1296 27.5025C34.4743 27.5025 33.1325 26.1607 33.1325 24.5055C33.1325 22.8503 34.4743 21.5085 36.1296 21.5085C37.7848 21.5085 39.1266 22.8503 39.1266 24.5055Z" stroke="#273210" stroke-width="0.5" stroke-linecap="round" stroke-linejoin="round"/>
</svg>
