<svg width="72" height="72" viewBox="0 0 72 72" fill="none" xmlns="http://www.w3.org/2000/svg">
<path d="M6.22095 53.9072H13.4209H60.461H67.6609L63.1423 44.5472L60.9409 39.9872H48.221C47.741 40.9472 44.621 41.6672 44.621 41.6672C44.701 42.8672 45.341 45.7472 44.861 45.7472C44.381 45.7472 41.021 45.2672 40.061 45.7472C39.101 46.2272 37.661 49.1072 36.941 49.1072C36.221 49.1072 35.021 45.9872 34.061 45.2672C33.101 44.5472 29.741 46.2272 29.261 45.7472C28.781 45.2672 29.981 42.6272 29.021 41.6672C28.061 40.7072 25.661 40.9471 25.181 39.9872H22.541H12.9409L10.9713 44.0672L6.22095 53.9072Z" fill="#C3AFFA" stroke="#273210" stroke-width="0.5" stroke-linecap="round" stroke-linejoin="round"/>
<path fill-rule="evenodd" clip-rule="evenodd" d="M13.421 69.7472H60.461V53.9072H13.421V69.7472Z" fill="#82A44B" stroke="#273210" stroke-width="0.5" stroke-linecap="round" stroke-linejoin="round"/>
<path d="M29.0208 41.6672C28.0608 40.7072 25.6608 40.9471 25.1808 39.9872H22.5408C22.4172 39.3441 22.1911 38.4197 21.8582 37.3472C21.1145 34.9506 19.8378 31.8146 17.9808 29.4271C15.5808 30.8671 13.9008 28.7072 12.9408 28.7072C11.9808 28.7072 10.5408 31.5872 8.86086 31.5872C7.18088 31.5872 7.42086 28.7072 6.94086 27.9872C6.46086 27.2672 2.38086 27.9872 2.38086 26.5472C2.38086 25.1072 5.02084 23.9072 5.02084 22.9472C5.02084 21.9872 2.86084 20.3072 3.10084 19.3472C3.34084 18.3871 7.42084 18.6272 7.90084 17.6672C8.38084 16.7072 9.82084 13.5872 10.5408 13.1071C11.2608 12.6271 12.7008 15.0272 13.9008 14.7871C15.1008 14.5471 17.2608 11.9072 18.7008 12.3872C20.1408 12.8672 19.4208 15.7472 20.1408 16.2272C20.8608 16.7072 24.4608 16.2272 24.4608 17.1872C24.4608 18.1471 21.8582 19.8272 22.0608 20.5472C22.2635 21.2671 24.2208 22.9472 24.2208 23.9072C24.2208 24.8672 20.6208 24.8672 19.6608 25.5872C18.8928 26.1632 18.2208 28.3871 17.9808 29.4271C19.8378 31.8146 21.1145 34.9506 21.8582 37.3472C22.0608 36.624 23.7408 31.347 26.3808 29.4271C25.6608 28.9471 26.8608 26.5471 27.1008 26.5472C27.3408 26.5472 29.0208 25.8272 29.7408 27.5072C30.4608 29.1872 28.3008 29.4271 26.3808 29.4271C23.7408 31.347 22.0608 36.624 21.8582 37.3472C22.1911 38.4197 22.4172 39.3441 22.5408 39.9872H25.1808C25.6608 39.0271 28.3008 38.5472 29.2608 37.3472C30.2208 36.1471 28.3008 34.2272 29.2608 33.5072C30.2208 32.7872 32.6208 33.9872 33.8208 33.7472C35.0208 33.5072 35.7408 30.8672 37.1808 31.1072C37.7003 31.1937 38.126 31.5926 38.5031 32.0672C39.2624 28.6272 41.2608 21.4593 43.1808 20.3072C43.1808 19.4272 42.9888 17.6672 42.2208 17.6672C41.2608 17.6672 37.9008 16.2272 37.6608 15.5071C37.4208 14.7871 39.3408 14.5471 39.3408 13.1071C39.3408 11.6671 36.4608 9.98713 36.9408 9.26717C37.4208 8.5472 40.3008 9.26717 41.0208 8.78713C41.7408 8.3071 41.0208 5.42717 42.2208 5.18714C43.4208 4.94712 45.5808 7.10716 46.3008 7.34716C47.0208 7.58716 48.2208 5.18717 49.4208 5.42717C50.6208 5.66717 51.5808 8.30717 52.5408 9.26717C53.5008 10.2272 56.1408 9.74717 56.6208 10.7072C57.1008 11.6672 54.9408 12.8672 54.9408 13.8272C54.9408 14.7872 58.0608 15.9872 57.5808 17.1872C57.1008 18.3872 54.2208 16.9472 53.5008 18.1472C52.7808 19.3472 53.5008 21.2672 52.5408 21.7472C51.5808 22.2272 49.4208 19.8272 48.2208 19.8272C47.0208 19.8272 44.1408 20.7872 43.1808 20.3072C41.2608 21.4593 39.2624 28.6272 38.5031 32.0672C39.1715 32.9082 39.6871 33.9872 40.3008 33.9872C41.2608 33.9872 43.9008 32.5472 44.8608 33.5072C45.8208 34.4672 43.6608 36.8672 44.1408 37.3472C44.6208 37.8272 47.9808 38.7871 48.2208 39.9872C48.6029 39.0956 49.1743 37.9201 49.9008 36.624C49.9808 34.865 49.8528 30.9631 48.7008 29.4271C46.0608 31.1071 43.4208 27.5071 45.5808 26.0671C47.7408 24.6271 49.9008 27.9872 48.7008 29.4271C49.8528 30.9631 49.9808 34.865 49.9008 36.624C50.4992 35.5565 51.2028 34.4072 51.9927 33.2672C53.6154 32.4672 57.4368 31.2512 59.7408 32.7872C59.7408 34.7071 51.5808 36.8609 49.9008 36.624C49.1743 37.9201 48.6029 39.0956 48.2208 39.9872C47.7408 40.9472 44.6208 41.6672 44.6208 41.6672C44.7008 42.8672 45.3408 45.7472 44.8608 45.7472C44.3808 45.7472 41.0208 45.2672 40.0608 45.7472C39.1008 46.2272 37.6608 49.1072 36.9408 49.1072C36.2208 49.1072 35.0208 45.9872 34.0608 45.2672C33.1008 44.5472 29.7408 46.2272 29.2608 45.7472C28.7808 45.2672 29.9808 42.6272 29.0208 41.6672Z" fill="#DBC241"/>
<path d="M10.5408 33.2672C8.62084 35.4272 4.73283 39.9872 4.54083 40.9472C4.34883 41.9072 8.74773 43.4272 10.9712 44.0672L12.9408 39.9872H22.5408M63.5808 32.7872C65.7408 33.5072 69.8208 38.7872 69.3408 39.9872C68.8608 41.1872 63.3408 44.3072 63.1422 44.5472L60.9408 39.9872H48.2208M25.1808 39.9872C25.6608 40.9471 28.0608 40.7072 29.0208 41.6672C29.9808 42.6272 28.7808 45.2672 29.2608 45.7472C29.7408 46.2272 33.1008 44.5472 34.0608 45.2672C35.0208 45.9872 36.2208 49.1072 36.9408 49.1072C37.6608 49.1072 39.1008 46.2272 40.0608 45.7472C41.0208 45.2672 44.3808 45.7472 44.8608 45.7472C45.3408 45.7472 44.7008 42.8672 44.6208 41.6672C44.6208 41.6672 47.7408 40.9472 48.2208 39.9872M25.1808 39.9872C25.6608 39.0271 28.3008 38.5472 29.2608 37.3472C30.2208 36.1471 28.3008 34.2272 29.2608 33.5072C30.2208 32.7872 32.6208 33.9872 33.8208 33.7472M25.1808 39.9872H22.5408M48.2208 39.9872C47.9808 38.7871 44.6208 37.8272 44.1408 37.3472C43.6608 36.8672 45.8208 34.4672 44.8608 33.5072C43.9008 32.5472 41.2608 33.9872 40.3008 33.9872C39.6871 33.9872 39.1715 32.9082 38.5031 32.0672M48.2208 39.9872C48.6029 39.0956 49.1743 37.9201 49.9008 36.624M33.8208 33.7472C35.0208 33.5072 35.7408 30.8672 37.1808 31.1072C37.7003 31.1937 38.126 31.5926 38.5031 32.0672M33.8208 33.7472C34.2208 29.9071 34.2528 20.7391 31.1808 14.7871L30.7008 13.8272M58.7808 26.5471C56.2044 27.9344 53.8581 30.5748 51.9927 33.2672M58.7808 26.5471C58.7808 26.0671 56.3395 22.2272 59.7408 19.8272M58.7808 26.5471C60.3808 28.1471 63.5808 28.9472 65.9808 27.0272C66.8608 26.3872 68.7648 24.7712 69.3408 23.4272C70.0608 21.7472 69.3408 19.3472 67.6608 17.6672C65.9808 15.9872 65.2608 15.5072 63.5808 16.2272C61.9008 16.9472 61.6608 19.1072 62.6208 20.3072C63.5808 21.5072 64.5408 22.4672 65.5008 22.4672C66.4608 22.4672 66.9408 21.7472 66.4608 20.7872M51.9927 33.2672C53.6154 32.4672 57.4368 31.2512 59.7408 32.7872C59.7408 34.7071 51.5808 36.8609 49.9008 36.624M51.9927 33.2672C51.2028 34.4072 50.4992 35.5565 49.9008 36.624M49.9008 36.624C49.9808 34.865 49.8528 30.9631 48.7008 29.4271M48.7008 29.4271C49.9008 27.9872 47.7408 24.6271 45.5808 26.0671C43.4208 27.5071 46.0608 31.1071 48.7008 29.4271ZM38.5031 32.0672C39.2624 28.6272 41.2608 21.4593 43.1808 20.3072M43.1808 20.3072C44.1408 20.7872 47.0208 19.8272 48.2208 19.8272C49.4208 19.8272 51.5808 22.2272 52.5408 21.7472C53.5008 21.2672 52.7808 19.3472 53.5008 18.1472C54.2208 16.9472 57.1008 18.3872 57.5808 17.1872C58.0608 15.9872 54.9408 14.7872 54.9408 13.8272C54.9408 12.8672 57.1008 11.6672 56.6208 10.7072C56.1408 9.74717 53.5008 10.2272 52.5408 9.26717C51.5808 8.30717 50.6208 5.66717 49.4208 5.42717C48.2208 5.18717 47.0208 7.58716 46.3008 7.34716C45.5808 7.10716 43.4208 4.94712 42.2208 5.18714C41.0208 5.42717 41.7408 8.3071 41.0208 8.78713C40.3008 9.26717 37.4208 8.5472 36.9408 9.26717C36.4608 9.98713 39.3408 11.6671 39.3408 13.1071C39.3408 14.5471 37.4208 14.7871 37.6608 15.5071C37.9008 16.2272 41.2608 17.6672 42.2208 17.6672C42.9888 17.6672 43.1808 19.4272 43.1808 20.3072ZM30.7008 13.8272C29.3408 14.5472 26.1408 15.0751 24.2208 11.4271M30.7008 13.8272C31.9008 13.3472 34.2048 11.6671 33.8208 8.78713C33.3408 5.18714 31.1808 2.54713 29.2608 2.30713C27.3408 2.06713 23.5008 2.54714 22.5408 5.42717C22.2208 6.38716 22.1568 8.35513 24.4608 8.54713C27.3408 8.78713 29.2608 7.8271 29.2608 6.62713C29.2608 5.42717 28.3008 5.42717 27.3408 5.42717M22.5408 39.9872C22.4172 39.3441 22.1911 38.4197 21.8582 37.3472M17.9808 29.4271C19.8378 31.8146 21.1145 34.9506 21.8582 37.3472M17.9808 29.4271C18.2208 28.3871 18.8928 26.1632 19.6608 25.5872C20.6208 24.8672 24.2208 24.8672 24.2208 23.9072C24.2208 22.9472 22.2635 21.2671 22.0608 20.5472C21.8582 19.8272 24.4608 18.1471 24.4608 17.1872C24.4608 16.2272 20.8608 16.7072 20.1408 16.2272C19.4208 15.7472 20.1408 12.8672 18.7008 12.3872C17.2608 11.9072 15.1008 14.5471 13.9008 14.7871C12.7008 15.0272 11.2608 12.6271 10.5408 13.1071C9.82084 13.5872 8.38084 16.7072 7.90084 17.6672C7.42084 18.6272 3.34084 18.3871 3.10084 19.3472C2.86084 20.3072 5.02084 21.9872 5.02084 22.9472C5.02084 23.9072 2.38086 25.1072 2.38086 26.5472C2.38086 27.9872 6.46086 27.2672 6.94086 27.9872C7.42086 28.7072 7.18088 31.5872 8.86086 31.5872C10.5408 31.5872 11.9808 28.7072 12.9408 28.7072C13.9008 28.7072 15.5808 30.867 17.9808 29.4271ZM21.8582 37.3472C22.0608 36.624 23.7408 31.347 26.3808 29.4271M26.3808 29.4271C28.3008 29.4271 30.4608 29.1872 29.7408 27.5072C29.0208 25.8272 27.3408 26.5472 27.1008 26.5472C26.8608 26.5471 25.6608 28.947 26.3808 29.4271ZM46.3008 10.2271C43.9008 10.2271 42.7968 11.5711 43.1808 13.1071C43.6608 15.0271 46.5408 16.7071 47.9808 16.4671C49.4208 16.2272 51.1008 15.0272 51.1008 13.8272C51.1008 12.6271 48.7008 10.2271 46.3008 10.2271ZM11.7409 25.1072C13.0209 25.1072 15.7249 24.7712 16.3009 23.4272C17.0209 21.7472 17.7409 19.5872 15.5809 18.8672C13.4209 18.1472 10.3009 20.0671 9.82086 21.2672C9.34086 22.4672 9.10086 25.1072 11.7409 25.1072ZM36.9408 36.624C34.5408 36.624 33.1489 38.1632 33.3409 39.5072C33.5809 41.1872 35.3785 42.1472 36.9408 42.1472C38.5031 42.1472 40.5409 40.7072 40.5409 39.5072C40.5409 38.3072 39.3408 36.624 36.9408 36.624Z" stroke="#273210" stroke-width="0.5" stroke-linecap="round" stroke-linejoin="round"/>
<path fill-rule="evenodd" clip-rule="evenodd" d="M27.1008 26.5472C26.8608 26.5471 25.6608 28.9471 26.3808 29.4271C28.3008 29.4271 30.4608 29.1872 29.7408 27.5072C29.1281 26.0774 27.82 26.386 27.296 26.5096C27.2043 26.5312 27.1366 26.5472 27.1008 26.5472ZM45.5808 26.0671C43.4208 27.5071 46.0608 31.1071 48.7008 29.4271C49.9008 27.9872 47.7408 24.6271 45.5808 26.0671ZM51.9927 33.2672C51.2028 34.4072 50.4992 35.5565 49.9008 36.624C51.5808 36.8609 59.7408 34.7071 59.7408 32.7872C57.4368 31.2512 53.6154 32.4672 51.9927 33.2672ZM36.9408 36.624C34.5408 36.624 33.1489 38.1632 33.3409 39.5072C33.5809 41.1872 35.3785 42.1472 36.9408 42.1472C38.5031 42.1472 40.5409 40.7072 40.5409 39.5072C40.5409 38.3072 39.3408 36.624 36.9408 36.624ZM16.3009 23.4272C15.7249 24.7712 13.0209 25.1072 11.7409 25.1072C9.10086 25.1072 9.34086 22.4672 9.82086 21.2672C10.3009 20.0671 13.4209 18.1472 15.5809 18.8672C17.7409 19.5872 17.0209 21.7472 16.3009 23.4272ZM46.3008 10.2271C43.9008 10.2271 42.7968 11.5711 43.1808 13.1071C43.6608 15.0271 46.5408 16.7071 47.9808 16.4671C49.4208 16.2272 51.1008 15.0272 51.1008 13.8272C51.1008 12.6271 48.7008 10.2271 46.3008 10.2271Z" fill="#82A44B"/>
<path d="M10.5408 33.2672C8.62084 35.4272 4.73283 39.9872 4.54083 40.9472C4.34883 41.9072 8.74773 43.4272 10.9712 44.0672L12.9408 39.9872H22.5408M63.5808 32.7872C65.7408 33.5072 69.8208 38.7872 69.3408 39.9872C68.8608 41.1872 63.3408 44.3072 63.1422 44.5472L60.9408 39.9872H48.2208M25.1808 39.9872C25.6608 40.9471 28.0608 40.7072 29.0208 41.6672C29.9808 42.6272 28.7808 45.2672 29.2608 45.7472C29.7408 46.2272 33.1008 44.5472 34.0608 45.2672C35.0208 45.9872 36.2208 49.1072 36.9408 49.1072C37.6608 49.1072 39.1008 46.2272 40.0608 45.7472C41.0208 45.2672 44.3808 45.7472 44.8608 45.7472C45.3408 45.7472 44.7008 42.8672 44.6208 41.6672C44.6208 41.6672 47.7408 40.9472 48.2208 39.9872M25.1808 39.9872C25.6608 39.0271 28.3008 38.5472 29.2608 37.3472C30.2208 36.1471 28.3008 34.2272 29.2608 33.5072C30.2208 32.7872 32.6208 33.9872 33.8208 33.7472M25.1808 39.9872H22.5408M48.2208 39.9872C47.9808 38.7871 44.6208 37.8272 44.1408 37.3472C43.6608 36.8672 45.8208 34.4672 44.8608 33.5072C43.9008 32.5472 41.2608 33.9872 40.3008 33.9872C39.6871 33.9872 39.1715 32.9082 38.5031 32.0672M48.2208 39.9872C48.6029 39.0956 49.1743 37.9201 49.9008 36.624M33.8208 33.7472C35.0208 33.5072 35.7408 30.8672 37.1808 31.1072C37.7003 31.1937 38.126 31.5926 38.5031 32.0672M33.8208 33.7472C34.2208 29.9071 34.2528 20.7391 31.1808 14.7871L30.7008 13.8272M58.7808 26.5471C56.2044 27.9344 53.8581 30.5748 51.9927 33.2672M58.7808 26.5471C58.7808 26.0671 56.3395 22.2272 59.7408 19.8272M58.7808 26.5471C60.3808 28.1471 63.5808 28.9472 65.9808 27.0272C66.8608 26.3872 68.7648 24.7712 69.3408 23.4272C70.0608 21.7472 69.3408 19.3472 67.6608 17.6672C65.9808 15.9872 65.2608 15.5072 63.5808 16.2272C61.9008 16.9472 61.6608 19.1072 62.6208 20.3072C63.5808 21.5072 64.5408 22.4672 65.5008 22.4672C66.4608 22.4672 66.9408 21.7472 66.4608 20.7872M51.9927 33.2672C53.6154 32.4672 57.4368 31.2512 59.7408 32.7872C59.7408 34.7071 51.5808 36.8609 49.9008 36.624M51.9927 33.2672C51.2028 34.4072 50.4992 35.5565 49.9008 36.624M49.9008 36.624C49.9808 34.865 49.8528 30.9631 48.7008 29.4271M48.7008 29.4271C49.9008 27.9872 47.7408 24.6271 45.5808 26.0671C43.4208 27.5071 46.0608 31.1071 48.7008 29.4271ZM38.5031 32.0672C39.2624 28.6272 41.2608 21.4593 43.1808 20.3072M43.1808 20.3072C43.1808 19.4272 42.9888 17.6672 42.2208 17.6672C41.2608 17.6672 37.9008 16.2272 37.6608 15.5071C37.5551 15.19 37.8684 14.9661 38.252 14.6917C38.7395 14.343 39.3408 13.913 39.3408 13.1071C39.3408 12.3575 38.5602 11.5427 37.8796 10.8323C37.2528 10.1781 36.7107 9.61231 36.9408 9.26717C37.2033 8.87351 38.1832 8.91033 39.1353 8.94611C39.9245 8.97576 40.6945 9.0047 41.0208 8.78713C41.3324 8.57941 41.3743 7.92229 41.4189 7.22416C41.4772 6.30897 41.5401 5.3233 42.2208 5.18714C43.0166 5.02798 44.2345 5.92421 45.1747 6.61609C45.6523 6.96757 46.0583 7.26631 46.3008 7.34716C46.6244 7.45501 47.0449 7.02975 47.5187 6.55051C48.0993 5.96329 48.7601 5.29502 49.4208 5.42717C50.1706 5.57712 50.8267 6.66396 51.4476 7.69257C51.8204 8.31027 52.1806 8.90697 52.5408 9.26717C53.0112 9.73758 53.8851 9.86223 54.7104 9.97997C55.5695 10.1025 56.376 10.2176 56.6208 10.7072C56.8872 11.2399 56.3405 11.8466 55.8012 12.4451C55.3687 12.9251 54.9408 13.3999 54.9408 13.8272C54.9408 14.2482 55.5408 14.7153 56.1741 15.2084C56.985 15.8396 57.8503 16.5134 57.5808 17.1872C57.3416 17.7852 56.5064 17.7276 55.6395 17.6678C54.7668 17.6076 53.862 17.5452 53.5008 18.1472C53.171 18.6969 53.1434 19.3978 53.118 20.0421C53.0879 20.8042 53.061 21.4871 52.5408 21.7472C52.0209 22.0072 51.1489 21.4222 50.268 20.8314C49.5226 20.3314 48.7709 19.8272 48.2208 19.8272C47.7741 19.8272 47.0945 19.9602 46.3678 20.1025C45.1426 20.3424 43.7834 20.6085 43.1808 20.3072ZM30.7008 13.8272C29.3408 14.5472 26.1408 15.0751 24.2208 11.4271M30.7008 13.8272C31.9008 13.3472 34.2048 11.6671 33.8208 8.78713C33.3408 5.18714 31.1808 2.54713 29.2608 2.30713C27.3408 2.06713 23.5008 2.54714 22.5408 5.42717C22.2208 6.38716 22.1568 8.35513 24.4608 8.54713C27.3408 8.78713 29.2608 7.8271 29.2608 6.62713C29.2608 5.42717 28.3008 5.42717 27.3408 5.42717M22.5408 39.9872C22.4172 39.3441 22.1911 38.4197 21.8582 37.3472M17.9808 29.4271C19.8378 31.8146 21.1145 34.9506 21.8582 37.3472M17.9808 29.4271C18.2208 28.3871 18.8928 26.1632 19.6608 25.5872C20.07 25.2803 20.9589 25.1042 21.8441 24.9288C23.0357 24.6927 24.2208 24.458 24.2208 23.9072C24.2208 23.3439 23.5469 22.5326 22.949 21.8129C22.5279 21.3061 22.1446 20.8447 22.0608 20.5472C21.9605 20.1906 22.5482 19.5986 23.167 18.9752C23.7977 18.3397 24.4608 17.6717 24.4608 17.1872C24.4608 16.6161 23.1869 16.5546 22.0032 16.4975C21.1969 16.4586 20.4325 16.4217 20.1408 16.2272C19.8453 16.0301 19.7924 15.4287 19.7331 14.7548C19.648 13.7871 19.5497 12.6701 18.7008 12.3872C17.8286 12.0964 16.6921 12.9504 15.6649 13.7224C14.9963 14.2248 14.3739 14.6925 13.9008 14.7871C13.2793 14.9115 12.5934 14.3276 11.9765 13.8024C11.4024 13.3136 10.8879 12.8757 10.5408 13.1071C9.92111 13.5203 8.76796 15.8894 8.1527 17.1534C8.05315 17.3579 7.96769 17.5335 7.90084 17.6672C7.66344 18.142 6.54538 18.3232 5.44685 18.5013C4.3243 18.6833 3.22214 18.8619 3.10084 19.3472C2.97247 19.8607 3.53069 20.5801 4.07776 21.2852C4.55352 21.8983 5.02084 22.5006 5.02084 22.9472C5.02084 23.3787 4.48746 23.8587 3.90019 24.3872C3.18094 25.0344 2.38086 25.7544 2.38086 26.5472C2.38086 27.3987 3.80764 27.4949 5.07299 27.5802C5.94739 27.6392 6.74471 27.6929 6.94086 27.9872C7.09109 28.2125 7.17079 28.6494 7.26091 29.1434C7.45871 30.2278 7.70668 31.5872 8.86086 31.5872C9.8176 31.5872 10.6965 30.6531 11.4533 29.8489C12.0253 29.2409 12.5275 28.7072 12.9408 28.7072C13.2338 28.7072 13.5938 28.9083 14.0208 29.1469C14.9932 29.6902 16.3132 30.4276 17.9808 29.4271ZM21.8582 37.3472C22.0608 36.624 23.7408 31.3471 26.3808 29.4271M26.3808 29.4271C28.3008 29.4271 30.4608 29.1872 29.7408 27.5072C29.1281 26.0774 27.82 26.386 27.296 26.5096C27.2043 26.5312 27.1366 26.5472 27.1008 26.5472C26.8608 26.5471 25.6608 28.9471 26.3808 29.4271ZM46.3008 10.2271C43.9008 10.2271 42.7968 11.5711 43.1808 13.1071C43.6608 15.0271 46.5408 16.7071 47.9808 16.4671C49.4208 16.2272 51.1008 15.0272 51.1008 13.8272C51.1008 12.6271 48.7008 10.2271 46.3008 10.2271ZM11.7409 25.1072C13.0209 25.1072 15.7249 24.7712 16.3009 23.4272C17.0209 21.7472 17.7409 19.5872 15.5809 18.8672C13.4209 18.1472 10.3009 20.0671 9.82086 21.2672C9.34086 22.4672 9.10086 25.1072 11.7409 25.1072ZM36.9408 36.624C34.5408 36.624 33.1489 38.1632 33.3409 39.5072C33.5809 41.1872 35.3785 42.1472 36.9408 42.1472C38.5031 42.1472 40.5409 40.7072 40.5409 39.5072C40.5409 38.3072 39.3408 36.624 36.9408 36.624Z" stroke="#273210" stroke-width="0.5" stroke-linecap="round" stroke-linejoin="round"/>
</svg>
