<svg width="72" height="72" viewBox="0 0 72 72" fill="none" xmlns="http://www.w3.org/2000/svg">
<path d="M39.3329 55.9007H33.8367H32.1805V61.3827H34.1041H35.4728H37.2433H39.0138H40.7078V55.9007H39.3329Z" fill="#C3AFFA"/>
<path d="M23.4634 29.03C20.6478 28.9891 19.0961 31.4891 19.0961 33.4563C19.0961 35.4236 19.5815 37.1039 22.8483 37.022C26.115 36.94 27.5085 34.9318 27.5085 32.6881C27.5085 30.4444 26.279 29.071 23.4634 29.03Z" fill="#C3AFFA"/>
<path d="M47.5753 31.858C45.607 31.9399 43.4513 33.3406 43.4923 36.1203C43.5333 38.9 45.853 40.3148 47.5753 40.3148C49.2976 40.3148 52.3039 37.9161 52.2629 36.1203C52.2219 34.3245 49.5436 31.776 47.5753 31.858Z" fill="#C3AFFA"/>
<path d="M51.7711 15.1577C50.4186 15.1577 49.4514 16.3905 49.6809 17.6364C49.9678 19.1938 51.8941 21.1848 53.0826 20.9562C54.2712 20.7276 54.649 19.2809 54.649 18.3562C54.649 17.4315 53.1236 15.1577 51.7711 15.1577Z" fill="#C3AFFA"/>
<path d="M32.2626 12.5544C32.0747 10.9747 34.7609 8.76059 36.811 8.76059C38.8611 8.76059 40.5631 10.5441 40.5631 11.7746C40.5631 13.0052 38.1027 15.1577 36.566 15.1577C35.0292 15.1577 32.4506 14.1341 32.2626 12.5544Z" fill="#C3AFFA"/>
<path d="M19.3116 12.5544C18.0821 12.3495 15.746 14.0541 16.0739 16.202C16.4837 18.8869 18.3082 19.4025 20.2648 17.0645C22.2215 14.7266 20.5412 12.7593 19.3116 12.5544Z" fill="#C3AFFA"/>
<path d="M27.0925 23.6457C25.6778 22.7226 24.0786 26.0446 22.8483 26.0446C21.6179 26.0446 20.8801 23.6457 19.0961 24.3223C17.3122 24.999 19.0961 27.7052 17.9275 28.8124C16.7588 29.9196 13.7446 28.8124 13.1911 30.4732C12.6376 32.1341 16.0823 32.6881 15.8363 34.2256C15.5902 35.7631 12.5147 35.9481 13.7446 37.9161C14.9745 39.8841 16.7588 37.8538 17.9275 38.9C19.0961 39.9463 17.8658 42.5901 19.6497 43.0212C21.4337 43.4524 21.7411 40.5602 23.4634 40.3148C25.1856 40.0693 25.5548 42.7746 27.7691 41.9755M27.0925 23.6457C26.5512 22.8664 24.5763 20.1484 23.6565 18.8869M27.0925 23.6457C27.5887 23.9695 27.7671 24.4294 27.824 24.9378M27.7691 41.9755C29.9834 41.1765 27.8922 38.4689 28.9378 37.3623C29.5006 36.7666 30.5448 36.8121 31.5042 36.6933M27.7691 41.9755C29.5566 43.222 33.2726 47.752 33.8367 55.9007M23.6565 18.8869C23.9275 18.6903 24.1648 18.4276 24.3245 18.0484C24.8165 16.8793 23.7706 16.1418 23.8324 15.1577C23.8941 14.1735 25.1854 14.4195 25.1856 13.4354C25.1858 12.4513 23.8324 11.7746 23.4634 10.9747C23.0944 10.1747 23.4634 9.31424 22.6022 8.76059C21.741 8.20695 20.5726 8.76059 19.6497 8.76059C18.7269 8.76059 18.1737 7.77643 16.7587 8.14538C15.3438 8.51432 16.7587 10.1139 15.8363 10.9747C14.9138 11.8354 13.7446 10.6675 13.1911 12.082C12.6376 13.4965 13.7446 15.1576 13.1911 15.8339C12.6376 16.5102 11.3458 16.4494 11.6534 18.0484C11.961 19.6473 13.7446 19.7094 14.1138 20.5702C14.483 21.431 13.3756 22.4155 14.6059 23.0306C15.8363 23.6457 16.9433 22.5383 17.4354 22.5383C17.9275 22.5383 19.4035 22.9683 20.2648 22.5383C21.1261 22.1084 21.2489 20.1399 21.9256 19.7094C22.3827 19.4186 23.0924 19.2961 23.6565 18.8869ZM27.824 24.9378C27.9295 25.8789 27.619 26.9864 28.1381 27.7052C28.3769 28.0358 28.8295 28.0319 29.3683 27.921M27.824 24.9378L29.3683 27.921M29.3683 27.921C30.6339 27.6606 32.3749 26.8102 32.9359 28.3203C33.7357 30.4732 29.9834 30.4732 30.9061 32.1954C31.8288 33.9176 34.1661 33.6723 33.428 35.517C33.0873 36.3687 32.3269 36.5914 31.5042 36.6933M31.5042 36.6933C32.2817 38.8125 33.9229 43.521 34.2676 45.4014M33.8367 55.9007H39.3329M33.8367 55.9007H32.1805V61.3827H34.1041M15.0263 25.6975C13.7599 25.6602 11.0486 25.8591 10.335 26.953M26.08 3.06764C25.5866 3.77959 24.7169 5.6117 25.1856 7.24445M32.4629 21.3566C32.4629 21.521 34.1661 24.9355 34.1661 26.3204M41.5028 26.3204C41.7987 26.0446 44.3754 21.7457 46.3137 20.7276M46.3137 20.7276C46.2808 20.6761 46.2502 20.6237 46.2221 20.5702C45.607 19.4019 46.7757 19.0322 46.7757 18.0484C46.7757 17.0645 45.607 16.757 45.607 15.4653C45.607 14.1735 46.8987 14.1734 47.5753 13.4354C48.2519 12.6973 47.2062 11.2819 48.2519 10.9747C49.2976 10.6675 50.343 11.4673 51.2044 11.7746C52.0658 12.082 52.5576 10.4208 53.6033 10.9747C54.649 11.5286 54.7105 12.8203 55.2026 13.8045C55.6946 14.7886 57.0479 14.4811 57.8475 15.4653C58.6471 16.4494 57.8475 17.3106 57.8475 18.3562C57.8475 19.4019 59.5085 20.2015 59.3237 21.1857C59.139 22.1699 57.5402 22.5383 57.0479 23.0306C56.5556 23.5229 57.4786 24.9378 56.4943 25.4299C55.5099 25.922 54.649 24.9378 53.6033 24.9378C52.5576 24.9378 52.0658 26.4141 51.2044 26.0446C50.343 25.6751 49.9742 23.6457 49.2976 23.0306C48.6519 22.4437 46.9981 21.8003 46.3137 20.7276ZM36.811 20.438C37.0086 20.5216 37.2315 20.5702 37.4876 20.5702C39.3329 20.5702 39.7635 18.0487 40.5631 17.0645C41.3628 16.0804 44.0785 17.7412 44.9919 16.4494C45.9052 15.1577 44.2537 14.7887 44.2537 13.4354C44.2537 12.082 47.2065 12.082 47.2062 10.1139C47.206 8.14576 44.2537 9.43726 43.5156 8.76059C42.7775 8.08393 44.9919 6.30024 43.2081 5.13155C41.4243 3.96286 39.3329 6.30024 38.1027 6.30024C36.8725 6.30024 37.4876 4.14739 35.0272 4.14726C32.5668 4.14714 32.9359 7.22289 32.0747 7.77643C31.2135 8.32997 28.5071 6.30024 27.4615 7.77643C26.4158 9.25262 28.9378 10.1139 28.5071 11.5286C28.0765 12.9432 26.17 12.6358 25.6162 14.1735C25.0624 15.7112 29.3683 15.8339 29.3683 15.8339C29.5118 17.1258 28.6299 18.8486 29.9834 19.7094C31.3368 20.5702 32.8126 18.0484 34.1661 18.0484C35.3317 18.0484 35.5845 19.9188 36.811 20.438ZM36.811 20.438C37.2416 23.5068 38.1027 30.4716 38.1027 33.7803M38.1027 33.7803C38.9382 33.5007 39.9756 33.406 40.5631 32.6881C41.6705 31.3349 39.5175 29.0578 41.3628 27.7052C43.2081 26.3526 44.0077 28.8124 45.607 28.8124C47.2062 28.8124 47.3905 25.6751 48.9285 26.0446C50.4665 26.4141 50.343 28.3829 51.2044 29.4281C52.0658 30.4732 54.3414 27.7058 55.6946 29.4281C57.0479 31.1503 55.2026 32.9342 55.2026 34.2256C55.2026 35.517 58.7704 35.517 58.6471 37.3623C58.5239 39.2076 55.2026 38.224 54.649 39.5157C54.0954 40.8074 56.0639 43.4524 54.649 44.3135C53.234 45.1747 51.2044 43.0212 49.9742 43.4524C48.744 43.8835 48.9285 46.0973 46.7757 46.2203C45.1457 46.3135 45.3139 44.679 44.9046 43.4524M38.1027 33.7803C37.3634 34.0277 36.7822 34.4199 36.811 35.517C36.8723 37.8538 40.0713 36.3787 39.8865 38.224C39.7018 40.0693 38.1027 41.4841 39.3329 42.4682C40.5631 43.4524 42.9005 41.4841 44.2537 42.4682C44.5824 42.7073 44.7732 43.0588 44.9046 43.4524M45.2059 1.20001C45.7984 2.12862 46.9419 4.41917 46.7757 6.15256M48.9285 7.94767C49.137 7.77643 50.5299 6.00488 52.6347 6.15256M61.665 26.4668C60.8492 26.5706 59.0006 27.0432 58.1327 28.1031M44.9046 43.4524C42.6373 45.0339 38.3488 49.7376 39.3329 55.9007M39.3329 55.9007H40.7078V61.3827H39.0138M37.4876 47.9995C37.2621 48.7165 36.811 50.425 36.811 51.5233M34.1041 61.3827C34.1329 63.9763 33.9893 69.4908 33.1854 70.8M34.1041 61.3827H35.4728M40.0187 69.6229C39.5306 67.9289 38.9851 62.3301 39.0138 61.3827M39.0138 61.3827H37.2433M35.4728 61.3827C35.6211 63.1969 35.8287 67.0922 35.4728 68.16M35.4728 61.3827H37.2433M37.2433 61.3827C37.1618 62.0846 37.0478 63.7998 37.2433 65.0456M19.3116 12.5544C18.0821 12.3495 15.746 14.0541 16.0739 16.202C16.4837 18.8869 18.3082 19.4025 20.2648 17.0645C22.2215 14.7266 20.5412 12.7593 19.3116 12.5544ZM32.2626 12.5544C32.0747 10.9747 34.7609 8.76059 36.811 8.76059C38.8611 8.76059 40.5631 10.5441 40.5631 11.7746C40.5631 13.0052 38.1027 15.1577 36.566 15.1577C35.0292 15.1577 32.4506 14.1341 32.2626 12.5544ZM51.7711 15.1577C50.4186 15.1577 49.4514 16.3905 49.6809 17.6364C49.9678 19.1938 51.8941 21.1848 53.0826 20.9562C54.2712 20.7276 54.649 19.2809 54.649 18.3562C54.649 17.4315 53.1236 15.1577 51.7711 15.1577ZM23.4634 29.03C20.6478 28.9891 19.0961 31.4891 19.0961 33.4563C19.0961 35.4236 19.5815 37.1039 22.8483 37.022C26.115 36.94 27.5085 34.9318 27.5085 32.6881C27.5085 30.4444 26.279 29.071 23.4634 29.03ZM47.5753 31.858C45.607 31.9399 43.4513 33.3406 43.4923 36.1203C43.5333 38.9 45.853 40.3148 47.5753 40.3148C49.2976 40.3148 52.3039 37.9161 52.2629 36.1203C52.2219 34.3245 49.5436 31.776 47.5753 31.858Z" stroke="#273210" stroke-width="0.5" stroke-linecap="round" stroke-linejoin="round"/>
<path fill-rule="evenodd" clip-rule="evenodd" d="M15.8362 34.2256C15.5902 35.7631 12.5147 35.9481 13.7446 37.9161C14.9745 39.8841 16.7587 37.8538 17.9274 38.9001C19.0961 39.9463 17.8658 42.5901 19.6497 43.0212C21.4337 43.4524 21.7411 40.5602 23.4633 40.3148C25.1856 40.0693 25.5547 42.7746 27.7691 41.9756C29.9834 41.1765 27.8921 38.4689 28.9377 37.3623C29.5006 36.7666 30.5448 36.8121 31.5041 36.6933C32.3269 36.5914 33.0872 36.3687 33.428 35.517C34.166 33.6723 31.8288 33.9176 30.9061 32.1954C29.9834 30.4733 33.7357 30.4733 32.9359 28.3203C32.3749 26.8102 30.6339 27.6606 29.3683 27.921C28.8295 28.0319 28.3769 28.0358 28.1381 27.7052C27.619 26.9864 27.9294 25.8789 27.824 24.9378C27.767 24.4294 27.5887 23.9695 27.0924 23.6457C25.6778 22.7226 24.0786 26.0446 22.8482 26.0446C21.6179 26.0446 20.8801 23.6457 19.0961 24.3223C17.3122 24.999 19.0961 27.7052 17.9274 28.8124C16.7587 29.9196 13.7446 28.8124 13.1911 30.4733C12.6376 32.1341 16.0823 32.6881 15.8362 34.2256ZM19.0961 33.4563C19.0961 31.4891 20.6478 28.9891 23.4633 29.0301C26.2789 29.071 27.5085 30.4444 27.5085 32.6881C27.5085 34.9318 26.115 36.94 22.8482 37.022C19.5815 37.1039 19.0961 35.4236 19.0961 33.4563Z" fill="#DBC241"/>
<path fill-rule="evenodd" clip-rule="evenodd" d="M17.4353 22.5384C17.9274 22.5384 19.4035 22.9683 20.2648 22.5384C21.1261 22.1084 21.2489 20.1399 21.9255 19.7094C22.3826 19.4186 23.0924 19.2961 23.6565 18.8869C23.9274 18.6903 24.1648 18.4276 24.3244 18.0484C24.8165 16.8794 23.7706 16.1418 23.8323 15.1577C23.8941 14.1735 25.1853 14.4195 25.1856 13.4354C25.1858 12.4513 23.8323 11.7747 23.4633 10.9747C23.0943 10.1747 23.4633 9.31425 22.6021 8.76061C21.7409 8.20696 20.5725 8.76061 19.6497 8.76061C18.7269 8.76061 18.1736 7.77644 16.7587 8.14539C15.3437 8.51434 16.7587 10.1139 15.8362 10.9747C14.9138 11.8355 13.7446 10.6675 13.1911 12.082C12.6376 13.4965 13.7446 15.1577 13.1911 15.8339C12.6376 16.5102 11.3458 16.4494 11.6534 18.0484C11.961 19.6473 13.7446 19.7094 14.1138 20.5702C14.483 21.431 13.3755 22.4155 14.6059 23.0306C15.8362 23.6457 16.9433 22.5384 17.4353 22.5384ZM16.0739 16.202C15.746 14.0541 18.0821 12.3495 19.3116 12.5544C20.5411 12.7593 22.2215 14.7266 20.2648 17.0645C18.3081 19.4025 16.4837 18.8869 16.0739 16.202Z" fill="#DBC241"/>
<path fill-rule="evenodd" clip-rule="evenodd" d="M28.5071 11.5286C28.0765 12.9432 26.17 12.6358 25.6161 14.1735C25.0623 15.7112 29.3683 15.8339 29.3683 15.8339C29.5118 17.1258 28.6299 18.8486 29.9834 19.7094C31.3368 20.5702 32.8126 18.0484 34.166 18.0484C35.3317 18.0484 35.5845 19.9188 36.811 20.438C37.0086 20.5216 37.2315 20.5702 37.4876 20.5702C39.3329 20.5702 39.7635 18.0487 40.5631 17.0645C41.3627 16.0804 44.0785 17.7412 44.9918 16.4494C45.9052 15.1577 44.2537 14.7888 44.2537 13.4354C44.2537 12.082 47.2064 12.082 47.2062 10.1139C47.206 8.14577 44.2537 9.43727 43.5156 8.76061C42.7775 8.08394 44.9918 6.30025 43.208 5.13156C41.4242 3.96287 39.3329 6.30025 38.1027 6.30025C36.8725 6.30025 37.4876 4.1474 35.0272 4.14728C32.5668 4.14716 32.9359 7.22291 32.0747 7.77644C31.2135 8.32998 28.5071 6.30025 27.4614 7.77644C26.4158 9.25263 28.9377 10.1139 28.5071 11.5286ZM36.811 8.76061C34.7609 8.76061 32.0747 10.9747 32.2626 12.5544C32.4505 14.1342 35.0292 15.1577 36.566 15.1577C38.1027 15.1577 40.5631 13.0052 40.5631 11.7747C40.5631 10.5441 38.8611 8.76061 36.811 8.76061Z" fill="#DBC241"/>
<path fill-rule="evenodd" clip-rule="evenodd" d="M47.5753 13.4354C46.8986 14.1734 45.6069 14.1735 45.6069 15.4653C45.6069 16.757 46.7756 17.0645 46.7756 18.0484C46.7756 19.0322 45.6069 19.4019 46.222 20.5702C46.2502 20.6237 46.2808 20.6761 46.3136 20.7276C46.9981 21.8003 48.6519 22.4437 49.2975 23.0306C49.9742 23.6457 50.343 25.6751 51.2044 26.0446C52.0657 26.4141 52.5576 24.9378 53.6033 24.9378C54.6489 24.9378 55.5098 25.922 56.4942 25.4299C57.4786 24.9378 56.5555 23.5229 57.0478 23.0306C57.5401 22.5384 59.1389 22.1699 59.3237 21.1857C59.5084 20.2015 57.8475 19.4019 57.8475 18.3562C57.8475 17.3106 58.6471 16.4494 57.8475 15.4653C57.0478 14.4811 55.6946 14.7887 55.2025 13.8045C54.7104 12.8203 54.6489 11.5286 53.6033 10.9747C52.5576 10.4208 52.0657 12.082 51.2044 11.7747C50.343 11.4673 49.2975 10.6675 48.2519 10.9747C47.2062 11.2819 48.2519 12.6973 47.5753 13.4354ZM49.6809 17.6364C49.4514 16.3905 50.4186 15.1577 51.7711 15.1577C53.1236 15.1577 54.6489 17.4315 54.6489 18.3562C54.6489 19.281 54.2711 20.7276 53.0826 20.9562C51.894 21.1848 49.9678 19.1938 49.6809 17.6364Z" fill="#DBC241"/>
<path fill-rule="evenodd" clip-rule="evenodd" d="M48.9285 26.0446C47.3905 25.6751 47.2062 28.8124 45.6069 28.8124C44.0077 28.8124 43.208 26.3526 41.3627 27.7052C39.5174 29.0578 41.6705 31.3349 40.5631 32.6881C39.9756 33.406 38.9382 33.5007 38.1027 33.7803C37.3634 34.0277 36.7822 34.4199 36.811 35.517C36.8723 37.8538 40.0712 36.3787 39.8865 38.224C39.7017 40.0693 38.1027 41.4841 39.3329 42.4682C40.5631 43.4524 42.9005 41.4841 44.2537 42.4682C44.5824 42.7073 44.7732 43.0588 44.9045 43.4524C45.3139 44.679 45.1457 46.3135 46.7756 46.2203C48.9285 46.0973 48.744 43.8835 49.9742 43.4524C51.2044 43.0212 53.234 45.1747 54.6489 44.3135C56.0639 43.4524 54.0953 40.8075 54.6489 39.5157C55.2025 38.224 58.5238 39.2076 58.6471 37.3623C58.7703 35.517 55.2025 35.517 55.2025 34.2256C55.2025 32.9342 57.0478 31.1504 55.6946 29.4281C54.3414 27.7058 52.0657 30.4733 51.2044 29.4281C50.343 28.3829 50.4665 26.4141 48.9285 26.0446ZM43.4923 36.1203C43.4513 33.3406 45.6069 31.9399 47.5753 31.858C49.5436 31.776 52.2219 34.3245 52.2629 36.1203C52.3039 37.9161 49.2975 40.3148 47.5753 40.3148C45.853 40.3148 43.5333 38.9001 43.4923 36.1203Z" fill="#DBC241"/>
<path d="M36.811 20.438C37.0086 20.5216 37.2315 20.5702 37.4876 20.5702C39.3329 20.5702 39.7635 18.0487 40.5631 17.0645C41.3627 16.0804 44.0785 17.7412 44.9918 16.4494C45.9052 15.1577 44.2537 14.7888 44.2537 13.4354C44.2537 12.082 47.2064 12.082 47.2062 10.1139C47.206 8.14577 44.2537 9.43727 43.5156 8.76061C42.7775 8.08394 44.9918 6.30025 43.208 5.13156C41.4242 3.96287 39.3329 6.30025 38.1027 6.30025C36.8725 6.30025 37.4876 4.1474 35.0272 4.14728C32.5668 4.14716 32.9359 7.22291 32.0747 7.77644C31.2135 8.32998 28.5071 6.30025 27.4614 7.77644C26.4158 9.25263 28.9377 10.1139 28.5071 11.5286C28.0765 12.9432 26.17 12.6358 25.6161 14.1735C25.0623 15.7112 29.3683 15.8339 29.3683 15.8339C29.5118 17.1258 28.6299 18.8486 29.9834 19.7094C31.3368 20.5702 32.8126 18.0484 34.166 18.0484C35.3317 18.0484 35.5845 19.9188 36.811 20.438ZM36.811 20.438C37.2416 23.5068 38.1027 30.4716 38.1027 33.7803M38.1027 33.7803C38.9382 33.5007 39.9756 33.406 40.5631 32.6881C41.6705 31.3349 39.5174 29.0578 41.3627 27.7052C43.208 26.3526 44.0077 28.8124 45.6069 28.8124C47.2062 28.8124 47.3905 25.6751 48.9285 26.0446C50.4665 26.4141 50.343 28.3829 51.2044 29.4281C52.0657 30.4733 54.3414 27.7058 55.6946 29.4281C57.0478 31.1504 55.2025 32.9342 55.2025 34.2256C55.2025 35.517 58.7703 35.517 58.6471 37.3623C58.5238 39.2076 55.2025 38.224 54.6489 39.5157C54.0953 40.8075 56.0639 43.4524 54.6489 44.3135C53.234 45.1747 51.2044 43.0212 49.9742 43.4524C48.744 43.8835 48.9285 46.0973 46.7756 46.2203C45.1457 46.3135 45.3139 44.679 44.9045 43.4524C44.7732 43.0588 44.5824 42.7073 44.2537 42.4682C42.9005 41.4841 40.5631 43.4524 39.3329 42.4682C38.1027 41.4841 39.7017 40.0693 39.8865 38.224C40.0712 36.3787 36.8723 37.8538 36.811 35.517C36.7822 34.4199 37.3634 34.0277 38.1027 33.7803ZM13.7446 37.9161C12.5147 35.9481 15.5902 35.7631 15.8362 34.2256C16.0823 32.6881 12.6376 32.1341 13.1911 30.4733C13.7446 28.8124 16.7587 29.9196 17.9274 28.8124C19.0961 27.7052 17.3122 24.999 19.0961 24.3223C20.8801 23.6457 21.6179 26.0446 22.8482 26.0446C24.0786 26.0446 25.6778 22.7226 27.0924 23.6457C27.5887 23.9695 27.767 24.4294 27.824 24.9378C27.9294 25.8789 27.619 26.9864 28.1381 27.7052C28.3769 28.0358 28.8295 28.0319 29.3683 27.921C30.6339 27.6606 32.3749 26.8102 32.9359 28.3203C33.7357 30.4733 29.9834 30.4733 30.9061 32.1954C31.8288 33.9176 34.166 33.6723 33.428 35.517C33.0872 36.3687 32.3269 36.5914 31.5041 36.6933C30.5448 36.8121 29.5006 36.7666 28.9377 37.3623C27.8921 38.4689 29.9834 41.1765 27.7691 41.9756C25.5547 42.7746 25.1856 40.0693 23.4633 40.3148C21.7411 40.5602 21.4337 43.4524 19.6497 43.0212C17.8658 42.5901 19.0961 39.9463 17.9274 38.9001C16.7587 37.8538 14.9745 39.8841 13.7446 37.9161ZM20.2648 22.5384C19.4035 22.9683 17.9274 22.5384 17.4353 22.5384C16.9433 22.5384 15.8362 23.6457 14.6059 23.0306C13.3755 22.4155 14.483 21.431 14.1138 20.5702C13.7446 19.7094 11.961 19.6473 11.6534 18.0484C11.3458 16.4494 12.6376 16.5102 13.1911 15.8339C13.7446 15.1577 12.6376 13.4965 13.1911 12.082C13.7446 10.6675 14.9138 11.8355 15.8362 10.9747C16.7587 10.1139 15.3437 8.51434 16.7587 8.14539C18.1736 7.77644 18.7269 8.76061 19.6497 8.76061C20.5725 8.76061 21.7409 8.20696 22.6021 8.76061C23.4633 9.31425 23.0943 10.1747 23.4633 10.9747C23.8323 11.7747 25.1858 12.4513 25.1856 13.4354C25.1853 14.4195 23.8941 14.1735 23.8323 15.1577C23.7706 16.1418 24.8165 16.8794 24.3244 18.0484C24.1648 18.4276 23.9274 18.6903 23.6565 18.8869C23.0924 19.2961 22.3826 19.4186 21.9255 19.7094C21.2489 20.1399 21.1261 22.1084 20.2648 22.5384ZM47.5753 13.4354C46.8986 14.1734 45.6069 14.1735 45.6069 15.4653C45.6069 16.757 46.7756 17.0645 46.7756 18.0484C46.7756 19.0322 45.6069 19.4019 46.222 20.5702C46.2502 20.6237 46.2808 20.6761 46.3136 20.7276C46.9981 21.8003 48.6519 22.4437 49.2975 23.0306C49.9742 23.6457 50.343 25.6751 51.2044 26.0446C52.0657 26.4141 52.5576 24.9378 53.6033 24.9378C54.6489 24.9378 55.5098 25.922 56.4942 25.4299C57.4786 24.9378 56.5555 23.5229 57.0478 23.0306C57.5401 22.5384 59.1389 22.1699 59.3237 21.1857C59.5084 20.2015 57.8475 19.4019 57.8475 18.3562C57.8475 17.3106 58.6471 16.4494 57.8475 15.4653C57.0478 14.4811 55.6946 14.7887 55.2025 13.8045C54.7104 12.8203 54.6489 11.5286 53.6033 10.9747C52.5576 10.4208 52.0657 12.082 51.2044 11.7747C50.343 11.4673 49.2975 10.6675 48.2519 10.9747C47.2062 11.2819 48.2519 12.6973 47.5753 13.4354ZM19.3116 12.5544C18.0821 12.3495 15.746 14.0541 16.0739 16.202C16.4837 18.8869 18.3081 19.4025 20.2648 17.0645C22.2215 14.7266 20.5411 12.7593 19.3116 12.5544ZM32.2626 12.5544C32.0747 10.9747 34.7609 8.76061 36.811 8.76061C38.8611 8.76061 40.5631 10.5441 40.5631 11.7747C40.5631 13.0052 38.1027 15.1577 36.566 15.1577C35.0292 15.1577 32.4505 14.1342 32.2626 12.5544ZM51.7711 15.1577C50.4186 15.1577 49.4514 16.3905 49.6809 17.6364C49.9678 19.1938 51.894 21.1848 53.0826 20.9562C54.2711 20.7276 54.6489 19.281 54.6489 18.3562C54.6489 17.4315 53.1236 15.1577 51.7711 15.1577ZM23.4633 29.0301C20.6478 28.9891 19.0961 31.4891 19.0961 33.4563C19.0961 35.4236 19.5815 37.1039 22.8482 37.022C26.115 36.94 27.5085 34.9318 27.5085 32.6881C27.5085 30.4444 26.2789 29.071 23.4633 29.0301ZM47.5753 31.858C45.6069 31.9399 43.4513 33.3406 43.4923 36.1203C43.5333 38.9001 45.853 40.3148 47.5753 40.3148C49.2975 40.3148 52.3039 37.9161 52.2629 36.1203C52.2219 34.3245 49.5436 31.776 47.5753 31.858Z" stroke="#273210" stroke-width="0.5" stroke-linecap="round" stroke-linejoin="round"/>
<path d="M32.9359 28.3203C33.7357 30.4732 29.9834 30.4732 30.9061 32.1954C31.8288 33.9176 34.1661 33.6723 33.428 35.517C33.0873 36.3687 32.3269 36.5914 31.5042 36.6933C30.5448 36.8121 29.5006 36.7666 28.9378 37.3623C27.8922 38.4689 29.9834 41.1765 27.7691 41.9755C29.5566 43.222 33.2726 47.752 33.8367 55.9007H39.3329C38.3488 49.7376 42.6373 45.0339 44.9046 43.4524C44.7732 43.0588 44.5824 42.7073 44.2537 42.4682C42.9005 41.4841 40.5631 43.4524 39.3329 42.4682C38.1027 41.4841 39.7018 40.0693 39.8865 38.224C40.0713 36.3787 36.8723 37.8538 36.811 35.517C36.7822 34.4199 37.3634 34.0277 38.1027 33.7803C38.1027 30.4716 37.2416 23.5068 36.811 20.438C35.5845 19.9188 35.3317 18.0484 34.1661 18.0484C32.8126 18.0484 31.3368 20.5702 29.9834 19.7094C28.6299 18.8486 29.5118 17.1258 29.3683 15.8339C29.3683 15.8339 25.0624 15.7112 25.6162 14.1735L25.1856 13.4354C25.1854 14.4195 23.8941 14.1735 23.8324 15.1576C23.7706 16.1418 24.8165 16.8793 24.3245 18.0484C24.1648 18.4276 23.9275 18.6903 23.6565 18.8869C24.5763 20.1484 26.5512 22.8664 27.0925 23.6457C27.5887 23.9695 27.7671 24.4294 27.824 24.9378L29.3683 27.921C30.6339 27.6606 32.3749 26.8102 32.9359 28.3203Z" fill="#82A44B"/>
<path d="M45.1197 16.2449C45.0844 16.3105 45.042 16.3786 44.9919 16.4494C44.0785 17.7412 41.3628 16.0804 40.5631 17.0645C39.7635 18.0487 39.3329 20.5702 37.4876 20.5702C37.2315 20.5702 37.0086 20.5216 36.811 20.438C37.2416 23.5068 38.1027 30.4716 38.1027 33.7803C38.9382 33.5007 39.9756 33.406 40.5631 32.6881C41.6705 31.3349 39.5175 29.0578 41.3628 27.7052C43.2081 26.3525 44.0077 28.8124 45.607 28.8124C47.2062 28.8124 47.3905 25.6751 48.9285 26.0446C49.7817 26.2495 50.1236 26.9466 50.4059 27.7052C50.4106 26.8294 50.9402 26.2332 51.2044 26.0446C50.343 25.6751 49.9742 23.6457 49.2976 23.0306C48.6519 22.4437 46.9981 21.8003 46.3137 20.7276C46.2808 20.6761 46.2502 20.6237 46.2221 20.5702C45.607 19.4019 46.7757 19.0322 46.7757 18.0484C46.7757 17.0645 45.607 16.757 45.607 15.4653L45.1197 16.2449Z" fill="#82A44B"/>
<path d="M19.0961 24.3223C20.8801 23.6457 21.6179 26.0446 22.8483 26.0446C24.0786 26.0446 25.6778 22.7226 27.0925 23.6457C26.5512 22.8664 24.5763 20.1484 23.6565 18.8869C23.0924 19.2961 22.3827 19.4186 21.9256 19.7094C21.2489 20.1399 21.1261 22.1084 20.2648 22.5383C19.4035 22.9683 17.9275 22.5383 17.4354 22.5383C17.8103 22.6746 18.6673 23.2222 19.0961 24.3223Z" fill="#82A44B"/>
<path d="M27.824 24.9378C27.9295 25.8789 27.619 26.9864 28.1381 27.7052C28.3769 28.0358 28.8295 28.0319 29.3683 27.921L27.824 24.9378Z" fill="#82A44B"/>
<path d="M19.0961 24.3223C17.3122 24.999 19.0961 27.7052 17.9275 28.8124C16.7588 29.9196 13.7446 28.8124 13.1911 30.4732C12.6376 32.1341 16.0823 32.6881 15.8363 34.2256C15.5902 35.7631 12.5147 35.9481 13.7446 37.9161C14.9745 39.8841 16.7588 37.8538 17.9275 38.9C19.0961 39.9463 17.8658 42.5901 19.6497 43.0212C21.4337 43.4524 21.7411 40.5602 23.4634 40.3148C25.1856 40.0693 25.5548 42.7746 27.7691 41.9755M19.0961 24.3223C20.8801 23.6457 21.6179 26.0446 22.8483 26.0446C24.0786 26.0446 25.6778 22.7226 27.0925 23.6457M19.0961 24.3223C18.6673 23.2222 17.8103 22.6746 17.4354 22.5383M27.0925 23.6457C26.5512 22.8664 24.5763 20.1484 23.6565 18.8869M27.0925 23.6457C27.5887 23.9695 27.7671 24.4294 27.824 24.9378M27.7691 41.9755C29.9834 41.1765 27.8922 38.4689 28.9378 37.3623C29.5006 36.7666 30.5448 36.8121 31.5042 36.6933M27.7691 41.9755C29.5566 43.222 33.2726 47.752 33.8367 55.9007M17.4354 22.5383C17.9275 22.5383 19.4035 22.9683 20.2648 22.5383C21.1261 22.1084 21.2489 20.1399 21.9256 19.7094C22.3827 19.4186 23.0924 19.2961 23.6565 18.8869M17.4354 22.5383C16.9433 22.5383 15.8363 23.6457 14.6059 23.0306C13.3756 22.4155 14.483 21.431 14.1138 20.5702C13.7446 19.7094 11.961 19.6473 11.6534 18.0484C11.3458 16.4494 12.6376 16.5102 13.1911 15.8339C13.7446 15.1576 12.6376 13.4965 13.1911 12.082C13.7446 10.6675 14.9138 11.8354 15.8363 10.9747C16.7587 10.1139 15.3438 8.51432 16.7587 8.14538C18.1737 7.77643 18.7269 8.76059 19.6497 8.76059C20.5726 8.76059 21.741 8.20695 22.6022 8.76059C23.4634 9.31424 23.0944 10.1747 23.4634 10.9747C23.8324 11.7746 25.1858 12.4513 25.1856 13.4354M25.1856 13.4354C25.1854 14.4195 23.8941 14.1735 23.8324 15.1576C23.7706 16.1418 24.8165 16.8793 24.3245 18.0484C24.1648 18.4276 23.9275 18.6903 23.6565 18.8869M25.1856 13.4354L25.6162 14.1735M25.6162 14.1735C26.17 12.6358 28.0765 12.9432 28.5071 11.5286C28.9378 10.1139 26.4158 9.25262 27.4615 7.77643C28.5071 6.30024 31.2135 8.32997 32.0747 7.77643C32.9359 7.22289 32.5668 4.14714 35.0272 4.14727C37.4876 4.14739 36.8725 6.30024 38.1027 6.30024C39.3329 6.30024 41.4243 3.96286 43.2081 5.13155C44.9919 6.30024 42.7775 8.08393 43.5156 8.76059C44.2537 9.43726 47.206 8.14576 47.2062 10.1139C47.2065 12.082 44.2537 12.082 44.2537 13.4354C44.2537 14.7145 45.729 15.1142 45.1197 16.2449M25.6162 14.1735C25.0624 15.7112 29.3683 15.8339 29.3683 15.8339C29.5118 17.1258 28.6299 18.8486 29.9834 19.7094C31.3368 20.5702 32.8126 18.0484 34.1661 18.0484C35.3317 18.0484 35.5845 19.9188 36.811 20.438M44.9919 16.4494C44.0785 17.7412 41.3628 16.0804 40.5631 17.0645C39.7635 18.0487 39.3329 20.5702 37.4876 20.5702C37.2315 20.5702 37.0086 20.5216 36.811 20.438M44.9919 16.4494C45.042 16.3786 45.0844 16.3105 45.1197 16.2449M44.9919 16.4494L45.1197 16.2449M45.607 15.4653C45.607 14.1735 46.8987 14.1734 47.5753 13.4354C48.2519 12.6973 47.2062 11.2819 48.2519 10.9747C49.2976 10.6675 50.343 11.4673 51.2044 11.7746C52.0658 12.082 52.5576 10.4208 53.6033 10.9747C54.649 11.5286 54.7105 12.8203 55.2026 13.8045C55.6946 14.7886 57.0479 14.4811 57.8475 15.4653C58.6471 16.4494 57.8475 17.3106 57.8475 18.3562C57.8475 19.4019 59.5085 20.2015 59.3237 21.1857C59.139 22.1699 57.5402 22.5383 57.0479 23.0306C56.5556 23.5229 57.4786 24.9378 56.4943 25.4299C55.5099 25.922 54.649 24.9378 53.6033 24.9378C52.5576 24.9378 52.0658 26.4141 51.2044 26.0446M45.607 15.4653C45.607 16.757 46.7757 17.0645 46.7757 18.0484C46.7757 19.0322 45.607 19.4019 46.2221 20.5702C46.2502 20.6237 46.2808 20.6761 46.3137 20.7276M45.607 15.4653L45.1197 16.2449M51.2044 26.0446C50.343 25.6751 49.9742 23.6457 49.2976 23.0306C48.6519 22.4437 46.9981 21.8003 46.3137 20.7276M51.2044 26.0446C50.9402 26.2332 50.4106 26.8294 50.4059 27.7052M27.824 24.9378C27.9295 25.8789 27.619 26.9864 28.1381 27.7052C28.3769 28.0358 28.8295 28.0319 29.3683 27.921M27.824 24.9378L29.3683 27.921M29.3683 27.921C30.6339 27.6606 32.3749 26.8102 32.9359 28.3203C33.7357 30.4732 29.9834 30.4732 30.9061 32.1954C31.8288 33.9176 34.1661 33.6723 33.428 35.517C33.0873 36.3687 32.3269 36.5914 31.5042 36.6933M31.5042 36.6933C32.2817 38.8125 33.9229 43.521 34.2676 45.4014M33.8367 55.9007H39.3329M33.8367 55.9007H32.1805V61.3827H34.1041M15.0263 25.6975C13.7599 25.6602 11.0486 25.8591 10.335 26.9529M26.08 3.06764C25.5866 3.77959 24.7169 5.6117 25.1856 7.24445M32.4629 21.3566C32.4629 21.521 34.1661 24.9355 34.1661 26.3204M41.5028 26.3204C41.7987 26.0446 44.3754 21.7457 46.3137 20.7276M36.811 20.438C37.2416 23.5068 38.1027 30.4716 38.1027 33.7803M38.1027 33.7803C38.9382 33.5007 39.9756 33.406 40.5631 32.6881C41.6705 31.3349 39.5175 29.0578 41.3628 27.7052C43.2081 26.3525 44.0077 28.8124 45.607 28.8124C47.2062 28.8124 47.3905 25.6751 48.9285 26.0446C49.7817 26.2495 50.1236 26.9466 50.4059 27.7052M38.1027 33.7803C37.3634 34.0277 36.7822 34.4199 36.811 35.517C36.8723 37.8538 40.0713 36.3787 39.8865 38.224C39.7018 40.0693 38.1027 41.4841 39.3329 42.4682C40.5631 43.4524 42.9005 41.4841 44.2537 42.4682C44.5824 42.7073 44.7732 43.0588 44.9046 43.4524M45.2059 1.20001C45.7984 2.12862 46.9419 4.41917 46.7757 6.15256M48.9285 7.94767C49.137 7.77643 50.5299 6.00488 52.6347 6.15256M61.665 26.4668C60.8492 26.5706 59.0006 27.0432 58.1327 28.1031M44.9046 43.4524C45.3139 44.679 45.1457 46.3135 46.7757 46.2203C48.9285 46.0973 48.744 43.8835 49.9742 43.4524C51.2044 43.0212 53.234 45.1747 54.649 44.3135C56.0639 43.4524 54.0954 40.8074 54.649 39.5157C55.2026 38.224 58.5239 39.2076 58.6471 37.3623C58.7704 35.517 55.2026 35.517 55.2026 34.2256C55.2026 32.9342 57.0479 31.1503 55.6946 29.4281C54.3414 27.7058 52.0658 30.4732 51.2044 29.4281C50.8208 28.9627 50.6326 28.3141 50.4059 27.7052M44.9046 43.4524C42.6373 45.0339 38.3488 49.7376 39.3329 55.9007M39.3329 55.9007H40.7078V61.3827H39.0138M37.4876 47.9995C37.2621 48.7165 36.811 50.425 36.811 51.5232M34.1041 61.3827C34.1329 63.9763 33.9893 69.4908 33.1854 70.8M34.1041 61.3827H35.4728M40.0187 69.6229C39.5306 67.9289 38.9851 62.3301 39.0138 61.3827M39.0138 61.3827H37.2433M35.4728 61.3827C35.6211 63.1969 35.8287 67.0922 35.4728 68.16M35.4728 61.3827H37.2433M37.2433 61.3827C37.1618 62.0846 37.0478 63.7998 37.2433 65.0456M19.3116 12.5544C18.0821 12.3495 15.746 14.0541 16.0739 16.202C16.4837 18.8869 18.3082 19.4025 20.2648 17.0645C22.2215 14.7266 20.5412 12.7593 19.3116 12.5544ZM32.2626 12.5544C32.0747 10.9747 34.7609 8.76059 36.811 8.76059C38.8611 8.76059 40.5631 10.5441 40.5631 11.7746C40.5631 13.0052 38.1027 15.1576 36.566 15.1576C35.0292 15.1576 32.4506 14.1341 32.2626 12.5544ZM51.7711 15.1576C50.4186 15.1576 49.4514 16.3905 49.6809 17.6364C49.9678 19.1938 51.8941 21.1848 53.0826 20.9562C54.2712 20.7276 54.649 19.2809 54.649 18.3562C54.649 17.4315 53.1236 15.1576 51.7711 15.1576ZM23.4634 29.03C20.6478 28.9891 19.0961 31.4891 19.0961 33.4563C19.0961 35.4236 19.5815 37.1039 22.8483 37.022C26.115 36.94 27.5085 34.9318 27.5085 32.6881C27.5085 30.4444 26.279 29.071 23.4634 29.03ZM47.5753 31.8579C45.607 31.9399 43.4513 33.3406 43.4923 36.1203C43.5333 38.9 45.853 40.3148 47.5753 40.3148C49.2976 40.3148 52.3039 37.9161 52.2629 36.1203C52.2219 34.3245 49.5436 31.776 47.5753 31.8579Z" stroke="#273210" stroke-width="0.5" stroke-linecap="round" stroke-linejoin="round"/>
</svg>
