<svg width="72" height="72" viewBox="0 0 72 72" fill="none" xmlns="http://www.w3.org/2000/svg">
<path d="M9.4295 17.4629C12.4351 30.1082 20.5355 55.6188 28.8923 56.4982C29.1416 56.5245 29.3863 56.549 29.6263 56.5718C31.5093 56.7504 33.1104 56.8238 34.4859 56.8129C34.9651 56.8091 35.4169 56.795 35.8437 56.7717C37.2146 56.6965 38.3274 56.5249 39.2612 56.2862C41.553 55.7004 42.7661 54.7102 44.0664 53.7491C46.5954 51.8798 55.7219 37.1455 56.3817 31.2077C54.2613 32.1565 51.4742 33.0514 48.2575 33.6278C47.3751 33.786 46.4603 33.9201 45.5181 34.0249C43.016 34.303 40.3204 34.3736 37.5229 34.1344C34.9531 33.9147 32.2972 33.4335 29.6263 32.6115C27.8302 32.0587 26.0273 31.3518 24.2392 30.4667C18.9929 27.8696 13.8744 23.7381 9.4295 17.4629Z" fill="#C3AFFA"/>
<path d="M29.6263 56.5718C28.5234 60.4935 25.4097 68.7908 25.4097 68.7908C28.36 70.3038 36.1331 72.422 43.6225 68.7908L39.2612 56.2862C38.3274 56.5249 37.2146 56.6965 35.8437 56.7717C35.4169 56.795 34.9651 56.8091 34.4859 56.8129C33.1104 56.8238 31.5093 56.7504 29.6263 56.5718Z" fill="#C3AFFA"/>
<path d="M12.887 21.1216C14.3514 20.8854 17.9761 19.0699 20.7597 13.6981C18.4886 15.3527 13.0429 18.2642 9.4295 16.6725C10.0902 18.1316 11.2016 19.7656 12.887 21.1216Z" fill="#C3AFFA"/>
<path d="M20.7597 13.6981C17.8495 13.104 11.9801 10.6257 11.7836 5.46542C10.3543 7.0418 9.20063 8.9671 8.74897 11.0122C11.3166 13.4474 17.826 13.8175 20.7597 13.6981Z" fill="#C3AFFA"/>
<path d="M22.9093 1.30791C21.001 1.05686 19.1395 1.30207 17.7165 1.61141C17.2111 1.72129 16.6725 1.9103 16.1194 2.1685C15.4869 7.12651 18.9494 11.9207 20.7597 13.6981C18.9691 7.34139 20.5824 1.8997 22.9093 1.30791Z" fill="#C3AFFA"/>
<path d="M28.4477 4.05029C25.885 4.40123 20.7597 6.82211 20.7597 13.6981C22.2716 11.388 26.4534 7.19235 31.0854 8.89005C30.4448 6.76503 29.5257 5.19578 28.4477 4.05029Z" fill="#C3AFFA"/>
<path d="M20.7597 13.6981C23.0594 13.5248 28.0524 14.5195 29.6263 19.8844C29.9464 19.4883 30.2429 19.0614 30.5079 18.6023C31.0341 17.6905 31.436 16.6518 31.6519 15.4757C31.6991 15.2181 31.7375 14.9539 31.7663 14.683C25.7703 10.5218 21.9302 12.2925 20.7597 13.6981Z" fill="#C3AFFA"/>
<path d="M18.3364 23.664C19.6888 23.9538 21.208 24.0824 22.9093 23.9941C23.4924 23.8667 24.1607 23.6609 24.8635 23.3681C25.3629 18.8563 22.3357 15.0415 20.7597 13.6981C22.5503 20.0548 18.79 23.2779 18.3364 23.664Z" fill="#C3AFFA"/>
<path d="M43.1575 21.1216C43.5471 20.634 43.8581 20.0727 44.0664 19.428C44.2822 18.7603 44.4165 18.1036 44.4796 17.4629C44.0664 17.4629 38.4402 18.2382 31.6519 15.4757C31.436 16.6518 31.0341 17.6905 30.5079 18.6023C33.297 20.0066 39.7316 22.4765 43.1575 21.1216Z" fill="#C3AFFA"/>
<path d="M50.3944 31.2077C47.8875 31.2077 43.6653 25.277 41.8675 22.3117C40.9764 23.1117 39.7758 24.2095 38.5712 25.3444L38.1287 28.6041L41.0047 28.9384L40.5868 32.6115L45.5181 32.1563V34.0249C46.4603 33.9201 47.3751 33.786 48.2575 33.6278L50.848 31.093C50.7445 31.1677 50.595 31.2077 50.3944 31.2077Z" fill="#C3AFFA"/>
<path d="M63.2031 19.8844C62.8319 19.428 55.4072 15.046 54.0151 9.91065C52.3217 11.4506 49.6432 13.9122 47.6242 15.8291H51.4942L51.0345 19.8844L55.7568 19.428L54.9628 25.3444L58.6024 24.3887C60.3053 22.7814 62.0466 21.0982 63.2031 19.8844Z" fill="#C3AFFA"/>
<path d="M29.6263 56.5718C29.3863 56.549 29.1416 56.5245 28.8923 56.4982C20.5355 55.6188 12.4351 30.1082 9.4295 17.4629C13.8744 23.7381 18.9929 27.8696 24.2392 30.4667M29.6263 56.5718C28.5234 60.4935 25.4097 68.7908 25.4097 68.7908C28.36 70.3038 36.1331 72.422 43.6225 68.7908L39.2612 56.2862M29.6263 56.5718C31.5093 56.7504 33.1104 56.8238 34.4859 56.8129M39.2612 56.2862C41.553 55.7004 42.7661 54.7102 44.0664 53.7491C46.5954 51.8798 55.7219 37.1455 56.3817 31.2077C54.2613 32.1565 51.4742 33.0514 48.2575 33.6278M39.2612 56.2862C38.3274 56.5249 37.2146 56.6965 35.8437 56.7717M34.4859 56.8129C32.8228 58.5927 29.9956 62.8446 31.9913 65.6134M34.4859 56.8129C34.9651 56.8091 35.4169 56.795 35.8437 56.7717M37.0409 63.2872C37.1544 62.6063 36.916 58.0859 35.8437 56.7717M24.2392 30.4667L22.9093 23.9941M24.2392 30.4667C26.0273 31.3518 27.8302 32.0587 29.6263 32.6115M22.9093 23.9941C21.208 24.0824 19.6888 23.9538 18.3364 23.664M22.9093 23.9941C23.4924 23.8667 24.1607 23.6609 24.8635 23.3681M18.3364 23.664C18.79 23.2779 22.5503 20.0548 20.7597 13.6981M18.3364 23.664C16.0781 23.1801 14.2851 22.2465 12.887 21.1216M20.7597 13.6981C18.9691 7.34139 20.5824 1.8997 22.9093 1.30791M20.7597 13.6981C20.7597 6.82211 25.885 4.40123 28.4477 4.05029M20.7597 13.6981C17.9761 19.0699 14.3514 20.8854 12.887 21.1216M20.7597 13.6981C22.3357 15.0415 25.3629 18.8563 24.8635 23.3681M20.7597 13.6981C23.0594 13.5248 28.0524 14.5195 29.6263 19.8844M20.7597 13.6981C22.2716 11.388 26.4534 7.19235 31.0854 8.89005M20.7597 13.6981C21.9302 12.2925 25.7703 10.5218 31.7663 14.683M20.7597 13.6981C18.9494 11.9207 15.4869 7.12651 16.1194 2.1685M20.7597 13.6981C17.8495 13.104 11.9801 10.6257 11.7836 5.46542M20.7597 13.6981C17.826 13.8175 11.3166 13.4474 8.74897 11.0122M20.7597 13.6981C18.4886 15.3527 13.0429 18.2642 9.4295 16.6725M22.9093 1.30791C21.001 1.05686 19.1395 1.30207 17.7165 1.61141C17.2111 1.72129 16.6725 1.9103 16.1194 2.1685M22.9093 1.30791C24.8434 1.56234 26.8254 2.32652 28.4477 4.05029M28.4477 4.05029C29.5257 5.19578 30.4448 6.76503 31.0854 8.89005M12.887 21.1216C11.2016 19.7656 10.0902 18.1316 9.4295 16.6725M24.8635 23.3681C26.3757 22.738 28.0477 21.7052 29.3744 20.1844M29.6263 19.8844C29.5439 19.9864 29.4599 20.0864 29.3744 20.1844M29.6263 19.8844C29.9464 19.4883 30.2429 19.0614 30.5079 18.6023M31.0854 8.89005C31.2823 9.54358 31.453 10.2497 31.5938 11.0122C31.8414 12.3531 31.8841 13.5741 31.7663 14.683M31.0854 8.89005C31.9913 7.87857 34.4859 6.98327 38.1287 7.87857C41.347 8.66955 44.9584 12.6052 44.4796 17.4629M31.7663 14.683C31.7375 14.9539 31.6991 15.2181 31.6519 15.4757M16.1194 2.1685C14.663 2.84827 13.1054 4.00765 11.7836 5.46542M11.7836 5.46542C10.3543 7.0418 9.20063 8.9671 8.74897 11.0122M8.74897 11.0122C8.48442 12.21 8.4607 13.449 8.76345 14.683C8.88429 15.2659 9.10127 15.9476 9.4295 16.6725M29.6263 32.6115L32.7568 23.9941M29.6263 32.6115C32.2972 33.4335 34.9531 33.9147 37.5229 34.1344M32.7568 23.9941C30.5186 23.3681 29.3668 21.0034 29.3744 20.1844M32.7568 23.9941C35.0483 24.2761 39.201 24.1576 41.8675 22.3117M30.5079 18.6023C33.297 20.0066 39.7316 22.4765 43.1575 21.1216M30.5079 18.6023C31.0341 17.6905 31.436 16.6518 31.6519 15.4757M43.1575 21.1216C43.5471 20.634 43.8581 20.0727 44.0664 19.428C44.2822 18.7603 44.4165 18.1036 44.4796 17.4629M43.1575 21.1216C42.7904 21.5811 42.3537 21.9751 41.8675 22.3117M44.4796 17.4629C44.0664 17.4629 38.4402 18.2382 31.6519 15.4757M37.5229 34.1344C36.173 33.2787 33.5268 31.3472 33.7417 30.4667C33.8834 29.8857 36.2351 27.5451 38.5712 25.3444M37.5229 34.1344C40.3204 34.3736 43.016 34.303 45.5181 34.0249M41.8675 22.3117C43.6653 25.277 47.8875 31.2077 50.3944 31.2077C50.595 31.2077 50.7445 31.1677 50.848 31.093M41.8675 22.3117C40.9764 23.1117 39.7758 24.2095 38.5712 25.3444M41.8675 22.3117C44.0488 21.4969 52.3623 30.001 50.848 31.093M46.6214 26.7708L49.0963 24.3887M49.0963 24.3887C47.6113 22.6657 44.691 19.0961 44.889 18.6023C44.9737 18.391 46.1146 17.2623 47.6242 15.8291M49.0963 24.3887C49.517 25.2053 52.7158 27.4101 54.2626 28.4104C55.2682 27.4972 56.9164 25.9802 58.6024 24.3887M54.0151 9.91065C57.779 11.7338 64.8861 16.2809 63.2031 19.8844M54.0151 9.91065C55.4072 15.046 62.8319 19.428 63.2031 19.8844M54.0151 9.91065C52.3217 11.4506 49.6432 13.9122 47.6242 15.8291M63.2031 19.8844C62.0466 21.0982 60.3053 22.7814 58.6024 24.3887M58.5627 14.683L61.1614 12.1381M47.6242 15.8291H51.4942L51.0345 19.8844L55.7568 19.428L54.9628 25.3444L58.6024 24.3887M38.5712 25.3444L38.1287 28.6041L41.0047 28.9384L40.5868 32.6115L45.5181 32.1563V34.0249M45.5181 34.0249C46.4603 33.9201 47.3751 33.786 48.2575 33.6278M50.848 31.093L48.2575 33.6278" stroke="#273210" stroke-width="0.5" stroke-linecap="round" stroke-linejoin="round"/>
<path d="M18.3364 23.664C18.79 23.2779 22.5503 20.0548 20.7597 13.6981C17.9761 19.0699 14.3514 20.8854 12.887 21.1216C14.2851 22.2465 16.0781 23.1801 18.3364 23.664Z" fill="#DBC241"/>
<path d="M8.74897 11.0122C8.48442 12.21 8.4607 13.449 8.76345 14.683C8.88429 15.2659 9.10127 15.9476 9.4295 16.6725C13.0429 18.2642 18.4886 15.3527 20.7597 13.6981C17.826 13.8175 11.3166 13.4474 8.74897 11.0122Z" fill="#DBC241"/>
<path d="M20.7597 13.6981C18.9494 11.9207 15.4869 7.12651 16.1194 2.1685C14.663 2.84827 13.1054 4.00765 11.7836 5.46542C11.9801 10.6257 17.8495 13.104 20.7597 13.6981Z" fill="#DBC241"/>
<path d="M22.9093 1.30791C20.5824 1.8997 18.9691 7.34139 20.7597 13.6981C20.7597 6.82211 25.885 4.40123 28.4477 4.05029C26.8254 2.32652 24.8434 1.56234 22.9093 1.30791Z" fill="#DBC241"/>
<path d="M31.5938 11.0122C31.453 10.2497 31.2823 9.54358 31.0854 8.89005C26.4534 7.19235 22.2716 11.388 20.7597 13.6981C21.9302 12.2925 25.7703 10.5218 31.7663 14.683C31.8841 13.5741 31.8414 12.3531 31.5938 11.0122Z" fill="#DBC241"/>
<path d="M20.7597 13.6981C22.3357 15.0415 25.3629 18.8563 24.8635 23.3681C26.3757 22.738 28.0477 21.7052 29.3744 20.1844C29.4599 20.0864 29.5439 19.9864 29.6263 19.8844C28.0524 14.5195 23.0594 13.5248 20.7597 13.6981Z" fill="#DBC241"/>
<path d="M31.0854 8.89005C31.2823 9.54358 31.453 10.2497 31.5938 11.0122C31.8414 12.3531 31.8841 13.5741 31.7663 14.683C31.7375 14.9539 31.6991 15.2181 31.6519 15.4757C38.4402 18.2382 44.0664 17.4629 44.4796 17.4629C44.9584 12.6052 41.347 8.66955 38.1287 7.87857C34.4859 6.98327 31.9913 7.87857 31.0854 8.89005Z" fill="#DBC241"/>
<path d="M29.6263 19.8844C29.5439 19.9864 29.4599 20.0864 29.3744 20.1844C29.3668 21.0034 30.5186 23.3681 32.7568 23.9941C35.0483 24.2761 39.201 24.1576 41.8675 22.3117C42.3537 21.9751 42.7904 21.5811 43.1575 21.1216C39.7316 22.4765 33.297 20.0066 30.5079 18.6023C30.2429 19.0614 29.9464 19.4883 29.6263 19.8844Z" fill="#DBC241"/>
<path d="M33.7417 30.4667C33.5268 31.3472 36.173 33.2787 37.5229 34.1344C40.3204 34.3736 43.016 34.303 45.5181 34.0249V32.1563L40.5868 32.6115L41.0047 28.9384L38.1287 28.6041L38.5712 25.3444C36.2351 27.5451 33.8834 29.8857 33.7417 30.4667Z" fill="#DBC241"/>
<path d="M44.889 18.6023C44.691 19.0961 47.6113 22.6657 49.0963 24.3887C49.517 25.2053 52.7158 27.4101 54.2626 28.4104C55.2682 27.4972 56.9164 25.9802 58.6024 24.3887L54.9628 25.3444L55.7568 19.428L51.0345 19.8844L51.4942 15.8291H47.6242C46.1146 17.2623 44.9737 18.391 44.889 18.6023Z" fill="#DBC241"/>
<path d="M59.7762 13.4945C57.8828 11.9895 55.6381 10.6968 54.0151 9.91065C55.4072 15.046 62.8319 19.428 63.2031 19.8844C64.1604 17.8348 62.2738 15.4799 59.7762 13.4945Z" fill="#DBC241"/>
<path d="M41.8675 22.3117C43.6653 25.277 47.8875 31.2077 50.3944 31.2077C50.595 31.2077 50.7445 31.1677 50.848 31.093C51.6228 30.5343 49.8248 28.0353 47.5918 25.8368C45.4605 23.7384 42.9327 21.9138 41.8675 22.3117Z" fill="#DBC241"/>
<path d="M9.4295 17.4629C13.8744 23.7381 18.9929 27.8696 24.2392 30.4667M56.3817 31.2077C54.2613 32.1565 51.4742 33.0514 48.2575 33.6278M24.2392 30.4667L22.9093 23.9941M24.2392 30.4667C26.0273 31.3518 27.8302 32.0587 29.6263 32.6115M22.9093 23.9941C21.208 24.0824 19.6888 23.9538 18.3364 23.664M22.9093 23.9941C23.4924 23.8667 24.1607 23.6609 24.8635 23.3681M18.3364 23.664C18.79 23.2779 22.5503 20.0548 20.7597 13.6981M18.3364 23.664C16.0781 23.1801 14.2851 22.2465 12.887 21.1216M20.7597 13.6981C18.9691 7.34139 20.5824 1.8997 22.9093 1.30791M20.7597 13.6981C20.7597 6.82211 25.885 4.40123 28.4477 4.05029M20.7597 13.6981C17.9761 19.0699 14.3514 20.8854 12.887 21.1216M20.7597 13.6981C22.3357 15.0415 25.3629 18.8563 24.8635 23.3681M20.7597 13.6981C23.0594 13.5248 28.0524 14.5195 29.6263 19.8844M20.7597 13.6981C22.2716 11.388 26.4534 7.19235 31.0854 8.89005M20.7597 13.6981C21.9302 12.2925 25.7703 10.5218 31.7663 14.683M20.7597 13.6981C18.9494 11.9207 15.4869 7.12651 16.1194 2.1685M20.7597 13.6981C17.8495 13.104 11.9801 10.6257 11.7836 5.46542M20.7597 13.6981C17.826 13.8175 11.3166 13.4474 8.74897 11.0122M20.7597 13.6981C18.4886 15.3527 13.0429 18.2642 9.4295 16.6725M22.9093 1.30791C21.001 1.05686 19.1395 1.30207 17.7165 1.61141C17.2111 1.72129 16.6725 1.9103 16.1194 2.1685M22.9093 1.30791C24.8434 1.56234 26.8254 2.32652 28.4477 4.05029M28.4477 4.05029C29.5257 5.19578 30.4448 6.76503 31.0854 8.89005M12.887 21.1216C11.2016 19.7656 10.0902 18.1316 9.4295 16.6725M24.8635 23.3681C26.3757 22.738 28.0477 21.7052 29.3744 20.1844M29.6263 19.8844C29.5439 19.9864 29.4599 20.0864 29.3744 20.1844M29.6263 19.8844C29.9464 19.4883 30.2429 19.0614 30.5079 18.6023M31.0854 8.89005C31.2823 9.54358 31.453 10.2497 31.5938 11.0122C31.8414 12.3531 31.8841 13.5741 31.7663 14.683M31.0854 8.89005C31.9913 7.87857 34.4859 6.98327 38.1287 7.87857C41.347 8.66955 44.9584 12.6052 44.4796 17.4629M31.7663 14.683C31.7375 14.9539 31.6991 15.2181 31.6519 15.4757M16.1194 2.1685C14.663 2.84827 13.1054 4.00765 11.7836 5.46542M11.7836 5.46542C10.3543 7.0418 9.20063 8.9671 8.74897 11.0122M8.74897 11.0122C8.48442 12.21 8.4607 13.449 8.76345 14.683C8.88429 15.2659 9.10127 15.9476 9.4295 16.6725M29.6263 32.6115L32.7568 23.9941M29.6263 32.6115C32.2972 33.4335 34.9531 33.9147 37.5229 34.1344M32.7568 23.9941C30.5186 23.3681 29.3668 21.0034 29.3744 20.1844M32.7568 23.9941C35.0483 24.2761 39.201 24.1576 41.8675 22.3117M30.5079 18.6023C33.297 20.0066 39.7316 22.4765 43.1575 21.1216M30.5079 18.6023C31.0341 17.6905 31.436 16.6518 31.6519 15.4757M43.1575 21.1216C43.5471 20.634 43.8581 20.0727 44.0664 19.428C44.2822 18.7603 44.4165 18.1036 44.4796 17.4629M43.1575 21.1216C42.7904 21.5811 42.3537 21.9751 41.8675 22.3117M44.4796 17.4629C44.0664 17.4629 38.4402 18.2382 31.6519 15.4757M37.5229 34.1344C36.173 33.2787 33.5268 31.3472 33.7417 30.4667C33.8834 29.8857 36.2351 27.5451 38.5712 25.3444M37.5229 34.1344C40.3204 34.3736 43.016 34.303 45.5181 34.0249M41.8675 22.3117C43.6653 25.277 47.8875 31.2077 50.3944 31.2077C50.595 31.2077 50.7445 31.1677 50.848 31.093M41.8675 22.3117C40.9764 23.1117 39.7758 24.2095 38.5712 25.3444M41.8675 22.3117C42.9327 21.9138 45.4605 23.7384 47.5918 25.8368M46.6214 26.7708L47.5918 25.8368M49.0963 24.3887C47.6113 22.6657 44.691 19.0961 44.889 18.6023C44.9737 18.391 46.1146 17.2623 47.6242 15.8291M49.0963 24.3887C49.517 25.2053 52.7158 27.4101 54.2626 28.4104C55.2682 27.4972 56.9164 25.9802 58.6024 24.3887M49.0963 24.3887L47.5918 25.8368M54.0151 9.91065C55.4072 15.046 62.8319 19.428 63.2031 19.8844M54.0151 9.91065C52.3217 11.4506 49.6432 13.9122 47.6242 15.8291M54.0151 9.91065C55.6381 10.6968 57.8828 11.9895 59.7762 13.4945M63.2031 19.8844C62.0466 21.0982 60.3053 22.7814 58.6024 24.3887M63.2031 19.8844C64.1604 17.8348 62.2738 15.4799 59.7762 13.4945M58.5627 14.683L59.7762 13.4945M61.1614 12.1381L59.7762 13.4945M47.6242 15.8291H51.4942L51.0345 19.8844L55.7568 19.428L54.9628 25.3444L58.6024 24.3887M38.5712 25.3444L38.1287 28.6041L41.0047 28.9384L40.5868 32.6115L45.5181 32.1563V34.0249M45.5181 34.0249C46.4603 33.9201 47.3751 33.786 48.2575 33.6278M50.848 31.093L48.2575 33.6278M50.848 31.093C51.6228 30.5343 49.8248 28.0353 47.5918 25.8368" stroke="#273210" stroke-width="0.5" stroke-linecap="round" stroke-linejoin="round"/>
<path d="M43.1575 21.1216C43.5471 20.634 43.8581 20.0727 44.0664 19.428C44.2822 18.7603 44.4165 18.1036 44.4796 17.4629C44.0664 17.4629 38.4402 18.2382 31.6519 15.4757C31.436 16.6518 31.0341 17.6905 30.5079 18.6023C33.297 20.0066 39.7316 22.4765 43.1575 21.1216Z" fill="#82A44B"/>
<path d="M63.2031 19.8844C62.8319 19.428 55.4072 15.046 54.0151 9.91065C52.3217 11.4506 49.6432 13.9122 47.6242 15.8291H51.4942L51.0345 19.8844L55.7568 19.428L54.9628 25.3444L58.6024 24.3887C60.3053 22.7814 62.0466 21.0982 63.2031 19.8844Z" fill="#82A44B"/>
<path d="M50.3944 31.2077C47.8875 31.2077 43.6653 25.277 41.8675 22.3117C40.9764 23.1117 39.7758 24.2095 38.5712 25.3444L38.1287 28.6041L41.0047 28.9384L40.5868 32.6115L45.5181 32.1563V34.0249C46.4603 33.9201 47.3751 33.786 48.2575 33.6278L50.848 31.093C50.7445 31.1677 50.595 31.2077 50.3944 31.2077Z" fill="#82A44B"/>
<path d="M20.7597 13.6981C23.0594 13.5248 28.0524 14.5195 29.6263 19.8844C29.9464 19.4883 30.2429 19.0614 30.5079 18.6023C31.0341 17.6905 31.436 16.6518 31.6519 15.4757C31.6991 15.2181 31.7375 14.9539 31.7663 14.683C25.7703 10.5218 21.9302 12.2925 20.7597 13.6981Z" fill="#82A44B"/>
<path d="M28.4477 4.05029C25.885 4.40123 20.7597 6.82211 20.7597 13.6981C22.2716 11.388 26.4534 7.19235 31.0854 8.89005C30.4448 6.76503 29.5257 5.19578 28.4477 4.05029Z" fill="#82A44B"/>
<path d="M22.9093 1.30791C21.001 1.05686 19.1395 1.30207 17.7165 1.61141C17.2111 1.72129 16.6725 1.9103 16.1194 2.1685C15.4869 7.12651 18.9494 11.9207 20.7597 13.6981C18.9691 7.34139 20.5824 1.8997 22.9093 1.30791Z" fill="#82A44B"/>
<path d="M20.7597 13.6981C17.8495 13.104 11.9801 10.6257 11.7836 5.46542C10.3543 7.0418 9.20063 8.9671 8.74897 11.0122C11.3166 13.4474 17.826 13.8175 20.7597 13.6981Z" fill="#82A44B"/>
<path d="M12.887 21.1216C14.3514 20.8854 17.9761 19.0699 20.7597 13.6981C18.4886 15.3527 13.0429 18.2642 9.4295 16.6725C10.0902 18.1316 11.2016 19.7656 12.887 21.1216Z" fill="#82A44B"/>
<path d="M18.3364 23.664C19.6888 23.9538 21.208 24.0824 22.9093 23.9941C23.4924 23.8667 24.1607 23.6609 24.8635 23.3681C25.3629 18.8563 22.3357 15.0415 20.7597 13.6981C22.5503 20.0548 18.79 23.2779 18.3364 23.664Z" fill="#82A44B"/>
<path d="M9.4295 17.4629C13.8744 23.7381 18.9929 27.8696 24.2392 30.4667M56.3817 31.2077C54.2613 32.1565 51.4742 33.0514 48.2575 33.6278M24.2392 30.4667L22.9093 23.9941M24.2392 30.4667C26.0273 31.3518 27.8302 32.0587 29.6263 32.6115M22.9093 23.9941C21.208 24.0824 19.6888 23.9538 18.3364 23.664M22.9093 23.9941C23.4924 23.8667 24.1607 23.6609 24.8635 23.3681M18.3364 23.664C18.79 23.2779 22.5503 20.0548 20.7597 13.6981M18.3364 23.664C16.0781 23.1801 14.2851 22.2465 12.887 21.1216M20.7597 13.6981C18.9691 7.34139 20.5824 1.8997 22.9093 1.30791M20.7597 13.6981C20.7597 6.82211 25.885 4.40123 28.4477 4.05029M20.7597 13.6981C17.9761 19.0699 14.3514 20.8854 12.887 21.1216M20.7597 13.6981C22.3357 15.0415 25.3629 18.8563 24.8635 23.3681M20.7597 13.6981C23.0594 13.5248 28.0524 14.5195 29.6263 19.8844M20.7597 13.6981C22.2716 11.388 26.4534 7.19235 31.0854 8.89005M20.7597 13.6981C21.9302 12.2925 25.7703 10.5218 31.7663 14.683M20.7597 13.6981C18.9494 11.9207 15.4869 7.12651 16.1194 2.1685M20.7597 13.6981C17.8495 13.104 11.9801 10.6257 11.7836 5.46542M20.7597 13.6981C17.826 13.8175 11.3166 13.4474 8.74897 11.0122M20.7597 13.6981C18.4886 15.3527 13.0429 18.2642 9.4295 16.6725M22.9093 1.30791C21.001 1.05686 19.1395 1.30207 17.7165 1.61141C17.2111 1.72129 16.6725 1.9103 16.1194 2.1685M22.9093 1.30791C24.8434 1.56234 26.8254 2.32652 28.4477 4.05029M28.4477 4.05029C29.5257 5.19578 30.4448 6.76503 31.0854 8.89005M12.887 21.1216C11.2016 19.7656 10.0902 18.1316 9.4295 16.6725M24.8635 23.3681C26.3757 22.738 28.0477 21.7052 29.3744 20.1844M29.6263 19.8844C29.5439 19.9864 29.4599 20.0864 29.3744 20.1844M29.6263 19.8844C29.9464 19.4883 30.2429 19.0614 30.5079 18.6023M31.0854 8.89005C31.2823 9.54358 31.453 10.2497 31.5938 11.0122C31.8414 12.3531 31.8841 13.5741 31.7663 14.683M31.0854 8.89005C31.9913 7.87857 34.4859 6.98327 38.1287 7.87857C41.347 8.66955 44.9584 12.6052 44.4796 17.4629M31.7663 14.683C31.7375 14.9539 31.6991 15.2181 31.6519 15.4757M16.1194 2.1685C14.663 2.84827 13.1054 4.00765 11.7836 5.46542M11.7836 5.46542C10.3543 7.0418 9.20063 8.9671 8.74897 11.0122M8.74897 11.0122C8.48442 12.21 8.4607 13.449 8.76345 14.683C8.88429 15.2659 9.10127 15.9476 9.4295 16.6725M29.6263 32.6115L32.7568 23.9941M29.6263 32.6115C32.2972 33.4335 34.9531 33.9147 37.5229 34.1344M32.7568 23.9941C30.5186 23.3681 29.3668 21.0034 29.3744 20.1844M32.7568 23.9941C35.0483 24.2761 39.201 24.1576 41.8675 22.3117M30.5079 18.6023C33.297 20.0066 39.7316 22.4765 43.1575 21.1216M30.5079 18.6023C31.0341 17.6905 31.436 16.6518 31.6519 15.4757M43.1575 21.1216C43.5471 20.634 43.8581 20.0727 44.0664 19.428C44.2822 18.7603 44.4165 18.1036 44.4796 17.4629M43.1575 21.1216C42.7904 21.5811 42.3537 21.9751 41.8675 22.3117M44.4796 17.4629C44.0664 17.4629 38.4402 18.2382 31.6519 15.4757M37.5229 34.1344C36.173 33.2787 33.5268 31.3472 33.7417 30.4667C33.8834 29.8857 36.2351 27.5451 38.5712 25.3444M37.5229 34.1344C40.3204 34.3736 43.016 34.303 45.5181 34.0249M41.8675 22.3117C43.6653 25.277 47.8875 31.2077 50.3944 31.2077C50.595 31.2077 50.7445 31.1677 50.848 31.093M41.8675 22.3117C40.9764 23.1117 39.7758 24.2095 38.5712 25.3444M41.8675 22.3117C42.9327 21.9138 45.4605 23.7384 47.5918 25.8368M46.6214 26.7708L47.5918 25.8368M49.0963 24.3887C47.6113 22.6657 44.691 19.0961 44.889 18.6023C44.9737 18.391 46.1146 17.2623 47.6242 15.8291M49.0963 24.3887C49.517 25.2053 52.7158 27.4101 54.2626 28.4104C55.2682 27.4972 56.9164 25.9802 58.6024 24.3887M49.0963 24.3887L47.5918 25.8368M54.0151 9.91065C55.4072 15.046 62.8319 19.428 63.2031 19.8844M54.0151 9.91065C52.3217 11.4506 49.6432 13.9122 47.6242 15.8291M54.0151 9.91065C55.6381 10.6968 57.8828 11.9895 59.7762 13.4945M63.2031 19.8844C62.0466 21.0982 60.3053 22.7814 58.6024 24.3887M63.2031 19.8844C64.1604 17.8348 62.2738 15.4799 59.7762 13.4945M58.5627 14.683L59.7762 13.4945M61.1614 12.1381L59.7762 13.4945M47.6242 15.8291H51.4942L51.0345 19.8844L55.7568 19.428L54.9628 25.3444L58.6024 24.3887M38.5712 25.3444L38.1287 28.6041L41.0047 28.9384L40.5868 32.6115L45.5181 32.1563V34.0249M45.5181 34.0249C46.4603 33.9201 47.3751 33.786 48.2575 33.6278M50.848 31.093L48.2575 33.6278M50.848 31.093C51.6228 30.5343 49.8248 28.0353 47.5918 25.8368" stroke="#273210" stroke-width="0.5" stroke-linecap="round" stroke-linejoin="round"/>
</svg>
