<svg width="72" height="72" viewBox="0 0 72 72" fill="none" xmlns="http://www.w3.org/2000/svg">
<path d="M16.9398 35.1064C18.8209 41.1196 33.8531 52.1102 41.6157 57.1328C40.2142 50.9454 47.8917 46.3322 44.535 41.5163C33.2377 41.8898 25.8882 40.3936 21.2476 38.1117C19.4144 37.2103 18.0039 36.1862 16.9398 35.1064Z" fill="#C3AFFA"/>
<path d="M56.9402 32.7595C54.6051 35.6784 48.855 41.5163 44.535 41.5163C47.8917 46.3322 40.2142 50.9454 41.6157 57.1328C44.042 58.7026 45.7581 59.6894 46.1404 59.7589C46.5758 59.8381 47.2259 59.8958 48.0092 59.8505C50.114 59.7288 53.1804 58.8634 55.6267 55.6725C58.3121 52.1699 57.6213 38.9378 56.9402 32.7595Z" fill="#C3AFFA"/>
<path d="M63.7995 63.1156C63.566 60.8973 58.2537 57.2293 55.6267 55.6725C53.1804 58.8634 50.114 59.7288 48.0092 59.8505C47.9214 62.4469 48.0377 68.1944 49.2052 70.4128C56.7948 72.456 64.0914 65.8886 63.7995 63.1156Z" fill="#C3AFFA"/>
<path d="M34.9815 19.343C37.0784 19.7975 41.1465 21.4917 40.6435 24.6324C40.0149 28.5582 37.7702 29.9709 35.419 29.7411C33.0678 29.5113 29.6742 27.1069 29.7316 24.6324C30.0449 22.8692 31.5335 19.343 34.9815 19.343Z" fill="#C3AFFA"/>
<path d="M44.535 41.5163C48.855 41.5163 54.6051 35.6784 56.9402 32.7595C57.6213 38.9378 58.3121 52.1699 55.6267 55.6725M44.535 41.5163C47.8917 46.3322 40.2142 50.9454 41.6157 57.1328M44.535 41.5163C33.2377 41.8898 25.8882 40.3936 21.2476 38.1117C19.4144 37.2103 18.0039 36.1862 16.9398 35.1064C18.8209 41.1196 33.8531 52.1102 41.6157 57.1328M55.6267 55.6725C58.2537 57.2293 63.566 60.8973 63.7995 63.1156C64.0914 65.8886 56.7948 72.456 49.2052 70.4128C48.0377 68.1944 47.9214 62.4469 48.0092 59.8505M55.6267 55.6725C53.1804 58.8634 50.114 59.7288 48.0092 59.8505M41.6157 57.1328C44.042 58.7026 45.7581 59.6894 46.1404 59.7589C46.5758 59.8381 47.2259 59.8958 48.0092 59.8505M34.9815 19.343C37.0784 19.7975 41.1465 21.4917 40.6435 24.6324C40.0149 28.5582 37.7702 29.9709 35.419 29.7411C33.0678 29.5113 29.6742 27.1069 29.7316 24.6324C30.0449 22.8692 31.5335 19.343 34.9815 19.343Z" stroke="#273210" stroke-width="0.5" stroke-linecap="round" stroke-linejoin="round"/>
<path fill-rule="evenodd" clip-rule="evenodd" d="M24.0797 20.6145C23.7417 21.6005 23.167 23.6907 23.5727 24.164C23.9783 24.6372 23.1783 25.4315 22.7276 25.7695C22.8403 26.2484 23.167 27.3246 23.5727 27.7978C24.0797 28.3894 23.9107 30.2486 24.5868 30.5866C25.2628 30.9246 26.784 29.7273 28.1361 30.5866C29.4882 31.446 27.7136 34.5561 29.0657 35.1066C30.4178 35.6571 31.0094 34.3026 31.4319 35.1066C31.8545 35.9106 31.5164 37.1783 32.615 37.2628C33.7137 37.3473 34.1362 36.5022 34.9813 36.5022H37.263C38.1081 36.5022 38.3616 33.6289 39.2912 33.4599C40.2208 33.2909 41.2349 34.305 42.418 33.8824C43.6011 33.4599 43.3435 32.6005 43.9391 32.0233C44.5348 31.446 45.3835 32.3053 46.1402 31.446C46.3534 31.3685 45.2145 29.319 46.1402 28.5584C47.066 27.7978 48.1607 25.7695 47.1505 25.7695C46.1402 25.7695 44.5348 23.4879 44.5348 23.0654C44.5348 22.6428 46.1402 21.4599 46.1402 20.1076C46.1402 19.0257 45.07 18.4737 44.5348 18.3329C44.4771 17.516 44.2772 15.7977 43.9391 15.4596C43.5166 15.0371 41.4039 14.361 40.6433 14.2765C39.8828 14.192 38.8687 15.4596 37.77 15.4596C36.6714 15.4596 36.7559 13.2624 34.9813 13.0934C33.2066 12.9244 33.7982 14.2765 32.615 14.2765C31.4319 14.2765 32.108 11.9103 30.5869 13.0934C29.0657 14.2765 29.9953 14.6512 29.0657 15.4596C28.1361 16.2681 27.122 15.2063 26.6995 16.9808C26.2769 18.7553 27.2065 19.6007 26.6995 20.1076C26.2938 20.5131 24.784 20.6145 24.0797 20.6145ZM40.6433 24.6326C41.1463 21.4919 37.0782 19.7977 34.9813 19.3431C31.5333 19.3431 30.0448 22.8694 29.7314 24.6326C29.674 27.107 33.0676 29.5115 35.4188 29.7413C37.77 29.9711 40.0147 28.5584 40.6433 24.6326Z" fill="#DBC241"/>
<path d="M19.9936 14.2765C20.1543 13.6597 21.2474 10.8469 21.2474 9.88195C21.2474 8.91704 17.2608 8.43557 17.9038 7.39028C18.5468 6.34499 21.2796 7.3715 21.8422 6.34499C22.4049 5.31848 21.3755 2.80881 22.7276 2.64806C24.0797 2.48731 24.9769 5.54123 25.6199 5.94311C26.2629 6.34499 28.4123 5.2997 29.0657 6.34499C29.7191 7.39028 26.6995 8.67631 26.6995 9.88195C26.6995 11.0876 28.72 13.2035 27.7097 13.74C26.6995 14.2765 24.5868 12.1321 24.0797 12.1321C23.5727 12.1321 21.2796 14.813 19.9936 14.2765Z" fill="#DBC241"/>
<path d="M34.4613 8.91704C34.6543 10.6532 34.8883 12.4247 34.9813 13.0934C36.1476 12.8394 37.263 10.605 37.77 10.605C38.2771 10.605 40.6433 13.0934 41.2934 12.1321C41.9434 11.1708 40.6433 9.39969 40.6433 8.27403C40.6433 7.14837 43.9391 6.34499 43.5439 5.31848C43.1487 4.29197 40.6433 4.49633 39.2912 4.49633C37.9391 4.49633 37.77 1.12071 37.263 1.20109C36.756 1.28147 35.9885 4.01407 34.9813 4.49633C33.9741 4.97859 32.05 4.73746 31.4319 5.94311C30.8138 7.14876 34.2202 6.74688 34.4613 8.91704Z" fill="#DBC241"/>
<path d="M47.1505 12.1321C47.1505 12.4536 45.0096 14.4844 43.9391 15.4596C45.1159 16.0544 47.6431 15.4596 48.5273 14.8649C49.4114 14.2702 50.1348 17.9192 51.6619 18.3329C53.1891 18.7466 52.5461 15.4596 53.3499 14.8649C54.1536 14.2702 56.94 13.6593 56.94 13.0934C56.94 12.5276 53.5106 11.3283 53.3499 10.605C53.1891 9.88156 53.5106 7.14876 52.5461 6.34499C51.5816 5.54123 50.5367 8.67591 49.6525 8.91704C48.7684 9.15817 47.1505 7.79177 45.7141 8.27403C44.2777 8.75629 47.1505 11.7302 47.1505 12.1321Z" fill="#DBC241"/>
<path d="M14.4706 26.1923C13.6962 28.6233 13.9605 32.0835 16.9396 35.1066C18.0037 36.1864 19.4142 37.2105 21.2474 38.1119C19.9545 34.6459 16.7891 27.4095 14.4706 26.1923Z" fill="#DBC241"/>
<path d="M15.3423 20.6145C18.2403 21.7472 21.1204 23.4226 22.7276 25.7695C23.1783 25.4315 23.9783 24.6372 23.5727 24.164C23.167 23.6907 23.7417 21.6005 24.0797 20.6145C20.2261 19.0594 16.068 9.76921 14.4706 5.31848C12.0016 11.2341 15.3754 20.0229 15.3423 20.6145Z" fill="#DBC241"/>
<path d="M14.4706 26.1923C13.6962 28.6233 13.9605 32.0835 16.9396 35.1066C18.0037 36.1864 19.4142 37.2105 21.2474 38.1119C19.9545 34.6459 16.7891 27.4095 14.4706 26.1923ZM14.4706 26.1923L8.19226 18.7553C9.90732 18.9707 12.6327 19.5554 15.3423 20.6145M56.94 32.7597C59.6643 29.8408 64.529 22.4561 62.1939 16.2681C61.2013 17.6743 59.4583 21.1868 56.2741 24.6326M46.1402 31.446C45.3835 32.3053 44.5348 31.446 43.9391 32.0233C43.3435 32.6005 43.6011 33.4599 42.418 33.8824C41.2349 34.305 40.2208 33.2909 39.2912 33.4599C38.3616 33.6289 38.1081 36.5022 37.263 36.5022M46.1402 31.446C46.3534 31.3685 45.2145 29.319 46.1402 28.5584C47.066 27.7978 48.1607 25.7695 47.1505 25.7695M46.1402 31.446C50.5655 29.8603 53.8407 27.2659 56.2741 24.6326M22.7276 25.7695C21.1204 23.4226 18.2403 21.7472 15.3423 20.6145M22.7276 25.7695C23.1783 25.4315 23.9783 24.6372 23.5727 24.164C23.167 23.6907 23.7417 21.6005 24.0797 20.6145M22.7276 25.7695C22.8403 26.2484 23.167 27.3246 23.5727 27.7978C24.0797 28.3894 23.9107 30.2486 24.5868 30.5866C25.2628 30.9246 26.784 29.7273 28.1361 30.5866C29.4882 31.446 27.7136 34.5561 29.0657 35.1066C30.4178 35.6571 31.0094 34.3026 31.4319 35.1066C31.8545 35.9106 31.5164 37.1783 32.615 37.2628C33.7137 37.3473 34.1362 36.5022 34.9813 36.5022M15.3423 20.6145C15.3754 20.0229 12.0016 11.2341 14.4706 5.31848C16.068 9.76921 20.2261 19.0594 24.0797 20.6145M24.0797 20.6145C24.784 20.6145 26.2938 20.5131 26.6995 20.1076C27.2065 19.6007 26.2769 18.7553 26.6995 16.9808C27.122 15.2063 28.1361 16.2681 29.0657 15.4596C29.9953 14.6512 29.0657 14.2765 30.5869 13.0934C32.108 11.9103 31.4319 14.2765 32.615 14.2765C33.7982 14.2765 33.2066 12.9244 34.9813 13.0934M34.9813 36.5022C35.8264 36.5022 36.4179 36.5022 37.263 36.5022M34.9813 36.5022H37.263M47.1505 25.7695C46.1402 25.7695 44.5348 23.4879 44.5348 23.0654C44.5348 22.6428 46.1402 21.4599 46.1402 20.1076C46.1402 19.0257 45.07 18.4737 44.5348 18.3329C44.4771 17.516 44.2772 15.7977 43.9391 15.4596M47.1505 25.7695C49.6128 23.6606 54.6015 18.8079 54.8569 16.2681C55.1123 13.7284 55.9081 20.7862 56.2741 24.6326M43.9391 15.4596C43.5166 15.0371 41.4039 14.361 40.6433 14.2765C39.8828 14.192 38.8687 15.4596 37.77 15.4596C36.6714 15.4596 36.7559 13.2624 34.9813 13.0934M43.9391 15.4596C45.0096 14.4844 47.1505 12.4536 47.1505 12.1321C47.1505 11.7302 44.2777 8.75629 45.7141 8.27403C47.1505 7.79177 48.7684 9.15817 49.6525 8.91704C50.5367 8.67591 51.5816 5.54123 52.5461 6.34499C53.5106 7.14876 53.1891 9.88156 53.3499 10.605C53.5106 11.3283 56.94 12.5276 56.94 13.0934C56.94 13.6593 54.1536 14.2702 53.3499 14.8649C52.5461 15.4596 53.1891 18.7466 51.6619 18.3329C50.1348 17.9192 49.4114 14.2702 48.5273 14.8649C47.6431 15.4596 45.1159 16.0544 43.9391 15.4596ZM34.9813 13.0934C34.8883 12.4247 34.6543 10.6532 34.4613 8.91704C34.2202 6.74688 30.8138 7.14876 31.4319 5.94311C32.05 4.73746 33.9741 4.97859 34.9813 4.49633C35.9885 4.01407 36.756 1.28147 37.263 1.20109C37.77 1.12071 37.9391 4.49633 39.2912 4.49633C40.6433 4.49633 43.1487 4.29197 43.5439 5.31848C43.9391 6.34499 40.6433 7.14837 40.6433 8.27403C40.6433 9.39969 41.9434 11.1708 41.2934 12.1321C40.6433 13.0934 38.2771 10.605 37.77 10.605C37.263 10.605 36.1476 12.8394 34.9813 13.0934ZM19.9936 14.2765C20.1543 13.6597 21.2474 10.8469 21.2474 9.88195C21.2474 8.91704 17.2608 8.43557 17.9038 7.39028C18.5468 6.34499 21.2796 7.3715 21.8422 6.34499C22.4049 5.31848 21.3755 2.80881 22.7276 2.64806C24.0797 2.48731 24.9769 5.54123 25.6199 5.94311C26.2629 6.34499 28.4123 5.2997 29.0657 6.34499C29.7191 7.39028 26.6995 8.67631 26.6995 9.88195C26.6995 11.0876 28.72 13.2035 27.7097 13.74C26.6995 14.2765 24.5868 12.1321 24.0797 12.1321C23.5727 12.1321 21.2796 14.813 19.9936 14.2765ZM34.9813 19.3431C37.0782 19.7977 41.1463 21.4919 40.6433 24.6326C40.0147 28.5584 37.77 29.9711 35.4188 29.7413C33.0676 29.5115 29.674 27.107 29.7314 24.6326C30.0448 22.8694 31.5333 19.3431 34.9813 19.3431Z" stroke="#273210" stroke-width="0.5" stroke-linecap="round" stroke-linejoin="round"/>
<path d="M44.5352 41.5162C48.8551 41.5162 54.6053 35.6784 56.9403 32.7595C59.6646 29.8406 64.5292 22.4561 62.1941 16.2681C61.2014 17.6743 59.4584 21.1867 56.2742 24.6325C53.8408 27.2659 50.5657 29.8603 46.1404 31.4459C45.3836 32.3053 44.5349 31.4459 43.9393 32.0232C43.3436 32.6005 43.6012 33.4599 42.4181 33.8824C41.235 34.3049 40.2209 33.2908 39.2913 33.4599C38.3617 33.6289 38.1082 36.5022 37.2631 36.5022H34.9814C34.1363 36.5022 33.7138 37.3472 32.6152 37.2627C31.5166 37.1782 31.8546 35.9106 31.4321 35.1066C31.0095 34.3026 30.418 35.6571 29.0658 35.1066C27.7137 34.5561 29.4884 31.4459 28.1362 30.5866C26.7841 29.7272 25.263 30.9246 24.5869 30.5866C23.9108 30.2486 24.0798 28.3894 23.5728 27.7978C23.1672 27.3246 22.8404 26.2484 22.7277 25.7694C21.1205 23.4226 18.2404 21.7472 15.3425 20.6145C12.6328 19.5554 9.90745 18.9707 8.19238 18.7553L14.4708 26.1923C16.7892 27.4095 19.9548 34.6456 21.2477 38.1116C25.8883 40.3935 33.2378 41.8897 44.5352 41.5162Z" fill="#82A44B"/>
<path d="M46.1404 28.5584C45.2146 29.319 46.3535 31.3685 46.1404 31.4459C50.5657 29.8603 53.8408 27.2659 56.2742 24.6325C55.9082 20.7862 55.1124 13.7283 54.857 16.2681C54.6016 18.8079 49.613 23.6606 47.1506 25.7694C48.1608 25.7694 47.0661 27.7978 46.1404 28.5584Z" fill="#82A44B"/>
<path d="M46.1404 31.4459C45.3836 32.3053 44.5349 31.4459 43.9393 32.0232C43.3436 32.6005 43.6012 33.4599 42.4181 33.8824C41.235 34.3049 40.2209 33.2908 39.2913 33.4599C38.3617 33.6289 38.1082 36.5022 37.2631 36.5022M46.1404 31.4459C46.3535 31.3685 45.2146 29.319 46.1404 28.5584C47.0661 27.7978 48.1608 25.7694 47.1506 25.7694C49.613 23.6606 54.6016 18.8079 54.857 16.2681C55.1124 13.7283 55.9082 20.7862 56.2742 24.6325M46.1404 31.4459C50.5657 29.8603 53.8408 27.2659 56.2742 24.6325M34.9814 36.5022C34.1363 36.5022 33.7138 37.3472 32.6152 37.2627C31.5166 37.1782 31.8546 35.9106 31.4321 35.1066C31.0095 34.3026 30.418 35.6571 29.0658 35.1066C27.7137 34.5561 29.4884 31.4459 28.1362 30.5866C26.7841 29.7272 25.263 30.9246 24.5869 30.5866C23.9108 30.2486 24.0798 28.3894 23.5728 27.7978C23.1672 27.3246 22.8404 26.2484 22.7277 25.7694C21.1205 23.4226 18.2404 21.7472 15.3425 20.6145C12.6328 19.5554 9.90745 18.9707 8.19238 18.7553L14.4708 26.1923C16.7892 27.4095 19.9548 34.6456 21.2477 38.1116C25.8883 40.3935 33.2378 41.8897 44.5352 41.5162C48.8551 41.5162 54.6053 35.6784 56.9403 32.7595C59.6646 29.8406 64.5292 22.4561 62.1941 16.2681C61.2014 17.6743 59.4584 21.1867 56.2742 24.6325M34.9814 36.5022C35.8265 36.5022 36.418 36.5022 37.2631 36.5022M34.9814 36.5022H37.2631" stroke="#273210" stroke-width="0.5" stroke-linecap="round" stroke-linejoin="round"/>
</svg>
