<svg width="72" height="72" viewBox="0 0 72 72" fill="none" xmlns="http://www.w3.org/2000/svg">
<path d="M35.5779 58.6454C34.3032 58.6454 32.9381 58.0779 31.5399 57.1103C29.9065 59.3196 26.7227 64.4242 27.0552 67.1681C35.3699 73.9863 42.1604 69.6626 44.5162 66.6484C44.5162 64.2372 41.6075 59.0775 40.1531 56.7991C38.5387 57.9552 36.9838 58.6454 35.5779 58.6454Z" fill="#C3AFFA"/>
<path d="M22.4544 25.1475C20.3525 25.1475 18.2958 27.6423 18.248 29.0711C18.2002 30.5 20.1614 33.6541 22.4544 33.7019C24.7475 33.7497 26.898 31.3124 26.9936 29.0711C27.0892 26.8298 24.5563 25.1475 22.4544 25.1475Z" fill="#C3AFFA"/>
<path d="M35.7846 11.3314C33.6828 11.3314 31.6261 13.8261 31.5783 15.255C31.5305 16.6839 33.4916 19.838 35.7846 19.8858C38.0777 19.9336 40.2282 17.4963 40.3238 15.255C40.4194 13.0137 37.8865 11.3314 35.7846 11.3314Z" fill="#C3AFFA"/>
<path d="M49.2168 25.5641C47.1149 25.5641 45.0582 28.0589 45.0104 29.4877C44.9626 30.9166 46.9237 34.0707 49.2168 34.1185C51.5099 34.1663 53.6604 31.729 53.756 29.4877C53.8516 27.2464 51.3187 25.5641 49.2168 25.5641Z" fill="#C3AFFA"/>
<path d="M16.6619 36.6114C19.5568 42.5125 25.8243 53.1549 31.5399 57.1103C32.9381 58.0779 34.3032 58.6454 35.5779 58.6454C36.9838 58.6454 38.5387 57.9552 40.1531 56.7991C45.9859 52.6221 52.5935 42.364 55.7411 36.6114C54.2057 37.3029 52.1034 38.1808 49.7841 39.0438C46.3707 40.3139 42.4876 41.5518 39.2507 42.1162C38.1857 42.3019 37.1907 42.4147 36.3054 42.4317C35.33 42.4505 34.2169 42.3327 33.0204 42.1162C29.605 41.4983 25.5108 40.0763 22.0029 38.7316C21.7568 38.6372 21.5135 38.5432 21.2735 38.4499C19.494 37.758 17.8974 37.1038 16.6619 36.6114Z" fill="#C3AFFA"/>
<path d="M31.5399 57.1103C25.8243 53.1549 19.5568 42.5125 16.6619 36.6114C17.8974 37.1038 19.494 37.758 21.2735 38.4499C21.5135 38.5432 21.7568 38.6372 22.0029 38.7316C25.5108 40.0763 29.605 41.4983 33.0204 42.1162C34.2169 42.3327 35.33 42.4505 36.3054 42.4317C37.1907 42.4147 38.1857 42.3019 39.2507 42.1162C42.4876 41.5518 46.3707 40.3139 49.7841 39.0438C52.1034 38.1808 54.2057 37.3029 55.7411 36.6114C52.5935 42.364 45.9859 52.6221 40.1531 56.7991M31.5399 57.1103C32.9381 58.0779 34.3032 58.6454 35.5779 58.6454C36.9838 58.6454 38.5387 57.9552 40.1531 56.7991M31.5399 57.1103C29.9065 59.3196 26.7227 64.4242 27.0552 67.1681C35.3699 73.9863 42.1604 69.6626 44.5162 66.6484C44.5162 64.2372 41.6075 59.0775 40.1531 56.7991M22.4544 25.1475C20.3525 25.1475 18.2958 27.6423 18.248 29.0711C18.2002 30.5 20.1614 33.6541 22.4544 33.7019C24.7475 33.7497 26.898 31.3124 26.9936 29.0711C27.0892 26.8298 24.5563 25.1475 22.4544 25.1475ZM35.7846 11.3314C33.6828 11.3314 31.6261 13.8261 31.5783 15.255C31.5305 16.6839 33.4916 19.838 35.7846 19.8858C38.0777 19.9336 40.2282 17.4963 40.3238 15.255C40.4194 13.0137 37.8865 11.3314 35.7846 11.3314ZM49.2168 25.5641C47.1149 25.5641 45.0582 28.0589 45.0104 29.4877C44.9626 30.9166 46.9237 34.0707 49.2168 34.1185C51.5099 34.1663 53.6604 31.729 53.756 29.4877C53.8516 27.2464 51.3187 25.5641 49.2168 25.5641Z" stroke="#273210" stroke-width="0.5" stroke-linecap="round" stroke-linejoin="round"/>
<path fill-rule="evenodd" clip-rule="evenodd" d="M16.662 36.6114C17.4425 36.6114 18.2456 36.2338 19.4094 36.6114C20.5732 36.9889 21.2884 38.4556 22.0031 38.7315C23.2628 39.2217 25.1636 37.774 25.9565 36.9889C26.9039 37.0566 28.9509 36.9585 29.56 36.0246C29.935 35.4495 30.0021 34.7636 30.0283 34.1185C30.0552 33.4541 30.0387 32.833 30.2705 32.421C30.7273 31.6089 32.5036 30.797 32.5544 29.8327C32.6051 28.8684 30.981 27.3457 30.2705 26.3306C29.56 25.3156 30.372 23.0825 29.56 22.2198C29.2826 21.9251 28.8631 21.8139 28.3865 21.7812C27.4677 21.718 26.3364 21.9462 25.6012 21.7123C24.4847 21.357 23.9264 19.2252 22.4546 19.276C20.9827 19.3267 20.3737 21.2048 19.4094 21.7123C18.4451 22.2198 16.7703 21.611 15.6537 22.2198C14.5371 22.8285 15.3492 25.3665 14.8924 26.3306C14.4357 27.2948 12.4057 27.1933 12.3042 29.0711C12.2027 30.949 14.8924 31.1524 14.8924 32.421C14.8924 33.6896 14.2698 35.9297 16.662 36.6114ZM18.2482 29.0711C18.296 27.6422 20.3527 25.1475 22.4546 25.1475C24.5565 25.1475 27.0893 26.8298 26.9937 29.0711C26.8982 31.3124 24.7476 33.7497 22.4546 33.7019C20.1615 33.6541 18.2004 30.5 18.2482 29.0711Z" fill="#DBC241"/>
<path fill-rule="evenodd" clip-rule="evenodd" d="M29.56 22.2198C30.307 22.3003 32.045 22.6078 33.0206 23.1932C34.2401 23.9249 34.3214 25.7135 35.7848 25.6322C37.2482 25.5509 37.9799 23.8362 39.1181 23.1932C40.2563 22.5502 41.4111 23.0056 42.4078 22.5502C42.6933 22.0771 43.3457 20.76 43.6709 19.276C44.0774 17.4209 45.4488 17.0957 45.9473 15.7136C46.4458 14.3315 44.4026 13.6812 43.6709 12.3804C43.2363 11.6078 43.2258 10.6918 43.0096 9.83676C42.8618 9.25223 42.618 8.69622 42.0768 8.23406C40.7441 7.09586 39.9311 8.80317 38.7116 8.23406C37.4921 7.66494 37.6547 5.55137 35.7848 5.55137C33.9149 5.55137 34.4027 7.74627 33.0206 8.23406C31.6385 8.72185 30.4082 7.42107 29.56 8.23406C28.7117 9.04705 28.9556 11.0797 28.3865 12.3804C27.8174 13.6811 25.9565 14.1688 25.9565 15.7136C25.9565 17.2583 28.3865 17.5022 28.3865 18.803C28.3865 20.1038 27.7124 21.6557 28.3865 21.7812C28.8631 21.8139 29.2826 21.9251 29.56 22.2198ZM31.5784 15.255C31.6262 13.8261 33.6829 11.3314 35.7848 11.3314C37.8867 11.3314 40.4196 13.0137 40.324 15.255C40.2284 17.4963 38.0779 19.9335 35.7848 19.8858C33.4917 19.838 31.5306 16.6838 31.5784 15.255Z" fill="#DBC241"/>
<path fill-rule="evenodd" clip-rule="evenodd" d="M52.7345 36.6114C53.5288 36.3093 55.07 36.4855 55.7413 36.6114C59.4477 35.0461 56.6401 33.605 57.1035 32.421C57.5668 31.2369 59.0894 30.6262 59.1556 29.0711C59.2218 27.516 57.3021 27.3163 57.1035 26.3306C56.9049 25.3449 56.9711 23.1459 56.6401 22.5502C56.3091 21.9544 53.595 21.7123 52.7345 21.7123C51.8739 21.7123 51.1458 19.276 49.7842 19.276C48.4227 19.276 47.3725 21.2924 46.4458 21.7123C45.519 22.1322 43.2683 21.7123 42.4078 22.5502C41.5472 23.388 42.4078 25.198 42.0768 26.3306C41.7458 27.4632 39.7599 28.2431 39.4951 29.0711C39.2304 29.8991 41.481 31.2219 41.7458 32.421C42.0106 33.62 41.0839 34.9952 42.4078 36.0246C43.4669 36.8482 45.5411 37.0106 46.4458 36.9889C47.0813 37.2909 48.4024 39.5465 49.7842 39.0438C50.7464 38.6913 51.7415 36.9889 52.7345 36.6114ZM45.0106 29.4877C45.0583 28.0588 47.115 25.5641 49.2169 25.5641C51.3188 25.5641 53.8517 27.2464 53.7561 29.4877C53.6605 31.729 51.51 34.1663 49.2169 34.1185C46.9239 34.0707 44.9628 30.9166 45.0106 29.4877Z" fill="#DBC241"/>
<path d="M36.3056 42.4317L35.7848 25.6322M36.3056 42.4317L33.0206 42.1162C33.3936 36.7628 31.1811 34.5538 30.0283 34.1185M36.3056 42.4317L39.2509 42.1162C39.6003 40.721 40.7209 37.5495 42.4078 36.0246M29.56 22.2198C30.372 23.0825 29.56 25.3156 30.2705 26.3306C30.981 27.3457 32.6051 28.8684 32.5544 29.8327C32.5036 30.797 30.7273 31.6089 30.2705 32.421C30.0387 32.833 30.0552 33.4541 30.0283 34.1185M29.56 22.2198C30.307 22.3003 32.045 22.6078 33.0206 23.1932C34.2401 23.9249 34.3214 25.7135 35.7848 25.6322M29.56 22.2198C29.2826 21.9251 28.8631 21.8139 28.3865 21.7812M15.6537 22.2198C16.7703 21.611 18.4451 22.2198 19.4094 21.7123C20.3737 21.2048 20.9827 19.3267 22.4546 19.276C23.9264 19.2252 24.4847 21.357 25.6012 21.7123C26.3364 21.9462 27.4677 21.718 28.3865 21.7812M15.6537 22.2198C14.5371 22.8285 15.3492 25.3665 14.8924 26.3306C14.4357 27.2948 12.4057 27.1933 12.3042 29.0711C12.2027 30.949 14.8924 31.1524 14.8924 32.421C14.8924 33.6896 14.2698 35.9297 16.662 36.6114C17.4425 36.6114 18.2456 36.2338 19.4094 36.6114C20.5732 36.9889 21.2884 38.4556 22.0031 38.7315C23.2628 39.2217 25.1636 37.774 25.9565 36.9889C26.9039 37.0566 28.9509 36.9585 29.56 36.0246C29.935 35.4495 30.0021 34.7636 30.0283 34.1185M15.6537 22.2198C12.8809 21.3273 7.31676 19.2831 7.24266 18.2457C7.15005 16.9491 17.8595 17.7827 18.6345 17.0417C19.4094 16.3008 10.707 8.24312 12.7997 6.29817C14.8924 4.35322 22.3392 12.3804 23.1728 12.3804C24.0063 12.3804 22.9671 1.38948 24.2842 1.20424C25.6012 1.01901 28.9614 6.94901 28.3865 12.3804M42.4078 36.0246C43.4669 36.8482 45.5411 37.0106 46.4458 36.9889C47.0813 37.2909 48.4024 39.5465 49.7842 39.0438C50.7464 38.6913 51.7415 36.9889 52.7345 36.6114C53.5288 36.3093 55.07 36.4855 55.7413 36.6114C59.4477 35.0461 56.6401 33.605 57.1035 32.421C57.5668 31.2369 59.0894 30.6262 59.1556 29.0711C59.2218 27.516 57.3021 27.3163 57.1035 26.3306C56.9049 25.3449 56.9711 23.1459 56.6401 22.5502M42.4078 36.0246C41.0839 34.9952 42.0106 33.62 41.7458 32.421C41.481 31.2219 39.2304 29.8991 39.4951 29.0711C39.7599 28.2431 41.7458 27.4632 42.0768 26.3306C42.4078 25.198 41.5472 23.388 42.4078 22.5502M42.4078 22.5502C43.2683 21.7123 45.519 22.1322 46.4458 21.7123C47.3725 21.2924 48.4227 19.276 49.7842 19.276C51.1458 19.276 51.8739 21.7123 52.7345 21.7123C53.595 21.7123 56.3091 21.9544 56.6401 22.5502M42.4078 22.5502C41.4111 23.0056 40.2563 22.5502 39.1181 23.1932C37.9799 23.8362 37.2482 25.5509 35.7848 25.6322M42.4078 22.5502C42.6933 22.0771 43.3457 20.76 43.6709 19.276C44.0774 17.4209 45.4488 17.0957 45.9473 15.7136C46.4458 14.3315 44.4026 13.6812 43.6709 12.3804C43.2363 11.6078 43.2258 10.6918 43.0096 9.83676M56.6401 22.5502C59.346 21.1154 64.7578 18.1531 64.7577 17.7826C64.7577 17.3195 52.7345 17.7826 53.1806 17.0417C53.6268 16.3008 59.6638 8.23406 59.1556 6.85385C58.6473 5.47365 49.2907 12.3804 48.4572 12.3804C47.6236 12.3804 48.3646 1.20424 47.4384 1.20424C46.5122 1.20424 42.9045 9.48029 43.0096 9.83676M28.3865 12.3804C28.9556 11.0797 28.7117 9.04705 29.56 8.23406C30.4082 7.42107 31.6385 8.72185 33.0206 8.23406C34.4027 7.74627 33.9149 5.55137 35.7848 5.55137C37.6547 5.55137 37.4921 7.66494 38.7116 8.23406C39.9311 8.80317 40.7441 7.09586 42.0768 8.23406C42.618 8.69622 42.8618 9.25223 43.0096 9.83676M28.3865 12.3804C27.8174 13.6811 25.9565 14.1688 25.9565 15.7136C25.9565 17.2583 28.3865 17.5022 28.3865 18.803C28.3865 20.1038 27.7124 21.6557 28.3865 21.7812M22.4546 25.1475C20.3527 25.1475 18.296 27.6422 18.2482 29.0711C18.2004 30.5 20.1615 33.6541 22.4546 33.7019C24.7476 33.7497 26.8982 31.3124 26.9937 29.0711C27.0893 26.8298 24.5565 25.1475 22.4546 25.1475ZM35.7848 11.3314C33.6829 11.3314 31.6262 13.8261 31.5784 15.255C31.5306 16.6838 33.4917 19.838 35.7848 19.8858C38.0779 19.9335 40.2284 17.4963 40.324 15.255C40.4196 13.0137 37.8867 11.3314 35.7848 11.3314ZM49.2169 25.5641C47.115 25.5641 45.0583 28.0588 45.0106 29.4877C44.9628 30.9166 46.9239 34.0707 49.2169 34.1185C51.51 34.1663 53.6605 31.729 53.7561 29.4877C53.8517 27.2464 51.3188 25.5641 49.2169 25.5641Z" stroke="#273210" stroke-width="0.5" stroke-linecap="round" stroke-linejoin="round"/>
<path d="M42.4078 36.0246C41.0839 34.9952 42.0106 33.62 41.7458 32.421C41.481 31.2219 39.2304 29.8991 39.4951 29.0711C39.7599 28.2431 41.7458 27.4632 42.0768 26.3306C42.4078 25.198 41.5472 23.388 42.4078 22.5502C41.4111 23.0056 40.2563 22.5502 39.1181 23.1932C37.9799 23.8362 37.2482 25.5509 35.7848 25.6322L36.3056 42.4317L39.2509 42.1162C39.6003 40.721 40.7209 37.5495 42.4078 36.0246Z" fill="#82A44B"/>
<path d="M32.5544 29.8327C32.5036 30.797 30.7273 31.6089 30.2705 32.421C30.0387 32.833 30.0552 33.4541 30.0283 34.1185C31.1811 34.5538 33.3936 36.7628 33.0206 42.1162L36.3056 42.4317L35.7848 25.6322C34.3214 25.7135 34.2401 23.9249 33.0206 23.1932C32.045 22.6078 30.307 22.3003 29.56 22.2198C30.372 23.0825 29.56 25.3156 30.2705 26.3306C30.981 27.3457 32.6051 28.8684 32.5544 29.8327Z" fill="#82A44B"/>
<path d="M22.4546 19.276C23.9264 19.2252 24.4847 21.357 25.6012 21.7123C26.3364 21.9462 27.4677 21.718 28.3865 21.7812C27.7124 21.6557 28.3865 20.1038 28.3865 18.803C28.3865 17.5022 25.9565 17.2583 25.9565 15.7136C25.9565 14.1688 27.8174 13.6811 28.3865 12.3804C28.9614 6.94901 25.6012 1.01901 24.2842 1.20424C22.9671 1.38948 24.0063 12.3804 23.1728 12.3804C22.3392 12.3804 14.8924 4.35322 12.7997 6.29817C10.707 8.24312 19.4094 16.3008 18.6345 17.0417C17.8595 17.7827 7.15005 16.9491 7.24266 18.2457C7.31676 19.2831 12.8809 21.3273 15.6537 22.2198C16.7703 21.611 18.4451 22.2198 19.4094 21.7123C20.3737 21.2048 20.9827 19.3267 22.4546 19.276Z" fill="#82A44B"/>
<path d="M42.4078 22.5502C43.2684 21.7123 45.519 22.1322 46.4458 21.7123C47.3726 21.2924 48.4227 19.276 49.7842 19.276C51.1458 19.276 51.8739 21.7123 52.7345 21.7123C53.595 21.7123 56.3091 21.9544 56.6401 22.5502C59.346 21.1154 64.7578 18.1531 64.7578 17.7826C64.7578 17.3195 52.7345 17.7826 53.1807 17.0417C53.6268 16.3008 59.6638 8.23406 59.1556 6.85385C58.6473 5.47365 49.2907 12.3804 48.4572 12.3804C47.6236 12.3804 48.3646 1.20424 47.4384 1.20424C46.5122 1.20424 42.9045 9.48029 43.0096 9.83676C43.2258 10.6918 43.2363 11.6078 43.6709 12.3804C44.4026 13.6812 46.4458 14.3315 45.9473 15.7136C45.4488 17.0957 44.0774 17.4209 43.6709 19.276C43.3457 20.76 42.6933 22.0771 42.4078 22.5502Z" fill="#82A44B"/>
<path d="M36.3056 42.4317L35.7848 25.6322M36.3056 42.4317L33.0206 42.1162C33.3936 36.7628 31.1811 34.5538 30.0283 34.1185C30.0552 33.4541 30.0387 32.833 30.2705 32.421C30.7273 31.6089 32.5036 30.797 32.5544 29.8327C32.6051 28.8684 30.981 27.3457 30.2705 26.3306C29.56 25.3156 30.372 23.0825 29.56 22.2198M36.3056 42.4317L39.2509 42.1162C39.6003 40.721 40.7209 37.5495 42.4078 36.0246C41.0839 34.9952 42.0106 33.62 41.7458 32.421C41.481 31.2219 39.2304 29.8991 39.4951 29.0711C39.7599 28.2431 41.7458 27.4632 42.0768 26.3306C42.4078 25.198 41.5472 23.388 42.4078 22.5502M29.56 22.2198C30.307 22.3003 32.045 22.6078 33.0206 23.1932C34.2401 23.9249 34.3214 25.7135 35.7848 25.6322M29.56 22.2198C29.2826 21.9251 28.8631 21.8139 28.3865 21.7812M42.4078 22.5502C43.2684 21.7123 45.519 22.1322 46.4458 21.7123C47.3726 21.2924 48.4227 19.276 49.7842 19.276C51.1458 19.276 51.8739 21.7123 52.7345 21.7123C53.595 21.7123 56.3091 21.9544 56.6401 22.5502C59.346 21.1154 64.7578 18.1531 64.7578 17.7826C64.7578 17.3195 52.7345 17.7826 53.1807 17.0417C53.6268 16.3008 59.6638 8.23406 59.1556 6.85385C58.6473 5.47365 49.2907 12.3804 48.4572 12.3804C47.6236 12.3804 48.3646 1.20424 47.4384 1.20424C46.5122 1.20424 42.9045 9.48029 43.0096 9.83676C43.2258 10.6918 43.2363 11.6078 43.6709 12.3804C44.4026 13.6812 46.4458 14.3315 45.9473 15.7136C45.4488 17.0957 44.0774 17.4209 43.6709 19.276C43.3457 20.76 42.6933 22.0771 42.4078 22.5502ZM42.4078 22.5502C41.4111 23.0056 40.2563 22.5502 39.1181 23.1932C37.9799 23.8362 37.2482 25.5509 35.7848 25.6322M28.3865 21.7812C27.4677 21.718 26.3364 21.9462 25.6012 21.7123C24.4847 21.357 23.9264 19.2252 22.4546 19.276C20.9827 19.3267 20.3737 21.2048 19.4094 21.7123C18.4451 22.2198 16.7703 21.611 15.6537 22.2198C12.8809 21.3273 7.31676 19.2831 7.24266 18.2457C7.15005 16.9491 17.8595 17.7827 18.6345 17.0417C19.4094 16.3008 10.707 8.24312 12.7997 6.29817C14.8924 4.35322 22.3392 12.3804 23.1728 12.3804C24.0063 12.3804 22.9671 1.38948 24.2842 1.20424C25.6012 1.01901 28.9614 6.94901 28.3865 12.3804C27.8174 13.6811 25.9565 14.1688 25.9565 15.7136C25.9565 17.2583 28.3865 17.5022 28.3865 18.803C28.3865 20.1038 27.7124 21.6557 28.3865 21.7812Z" stroke="#273210" stroke-width="0.5" stroke-linecap="round" stroke-linejoin="round"/>
</svg>
