<svg width="72" height="72" viewBox="0 0 72 72" fill="none" xmlns="http://www.w3.org/2000/svg">
<path d="M36.2303 66.4884C46.0453 66.3305 55.7848 63.4619 55.7848 61.5471C55.7848 61.0223 54.9341 60.4099 53.3922 59.8219C50.1787 58.5965 43.9632 57.4769 36.1913 57.4769C24.6904 57.4769 16.2152 60.6856 16.2152 61.5471C16.2153 64.0641 26.2618 66.6488 36.2303 66.4884Z" fill="#C3AFFA"/>
<path d="M16.2152 61.5471V67.2943C23.0414 70.0688 40.5119 73.8341 55.7848 66.6997V61.5471C55.7848 63.4619 46.0453 66.3305 36.2303 66.4884C26.2618 66.6488 16.2153 64.0641 16.2152 61.5471Z" fill="#C3AFFA"/>
<path d="M36.2303 63.1657C36.2033 56.7895 36.0956 46.7962 35.8594 38.6609M34.9617 25.3338C35.1697 25.819 35.3468 27.486 35.4968 29.9067M34.9617 25.3338C31.7786 25.8152 29.8427 24.2266 28.3409 22.1824C27.1394 20.5471 27.3953 17.0511 27.6734 15.5075L31.0368 19.1581M34.9617 25.3338C35.4968 25.3338 39.8553 23.7676 40.1056 20.3884C40.3059 17.6851 39.2156 14.979 38.6455 13.9638C38.2087 15.0735 37.3052 17.1322 36.4703 18.4238M35.8594 38.6609C34.4519 38.0492 31.5618 36.3083 31.2614 34.2391C30.961 32.1698 34.1135 33.6806 35.7273 34.6947M35.8594 38.6609C35.8191 37.276 35.7752 35.9449 35.7273 34.6947M35.7273 34.6947C35.7149 34.3708 35.7022 34.0524 35.6893 33.7399M35.6893 33.7399C35.8594 33.4881 39.2711 30.1507 39.1042 28.3985C38.9707 26.9967 36.6437 28.8199 35.4968 29.9067M35.6893 33.7399C35.6308 32.3273 35.5667 31.0351 35.4968 29.9067M35.6893 19.3871C35.9296 19.1891 36.1962 18.8478 36.4703 18.4238M32.5546 20.8055L31.0368 19.1581M31.0368 19.1581C31.2165 18.874 32.4017 15.2152 32.9718 13.4214L36.4703 18.4238M16.2152 61.5471V67.2943C23.0414 70.0688 40.5119 73.8341 55.7848 66.6997M16.2152 61.5471C16.2153 64.0641 26.2618 66.6488 36.2303 66.4884C46.0453 66.3305 55.7848 63.4619 55.7848 61.5471M16.2152 61.5471C16.2152 60.6856 24.6904 57.4769 36.1913 57.4769C43.9632 57.4769 50.1787 58.5965 53.3922 59.8219M55.7848 66.6997C55.7848 64.7972 55.7848 62.4719 55.7848 61.5471M55.7848 66.6997V61.5471M55.7848 61.5471C55.7848 61.0223 54.9341 60.4099 53.3922 59.8219M53.3922 61.5471V59.8219M26.449 3.41505C35.9251 -0.796559 43.6113 1.5198 48.0335 5.94198C51.5712 9.47973 53.3922 15.5075 53.3922 19.1581V59.8219" stroke="#273210" stroke-width="0.5" stroke-linecap="round" stroke-linejoin="round"/>
<path d="M27.6733 15.5075C27.3952 17.0511 27.1393 20.5471 28.3408 22.1824C29.8427 24.2266 31.7785 25.8152 34.9617 25.3338C35.4967 25.3338 39.8552 23.7676 40.1056 20.3884C40.3058 17.6851 39.2156 14.979 38.6454 13.9638C38.2086 15.0735 37.3051 17.1322 36.4702 18.4238L32.9717 13.4214C32.4016 15.2152 31.2164 18.874 31.0367 19.1581L27.6733 15.5075Z" fill="#DBC241"/>
<path d="M35.6892 33.7399C35.8593 33.4881 39.271 30.1507 39.1041 28.3985C38.9706 26.9967 36.6436 28.8199 35.4967 29.9067C35.5666 31.0351 35.6307 32.3273 35.6892 33.7399Z" fill="#DBC241"/>
<path d="M31.2613 34.2391C31.5617 36.3083 34.4518 38.0492 35.8593 38.6609C35.8191 37.276 35.7751 35.9449 35.7272 34.6947C34.1134 33.6806 30.9609 32.1698 31.2613 34.2391Z" fill="#DBC241"/>
<path d="M36.2302 63.1657C36.2032 56.7895 36.0955 46.7962 35.8593 38.6609M34.9617 25.3338C35.1696 25.819 35.3467 27.486 35.4967 29.9067M34.9617 25.3338C31.7785 25.8152 29.8427 24.2266 28.3408 22.1824C27.1393 20.5471 27.3952 17.0511 27.6733 15.5075L31.0367 19.1581M34.9617 25.3338C35.4967 25.3338 39.8552 23.7676 40.1056 20.3884C40.3058 17.6851 39.2156 14.979 38.6454 13.9638C38.2086 15.0735 37.3051 17.1322 36.4702 18.4238M35.8593 38.6609C34.4518 38.0492 31.5617 36.3083 31.2613 34.2391C30.9609 32.1698 34.1134 33.6806 35.7272 34.6947M35.8593 38.6609C35.8191 37.276 35.7751 35.9449 35.7272 34.6947M35.7272 34.6947C35.7148 34.3708 35.7021 34.0524 35.6892 33.7399M35.6892 33.7399C35.8593 33.4881 39.271 30.1507 39.1041 28.3985C38.9706 26.9967 36.6436 28.8199 35.4967 29.9067M35.6892 33.7399C35.6307 32.3273 35.5666 31.0351 35.4967 29.9067M35.6892 19.3871C35.9295 19.1891 36.1962 18.8478 36.4702 18.4238M32.5545 20.8055L31.0367 19.1581M31.0367 19.1581C31.2164 18.874 32.4016 15.2152 32.9717 13.4214L36.4702 18.4238" stroke="#273210" stroke-width="0.5" stroke-linecap="round" stroke-linejoin="round"/>
<path d="M35.6891 33.7399C35.8592 33.4881 39.271 30.1507 39.1041 28.3985C38.9706 26.9968 36.6435 28.8199 35.4967 29.9068C35.5666 31.0352 35.6306 32.3273 35.6891 33.7399Z" fill="#82A44B"/>
<path d="M31.2612 34.2391C31.5616 36.3083 34.4517 38.0492 35.8592 38.661C35.819 37.276 35.7751 35.9449 35.7272 34.6947C34.1134 33.6807 30.9609 32.1698 31.2612 34.2391Z" fill="#82A44B"/>
<path d="M35.7272 34.6947C35.7751 35.9449 35.819 37.276 35.8592 38.661C34.4517 38.0492 31.5616 36.3083 31.2612 34.2391C30.9609 32.1698 34.1134 33.6807 35.7272 34.6947ZM35.7272 34.6947C35.7147 34.3709 35.7021 34.0525 35.6891 33.7399M35.6891 33.7399C35.8592 33.4881 39.271 30.1507 39.1041 28.3985C38.9706 26.9968 36.6435 28.8199 35.4967 29.9068C35.5666 31.0352 35.6306 32.3273 35.6891 33.7399Z" stroke="#273210" stroke-width="0.5" stroke-linecap="round" stroke-linejoin="round"/>
</svg>
