<svg width="72" height="72" viewBox="0 0 72 72" fill="none" xmlns="http://www.w3.org/2000/svg">
<path d="M37.7277 37.4929C37.481 38.085 35.0136 38.0357 34.1254 37.789C33.9725 37.7465 33.8518 37.6426 33.7569 37.4929C32.9751 38.1507 31.145 39.5157 30.079 39.7131C28.7465 39.9598 27.3156 37.789 27.1183 35.8641C26.9859 34.5734 27.4748 33.2831 28.4063 32.5581C27.8767 32.2795 27.2545 31.9051 26.5889 31.4443C23.6188 34.691 18.5852 42.3698 19.0037 49.0645C19.0242 49.7844 19.122 50.7496 19.332 51.8169C19.8748 54.5752 21.1675 58.0153 23.8155 59.6646C24.8648 60.3181 25.9701 60.8951 27.1183 61.3865C30.9934 63.0448 35.358 63.7273 39.7156 63.0817C41.7549 62.7796 43.6531 62.04 45.2462 61.1976C47.1833 60.1733 48.6692 58.9969 49.409 58.2698C50.3621 57.0378 52.2496 54.0402 52.4077 53.0396C52.449 52.7785 52.5223 52.1933 52.5838 51.4026C52.7582 49.1627 52.8379 45.2744 51.8253 42.4395C50.4551 38.604 47.0308 32.8838 45.2462 31.0715C44.5321 31.6722 43.9039 32.1776 43.4616 32.5581C44.1683 33.0841 44.715 33.8499 44.8337 34.3837C45.0311 35.2716 44.8337 36.3576 44.8337 36.9004C44.8337 37.4432 43.3533 39.7131 41.9222 39.7131C40.7774 39.7131 38.6489 38.233 37.7277 37.4929Z" fill="#C3AFFA"/>
<path fill-rule="evenodd" clip-rule="evenodd" d="M35.9018 32.5581C36.5698 32.5057 37.2836 33.1504 37.7277 33.4958C37.8043 33.5554 37.8619 33.6959 37.9034 33.8905C38.7989 33.249 40.8564 31.9659 41.9222 31.9659C42.4536 31.9659 42.9928 32.2092 43.4616 32.5581C43.9039 32.1776 44.5321 31.6722 45.2462 31.0715C46.9448 29.6426 49.1295 27.6742 50.4551 25.5631C51.9256 23.2212 52.2052 20.0287 51.8253 17.3474C51.7187 16.5954 51.5603 15.8836 51.3617 15.242C50.4551 12.3131 47.9911 9.3841 46.4801 8.12883C45.4341 6.9433 42.9933 5.96698 39.7156 4.99069C36.438 4.0144 30.079 5.06062 27.1183 6.80405C26.7511 7.02022 26.3578 7.27178 25.9503 7.56111C23.5082 9.29498 20.5561 12.3855 19.6789 17.3474C19.522 18.2353 19.4315 19.183 19.4222 20.1937C19.3762 25.2075 23.4619 29.2796 26.5889 31.4443C27.2545 31.9051 27.8767 32.2795 28.4063 32.5581C28.8641 32.2019 29.4287 31.9822 30.079 31.9659C31.6581 31.9264 33.072 32.9694 33.5816 33.4958C33.9442 32.7565 35.2206 32.5581 35.9018 32.5581ZM28.9856 23.6713C28.804 19.5852 32.5323 18.2232 35.5071 18.0719C38.4819 17.9206 42.6209 20.009 42.9841 23.6713C43.3473 27.3336 38.8224 28.7788 35.9018 28.8167C32.9813 28.8545 29.1672 27.7573 28.9856 23.6713ZM28.1624 18.5306C28.1367 17.838 28.6113 16.7991 29.2205 16.8632C29.8298 16.9273 30.1559 17.9392 30.079 18.3062C30.002 18.6731 29.6374 19.6208 29.2205 19.6529C28.8037 19.685 28.188 19.2232 28.1624 18.5306ZM41.5338 18.3062C41.5081 17.6905 42.1644 17.0877 42.4957 16.8632C43.0692 16.8632 43.4616 17.8893 43.4616 18.3062C43.4616 18.723 42.8164 19.6529 42.4957 19.6529C42.1751 19.6529 41.5658 19.0757 41.5338 18.3062Z" fill="#C3AFFA"/>
<path d="M35.5071 21.2166C34.4691 21.291 33.437 21.835 33.9243 22.895C34.4116 23.9551 35.4353 23.8962 35.9018 23.8668C36.3683 23.8373 37.7277 23.5008 37.7277 22.4828C37.7277 21.4647 36.545 21.1421 35.5071 21.2166Z" fill="#C3AFFA"/>
<path d="M33.484 33.8905C33.4894 33.7444 33.524 33.6133 33.5816 33.4958M33.5816 33.4958C33.9442 32.7565 35.2206 32.5581 35.9018 32.5581C36.5698 32.5057 37.2836 33.1504 37.7277 33.4958C37.8043 33.5554 37.8619 33.6959 37.9034 33.8905C38.7989 33.249 40.8564 31.9659 41.9222 31.9659C42.4536 31.9659 42.9928 32.2092 43.4616 32.5581M33.5816 33.4958C33.072 32.9694 31.6581 31.9264 30.079 31.9659C29.4287 31.9822 28.8641 32.2019 28.4063 32.5581M28.4063 32.5581C27.4748 33.2831 26.9859 34.5734 27.1183 35.8641C27.3156 37.789 28.7465 39.9598 30.079 39.7131C31.145 39.5157 32.9751 38.1507 33.7569 37.4929C33.8518 37.6426 33.9725 37.7465 34.1254 37.789C35.0136 38.0357 37.481 38.085 37.7277 37.4929C38.6489 38.233 40.7774 39.7131 41.9222 39.7131C43.3533 39.7131 44.8337 37.4432 44.8337 36.9004C44.8337 36.3576 45.0311 35.2716 44.8337 34.3837C44.715 33.8499 44.1683 33.0841 43.4616 32.5581M28.4063 32.5581C27.8767 32.2795 27.2545 31.9051 26.5889 31.4443M43.4616 32.5581C43.9039 32.1776 44.5321 31.6722 45.2462 31.0715M26.5889 31.4443C23.4619 29.2796 19.3762 25.2075 19.4222 20.1937C19.4315 19.183 19.522 18.2353 19.6789 17.3474C20.5561 12.3855 23.5082 9.29498 25.9503 7.56111C26.3578 7.27178 26.7511 7.02022 27.1183 6.80405C30.079 5.06062 36.438 4.0144 39.7156 4.99069C42.9933 5.96698 45.4341 6.9433 46.4801 8.12883C47.9911 9.3841 50.4551 12.3131 51.3617 15.242C51.5603 15.8836 51.7187 16.5954 51.8253 17.3474C52.2052 20.0287 51.9256 23.2212 50.4551 25.5631C49.1295 27.6742 46.9448 29.6426 45.2462 31.0715M26.5889 31.4443C23.6188 34.691 18.5852 42.3698 19.0037 49.0645C19.0242 49.7844 19.122 50.7496 19.332 51.8169C19.8748 54.5752 21.1675 58.0153 23.8155 59.6646C24.8648 60.3181 25.9701 60.8951 27.1183 61.3865C30.9934 63.0448 35.358 63.7273 39.7156 63.0817C41.7549 62.7796 43.6531 62.04 45.2462 61.1976C47.1833 60.1733 48.6692 58.9969 49.409 58.2698C50.3621 57.0378 52.2496 54.0402 52.4077 53.0396C52.449 52.7785 52.5223 52.1933 52.5838 51.4026C52.7582 49.1627 52.8379 45.2744 51.8253 42.4395C50.4551 38.604 47.0308 32.8838 45.2462 31.0715M35.5071 40.2264C34.6362 43.65 33.3023 51.7195 34.9336 56.6085M35.5071 18.0719C32.5323 18.2232 28.804 19.5852 28.9856 23.6713C29.1672 27.7573 32.9813 28.8545 35.9018 28.8167C38.8224 28.7788 43.3473 27.3336 42.9841 23.6713C42.6209 20.009 38.4819 17.9206 35.5071 18.0719ZM35.5071 21.2166C34.4691 21.291 33.437 21.835 33.9243 22.895C34.4116 23.9551 35.4353 23.8962 35.9018 23.8668C36.3683 23.8373 37.7277 23.5008 37.7277 22.4828C37.7277 21.4647 36.545 21.1421 35.5071 21.2166ZM29.2205 16.8632C28.6113 16.7991 28.1367 17.838 28.1624 18.5306C28.188 19.2232 28.8037 19.685 29.2205 19.6529C29.6374 19.6208 30.002 18.6731 30.079 18.3062C30.1559 17.9392 29.8298 16.9273 29.2205 16.8632ZM42.4957 16.8632C42.1644 17.0877 41.5081 17.6905 41.5338 18.3062C41.5658 19.0757 42.1751 19.6529 42.4957 19.6529C42.8164 19.6529 43.4616 18.723 43.4616 18.3062C43.4616 17.8893 43.0692 16.8632 42.4957 16.8632Z" stroke="#273210" stroke-width="0.5" stroke-linecap="round" stroke-linejoin="round"/>
<path fill-rule="evenodd" clip-rule="evenodd" d="M35.5072 18.072C32.5324 18.2233 28.8041 19.5853 28.9857 23.6714C29.1673 27.7574 32.9814 28.8546 35.902 28.8167C38.8225 28.7789 43.3474 27.3337 42.9842 23.6714C42.621 20.009 38.482 17.9206 35.5072 18.072ZM33.9244 22.8951C33.4371 21.835 34.4692 21.2911 35.5072 21.2167C36.5452 21.1422 37.7278 21.4648 37.7278 22.4828C37.7278 23.5009 36.3685 23.8374 35.902 23.8668C35.4354 23.8963 34.4117 23.9552 33.9244 22.8951Z" fill="#DBC241"/>
<path d="M29.2207 16.8633C28.6114 16.7991 28.1368 17.8381 28.1625 18.5307C28.1881 19.2233 28.8038 19.6851 29.2207 19.653C29.6375 19.6209 30.0022 18.6732 30.0791 18.3062C30.1561 17.9392 29.8299 16.9274 29.2207 16.8633Z" fill="#DBC241"/>
<path d="M42.4959 16.8633C42.1645 17.0877 41.5082 17.6906 41.5339 18.3062C41.566 19.0758 42.1752 19.653 42.4959 19.653C42.8165 19.653 43.4617 18.7231 43.4617 18.3062C43.4617 17.8894 43.0694 16.8633 42.4959 16.8633Z" fill="#DBC241"/>
<path d="M19.0038 49.0646C18.5854 42.3699 23.6189 34.691 26.589 31.4444C22.5137 33.8109 14.5011 39.9765 15.0529 45.7065C14.4157 46.3355 12.3653 47.8957 12.0205 50.3057C12.6975 51.4684 13.2024 52.6591 13.4945 53.5278L19.3321 51.8169C19.1221 50.7497 19.0243 49.7845 19.0038 49.0646Z" fill="#DBC241"/>
<path d="M45.2463 31.0716C47.0309 32.8839 50.4553 38.6041 51.8254 42.4396C52.8381 45.2745 52.7583 49.1628 52.584 51.4027L58.3859 53.329C58.5653 52.1477 58.9724 50.6804 59.692 49.3862C59.4043 48.3693 58.4083 46.2097 56.7261 45.7065C56.1144 37.8051 48.818 32.6577 45.2463 31.0716Z" fill="#DBC241"/>
<path d="M46.4802 8.12891C47.9912 9.38418 50.4552 12.3131 51.3618 15.2421C51.5604 15.8836 51.7188 16.5954 51.8254 17.3475C54.1349 17.2733 58.7121 15.8975 58.5447 10.988C58.3355 4.85116 53.4539 4.43286 51.3618 4.36312C49.6881 4.30733 47.4101 6.8504 46.4802 8.12891Z" fill="#DBC241"/>
<path d="M25.9504 7.56119C25.1691 6.28595 22.9091 3.861 20.1196 4.36312C16.6328 4.99077 13.9828 8.40758 14.0525 10.988C14.1222 13.5685 15.8215 17.3475 19.6791 17.3475C20.5562 12.3855 23.5083 9.29506 25.9504 7.56119Z" fill="#DBC241"/>
<path d="M17.609 13.8474C17.609 13.429 15.5169 9.29473 18.5156 7.56119M53.3841 15.2421C54.5232 14.382 56.6339 12.076 55.9644 9.73292M58.3156 53.8862C58.3331 53.7095 58.3565 53.5231 58.3859 53.329M58.3859 53.329L52.584 51.4027C52.7583 49.1628 52.8381 45.2745 51.8254 42.4396C50.4553 38.6041 47.0309 32.8839 45.2463 31.0716C48.818 32.6577 56.1144 37.8051 56.7261 45.7065C58.4083 46.2097 59.4043 48.3693 59.692 49.3862C58.9724 50.6804 58.5653 52.1477 58.3859 53.329ZM46.4802 8.12891C47.9912 9.38418 50.4552 12.3131 51.3618 15.2421C51.5604 15.8836 51.7188 16.5954 51.8254 17.3475C54.1349 17.2733 58.7121 15.8975 58.5447 10.988C58.3355 4.85116 53.4539 4.43286 51.3618 4.36312C49.6881 4.30733 47.4101 6.8504 46.4802 8.12891ZM25.9504 7.56119C25.1691 6.28595 22.9091 3.861 20.1196 4.36312C16.6328 4.99077 13.9828 8.40758 14.0525 10.988C14.1222 13.5685 15.8215 17.3475 19.6791 17.3475C20.5562 12.3855 23.5083 9.29506 25.9504 7.56119ZM26.589 31.4444C23.6189 34.691 18.5854 42.3699 19.0038 49.0646C19.0243 49.7845 19.1221 50.7497 19.3321 51.8169L13.4945 53.5278C13.2024 52.6591 12.6975 51.4684 12.0205 50.3057C12.3653 47.8957 14.4157 46.3355 15.0529 45.7065C14.5011 39.9765 22.5137 33.8109 26.589 31.4444ZM35.5072 18.072C32.5324 18.2233 28.8041 19.5853 28.9857 23.6714C29.1673 27.7574 32.9814 28.8546 35.902 28.8167C38.8225 28.7789 43.3474 27.3337 42.9842 23.6714C42.621 20.009 38.482 17.9206 35.5072 18.072ZM35.5072 21.2167C34.4692 21.2911 33.4371 21.835 33.9244 22.8951C34.4117 23.9552 35.4354 23.8963 35.902 23.8668C36.3685 23.8374 37.7278 23.5009 37.7278 22.4828C37.7278 21.4648 36.5452 21.1422 35.5072 21.2167ZM29.2207 16.8633C28.6114 16.7991 28.1368 17.8381 28.1625 18.5307C28.1881 19.2233 28.8038 19.6851 29.2207 19.653C29.6375 19.6209 30.0022 18.6732 30.0791 18.3062C30.1561 17.9392 29.8299 16.9274 29.2207 16.8633ZM42.4959 16.8633C42.1645 17.0877 41.5082 17.6906 41.5339 18.3062C41.566 19.0758 42.1752 19.653 42.4959 19.653C42.8165 19.653 43.4617 18.7231 43.4617 18.3062C43.4617 17.8894 43.0694 16.8633 42.4959 16.8633Z" stroke="#273210" stroke-width="0.5" stroke-linecap="round" stroke-linejoin="round"/>
<path d="M33.484 33.8906C33.4895 33.7445 33.524 33.6134 33.5816 33.4959C33.072 32.9695 31.6581 31.9265 30.079 31.966C29.4287 31.9823 28.8641 32.202 28.4064 32.5582C27.4748 33.2832 26.9859 34.5735 27.1183 35.8642C27.3157 37.7891 28.7466 39.96 30.079 39.7132C31.145 39.5158 32.9751 38.1508 33.7569 37.493C33.3008 36.7731 33.4431 34.9937 33.484 33.8906Z" fill="#82A44B"/>
<path d="M34.1254 37.7891C35.0137 38.0358 37.481 38.0851 37.7277 37.493C37.9319 37.003 38.1022 34.8239 37.9034 33.8906C37.8619 33.696 37.8044 33.5555 37.7277 33.4959C37.2836 33.1505 36.5698 32.5058 35.9019 32.5582C35.2206 32.5582 33.9442 32.7567 33.5816 33.4959C33.524 33.6134 33.4895 33.7445 33.484 33.8906C33.4431 34.9937 33.3008 36.7731 33.7569 37.493C33.8518 37.6427 33.9725 37.7466 34.1254 37.7891Z" fill="#82A44B"/>
<path d="M37.7277 37.493C38.6489 38.2331 40.7774 39.7132 41.9223 39.7132C43.3533 39.7132 44.8337 37.4433 44.8337 36.9005C44.8337 36.3577 45.0311 35.2717 44.8337 34.3838C44.715 33.85 44.1683 33.0842 43.4616 32.5582C42.9928 32.2094 42.4536 31.966 41.9223 31.966C40.8564 31.966 38.7989 33.2491 37.9034 33.8906C38.1022 34.8239 37.9319 37.003 37.7277 37.493Z" fill="#82A44B"/>
<path d="M23.8155 59.6647C21.1675 58.0154 19.8748 54.5753 19.332 51.817L13.4944 53.5278C13.2023 52.6592 12.6974 51.4685 12.0204 50.3058C10.8556 48.3052 9.18167 46.3875 7.20658 46.3355C4.67426 46.2689 2.98494 48.3428 2.06845 50.3058C1.57209 51.3689 1.30241 52.3994 1.24828 53.0397C1.09418 54.8622 1.76198 62.8752 2.37837 63.7998C2.99475 64.7244 3.6112 67.7549 9.4155 67.7036C14.0589 67.6625 23.1521 63.4751 27.1183 61.3866C25.9701 60.8952 24.8649 60.3182 23.8155 59.6647Z" fill="#82A44B"/>
<path d="M52.4077 53.0397C52.2496 54.0403 50.3621 57.0379 49.409 58.2699C48.6692 58.997 47.1833 60.1734 45.2462 61.1977C48.524 63.1951 56.7026 67.2104 63.1952 67.2926C69.6878 67.3748 70.8315 60.2042 70.5918 56.6086C70.891 54.8534 70.9253 51.9922 69.8787 49.714C69.1284 48.0809 67.8226 46.7473 65.6607 46.3355C62.6964 45.7709 60.8141 47.3681 59.692 49.3862C58.9723 50.6804 58.5652 52.1477 58.3858 53.329L52.5839 51.4027C52.5223 52.1934 52.449 52.7786 52.4077 53.0397Z" fill="#82A44B"/>
<path d="M37.7277 37.493C37.481 38.0851 35.0137 38.0358 34.1254 37.7891C33.9725 37.7466 33.8518 37.6427 33.7569 37.493M37.7277 37.493C38.6489 38.2331 40.7774 39.7132 41.9223 39.7132C43.3533 39.7132 44.8337 37.4433 44.8337 36.9005C44.8337 36.3577 45.0311 35.2717 44.8337 34.3838C44.715 33.85 44.1683 33.0842 43.4616 32.5582C42.9928 32.2094 42.4536 31.966 41.9223 31.966C40.8564 31.966 38.7989 33.2491 37.9034 33.8906M37.7277 37.493C37.9319 37.003 38.1022 34.8239 37.9034 33.8906M33.5816 33.4959C33.9442 32.7567 35.2206 32.5582 35.9019 32.5582C36.5698 32.5058 37.2836 33.1505 37.7277 33.4959C37.8044 33.5555 37.8619 33.696 37.9034 33.8906M33.5816 33.4959C33.524 33.6134 33.4895 33.7445 33.484 33.8906C33.4431 34.9937 33.3008 36.7731 33.7569 37.493M33.5816 33.4959C33.072 32.9695 31.6581 31.9265 30.079 31.966C29.4287 31.9823 28.8641 32.202 28.4064 32.5582C27.4748 33.2832 26.9859 34.5735 27.1183 35.8642C27.3157 37.7891 28.7466 39.96 30.079 39.7132C31.145 39.5158 32.9751 38.1508 33.7569 37.493M13.4944 53.5278L19.332 51.817C19.8748 54.5753 21.1675 58.0154 23.8155 59.6647C24.8649 60.3182 25.9701 60.8952 27.1183 61.3866C23.1521 63.4751 14.0589 67.6625 9.4155 67.7036C3.6112 67.7549 2.99475 64.7244 2.37837 63.7998C1.76198 62.8752 1.09418 54.8622 1.24828 53.0397C1.30241 52.3994 1.57209 51.3689 2.06845 50.3058M13.4944 53.5278L13.8327 54.8622M13.4944 53.5278C13.2023 52.6592 12.6974 51.4685 12.0204 50.3058C10.8556 48.3052 9.18167 46.3875 7.20658 46.3355C4.67426 46.2689 2.98494 48.3428 2.06845 50.3058M58.3155 53.8862C58.333 53.7096 58.3564 53.5232 58.3858 53.329M58.3858 53.329L52.5839 51.4027C52.5223 52.1934 52.449 52.7786 52.4077 53.0397C52.2496 54.0403 50.3621 57.0379 49.409 58.2699C48.6692 58.997 47.1833 60.1734 45.2462 61.1977C48.524 63.1951 56.7026 67.2104 63.1952 67.2926C69.6878 67.3748 70.8315 60.2042 70.5918 56.6086C70.891 54.8534 70.9253 51.9922 69.8787 49.714M58.3858 53.329C58.5652 52.1477 58.9723 50.6804 59.692 49.3862C60.8141 47.3681 62.6964 45.7709 65.6607 46.3355C67.8226 46.7473 69.1284 48.0809 69.8787 49.714M2.06845 50.3058C4.50619 49.0063 9.54736 49.1602 10.2101 60.1711M69.8787 49.714C67.0875 48.6331 61.5178 49.3513 61.5688 60.872" stroke="#273210" stroke-width="0.5" stroke-linecap="round" stroke-linejoin="round"/>
</svg>
