<svg width="72" height="72" viewBox="0 0 72 72" fill="none" xmlns="http://www.w3.org/2000/svg">
<path d="M6.10593 56.9839V56.9839C5.20848 64.327 10.9385 70.8 18.3363 70.8H53.6501C61.0355 70.8 66.738 64.3076 65.7852 56.9839V56.9839L65.11 52.1606H60.8743H58.8542H57.7275C57.6704 53.9327 57.6344 54.8431 57.6344 56.4614C58.9105 56.4794 61.789 57.71 61.7631 59.816C61.7372 61.9219 59.9568 63.6867 57.6344 63.6867C55.312 63.6867 54.1508 62.2674 54.0218 59.816C53.8928 57.3646 56.6744 56.3529 57.6344 56.4614C57.6344 54.8431 57.6704 53.9327 57.7275 52.1606H52.5983C54.4592 53.7253 55.5303 55.2953 53.6342 55.9208C51.1426 56.7428 46.1376 54.3773 42.3829 52.1606C41.196 51.4599 40.1341 50.7741 39.316 50.2085C39.2175 50.7865 39.0878 51.45 38.9286 52.1606C38.5887 53.6776 38.114 55.4094 37.5202 56.9839C36.5172 59.643 35.1743 61.8531 33.5661 61.821C32.0553 61.7908 31.5505 59.6454 31.5318 56.9839C31.5209 55.4456 31.6725 53.7349 31.8861 52.1606H14.0927C14.0588 53.523 14.0387 54.6808 14.0387 55.9454C15.6593 55.9454 18.1674 57.8788 18.1674 59.816C18.1674 61.7532 15.7015 63.9049 14.0387 63.6867C12.3759 63.4684 10.168 61.6266 10.168 59.816C10.168 58.0054 12.3685 55.9454 14.0387 55.9454C14.0387 54.6808 14.0588 53.523 14.0927 52.1606H11.1412H6.7143L6.10593 56.9839Z" fill="#C3AFFA"/>
<path d="M14.176 49.1137H11.7139L11.1412 52.1606H14.0927C14.1151 51.2634 14.1434 50.2774 14.176 49.1137Z" fill="#C3AFFA"/>
<path d="M15.9408 50.8098C15.4597 50.3889 16.701 49.5037 17.3818 49.1137H14.176C14.1434 50.2774 14.1151 51.2634 14.0927 52.1606H31.8861C32.0384 51.0384 32.2222 49.9855 32.4011 49.1137C29.8081 49.4945 16.5421 51.3359 15.9408 50.8098Z" fill="#C3AFFA"/>
<path d="M57.8156 49.1137H48.1099C49.4629 49.8807 51.2408 51.0192 52.5983 52.1606H57.7275C57.7531 51.3656 57.7829 50.3972 57.8156 49.1137Z" fill="#C3AFFA"/>
<path d="M23.7152 23.3461C26.8221 23.1249 27.8587 21.1338 27.8587 20.1013C27.8587 19.0689 27.8587 16.8566 26.2225 15.7794C24.7485 14.809 22.802 14.6657 21.602 15.7794C21.4701 15.9019 21.3472 16.0395 21.235 16.1929C20.6636 16.9738 19.7161 18.4691 20.1017 20.1013C20.4808 21.7062 22.175 23.4558 23.7152 23.3461Z" fill="#C3AFFA"/>
<path d="M31.892 38.1781C32.6926 39.5133 33.5598 41.9086 35.2943 41.9086C36.6285 41.4306 39.0967 40.4745 39.7638 39.0405C40.4309 37.6064 40.4309 35.6073 39.316 34.2876C38.201 32.9678 35.2943 32.82 33.9601 33.6872C32.6258 34.5544 32.0617 37.3212 31.892 38.1781Z" fill="#C3AFFA"/>
<path d="M49.3464 18.8653C48.22 19.5225 48.1249 22.149 48.3886 23.676C48.8856 24.5553 50.3092 26.1927 52.2662 26.2748C52.4409 26.2822 52.62 26.2771 52.803 26.258C54.4497 26.086 55.1536 24.9856 55.4197 23.676C55.6045 22.7666 55.5782 21.7562 55.5099 20.8858C55.4527 20.1563 55.0712 19.6479 54.4971 19.3065C53.3997 18.6541 50.726 18.0603 49.3464 18.8653Z" fill="#C3AFFA"/>
<path d="M58.8542 52.1606H60.8743L60.2172 49.1137H57.8156C57.7829 50.3972 57.7531 51.3656 57.7275 52.1606H58.8542Z" fill="#C3AFFA"/>
<path d="M56.6347 37.6064C57.0711 38.1781 58.4674 37.9182 58.4674 39.0405C58.4674 40.1628 57.9211 41.2199 58.2712 41.5642C58.414 41.7046 58.7042 42.3385 58.7793 43.0592C60.407 42.8417 63.638 41.4467 63.5402 37.6064C63.4619 34.5304 60.4727 34.5005 58.1015 35.0903C57.5124 35.2368 56.9615 35.4215 56.5028 35.6073C56.9513 36.309 56.3738 37.2648 56.6347 37.6064Z" fill="#C3AFFA"/>
<path d="M14.146 33.1343C14.6597 32.2352 16.5863 32.8774 16.7147 32.3209C16.7788 32.0431 17.1202 31.3814 17.6271 30.8787C16.923 30.2709 15.8125 29.512 14.6141 29.0515C13.0741 28.4599 11.389 28.3611 10.2346 29.7093C8.18166 32.1068 11.0899 35.6356 12.8007 37.1003C13.1022 36.7467 13.509 36.4611 13.8035 36.2596C14.6169 35.703 13.6322 34.0333 14.146 33.1343Z" fill="#C3AFFA"/>
<path d="M14.0387 59.816C14.0387 59.816 14.0387 58.3183 14.0387 55.9454M57.6344 59.816C57.6344 59.816 57.6344 58.5301 57.6344 56.4614M14.0387 55.9454C12.3685 55.9454 10.168 58.0054 10.168 59.816C10.168 61.6266 12.3759 63.4684 14.0387 63.6867C15.7015 63.9049 18.1674 61.7532 18.1674 59.816C18.1674 57.8788 15.6593 55.9454 14.0387 55.9454ZM14.0387 55.9454C14.0387 54.6808 14.0588 53.523 14.0927 52.1606M57.6344 56.4614C56.6744 56.3529 53.8928 57.3646 54.0218 59.816C54.1508 62.2674 55.312 63.6867 57.6344 63.6867C59.9568 63.6867 61.7372 61.9219 61.7631 59.816C61.789 57.71 58.9105 56.4794 57.6344 56.4614ZM57.6344 56.4614C57.6344 54.8431 57.6704 53.9327 57.7275 52.1606M19.5403 30.3943C18.8112 30.0298 18.1358 30.3742 17.6271 30.8787M17.6271 30.8787C17.1202 31.3814 16.7788 32.0431 16.7147 32.3209C16.5863 32.8774 14.6597 32.2352 14.146 33.1343C13.6322 34.0333 14.6169 35.703 13.8035 36.2596C13.509 36.4611 13.1022 36.7467 12.8007 37.1003C11.0899 35.6356 8.18166 32.1068 10.2346 29.7093C11.389 28.3611 13.0741 28.4599 14.6141 29.0515C15.8125 29.512 16.923 30.2709 17.6271 30.8787ZM11.1412 52.1606H6.7143L6.10593 56.9839V56.9839C5.20848 64.327 10.9385 70.8 18.3363 70.8H53.6501C61.0355 70.8 66.738 64.3076 65.7852 56.9839V56.9839L65.11 52.1606H60.8743M11.1412 52.1606L11.7139 49.1137H14.176M11.1412 52.1606H14.0927M31.8861 52.1606C32.0384 51.0384 32.2222 49.9855 32.4011 49.1137C29.8081 49.4945 16.5421 51.3359 15.9408 50.8098C15.4597 50.3889 16.701 49.5037 17.3818 49.1137H14.176M31.8861 52.1606C31.6725 53.7349 31.5209 55.4456 31.5318 56.9839C31.5505 59.6454 32.0553 61.7908 33.5661 61.821C35.1743 61.8531 36.5172 59.643 37.5202 56.9839C38.114 55.4094 38.5887 53.6776 38.9286 52.1606C39.0878 51.45 39.2175 50.7865 39.316 50.2085C40.1341 50.7741 41.196 51.4599 42.3829 52.1606C46.1376 54.3773 51.1426 56.7428 53.6342 55.9208C55.5303 55.2953 54.4592 53.7253 52.5983 52.1606M31.8861 52.1606H14.0927M52.5983 52.1606C51.2408 51.0192 49.4629 49.8807 48.1099 49.1137H57.8156M52.5983 52.1606H57.7275M60.8743 52.1606H58.8542H57.7275M60.8743 52.1606L60.2172 49.1137H57.8156M57.7275 52.1606C57.7531 51.3656 57.7829 50.3972 57.8156 49.1137M14.0927 52.1606C14.1151 51.2634 14.1434 50.2774 14.176 49.1137M56.6347 37.6064C57.0711 38.1781 58.4674 37.9182 58.4674 39.0405C58.4674 40.1628 57.9211 41.2199 58.2712 41.5642C58.414 41.7046 58.7042 42.3385 58.7793 43.0592C60.407 42.8417 63.638 41.4467 63.5402 37.6064C63.4619 34.5304 60.4727 34.5005 58.1015 35.0903C57.5124 35.2368 56.9615 35.4215 56.5028 35.6073C56.9513 36.309 56.3738 37.2648 56.6347 37.6064ZM35.2943 41.9086C33.5598 41.9086 32.6926 39.5133 31.892 38.1781C32.0617 37.3212 32.6258 34.5544 33.9601 33.6872C35.2943 32.82 38.201 32.9678 39.316 34.2876C40.4309 35.6073 40.4309 37.6064 39.7638 39.0405C39.0967 40.4745 36.6285 41.4306 35.2943 41.9086ZM23.7152 23.3461C26.8221 23.1249 27.8587 21.1338 27.8587 20.1013C27.8587 19.0689 27.8587 16.8566 26.2225 15.7794C24.7485 14.809 22.802 14.6657 21.602 15.7794C21.4701 15.9019 21.3472 16.0395 21.235 16.1929C20.6636 16.9738 19.7161 18.4691 20.1017 20.1013C20.4808 21.7062 22.175 23.4558 23.7152 23.3461ZM48.3886 23.676C48.1249 22.149 48.22 19.5225 49.3464 18.8653C50.726 18.0603 53.3997 18.6541 54.4971 19.3065C55.0712 19.6479 55.4527 20.1563 55.5099 20.8858C55.5782 21.7562 55.6045 22.7666 55.4197 23.676C55.1536 24.9856 54.4497 26.086 52.803 26.258C52.62 26.2771 52.4409 26.2822 52.2662 26.2748C50.3092 26.1927 48.8856 24.5553 48.3886 23.676Z" stroke="#273210" stroke-width="0.5" stroke-linecap="round" stroke-linejoin="round"/>
<path d="M17.3817 49.1137C16.7009 49.5037 15.4597 50.3889 15.9407 50.8098C16.542 51.3359 29.808 49.4945 32.4011 49.1137C32.2221 49.9855 32.0383 51.0384 31.886 52.1606C31.6724 53.7349 31.5209 55.4456 31.5317 56.9839C31.5504 59.6454 32.0553 61.7908 33.5661 61.821C35.1742 61.8531 36.5172 59.643 37.5201 56.9839C38.114 55.4094 38.5886 53.6776 38.9285 52.1606C39.0877 51.45 39.2174 50.7865 39.3159 50.2085C40.134 50.7741 41.196 51.4599 42.3828 52.1606C46.1376 54.3773 51.1426 56.7428 53.6342 55.9208C55.5302 55.2953 54.4592 53.7253 52.5982 52.1606C51.2407 51.0192 49.4628 49.8807 48.1098 49.1137C47.635 48.8982 46.3509 48.4577 45.0124 48.4195C45.4049 48.1519 45.5843 47.6712 45.4687 47.1763C45.2745 46.3451 44.2481 45.4735 42.0008 45.5035C41.7888 45.7452 40.955 46.3406 39.3159 46.7883C35.9156 47.3961 35.218 43.7884 35.2942 41.9086C33.5135 47.5949 29.5951 45.5591 27.8586 43.8304C24.1855 43.209 26.5604 45.4079 27.8586 46.5642C27.3576 46.5077 26.5531 46.6021 25.5928 46.7883C23.0328 47.2846 19.3648 48.433 17.3817 49.1137Z" fill="#DBC241"/>
<path d="M14.0386 55.9454C12.3684 55.9454 10.168 58.0054 10.168 59.816C10.168 61.6266 12.3758 63.4684 14.0386 63.6867C15.7014 63.9049 18.1673 61.7532 18.1673 59.816C18.1673 57.8788 15.6592 55.9454 14.0386 55.9454Z" fill="#DBC241"/>
<path d="M57.6343 56.4615C56.6743 56.3529 53.8927 57.3646 54.0217 59.816C54.1507 62.2674 55.3119 63.6867 57.6343 63.6867C59.9567 63.6867 61.7371 61.9219 61.763 59.816C61.7889 57.71 58.9104 56.4794 57.6343 56.4615Z" fill="#DBC241"/>
<path d="M50.5243 41.9086C51.1063 43.4323 53.143 46.2845 56.6346 45.5035C57.1741 45.4562 57.5885 45.3238 57.9032 45.1349C58.7021 44.6554 58.8575 43.8103 58.7792 43.0593C58.7041 42.3385 58.4139 41.7046 58.2711 41.5642C57.9211 41.2199 58.4673 40.1628 58.4673 39.0405C58.4673 37.9182 57.0711 38.1781 56.6346 37.6064C56.3737 37.2648 56.9512 36.309 56.5027 35.6073C56.2008 35.1351 55.4341 34.778 53.6342 34.8007C50.0548 34.8459 50.0695 39.5581 50.5243 41.9086Z" fill="#DBC241"/>
<path d="M16.2009 40.5408C18.4956 40.9518 20.513 39.1369 21.2349 38.1781C22.0257 36.2685 22.7939 32.0383 19.5402 30.3943C18.8111 30.0298 18.1357 30.3742 17.627 30.8787C17.1201 31.3814 16.7787 32.0431 16.7146 32.3209C16.5862 32.8774 14.6596 32.2352 14.1459 33.1343C13.6322 34.0333 14.6168 35.703 13.8034 36.2596C13.5089 36.4611 13.1022 36.7467 12.8006 37.1003C12.2692 37.7234 12.0643 38.5574 13.3753 39.5133C13.7513 39.7874 14.0896 39.9981 14.391 40.1582C15.4073 40.698 16.0028 40.6618 16.2009 40.5408Z" fill="#DBC241"/>
<path d="M23.7152 23.3461C22.1749 23.4558 20.4808 21.7062 20.1017 20.1013C19.9119 20.2185 19.7016 20.3301 19.4774 20.4281C17.5658 21.5373 15.3129 23.8616 18.1432 26.4493C21.2919 29.3281 23.1698 25.58 23.7152 23.3461Z" fill="#DBC241"/>
<path d="M20.1017 20.1013C19.7161 18.4691 20.6635 16.9738 21.2349 16.1929C21.3472 16.0395 21.4701 15.9019 21.602 15.7794C20.4508 14.1495 17.492 11.8345 14.866 15.6145C14.866 21.119 17.6388 21.2317 19.4774 20.4281C19.6924 20.3034 19.903 20.194 20.1017 20.1013Z" fill="#DBC241"/>
<path d="M26.2225 15.7794C27.4161 13.608 28.5857 9.30847 23.7152 9.4821C18.8446 9.65574 20.277 13.7527 21.602 15.7794C22.8019 14.6657 24.7484 14.809 26.2225 15.7794Z" fill="#DBC241"/>
<path d="M26.2225 15.7794C27.8586 16.8566 27.8586 19.0689 27.8586 20.1013C29.8259 20.7159 33.6245 20.942 33.0807 16.9303C32.4011 11.9157 28.1398 13.2274 26.2225 15.7794Z" fill="#DBC241"/>
<path d="M27.8586 20.1013C27.8586 21.1338 26.822 23.1249 23.7152 23.3461C24.1674 25.5994 25.998 29.4299 29.7031 26.726C29.7031 25.5585 33.5507 23.1249 27.8586 20.1013Z" fill="#DBC241"/>
<path d="M31.892 38.1781C32.0617 37.3212 32.6258 34.5544 33.96 33.6872C32.27 31.1616 28.4764 27.5152 26.822 33.1343C25.1676 38.7534 30.1575 37.6064 31.892 38.1781Z" fill="#DBC241"/>
<path d="M33.96 33.6872C35.2942 32.82 38.2009 32.9678 39.3159 34.2876C39.3621 34.1765 39.4211 34.0656 39.4916 33.9562C40.7117 31.5589 41.8166 27.3181 37.5201 27.2163C31.892 27.0829 33.026 31.767 33.96 33.6872Z" fill="#DBC241"/>
<path d="M39.3159 34.2876C40.4309 35.6073 40.4309 37.6064 39.7638 39.0405C42.2837 39.6338 47.0924 39.7778 46.168 35.6073C45.8189 34.0328 45.1304 33.1091 44.3167 32.6411C42.5882 31.6468 40.2949 32.7089 39.4916 33.9562C39.4331 34.0711 39.3743 34.1818 39.3159 34.2876Z" fill="#DBC241"/>
<path d="M39.7638 39.0405C39.0967 40.4745 36.6284 41.4306 35.2942 41.9086C35.218 43.7884 35.9156 47.3961 39.3159 46.7883C40.955 46.3406 41.7888 45.7452 42.0008 45.5035C44.1488 42.3617 41.4044 39.8857 39.7638 39.0405Z" fill="#DBC241"/>
<path d="M27.8586 43.8304C29.5951 45.5591 33.5135 47.5949 35.2942 41.9086C33.5597 41.9086 32.6925 39.5133 31.892 38.1781C27.3895 37.4882 27.327 41.6588 27.8586 43.8304Z" fill="#DBC241"/>
<path d="M48.3886 23.676C46.1962 24.16 42.6828 26.0953 46.168 29.9644C48.0217 31.1278 51.8366 32.0187 52.2661 26.2748C50.3091 26.1927 48.8856 24.5553 48.3886 23.676Z" fill="#DBC241"/>
<path d="M48.3886 23.676C48.1248 22.149 48.2199 19.5225 49.3464 18.8653C49.3028 18.8748 49.1844 18.7944 49.0084 18.6615C48.8977 18.5861 48.7917 18.5046 48.691 18.4179C47.33 17.3738 44.2823 15.1827 43.0904 19.5225C41.8912 23.8888 46.1228 24.1108 48.3886 23.676Z" fill="#DBC241"/>
<path d="M49.3464 18.8653C50.726 18.0603 53.3996 18.6541 54.497 19.3065C55.7861 17.1108 57.1446 12.7886 52.2661 13.0654C46.7539 13.378 46.8146 16.804 48.691 18.4179C48.8106 18.5097 48.9172 18.5927 49.0084 18.6615C49.1168 18.7354 49.2296 18.8036 49.3464 18.8653Z" fill="#DBC241"/>
<path d="M55.5098 20.8858C55.5781 21.7562 55.6044 22.7666 55.4196 23.676C56.1931 23.7447 57.2939 23.7298 58.3348 23.5043C59.8188 23.1827 61.181 22.4328 61.2985 20.8858C61.083 19.226 60.2511 17.0095 58.4551 16.9446C57.4548 16.9085 56.1555 17.5398 54.497 19.3065C55.0711 19.6479 55.4526 20.1563 55.5098 20.8858Z" fill="#DBC241"/>
<path d="M52.8029 26.258C52.6199 26.2771 52.4409 26.2822 52.2661 26.2748C52.3615 27.935 53.1439 31.1638 55.5098 30.7973C56.793 30.5985 57.6526 29.9905 58.218 29.3256C58.9558 28.4581 59.1927 27.4939 59.2162 27.2163C59.2397 26.9398 59.0458 26.109 58.2993 25.2906C57.7218 24.6575 56.8136 24.0319 55.4196 23.676C55.1535 24.9856 54.4496 26.0859 52.8029 26.258Z" fill="#DBC241"/>
<path d="M14.0386 59.816C14.0386 59.816 14.0386 58.3183 14.0386 55.9454M57.6343 59.816C57.6343 59.816 57.6343 58.5302 57.6343 56.4615M14.0386 55.9454C12.3684 55.9454 10.168 58.0054 10.168 59.816C10.168 61.6266 12.3758 63.4684 14.0386 63.6867C15.7014 63.9049 18.1673 61.7532 18.1673 59.816C18.1673 57.8788 15.6592 55.9454 14.0386 55.9454ZM14.0386 55.9454C14.0386 54.6808 14.0587 53.523 14.0926 52.1606C14.115 51.2634 14.1433 50.2774 14.1759 49.1137M57.6343 56.4615C56.6743 56.3529 53.8927 57.3646 54.0217 59.816C54.1507 62.2674 55.3119 63.6867 57.6343 63.6867C59.9567 63.6867 61.7371 61.9219 61.763 59.816C61.7889 57.71 58.9104 56.4794 57.6343 56.4615ZM57.6343 56.4615C57.6343 54.8431 57.6703 53.9327 57.7274 52.1606C57.753 51.3656 57.7828 50.3972 57.8156 49.1137C57.843 48.0371 57.8725 46.7387 57.9032 45.1349M17.3817 49.1137C16.7009 49.5037 15.4597 50.3889 15.9407 50.8098C16.542 51.3359 29.808 49.4945 32.4011 49.1137C32.2221 49.9855 32.0383 51.0384 31.886 52.1606C31.6724 53.7349 31.5209 55.4456 31.5317 56.9839C31.5504 59.6454 32.0553 61.7908 33.5661 61.821C35.1742 61.8531 36.5172 59.643 37.5201 56.9839C38.114 55.4094 38.5886 53.6776 38.9285 52.1606C39.0877 51.45 39.2174 50.7865 39.3159 50.2085C40.134 50.7741 41.196 51.4599 42.3828 52.1606C46.1376 54.3773 51.1426 56.7428 53.6342 55.9208C55.5302 55.2953 54.4592 53.7253 52.5982 52.1606C51.2407 51.0192 49.4628 49.8807 48.1098 49.1137C47.635 48.8982 46.3509 48.4577 45.0124 48.4195C45.4049 48.1519 45.5843 47.6712 45.4687 47.1763M17.3817 49.1137C19.3648 48.433 23.0328 47.2846 25.5928 46.7883M17.3817 49.1137H14.1759M27.8586 43.8304C24.1855 43.209 26.5604 45.4079 27.8586 46.5642C27.3576 46.5077 26.5531 46.6021 25.5928 46.7883M27.8586 43.8304C29.5951 45.5591 33.5135 47.5949 35.2942 41.9086M27.8586 43.8304C27.327 41.6588 27.3895 37.4882 31.892 38.1781M42.0008 45.5035C44.2481 45.4735 45.2745 46.3451 45.4687 47.1763M42.0008 45.5035C41.7888 45.7452 40.955 46.3406 39.3159 46.7883C35.9156 47.3961 35.218 43.7884 35.2942 41.9086M42.0008 45.5035C44.1488 42.3617 41.4044 39.8857 39.7638 39.0405M25.5928 46.7883C24.9275 44.3754 23.1245 39.2753 21.2349 38.1781M21.2349 38.1781C20.513 39.1369 18.4956 40.9518 16.2009 40.5408C16.0028 40.6618 15.4073 40.698 14.391 40.1582M21.2349 38.1781C22.0257 36.2685 22.7939 32.0383 19.5402 30.3943C18.8111 30.0298 18.1357 30.3742 17.627 30.8787M17.627 30.8787C17.1201 31.3814 16.7787 32.0431 16.7146 32.3209C16.5862 32.8774 14.6596 32.2352 14.1459 33.1343C13.6322 34.0333 14.6168 35.703 13.8034 36.2596C13.5089 36.4611 13.1022 36.7467 12.8006 37.1003C12.2692 37.7234 12.0643 38.5574 13.3753 39.5133C13.7513 39.7874 14.0896 39.9981 14.391 40.1582M17.627 30.8787C16.9229 30.2709 15.8124 29.512 14.614 29.0515C14.7389 22.8682 14.8414 17.7254 14.866 15.6145M45.4687 47.1763C46.3434 45.5867 48.579 42.3076 50.5243 41.9086M50.5243 41.9086C51.1063 43.4323 53.143 46.2845 56.6346 45.5035C57.1741 45.4562 57.5885 45.3238 57.9032 45.1349M50.5243 41.9086C50.0695 39.5581 50.0548 34.8459 53.6342 34.8007C55.4341 34.778 56.2008 35.1351 56.5027 35.6073M56.5027 35.6073C56.9512 36.309 56.3737 37.2648 56.6346 37.6064C57.0711 38.1781 58.4673 37.9182 58.4673 39.0405C58.4673 40.1628 57.9211 41.2199 58.2711 41.5642C58.4139 41.7046 58.7041 42.3385 58.7792 43.0593M56.5027 35.6073C56.9614 35.4215 57.5124 35.2368 58.1014 35.0903M58.7792 43.0593C60.4069 42.8417 63.6379 41.4467 63.5401 37.6064C63.4618 34.5304 60.4726 34.5005 58.1014 35.0903M58.7792 43.0593C58.8575 43.8103 58.7021 44.6554 57.9032 45.1349M58.1014 35.0903C58.1414 33.1054 58.1808 31.1653 58.218 29.3256M14.391 40.1582C14.3123 44.1488 14.2367 46.941 14.1759 49.1137M35.2942 41.9086C33.5597 41.9086 32.6925 39.5133 31.892 38.1781M35.2942 41.9086C36.6284 41.4306 39.0967 40.4745 39.7638 39.0405M31.892 38.1781C32.0617 37.3212 32.6258 34.5544 33.96 33.6872M31.892 38.1781C30.1575 37.6064 25.1676 38.7534 26.822 33.1343C28.4764 27.5152 32.27 31.1616 33.96 33.6872M39.7638 39.0405C40.4309 37.6064 40.4309 35.6073 39.3159 34.2876M39.7638 39.0405C42.2837 39.6338 47.0924 39.7778 46.168 35.6073C45.8189 34.0328 45.1304 33.1091 44.3167 32.6411M39.3159 34.2876C38.2009 32.9678 35.2942 32.82 33.96 33.6872M39.3159 34.2876C39.3621 34.1765 39.4211 34.0656 39.4916 33.9562M39.3159 34.2876C39.3743 34.1818 39.4331 34.0711 39.4916 33.9562M33.96 33.6872C33.026 31.767 31.892 27.0829 37.5201 27.2163C41.8166 27.3181 40.7117 31.5589 39.4916 33.9562M33.96 33.6872C32.9135 31.7392 30.5969 27.6198 29.7031 26.726M29.7031 26.726C25.998 29.4299 24.1674 25.5994 23.7152 23.3461M29.7031 26.726C29.7031 25.5585 33.5507 23.1249 27.8586 20.1013M44.3167 32.6411L46.168 29.9644M44.3167 32.6411C42.5882 31.6468 40.2949 32.7089 39.4916 33.9562M46.168 29.9644C42.6828 26.0953 46.1962 24.16 48.3886 23.676M46.168 29.9644C48.0217 31.1278 51.8366 32.0187 52.2661 26.2748M23.7152 23.3461C26.822 23.1249 27.8586 21.1338 27.8586 20.1013M23.7152 23.3461C22.1749 23.4558 20.4808 21.7062 20.1017 20.1013M23.7152 23.3461C23.1698 25.58 21.2919 29.3281 18.1432 26.4493C15.3129 23.8616 17.5658 21.5373 19.4774 20.4281M27.8586 20.1013C27.8586 19.0689 27.8586 16.8566 26.2225 15.7794M27.8586 20.1013C29.8259 20.7159 33.6245 20.942 33.0807 16.9303C32.4011 11.9157 28.1398 13.2274 26.2225 15.7794M26.2225 15.7794C27.4161 13.608 28.5857 9.30847 23.7152 9.4821C18.8446 9.65574 20.277 13.7527 21.602 15.7794M26.2225 15.7794C24.7484 14.809 22.8019 14.6657 21.602 15.7794M20.1017 20.1013C19.7161 18.4691 20.6635 16.9738 21.2349 16.1929C21.3472 16.0395 21.4701 15.9019 21.602 15.7794M20.1017 20.1013C19.9119 20.2185 19.7016 20.3301 19.4774 20.4281M20.1017 20.1013C19.903 20.194 19.6924 20.3034 19.4774 20.4281M21.602 15.7794C20.4508 14.1495 17.492 11.8345 14.866 15.6145M14.866 15.6145C14.8697 15.298 14.8716 15.0497 14.8716 14.8763C14.8716 10.2315 25.4833 1.20001 36.734 1.20001C47.9847 1.20001 58.4673 11.7798 58.4673 15.7794C58.4673 16.0058 58.4631 16.4017 58.4551 16.9446M14.866 15.6145C14.866 21.119 17.6388 21.2317 19.4774 20.4281M48.3886 23.676C48.1248 22.149 48.2199 19.5225 49.3464 18.8653M48.3886 23.676C48.8856 24.5553 50.3091 26.1927 52.2661 26.2748M48.3886 23.676C46.1228 24.1108 41.8912 23.8888 43.0904 19.5225C44.2823 15.1827 47.33 17.3738 48.691 18.4179M49.3464 18.8653C50.726 18.0603 53.3996 18.6541 54.497 19.3065M49.3464 18.8653C49.3028 18.8748 49.1844 18.7944 49.0084 18.6615M49.3464 18.8653C49.2296 18.8036 49.1168 18.7354 49.0084 18.6615M52.2661 26.2748C52.4409 26.2822 52.6199 26.2771 52.8029 26.258C54.4496 26.0859 55.1535 24.9856 55.4196 23.676M52.2661 26.2748C52.3615 27.935 53.1439 31.1638 55.5098 30.7973C56.793 30.5985 57.6526 29.9905 58.218 29.3256M55.4196 23.676C55.6044 22.7666 55.5781 21.7562 55.5098 20.8858C55.4526 20.1563 55.0711 19.6479 54.497 19.3065M55.4196 23.676C56.1931 23.7447 57.2939 23.7298 58.3348 23.5043M55.4196 23.676C56.8136 24.0319 57.7218 24.6575 58.2993 25.2906M54.497 19.3065C55.7861 17.1108 57.1446 12.7886 52.2661 13.0654C46.7539 13.378 46.8146 16.804 48.691 18.4179M54.497 19.3065C56.1555 17.5398 57.4548 16.9085 58.4551 16.9446M58.4551 16.9446C60.2511 17.0095 61.083 19.226 61.2985 20.8858C61.181 22.4328 59.8188 23.1827 58.3348 23.5043M58.3348 23.5043C58.3234 24.078 58.3116 24.6743 58.2993 25.2906M58.2993 25.2906C59.0458 26.109 59.2397 26.9398 59.2162 27.2163C59.1927 27.4939 58.9558 28.4581 58.218 29.3256M49.0084 18.6615C48.8977 18.5861 48.7917 18.5046 48.691 18.4179M49.0084 18.6615C48.9172 18.5927 48.8106 18.5097 48.691 18.4179" stroke="#273210" stroke-width="0.5" stroke-linecap="round" stroke-linejoin="round"/>
<path d="M17.3816 49.1137C16.7008 49.5037 15.4595 50.3889 15.9406 50.8098C16.5419 51.3359 29.8079 49.4945 32.4009 49.1137C32.222 49.9855 32.0382 51.0384 31.8859 52.1606C31.6723 53.7349 31.5207 55.4456 31.5316 56.9839C31.5503 59.6454 32.0552 61.7908 33.5659 61.821C35.1741 61.8531 36.5171 59.643 37.52 56.9839C38.1138 55.4094 38.5885 53.6776 38.9284 52.1606C39.0876 51.45 39.2173 50.7865 39.3158 50.2085C40.1339 50.7741 41.1959 51.4599 42.3827 52.1606C46.1374 54.3773 51.1424 56.7428 53.6341 55.9208C55.5301 55.2953 54.4591 53.7253 52.5981 52.1606C51.2406 51.0192 49.4627 49.8807 48.1097 49.1137C47.6349 48.8982 46.3508 48.4577 45.0123 48.4195C45.4048 48.1519 45.5842 47.6712 45.4686 47.1763C45.2744 46.3451 44.2479 45.4735 42.0007 45.5035C41.7887 45.7452 40.9549 46.3406 39.3158 46.7883C35.9155 47.3961 35.2179 43.7884 35.2941 41.9086C33.5133 47.5949 29.595 45.5591 27.8585 43.8304C24.1854 43.209 26.5603 45.4079 27.8585 46.5642C27.3574 46.5077 26.553 46.6021 25.5926 46.7883C23.0327 47.2846 19.3647 48.433 17.3816 49.1137Z" fill="#82A44B"/>
<path d="M14.0385 55.9454C12.3683 55.9454 10.1678 58.0054 10.1678 59.816C10.1678 61.6266 12.3757 63.4684 14.0385 63.6867C15.7013 63.9049 18.1672 61.7532 18.1672 59.816C18.1672 57.8788 15.6591 55.9454 14.0385 55.9454Z" fill="#82A44B"/>
<path d="M57.6342 56.4615C56.6742 56.3529 53.8926 57.3646 54.0216 59.816C54.1506 62.2674 55.3118 63.6867 57.6342 63.6867C59.9566 63.6867 61.737 61.9219 61.7629 59.816C61.7888 57.71 58.9103 56.4794 57.6342 56.4615Z" fill="#82A44B"/>
<path d="M50.5242 41.9086C51.1062 43.4323 53.1429 46.2845 56.6345 45.5035C57.174 45.4562 57.5884 45.3238 57.9031 45.1349C58.702 44.6554 58.8574 43.8103 58.7791 43.0593C58.704 42.3385 58.4138 41.7046 58.271 41.5642C57.9209 41.2199 58.4672 40.1628 58.4672 39.0405C58.4672 37.9182 57.0709 38.1781 56.6345 37.6064C56.3736 37.2648 56.9511 36.309 56.5026 35.6073C56.2007 35.1351 55.434 34.778 53.6341 34.8007C50.0547 34.8459 50.0694 39.5581 50.5242 41.9086Z" fill="#82A44B"/>
<path d="M16.2008 40.5408C18.4955 40.9518 20.5129 39.1369 21.2348 38.1781C22.0256 36.2685 22.7938 32.0383 19.5401 30.3943C18.811 30.0298 18.1356 30.3742 17.6269 30.8787C17.12 31.3814 16.7786 32.0431 16.7145 32.3209C16.5861 32.8774 14.6595 32.2352 14.1458 33.1343C13.632 34.0333 14.6167 35.703 13.8033 36.2596C13.5088 36.4611 13.102 36.7467 12.8005 37.1003C12.2691 37.7234 12.0642 38.5574 13.3752 39.5133C13.7511 39.7874 14.0895 39.9981 14.3909 40.1582C15.4072 40.698 16.0026 40.6618 16.2008 40.5408Z" fill="#82A44B"/>
<path d="M14.0385 59.816C14.0385 59.816 14.0385 58.3183 14.0385 55.9454M57.6342 59.816C57.6342 59.816 57.6342 58.5302 57.6342 56.4615M14.0385 55.9454C12.3683 55.9454 10.1678 58.0054 10.1678 59.816C10.1678 61.6266 12.3757 63.4684 14.0385 63.6867C15.7013 63.9049 18.1672 61.7532 18.1672 59.816C18.1672 57.8788 15.6591 55.9454 14.0385 55.9454ZM14.0385 55.9454C14.0385 54.6808 14.0586 53.523 14.0925 52.1606C14.1149 51.2634 14.1432 50.2774 14.1758 49.1137M57.6342 56.4615C56.6742 56.3529 53.8926 57.3646 54.0216 59.816C54.1506 62.2674 55.3118 63.6867 57.6342 63.6867C59.9566 63.6867 61.737 61.9219 61.7629 59.816C61.7888 57.71 58.9103 56.4794 57.6342 56.4615ZM57.6342 56.4615C57.6342 54.8431 57.6702 53.9327 57.7273 52.1606C57.7529 51.3656 57.7827 50.3972 57.8154 49.1137C57.8429 48.0371 57.8724 46.7387 57.9031 45.1349M17.3816 49.1137C16.7008 49.5037 15.4595 50.3889 15.9406 50.8098C16.5419 51.3359 29.8079 49.4945 32.4009 49.1137C32.222 49.9855 32.0382 51.0384 31.8859 52.1606C31.6723 53.7349 31.5207 55.4456 31.5316 56.9839C31.5503 59.6454 32.0552 61.7908 33.5659 61.821C35.1741 61.8531 36.5171 59.643 37.52 56.9839C38.1138 55.4094 38.5885 53.6776 38.9284 52.1606C39.0876 51.45 39.2173 50.7865 39.3158 50.2085C40.1339 50.7741 41.1959 51.4599 42.3827 52.1606C46.1374 54.3773 51.1424 56.7428 53.6341 55.9208C55.5301 55.2953 54.4591 53.7253 52.5981 52.1606C51.2406 51.0192 49.4627 49.8807 48.1097 49.1137C47.6349 48.8982 46.3508 48.4577 45.0123 48.4195C45.4048 48.1519 45.5842 47.6712 45.4686 47.1763M17.3816 49.1137C19.3647 48.433 23.0327 47.2846 25.5926 46.7883M17.3816 49.1137H14.1758M27.8585 43.8304C24.1854 43.209 26.5603 45.4079 27.8585 46.5642C27.3574 46.5077 26.553 46.6021 25.5926 46.7883M27.8585 43.8304C29.595 45.5591 33.5133 47.5949 35.2941 41.9086M27.8585 43.8304C27.3269 41.6588 27.3893 37.4882 31.8918 38.1781M42.0007 45.5035C44.2479 45.4735 45.2744 46.3451 45.4686 47.1763M42.0007 45.5035C41.7887 45.7452 40.9549 46.3406 39.3158 46.7883C35.9155 47.3961 35.2179 43.7884 35.2941 41.9086M42.0007 45.5035C44.1486 42.3617 41.4043 39.8857 39.7637 39.0405M25.5926 46.7883C24.9273 44.3754 23.1244 39.2753 21.2348 38.1781M21.2348 38.1781C20.5129 39.1369 18.4955 40.9518 16.2008 40.5408C16.0026 40.6618 15.4072 40.698 14.3909 40.1582M21.2348 38.1781C22.0256 36.2685 22.7938 32.0383 19.5401 30.3943C18.811 30.0298 18.1356 30.3742 17.6269 30.8787M17.6269 30.8787C17.12 31.3814 16.7786 32.0431 16.7145 32.3209C16.5861 32.8774 14.6595 32.2352 14.1458 33.1343C13.632 34.0333 14.6167 35.703 13.8033 36.2596C13.5088 36.4611 13.102 36.7467 12.8005 37.1003C12.2691 37.7234 12.0642 38.5574 13.3752 39.5133C13.7511 39.7874 14.0895 39.9981 14.3909 40.1582M17.6269 30.8787C16.9228 30.2709 15.8123 29.512 14.6139 29.0515C14.7388 22.8682 14.8413 17.7254 14.8659 15.6145M45.4686 47.1763C46.3433 45.5867 48.5789 42.3076 50.5242 41.9086M50.5242 41.9086C51.1062 43.4323 53.1429 46.2845 56.6345 45.5035C57.174 45.4562 57.5884 45.3238 57.9031 45.1349M50.5242 41.9086C50.0694 39.5581 50.0547 34.8459 53.6341 34.8007C55.434 34.778 56.2007 35.1351 56.5026 35.6073M56.5026 35.6073C56.9511 36.309 56.3736 37.2648 56.6345 37.6064C57.0709 38.1781 58.4672 37.9182 58.4672 39.0405C58.4672 40.1628 57.9209 41.2199 58.271 41.5642C58.4138 41.7046 58.704 42.3385 58.7791 43.0593M56.5026 35.6073C56.9613 35.4215 57.5122 35.2368 58.1013 35.0903M58.7791 43.0593C60.4068 42.8417 63.6378 41.4467 63.54 37.6064C63.4617 34.5304 60.4725 34.5005 58.1013 35.0903M58.7791 43.0593C58.8574 43.8103 58.702 44.6554 57.9031 45.1349M58.1013 35.0903C58.1413 33.1054 58.1807 31.1653 58.2179 29.3256M14.3909 40.1582C14.3122 44.1488 14.2366 46.941 14.1758 49.1137M35.2941 41.9086C33.5596 41.9086 32.6924 39.5133 31.8918 38.1781M35.2941 41.9086C36.6283 41.4306 39.0966 40.4745 39.7637 39.0405M31.8918 38.1781C32.0615 37.3212 32.6257 34.5544 33.9599 33.6872M31.8918 38.1781C30.1574 37.6064 25.1675 38.7534 26.8219 33.1343C28.4763 27.5152 32.2699 31.1616 33.9599 33.6872M39.7637 39.0405C40.4308 37.6064 40.4308 35.6073 39.3158 34.2876M39.7637 39.0405C42.2836 39.6338 47.0923 39.7778 46.1678 35.6073C45.8188 34.0328 45.1303 33.1091 44.3166 32.6411M39.3158 34.2876C38.2008 32.9678 35.2941 32.82 33.9599 33.6872M39.3158 34.2876C39.3619 34.1765 39.421 34.0656 39.4915 33.9562M39.3158 34.2876C39.3742 34.1818 39.433 34.0711 39.4915 33.9562M33.9599 33.6872C33.0259 31.767 31.8918 27.0829 37.52 27.2163C41.8165 27.3181 40.7116 31.5589 39.4915 33.9562M33.9599 33.6872C32.9133 31.7392 30.5968 27.6198 29.703 26.726M29.703 26.726C25.9979 29.4299 24.1672 25.5994 23.715 23.3461M29.703 26.726C29.703 25.5585 33.5505 23.1249 27.8585 20.1013M44.3166 32.6411L46.1678 29.9644M44.3166 32.6411C42.5881 31.6468 40.2948 32.7089 39.4915 33.9562M46.1678 29.9644C42.6827 26.0953 46.1961 24.16 48.3884 23.676M46.1678 29.9644C48.0216 31.1278 51.8365 32.0187 52.266 26.2748M23.715 23.3461C26.8219 23.1249 27.8585 21.1338 27.8585 20.1013M23.715 23.3461C22.1748 23.4558 20.4807 21.7062 20.1015 20.1013M23.715 23.3461C23.1697 25.58 21.2918 29.3281 18.1431 26.4493C15.3128 23.8616 17.5657 21.5373 19.4772 20.4281M27.8585 20.1013C27.8585 19.0689 27.8585 16.8566 26.2224 15.7794M27.8585 20.1013C29.8257 20.7159 33.6243 20.942 33.0806 16.9303C32.4009 11.9157 28.1397 13.2274 26.2224 15.7794M26.2224 15.7794C27.416 13.608 28.5856 9.30847 23.715 9.4821C18.8445 9.65574 20.2769 13.7527 21.6019 15.7794M26.2224 15.7794C24.7483 14.809 22.8018 14.6657 21.6019 15.7794M20.1015 20.1013C19.716 18.4691 20.6634 16.9738 21.2348 16.1929C21.347 16.0395 21.4699 15.9019 21.6019 15.7794M20.1015 20.1013C19.9118 20.2185 19.7015 20.3301 19.4772 20.4281M20.1015 20.1013C19.9029 20.194 19.6922 20.3034 19.4772 20.4281M21.6019 15.7794C20.4507 14.1495 17.4919 11.8345 14.8659 15.6145M14.8659 15.6145C14.8696 15.298 14.8715 15.0497 14.8715 14.8763C14.8715 10.2315 25.4832 1.20001 36.7339 1.20001C47.9846 1.20001 58.4672 11.7798 58.4672 15.7794C58.4672 16.0058 58.4629 16.4017 58.455 16.9446M14.8659 15.6145C14.8659 21.119 17.6387 21.2317 19.4772 20.4281M48.3884 23.676C48.1247 22.149 48.2198 19.5225 49.3462 18.8653M48.3884 23.676C48.8854 24.5553 50.309 26.1927 52.266 26.2748M48.3884 23.676C46.1227 24.1108 41.8911 23.8888 43.0903 19.5225C44.2822 15.1827 47.3299 17.3738 48.6909 18.4179M49.3462 18.8653C50.7259 18.0603 53.3995 18.6541 54.4969 19.3065M49.3462 18.8653C49.3027 18.8748 49.1842 18.7944 49.0083 18.6615M49.3462 18.8653C49.2295 18.8036 49.1167 18.7354 49.0083 18.6615M52.266 26.2748C52.4407 26.2822 52.6198 26.2771 52.8028 26.258C54.4495 26.0859 55.1534 24.9856 55.4195 23.676M52.266 26.2748C52.3614 27.935 53.1437 31.1638 55.5097 30.7973C56.7929 30.5985 57.6525 29.9905 58.2179 29.3256M55.4195 23.676C55.6043 22.7666 55.578 21.7562 55.5097 20.8858C55.4525 20.1563 55.071 19.6479 54.4969 19.3065M55.4195 23.676C56.193 23.7447 57.2938 23.7298 58.3347 23.5043M55.4195 23.676C56.8135 24.0319 57.7217 24.6575 58.2991 25.2906M54.4969 19.3065C55.786 17.1108 57.1445 12.7886 52.266 13.0654C46.7538 13.378 46.8145 16.804 48.6909 18.4179M54.4969 19.3065C56.1553 17.5398 57.4547 16.9085 58.455 16.9446M58.455 16.9446C60.2509 17.0095 61.0829 19.226 61.2984 20.8858C61.1809 22.4328 59.8187 23.1827 58.3347 23.5043M58.3347 23.5043C58.3233 24.078 58.3115 24.6743 58.2991 25.2906M58.2991 25.2906C59.0457 26.109 59.2396 26.9398 59.2161 27.2163C59.1926 27.4939 58.9556 28.4581 58.2179 29.3256M49.0083 18.6615C48.8976 18.5861 48.7916 18.5046 48.6909 18.4179M49.0083 18.6615C48.9171 18.5927 48.8105 18.5097 48.6909 18.4179" stroke="#273210" stroke-width="0.5" stroke-linecap="round" stroke-linejoin="round"/>
</svg>
